<svg width="26" height="26" viewBox="0 0 26 26" fill="none" xmlns="http://www.w3.org/2000/svg">
<path d="M16.8665 6.61136C18.2779 6.61136 19.4221 7.75552 19.4221 9.16691M24.5332 9.16691C24.5332 13.4011 21.1007 16.8336 16.8665 16.8336C16.092 16.8336 15.3443 16.7187 14.6395 16.5051L11.7554 19.3891H9.19987V21.9447H6.64431V24.5002H2.81098C2.10528 24.5002 1.5332 23.9282 1.5332 23.2225V19.9184C1.5332 19.5795 1.66782 19.2545 1.90745 19.0149L9.52835 11.394C9.31473 10.6892 9.19987 9.94146 9.19987 9.16691C9.19987 4.93273 12.6324 1.50024 16.8665 1.50024C21.1007 1.50024 24.5332 4.93273 24.5332 9.16691Z" stroke="#07619D" stroke-width="2" stroke-linecap="round" stroke-linejoin="round"/>
</svg>
