<svg width="151" height="150" viewBox="0 0 151 150" fill="none" xmlns="http://www.w3.org/2000/svg">
<rect x="0.501465" width="150" height="150" rx="5" fill="#36AA3B" fill-opacity="0.1"/>
<path d="M33.3866 87.5243H31.5857C31.5164 87.1394 31.3875 86.8008 31.199 86.5083C31.0104 86.2159 30.7795 85.9677 30.5063 85.7637C30.2331 85.5598 29.9271 85.4059 29.5885 85.302C29.2537 85.1981 28.8978 85.1461 28.5206 85.1461C27.8395 85.1461 27.2296 85.3173 26.6908 85.6598C26.156 86.0023 25.7327 86.5045 25.421 87.1664C25.1131 87.8283 24.9592 88.6364 24.9592 89.5907C24.9592 90.5527 25.1131 91.3647 25.421 92.0266C25.7327 92.6885 26.1579 93.1887 26.6966 93.5274C27.2354 93.866 27.8414 94.0353 28.5149 94.0353C28.8881 94.0353 29.2422 93.9853 29.577 93.8852C29.9156 93.7813 30.2215 93.6293 30.4947 93.4292C30.768 93.2291 30.9988 92.9848 31.1874 92.6962C31.3798 92.4037 31.5126 92.0689 31.5857 91.6918L33.3866 91.6976C33.2904 92.2786 33.1038 92.8135 32.8267 93.3022C32.5535 93.7871 32.2014 94.2066 31.7704 94.5606C31.3433 94.9108 30.8545 95.1821 30.3043 95.3745C29.754 95.5669 29.1537 95.6631 28.5033 95.6631C27.4797 95.6631 26.5677 95.4207 25.7673 94.9358C24.9669 94.4471 24.3358 93.7486 23.874 92.8405C23.4161 91.9323 23.1871 90.8491 23.1871 89.5907C23.1871 88.3285 23.418 87.2453 23.8798 86.341C24.3416 85.4328 24.9727 84.7363 25.7731 84.2514C26.5735 83.7627 27.4836 83.5183 28.5033 83.5183C29.1306 83.5183 29.7155 83.6088 30.2581 83.7896C30.8045 83.9666 31.2952 84.2283 31.73 84.5747C32.1648 84.9171 32.5246 85.3366 32.8094 85.833C33.0942 86.3256 33.2866 86.8893 33.3866 87.5243ZM35.5209 95.5015V83.68H37.3045V93.9661H42.6611V95.5015H35.5209ZM46.4795 83.68V95.5015H44.6958V83.68H46.4795ZM53.4234 91.6687H55.1782L56.4135 93.2792L56.9964 93.9949L58.9648 96.5636H57.1408L55.8247 94.8492L55.3745 94.2258L53.4234 91.6687ZM59.3457 89.5907C59.3457 90.8529 59.1149 91.9381 58.6531 92.8462C58.1913 93.7506 57.5583 94.4471 56.754 94.9358C55.9536 95.4207 55.0435 95.6631 54.0238 95.6631C53.0001 95.6631 52.0862 95.4207 51.282 94.9358C50.4815 94.4471 49.8504 93.7486 49.3887 92.8405C48.9269 91.9323 48.696 90.8491 48.696 89.5907C48.696 88.3285 48.9269 87.2453 49.3887 86.341C49.8504 85.4328 50.4815 84.7363 51.282 84.2514C52.0862 83.7627 53.0001 83.5183 54.0238 83.5183C55.0435 83.5183 55.9536 83.7627 56.754 84.2514C57.5583 84.7363 58.1913 85.4328 58.6531 86.341C59.1149 87.2453 59.3457 88.3285 59.3457 89.5907ZM57.5794 89.5907C57.5794 88.6287 57.4236 87.8186 57.1119 87.1606C56.804 86.4987 56.3807 85.9985 55.842 85.6598C55.3071 85.3173 54.701 85.1461 54.0238 85.1461C53.3426 85.1461 52.7346 85.3173 52.1997 85.6598C51.6648 85.9985 51.2415 86.4987 50.9298 87.1606C50.622 87.8186 50.4681 88.6287 50.4681 89.5907C50.4681 90.5527 50.622 91.3647 50.9298 92.0266C51.2415 92.6846 51.6648 93.1849 52.1997 93.5274C52.7346 93.866 53.3426 94.0353 54.0238 94.0353C54.701 94.0353 55.3071 93.866 55.842 93.5274C56.3807 93.1849 56.804 92.6846 57.1119 92.0266C57.4236 91.3647 57.5794 90.5527 57.5794 89.5907ZM69.1715 83.68H70.9609V91.4551C70.9609 92.2825 70.7666 93.0156 70.3779 93.6544C69.9892 94.2893 69.4428 94.7896 68.7386 95.1551C68.0344 95.5169 67.2089 95.6977 66.2623 95.6977C65.3195 95.6977 64.496 95.5169 63.7918 95.1551C63.0876 94.7896 62.5411 94.2893 62.1525 93.6544C61.7638 93.0156 61.5695 92.2825 61.5695 91.4551V83.68H63.3531V91.3108C63.3531 91.8457 63.4705 92.321 63.7052 92.7366C63.9438 93.1522 64.2805 93.4793 64.7154 93.7178C65.1502 93.9526 65.6658 94.07 66.2623 94.07C66.8626 94.07 67.3802 93.9526 67.815 93.7178C68.2537 93.4793 68.5885 93.1522 68.8194 92.7366C69.0541 92.321 69.1715 91.8457 69.1715 91.3108V83.68ZM73.5541 95.5015V83.68H80.9656V85.2154H75.3377V88.8172H80.5789V90.3469H75.3377V93.9661H81.0349V95.5015H73.5541ZM87.6498 95.5015V83.68H91.8635C92.7833 83.68 93.5452 83.8474 94.1493 84.1821C94.7535 84.5169 95.2057 84.9749 95.5058 85.5559C95.806 86.1332 95.956 86.7835 95.956 87.5069C95.956 88.2342 95.804 88.8884 95.5 89.4695C95.1999 90.0467 94.7458 90.5046 94.1378 90.8433C93.5336 91.1781 92.7736 91.3455 91.8578 91.3455H88.9601V89.8331H91.6962C92.2772 89.8331 92.7486 89.7331 93.1103 89.533C93.4721 89.329 93.7376 89.052 93.9069 88.7018C94.0762 88.3516 94.1609 87.9533 94.1609 87.5069C94.1609 87.0606 94.0762 86.6642 93.9069 86.3179C93.7376 85.9715 93.4701 85.7002 93.1046 85.504C92.7428 85.3077 92.2657 85.2096 91.6731 85.2096H89.4334V95.5015H87.6498ZM97.7916 95.5015H95.8983L100.152 83.68H102.213L106.467 95.5015H104.574L101.232 85.8272H101.14L97.7916 95.5015ZM98.1091 90.8721H104.251V92.3729H98.1091V90.8721ZM108.174 95.5015V83.68H112.388C113.304 83.68 114.064 83.8377 114.668 84.1533C115.276 84.4688 115.73 84.9056 116.03 85.4636C116.331 86.0177 116.481 86.6584 116.481 87.3857C116.481 88.1092 116.329 88.746 116.025 89.2963C115.724 89.8428 115.27 90.268 114.662 90.572C114.058 90.876 113.298 91.028 112.382 91.028H109.19V89.4926H112.221C112.798 89.4926 113.267 89.4098 113.629 89.2444C113.995 89.0789 114.262 88.8384 114.431 88.5229C114.601 88.2073 114.685 87.8283 114.685 87.3857C114.685 86.9393 114.599 86.5526 114.426 86.2255C114.256 85.8984 113.989 85.6483 113.623 85.4751C113.262 85.2981 112.786 85.2096 112.198 85.2096H109.958V95.5015H108.174ZM114.01 90.1679L116.931 95.5015H114.899L112.036 90.1679H114.01ZM119.65 95.5015H117.756L122.01 83.68H124.071L128.325 95.5015H126.432L123.09 85.8272H122.997L119.65 95.5015ZM119.967 90.8721H126.109V92.3729H119.967V90.8721Z" fill="#183B78"/>
<path d="M23.2096 101.775V100.366H31.6047V101.775H28.2202V111.213H26.5888V101.775H23.2096ZM42.4164 105.79C42.4164 106.948 42.2045 107.944 41.7808 108.777C41.357 109.607 40.7762 110.246 40.0382 110.694C39.3037 111.139 38.4686 111.362 37.5329 111.362C36.5936 111.362 35.755 111.139 35.017 110.694C34.2826 110.246 33.7035 109.605 33.2797 108.772C32.856 107.938 32.6441 106.944 32.6441 105.79C32.6441 104.631 32.856 103.637 33.2797 102.808C33.7035 101.974 34.2826 101.335 35.017 100.89C35.755 100.442 36.5936 100.218 37.5329 100.218C38.4686 100.218 39.3037 100.442 40.0382 100.89C40.7762 101.335 41.357 101.974 41.7808 102.808C42.2045 103.637 42.4164 104.631 42.4164 105.79ZM40.7956 105.79C40.7956 104.907 40.6526 104.164 40.3666 103.56C40.0841 102.952 39.6957 102.493 39.2013 102.183C38.7105 101.868 38.1544 101.711 37.5329 101.711C36.9079 101.711 36.35 101.868 35.8592 102.183C35.3684 102.493 34.9799 102.952 34.6939 103.56C34.4114 104.164 34.2702 104.907 34.2702 105.79C34.2702 106.672 34.4114 107.417 34.6939 108.025C34.9799 108.629 35.3684 109.088 35.8592 109.402C36.35 109.713 36.9079 109.868 37.5329 109.868C38.1544 109.868 38.7105 109.713 39.2013 109.402C39.6957 109.088 40.0841 108.629 40.3666 108.025C40.6526 107.417 40.7956 106.672 40.7956 105.79ZM44.4569 111.213V100.366H48.3234C49.1638 100.366 49.8612 100.511 50.4155 100.8C50.9735 101.09 51.3901 101.491 51.6655 102.003C51.941 102.511 52.0787 103.099 52.0787 103.766C52.0787 104.43 51.9392 105.015 51.6602 105.52C51.3848 106.021 50.9682 106.411 50.4103 106.69C49.8559 106.969 49.1585 107.109 48.3181 107.109H45.3891V105.7H48.1698C48.6995 105.7 49.1302 105.624 49.4622 105.472C49.7976 105.32 50.043 105.099 50.1984 104.81C50.3538 104.52 50.4314 104.172 50.4314 103.766C50.4314 103.357 50.352 103.002 50.1931 102.702C50.0377 102.402 49.7923 102.172 49.4569 102.013C49.1249 101.851 48.6889 101.77 48.1486 101.77H46.0935V111.213H44.4569ZM49.8117 106.319L52.4918 111.213H50.6274L48.0003 106.319H49.8117ZM62.8255 100.366V111.213H61.3212L55.8075 103.258H55.7069V111.213H54.0702V100.366H55.585L61.1041 108.332H61.2047V100.366H62.8255ZM66.1292 111.213H64.3919L68.2955 100.366H70.1864L74.09 111.213H72.3527L69.286 102.336H69.2013L66.1292 111.213ZM66.4205 106.966H72.0561V108.343H66.4205V106.966ZM75.6565 111.213V100.366H79.523C80.3634 100.366 81.0608 100.511 81.6152 100.8C82.1731 101.09 82.5897 101.491 82.8652 102.003C83.1406 102.511 83.2783 103.099 83.2783 103.766C83.2783 104.43 83.1388 105.015 82.8599 105.52C82.5844 106.021 82.1678 106.411 81.6099 106.69C81.0555 106.969 80.3581 107.109 79.5177 107.109H76.5887V105.7H79.3694C79.8991 105.7 80.3298 105.624 80.6618 105.472C80.9972 105.32 81.2426 105.099 81.398 104.81C81.5534 104.52 81.631 104.172 81.631 103.766C81.631 103.357 81.5516 103.002 81.3927 102.702C81.2373 102.402 80.9919 102.172 80.6565 102.013C80.3246 101.851 79.8885 101.77 79.3482 101.77H77.2931V111.213H75.6565ZM81.0113 106.319L83.6914 111.213H81.827L79.1999 106.319H81.0113ZM98.2266 103.893H96.5741C96.5105 103.54 96.3922 103.23 96.2192 102.961C96.0462 102.693 95.8343 102.465 95.5836 102.278C95.3329 102.091 95.0522 101.95 94.7414 101.854C94.4342 101.759 94.1076 101.711 93.7616 101.711C93.1366 101.711 92.5769 101.868 92.0826 102.183C91.5917 102.497 91.2033 102.958 90.9173 103.565C90.6348 104.172 90.4936 104.914 90.4936 105.79C90.4936 106.672 90.6348 107.417 90.9173 108.025C91.2033 108.632 91.5935 109.091 92.0879 109.402C92.5822 109.713 93.1383 109.868 93.7563 109.868C94.0988 109.868 94.4236 109.822 94.7309 109.73C95.0416 109.635 95.3223 109.496 95.573 109.312C95.8237 109.128 96.0356 108.904 96.2086 108.639C96.3852 108.371 96.507 108.064 96.5741 107.718L98.2266 107.723C98.1383 108.256 97.9671 108.747 97.7128 109.195C97.4621 109.64 97.139 110.025 96.7436 110.35C96.3516 110.671 95.9032 110.92 95.3982 111.097C94.8933 111.273 94.3424 111.362 93.7457 111.362C92.8064 111.362 91.9696 111.139 91.2351 110.694C90.5006 110.246 89.9215 109.605 89.4978 108.772C89.0776 107.938 88.8675 106.944 88.8675 105.79C88.8675 104.631 89.0794 103.637 89.5031 102.808C89.9268 101.974 90.5059 101.335 91.2404 100.89C91.9749 100.442 92.81 100.218 93.7457 100.218C94.3212 100.218 94.858 100.301 95.3559 100.467C95.8573 100.629 96.3075 100.869 96.7065 101.187C97.1055 101.501 97.4356 101.886 97.6969 102.342C97.9582 102.794 98.1348 103.311 98.2266 103.893ZM101.029 111.213H99.2912L103.195 100.366H105.086L108.989 111.213H107.252L104.185 102.336H104.101L101.029 111.213ZM101.32 106.966H106.955V108.343H101.32V106.966ZM110.556 111.213V100.366H114.422C115.266 100.366 115.965 100.52 116.52 100.827C117.074 101.134 117.489 101.554 117.764 102.087C118.04 102.617 118.178 103.214 118.178 103.878C118.178 104.545 118.038 105.145 117.759 105.678C117.484 106.208 117.067 106.628 116.509 106.939C115.955 107.246 115.257 107.4 114.417 107.4H111.758V106.012H114.269C114.802 106.012 115.234 105.92 115.566 105.737C115.898 105.55 116.142 105.295 116.297 104.974C116.453 104.653 116.53 104.287 116.53 103.878C116.53 103.468 116.453 103.104 116.297 102.786C116.142 102.469 115.896 102.22 115.561 102.04C115.229 101.86 114.791 101.77 114.247 101.77H112.192V111.213H110.556ZM119.862 111.213H118.125L122.028 100.366H123.919L127.823 111.213H126.085L123.019 102.336H122.934L119.862 111.213ZM120.153 106.966H125.789V108.343H120.153V106.966Z" fill="#183B78"/>
<path fill-rule="evenodd" clip-rule="evenodd" d="M62.7951 34.8363C57.1754 35.1889 52.4312 38.6569 50.4208 43.8821C50.0818 44.7629 49.7323 46.2691 49.606 47.3925C48.9674 53.0701 52.154 58.8139 57.3414 61.3351C58.4152 61.857 59.7824 62.3397 60.1871 62.3397C60.512 62.3397 60.9964 62.0819 61.1257 61.8403C61.3638 61.3955 61.144 60.5288 60.7537 60.3733C60.6544 60.3338 60.1869 60.164 59.7148 59.996C57.8507 59.3327 56.4255 58.4358 55.1294 57.1109C53.4017 55.3445 52.3252 53.3081 51.8798 50.9631C51.6587 49.799 51.6594 47.828 51.8813 46.6498C52.6792 42.4126 55.724 38.9397 59.8512 37.5592C62.4217 36.6993 65.5005 36.821 68.0864 37.8846C71.142 39.1414 73.639 41.85 74.7511 45.1143C75.1261 46.2148 75.4044 46.535 75.9733 46.5201C76.5141 46.5059 76.8511 46.2627 76.9949 45.7828C77.104 45.4188 77.082 45.2906 76.742 44.3063C76.003 42.1672 74.9675 40.5179 73.3529 38.9085C70.9507 36.514 67.9908 35.1518 64.5747 34.8687C63.9292 34.8152 63.3783 34.7789 63.3506 34.788C63.3228 34.7972 63.0728 34.8189 62.7951 34.8363ZM61.8249 39.2613C58.7249 39.8503 56.032 41.9469 54.7154 44.7967C54.05 46.2367 53.9096 46.9396 53.9145 48.8064C53.9183 50.3251 53.9432 50.5534 54.1944 51.3818C54.5161 52.442 55.2366 53.9146 55.7511 54.5631C57.0744 56.2312 59.0773 57.6939 60.038 57.6939C60.8527 57.6939 61.3315 56.6935 60.825 56.0495C60.7135 55.9078 60.2654 55.586 59.8291 55.3344C58.0255 54.2941 56.7787 52.6649 56.2199 50.6185C56.0004 49.8146 55.9701 47.889 56.1644 47.0895C56.2387 46.784 56.528 46.0587 56.8073 45.4777C57.2552 44.5462 57.4243 44.3126 58.2372 43.5028C59.0115 42.7316 59.3131 42.5088 60.1188 42.1127C61.3331 41.5157 62.21 41.3075 63.5021 41.3099C64.7877 41.3123 65.6752 41.521 66.8751 42.1032C67.6642 42.4862 67.9727 42.7112 68.7043 43.438C69.3052 44.035 69.7367 44.5782 70.0648 45.1509C70.5941 46.075 70.8504 46.3018 71.3655 46.3018C72.0561 46.3018 72.5164 45.7308 72.386 45.0359C72.2832 44.488 71.3887 43.1131 70.5827 42.2643C69.128 40.7323 67.7617 39.9185 65.7744 39.4004C64.7565 39.1351 62.844 39.0677 61.8249 39.2613ZM86.3773 42.5565C85.1751 42.7579 83.9274 43.7006 83.4518 44.7667C83.3154 45.0722 83.1939 45.3379 83.1817 45.3572C83.1695 45.3765 82.8506 45.2401 82.4729 45.0542C81.8201 44.7328 81.7315 44.7162 80.6732 44.7162C79.6346 44.7162 79.5162 44.7373 78.9037 45.0313C78.0879 45.4228 77.3733 46.1335 76.9682 46.9564L76.6598 47.5828L76.2921 47.3401C75.7233 46.9646 74.7399 46.7519 73.8748 46.817C72.4893 46.9216 71.1162 47.8226 70.5547 48.9958C70.4052 49.3083 70.2676 49.5836 70.249 49.6075C70.2303 49.6316 69.2727 48.7196 68.1209 47.581C66.9692 46.4424 65.8084 45.3853 65.5413 45.2319C64.8274 44.8222 63.7058 44.6171 62.9278 44.7541C62.2347 44.8762 61.2158 45.3347 60.8092 45.7072C59.3337 47.0598 59.0007 49.1793 59.989 50.9273C60.1474 51.2076 63.1129 54.2547 67.7233 58.8745C74.388 65.5528 75.1742 66.3733 74.9565 66.4237C74.8223 66.4548 72.8264 66.7753 70.5212 67.136C68.216 67.4967 66.1481 67.842 65.9259 67.9034C63.8704 68.4711 62.2642 70.7506 62.4727 72.8041C62.6197 74.2505 63.6883 75.3902 65.1594 75.6692C65.8873 75.8073 85.4155 75.8062 86.9767 75.668C89.2254 75.4689 91.0965 74.7793 92.9419 73.4694C93.7438 72.9002 97.6816 69.0384 98.5189 68.0001C99.2527 67.09 99.5276 66.6629 100.017 65.6725C100.763 64.1628 101.222 62.1811 101.222 60.4713C101.223 58.113 100.322 55.3974 98.9201 53.5312C97.9016 52.1755 89.9598 43.5323 89.3897 43.159C88.5312 42.597 87.4393 42.3786 86.3773 42.5565ZM88.1075 44.8934C88.4031 45.0761 94.2582 51.4047 96.612 54.0859C98.2129 55.9094 99.0209 58.068 99.0209 60.5218C99.0209 62.484 98.4831 64.2983 97.4316 65.8826C96.849 66.7605 93.2952 70.4229 92.0844 71.3931C91.1107 72.1734 89.8621 72.835 88.6434 73.2166L87.7407 73.4991L76.5423 73.5275C64.1115 73.5591 65.0056 73.6071 64.7069 72.8923C64.5337 72.4778 64.6559 71.6792 64.9702 71.1706C65.2364 70.7399 65.7915 70.255 66.2264 70.0733C66.4153 69.9943 68.9247 69.5614 71.8026 69.111C74.6806 68.6608 77.2678 68.2463 77.552 68.19C78.3236 68.0372 78.721 67.4898 78.5549 66.8087C78.5089 66.6203 75.8082 63.8487 70.1653 58.1989C61.858 49.8813 61.5317 49.5294 61.5333 48.8854C61.5351 48.1134 62.1494 47.2016 62.816 46.9817C63.3095 46.8188 63.986 46.8464 64.3835 47.0457C64.5653 47.1368 67.2136 49.7013 70.2687 52.7447C73.3238 55.7882 75.9304 58.3327 76.0612 58.3993C76.6826 58.7156 77.4898 58.132 77.4898 57.3664C77.4898 56.9619 77.4384 56.9016 75.0205 54.4705C73.4207 52.8622 72.4959 51.8556 72.3946 51.6123C71.8713 50.3567 72.8422 48.9085 74.2075 48.9085C74.9452 48.9085 75.1643 49.0776 77.7524 51.6447C80.2313 54.1035 80.2965 54.1591 80.6988 54.1591C81.4641 54.1591 82.0481 53.3484 81.7276 52.7306C81.6597 52.5998 81.0014 51.8776 80.2647 51.1257C78.8962 49.7291 78.7037 49.4274 78.7023 48.677C78.7009 47.9779 79.3675 47.0657 80.0102 46.8871C80.4743 46.7582 81.0416 46.7597 81.3862 46.8907C81.5368 46.9479 82.3087 47.6296 83.1016 48.4056C84.0499 49.3335 84.6238 49.8217 84.7785 49.8321C85.2904 49.8663 85.5309 49.7928 85.8103 49.5171C86.2285 49.1045 86.2171 48.538 85.7795 47.9935C84.8826 46.8774 84.9971 45.6301 86.0581 44.9572C86.6622 44.5741 87.5463 44.5466 88.1075 44.8934Z" fill="#183B78"/>
</svg>
