<svg width="32" height="33" viewBox="0 0 32 33" fill="none" xmlns="http://www.w3.org/2000/svg">
<path d="M16.0001 32.3886C15.357 32.3886 14.8183 32.1707 14.384 31.7349C13.9482 31.3006 13.7303 30.7619 13.7303 30.1188V18.7699H2.38136C1.73825 18.7699 1.1988 18.552 0.763001 18.1162C0.328715 17.6819 0.111572 17.1432 0.111572 16.5001C0.111572 15.857 0.328715 15.3175 0.763001 14.8817C1.1988 14.4474 1.73825 14.2303 2.38136 14.2303H13.7303V2.88136C13.7303 2.23825 13.9482 1.6988 14.384 1.263C14.8183 0.828715 15.357 0.611572 16.0001 0.611572C16.6432 0.611572 17.1826 0.828715 17.6184 1.263C18.0527 1.6988 18.2699 2.23825 18.2699 2.88136V14.2303H29.6188C30.2619 14.2303 30.8006 14.4474 31.2349 14.8817C31.6707 15.3175 31.8886 15.857 31.8886 16.5001C31.8886 17.1432 31.6707 17.6819 31.2349 18.1162C30.8006 18.552 30.2619 18.7699 29.6188 18.7699H18.2699V30.1188C18.2699 30.7619 18.0527 31.3006 17.6184 31.7349C17.1826 32.1707 16.6432 32.3886 16.0001 32.3886Z" fill="#36AA3B"/>
</svg>
