<svg width="60" height="60" viewBox="0 0 60 60" fill="none" xmlns="http://www.w3.org/2000/svg">
<path fill-rule="evenodd" clip-rule="evenodd" d="M32.2727 18.9393C32.8585 18.3536 33.8082 18.3536 34.394 18.9393L44.394 28.9393C44.9798 29.5251 44.9798 30.4749 44.394 31.0607L34.394 41.0607C33.8082 41.6464 32.8585 41.6464 32.2727 41.0607C31.6869 40.4749 31.6869 39.5251 32.2727 38.9393L39.712 31.5L16.6667 31.5C15.8382 31.5 15.1667 30.8284 15.1667 30C15.1667 29.1716 15.8382 28.5 16.6667 28.5L39.712 28.5L32.2727 21.0607C31.6869 20.4749 31.6869 19.5251 32.2727 18.9393ZM30 57C44.9117 57 57 44.9117 57 30C57 15.0883 44.9117 3 30 3C15.0883 3 3 15.0883 3 30C3 44.9117 15.0883 57 30 57ZM30 60C46.5685 60 60 46.5685 60 30C60 13.4315 46.5685 0 30 0C13.4315 0 0 13.4315 0 30C0 46.5685 13.4315 60 30 60Z" fill="#07619D"/>
</svg>
