<svg width="18" height="19" viewBox="0 0 18 19" fill="none" xmlns="http://www.w3.org/2000/svg">
<path d="M8.98701 11.3562C8.72404 11.3562 8.50377 11.2671 8.32619 11.0889C8.148 10.9113 8.0589 10.6911 8.0589 10.4281C8.0589 10.1651 8.148 9.94456 8.32619 9.76636C8.50377 9.58879 8.72404 9.5 8.98701 9.5C9.24997 9.5 9.47055 9.58879 9.64875 9.76636C9.82632 9.94456 9.91511 10.1651 9.91511 10.4281C9.91511 10.6911 9.82632 10.9113 9.64875 11.0889C9.47055 11.2671 9.24997 11.3562 8.98701 11.3562ZM5.27457 11.3562C5.01161 11.3562 4.79103 11.2671 4.61283 11.0889C4.43525 10.9113 4.34647 10.6911 4.34647 10.4281C4.34647 10.1651 4.43525 9.94456 4.61283 9.76636C4.79103 9.58879 5.01161 9.5 5.27457 9.5C5.53754 9.5 5.75812 9.58879 5.93631 9.76636C6.11389 9.94456 6.20268 10.1651 6.20268 10.4281C6.20268 10.6911 6.11389 10.9113 5.93631 11.0889C5.75812 11.2671 5.53754 11.3562 5.27457 11.3562ZM12.6994 11.3562C12.4365 11.3562 12.2162 11.2671 12.0386 11.0889C11.8604 10.9113 11.7713 10.6911 11.7713 10.4281C11.7713 10.1651 11.8604 9.94456 12.0386 9.76636C12.2162 9.58879 12.4365 9.5 12.6994 9.5C12.9624 9.5 13.1827 9.58879 13.3602 9.76636C13.5384 9.94456 13.6275 10.1651 13.6275 10.4281C13.6275 10.6911 13.5384 10.9113 13.3602 11.0889C13.1827 11.2671 12.9624 11.3562 12.6994 11.3562ZM8.98701 15.0686C8.72404 15.0686 8.50377 14.9795 8.32619 14.8013C8.148 14.6238 8.0589 14.4035 8.0589 14.1405C8.0589 13.8776 8.148 13.6573 8.32619 13.4797C8.50377 13.3015 8.72404 13.2124 8.98701 13.2124C9.24997 13.2124 9.47055 13.3015 9.64875 13.4797C9.82632 13.6573 9.91511 13.8776 9.91511 14.1405C9.91511 14.4035 9.82632 14.6238 9.64875 14.8013C9.47055 14.9795 9.24997 15.0686 8.98701 15.0686ZM5.27457 15.0686C5.01161 15.0686 4.79103 14.9795 4.61283 14.8013C4.43525 14.6238 4.34647 14.4035 4.34647 14.1405C4.34647 13.8776 4.43525 13.6573 4.61283 13.4797C4.79103 13.3015 5.01161 13.2124 5.27457 13.2124C5.53754 13.2124 5.75812 13.3015 5.93631 13.4797C6.11389 13.6573 6.20268 13.8776 6.20268 14.1405C6.20268 14.4035 6.11389 14.6238 5.93631 14.8013C5.75812 14.9795 5.53754 15.0686 5.27457 15.0686ZM12.6994 15.0686C12.4365 15.0686 12.2162 14.9795 12.0386 14.8013C11.8604 14.6238 11.7713 14.4035 11.7713 14.1405C11.7713 13.8776 11.8604 13.6573 12.0386 13.4797C12.2162 13.3015 12.4365 13.2124 12.6994 13.2124C12.9624 13.2124 13.1827 13.3015 13.3602 13.4797C13.5384 13.6573 13.6275 13.8776 13.6275 14.1405C13.6275 14.4035 13.5384 14.6238 13.3602 14.8013C13.1827 14.9795 12.9624 15.0686 12.6994 15.0686ZM2.49025 18.7811C1.97979 18.7811 1.54265 18.5995 1.17883 18.2363C0.815633 17.8725 0.634033 17.4353 0.634033 16.9249V3.93135C0.634033 3.42089 0.815633 2.98406 1.17883 2.62086C1.54265 2.25704 1.97979 2.07513 2.49025 2.07513H3.41836V1.14703C3.41836 0.884062 3.50715 0.663481 3.68472 0.485285C3.86292 0.307707 4.0835 0.218918 4.34647 0.218918C4.60943 0.218918 4.83001 0.307707 5.00821 0.485285C5.18578 0.663481 5.27457 0.884062 5.27457 1.14703V2.07513H12.6994V1.14703C12.6994 0.884062 12.7885 0.663481 12.9667 0.485285C13.1443 0.307707 13.3646 0.218918 13.6275 0.218918C13.8905 0.218918 14.1108 0.307707 14.2884 0.485285C14.4666 0.663481 14.5557 0.884062 14.5557 1.14703V2.07513H15.4838C15.9942 2.07513 16.4314 2.25704 16.7952 2.62086C17.1584 2.98406 17.34 3.42089 17.34 3.93135V16.9249C17.34 17.4353 17.1584 17.8725 16.7952 18.2363C16.4314 18.5995 15.9942 18.7811 15.4838 18.7811H2.49025ZM2.49025 16.9249H15.4838V7.64378H2.49025V16.9249ZM2.49025 5.78757H15.4838V3.93135H2.49025V5.78757ZM2.49025 5.78757V3.93135V5.78757Z" fill="#999999"/>
</svg>
