<svg width="193" height="193" viewBox="0 0 193 193" fill="none" xmlns="http://www.w3.org/2000/svg">
<path fill-rule="evenodd" clip-rule="evenodd" d="M190.475 19.0275C193.351 21.9315 193.329 26.6174 190.425 29.4937L100.761 118.304C97.8777 121.159 93.2323 121.161 90.3476 118.306L63.4484 91.6899C60.543 88.815 60.5182 84.1291 63.3931 81.2237C66.268 78.3182 70.9539 78.2935 73.8593 81.1683L95.5504 102.631L180.009 18.9774C182.913 16.1011 187.599 16.1235 190.475 19.0275Z" fill="white"/>
<path d="M173.465 154C185.888 137.383 192.606 117.196 192.618 96.4486V88.2739C192.618 84.1865 189.304 80.8731 185.217 80.8731C181.129 80.8731 177.816 84.1865 177.816 88.2739V96.4402C177.806 113.995 172.121 131.077 161.61 145.138C151.099 159.198 136.324 169.484 119.489 174.462C102.655 179.439 84.6617 178.842 68.1944 172.758C51.7271 166.674 37.6675 155.43 28.1126 140.703C18.5577 125.976 14.0193 108.554 15.1744 91.0372C16.3295 73.52 23.1161 56.8455 34.5221 43.5005C45.9281 30.1555 61.3423 20.855 78.4659 16.9862C95.5895 13.1173 113.505 14.8874 129.54 22.0324C133.274 23.6959 137.649 22.0179 139.313 18.2844C140.976 14.5509 139.298 10.1757 135.565 8.51211C116.614 0.0680532 95.4409 -2.02383 75.2039 2.54845C54.9669 7.12073 36.7501 18.1122 23.2703 33.8836C9.79048 49.6549 1.76993 69.3611 0.404843 90.0633C-0.960248 110.765 4.40326 131.354 15.6954 148.759C26.9876 166.164 43.6035 179.452 63.0648 186.642C82.5262 193.832 103.79 194.538 123.686 188.656C143.582 182.773 161.043 170.617 173.465 154Z" fill="white"/>
</svg>
