<svg width="193" height="194" viewBox="0 0 193 194" fill="none" xmlns="http://www.w3.org/2000/svg">
<path fill-rule="evenodd" clip-rule="evenodd" d="M190.857 19.6299C193.734 22.5339 193.711 27.2198 190.807 30.0962L101.143 118.906C98.2601 121.762 93.6147 121.763 90.7299 118.909L63.8308 92.2923C60.9253 89.4174 60.9006 84.7315 63.7755 81.8261C66.6503 78.9206 71.3362 78.8959 74.2416 81.7708L95.9327 103.234L180.391 19.5799C183.295 16.7035 187.981 16.726 190.857 19.6299Z" fill="#36AA3B"/>
<path d="M173.848 154.603C186.27 137.986 192.988 117.798 193 97.051V88.8763C193 84.7889 189.686 81.4755 185.599 81.4755C181.512 81.4755 178.198 84.7889 178.198 88.8763V97.0426C178.188 114.598 172.504 131.679 161.992 145.74C151.481 159.801 136.706 170.087 119.872 175.064C103.037 180.042 85.0441 179.444 68.5767 173.36C52.1094 167.276 38.0499 156.032 28.4949 141.305C18.94 126.578 14.4017 109.157 15.5567 91.6396C16.7118 74.1224 23.4984 57.4479 34.9044 44.1029C46.3104 30.7579 61.7247 21.4574 78.8483 17.5886C95.9719 13.7197 113.887 15.4898 129.923 22.6348C133.656 24.2983 138.031 22.6203 139.695 18.8868C141.359 15.1533 139.681 10.7781 135.947 9.11453C116.996 0.67047 95.8232 -1.42141 75.5862 3.15087C55.3493 7.72315 37.1324 18.7146 23.6526 34.486C10.1728 50.2573 2.15226 69.9636 0.787167 90.6657C-0.577924 111.368 4.78558 131.957 16.0778 149.361C27.37 166.766 43.9858 180.055 63.4472 187.245C82.9086 194.434 104.173 195.141 124.068 189.258C143.964 183.376 161.425 171.22 173.848 154.603Z" fill="#36AA3B"/>
</svg>
