<svg width="23" height="23" viewBox="0 0 23 23" fill="none" xmlns="http://www.w3.org/2000/svg">
<path d="M10.3564 3.54149H3.35645C2.82601 3.54149 2.3173 3.7522 1.94223 4.12727C1.56716 4.50235 1.35645 5.01106 1.35645 5.54149V19.5415C1.35645 20.0719 1.56716 20.5806 1.94223 20.9557C2.3173 21.3308 2.82601 21.5415 3.35645 21.5415H17.3564C17.8869 21.5415 18.3956 21.3308 18.7707 20.9557C19.1457 20.5806 19.3564 20.0719 19.3564 19.5415V12.5415M17.8564 2.04149C18.2543 1.64366 18.7938 1.42017 19.3564 1.42017C19.9191 1.42017 20.4586 1.64366 20.8564 2.04149C21.2543 2.43931 21.4778 2.97888 21.4778 3.54149C21.4778 4.1041 21.2543 4.64366 20.8564 5.04149L11.3564 14.5415L7.35645 15.5415L8.35645 11.5415L17.8564 2.04149Z" stroke="#999999" stroke-width="2" stroke-linecap="round" stroke-linejoin="round"/>
</svg>
