<svg width="192" height="192" viewBox="0 0 192 192" fill="none" xmlns="http://www.w3.org/2000/svg">
<path fill-rule="evenodd" clip-rule="evenodd" d="M96.0003 14.1831C50.9015 14.1831 14.3418 50.7429 14.3418 95.8416C14.3418 140.94 50.9015 177.5 96.0003 177.5C141.099 177.5 177.659 140.94 177.659 95.8416C177.659 50.7429 141.099 14.1831 96.0003 14.1831ZM0.341797 95.8416C0.341797 43.0109 43.1696 0.183105 96.0003 0.183105C148.831 0.183105 191.659 43.0109 191.659 95.8416C191.659 148.672 148.831 191.5 96.0003 191.5C43.1696 191.5 0.341797 148.672 0.341797 95.8416Z" fill="#EB2D34"/>
<path fill-rule="evenodd" clip-rule="evenodd" d="M59.6114 59.1543C62.3451 56.4206 66.7772 56.4206 69.5109 59.1543L132.986 122.63C135.72 125.363 135.72 129.795 132.986 132.529C130.252 135.263 125.82 135.263 123.087 132.529L59.6114 69.0538C56.8777 66.3201 56.8777 61.888 59.6114 59.1543Z" fill="#EB2D34"/>
<path fill-rule="evenodd" clip-rule="evenodd" d="M132.389 59.1543C129.655 56.4206 125.223 56.4206 122.489 59.1543L59.0141 122.629C56.2805 125.363 56.2804 129.795 59.0141 132.529C61.7478 135.263 66.1799 135.263 68.9136 132.529L132.389 69.0538C135.122 66.3201 135.122 61.8879 132.389 59.1543Z" fill="#EB2D34"/>
</svg>
