<svg width="187" height="94" viewBox="0 0 187 94" fill="none" xmlns="http://www.w3.org/2000/svg">
<rect width="81.7147" height="77.2477" rx="5" transform="matrix(0.978629 0.205636 -0.231475 0.972841 105.693 0.67041)" stroke="#CCCCCC" stroke-width="3" stroke-linecap="round" stroke-linejoin="round"/>
<path d="M93.5361 48.1836L123.291 35.6543C125.538 34.708 128.11 35.4646 129.41 37.4543L135.374 46.5853C136.61 48.4789 139.012 49.2674 141.199 48.4983L144.563 47.316C146.7 46.565 149.047 47.298 150.309 49.1105L171.049 78.8906" stroke="#CCCCCC" stroke-width="3" stroke-linecap="round" stroke-linejoin="round"/>
<path d="M168.215 34.1417C167.147 38.632 162.349 41.5908 157.364 40.5434C152.379 39.4959 149.38 34.8987 150.448 30.4085C151.517 25.9183 156.314 22.9594 161.299 24.0069C166.284 25.0544 169.283 29.6515 168.215 34.1417Z" stroke="#CCCCCC" stroke-width="3" stroke-linecap="round" stroke-linejoin="round"/>
<rect width="81.806" height="77.1509" rx="5" transform="matrix(0.987254 -0.15915 0.179574 0.983745 1.74219 16.5948)" fill="white" stroke="#CCCCCC" stroke-width="3" stroke-linecap="round" stroke-linejoin="round"/>
<path d="M9.71264 64.8849L32.1752 42.6606C33.8675 40.9862 36.5439 40.7686 38.547 42.1423L47.7716 48.4686C49.678 49.7761 52.2097 49.6486 53.9185 48.1592L56.5677 45.8502C58.2363 44.3959 60.6958 44.2365 62.5928 45.4598L93.8278 65.6027" stroke="#CCCCCC" stroke-width="3" stroke-linecap="round" stroke-linejoin="round"/>
<path d="M73.1104 25.2237C73.9374 29.7542 70.6998 34.2065 65.6611 35.0188C60.6223 35.8311 55.9909 32.6473 55.1639 28.1167C54.3368 23.5862 57.5744 19.1339 62.6132 18.3216C67.6519 17.5093 72.2834 20.6931 73.1104 25.2237Z" fill="white" stroke="#CCCCCC" stroke-width="3" stroke-linecap="round" stroke-linejoin="round"/>
<rect x="55.8047" y="13.3912" width="81.943" height="77.0054" rx="5" fill="white" stroke="#CCCCCC" stroke-width="3" stroke-linecap="round" stroke-linejoin="round"/>
<path d="M54.9727 62.2526L81.1239 43.9077C83.0868 42.5307 85.7508 42.741 87.4733 44.4088L95.4467 52.1289C97.086 53.7161 99.592 53.9922 101.537 52.7998L104.591 50.9282C106.491 49.764 108.932 49.9972 110.576 51.5L137.748 76.3246" stroke="#CCCCCC" stroke-width="3" stroke-linecap="round" stroke-linejoin="round"/>
<path d="M124.596 33.2352C124.596 37.8253 120.607 41.7029 115.489 41.7029C110.37 41.7029 106.382 37.8253 106.382 33.2352C106.382 28.645 110.37 24.7675 115.489 24.7675C120.607 24.7675 124.596 28.645 124.596 33.2352Z" fill="white" stroke="#CCCCCC" stroke-width="3" stroke-linecap="round" stroke-linejoin="round"/>
</svg>
