<svg width="224" height="61" viewBox="0 0 224 61" fill="none" xmlns="http://www.w3.org/2000/svg">
<path d="M30.8085 14.8574C30.8085 14.3398 31.2281 13.9202 31.7457 13.9202H37.3688C37.8864 13.9202 38.306 14.3398 38.306 14.8574V54.9687C38.306 55.4863 37.8864 55.9059 37.3688 55.9059H15.4388C14.9212 55.9059 14.5016 55.4863 14.5016 54.9687V25.7287C14.5016 25.2111 14.9212 24.7915 15.4388 24.7915H21.0619C21.5794 24.7915 21.999 25.2111 21.999 25.7287V48.4084H30.8085V14.8574Z" fill="#FEAA00"/>
<path fill-rule="evenodd" clip-rule="evenodd" d="M30.3731 14.8574C30.3731 14.0993 30.9877 13.4848 31.7457 13.4848H37.3688C38.1269 13.4848 38.7414 14.0993 38.7414 14.8574V54.9687C38.7414 55.7268 38.1269 56.3413 37.3688 56.3413H15.4388C14.6807 56.3413 14.0662 55.7268 14.0662 54.9687V25.7287C14.0662 24.9706 14.6807 24.3561 15.4388 24.3561H21.0619C21.8199 24.3561 22.4345 24.9706 22.4345 25.7287V47.973H30.3731V14.8574ZM30.8085 14.8574C30.8085 14.3398 31.2281 13.9202 31.7457 13.9202H37.3688C37.8864 13.9202 38.306 14.3398 38.306 14.8574V54.9687C38.306 55.4863 37.8864 55.9059 37.3688 55.9059H15.4388C14.9212 55.9059 14.5016 55.4863 14.5016 54.9687V25.7287C14.5016 25.2111 14.9212 24.7915 15.4388 24.7915H21.0619C21.5795 24.7915 21.999 25.2111 21.999 25.7287V48.4085H30.8085V14.8574Z" fill="#FEAA00"/>
<path d="M37.3688 2.8615C37.8864 2.8615 38.306 3.28108 38.306 3.79868V9.42176C38.306 9.93936 37.8864 10.3589 37.3688 10.3589H11.1278V13.9202H24.4357C24.9533 13.9202 25.3729 14.3398 25.3729 14.8574V20.4805C25.3729 20.9981 24.9533 21.4177 24.4357 21.4177H11.1278V54.9687C11.1278 55.4863 10.7082 55.9059 10.1906 55.9059H4.56749C4.0499 55.9059 3.63031 55.4863 3.63031 54.9687V3.79868C3.63031 3.28108 4.0499 2.8615 4.56749 2.8615H37.3688Z" fill="#006CB5"/>
<path fill-rule="evenodd" clip-rule="evenodd" d="M37.3688 2.42606C38.1268 2.42606 38.7414 3.04059 38.7414 3.79867V9.42176C38.7414 10.1798 38.1268 10.7944 37.3688 10.7944H11.5631V13.4848H24.4357C25.1937 13.4848 25.8083 14.0993 25.8083 14.8574V20.4805C25.8083 21.2386 25.1937 21.8531 24.4357 21.8531H11.5631V54.9687C11.5631 55.7268 10.9486 56.3414 10.1905 56.3414H4.56744C3.80937 56.3414 3.19482 55.7268 3.19482 54.9687V3.79867C3.19482 3.04059 3.80937 2.42606 4.56744 2.42606H37.3688ZM11.1277 54.9687C11.1277 55.4863 10.7081 55.9059 10.1905 55.9059H4.56744C4.04985 55.9059 3.63026 55.4863 3.63026 54.9687V3.79867C3.63026 3.28107 4.04985 2.86149 4.56744 2.86149H37.3688C37.8863 2.86149 38.3059 3.28107 38.3059 3.79867V9.42176C38.3059 9.93936 37.8863 10.3589 37.3688 10.3589H11.1277V13.9202H24.4357C24.9533 13.9202 25.3729 14.3398 25.3729 14.8574V20.4805C25.3729 20.9981 24.9533 21.4177 24.4357 21.4177H11.1277V54.9687Z" fill="#006CB5"/>
<path d="M41.4924 3.79868C41.4924 3.28108 41.912 2.8615 42.4296 2.8615H48.0526C48.5326 2.8615 48.9284 3.22232 48.9833 3.68757C48.9937 3.70995 49.0034 3.73292 49.0122 3.75644L60.6109 34.7947V3.79868C60.6109 3.28108 61.0304 2.8615 61.548 2.8615H67.1711C67.6887 2.8615 68.1083 3.28108 68.1083 3.79868V54.9687C68.1083 55.4863 67.6887 55.9059 67.1711 55.9059H61.548C61.095 55.9059 60.717 55.5844 60.6298 55.1571C60.609 55.1181 60.5907 55.0773 60.5752 55.0346L48.9898 23.1738V54.9687C48.9898 55.4863 48.5702 55.9059 48.0526 55.9059H42.4296C41.912 55.9059 41.4924 55.4863 41.4924 54.9687V3.79868Z" fill="#FECD20"/>
<path fill-rule="evenodd" clip-rule="evenodd" d="M60.5752 55.0346L48.9898 23.1738V54.9687C48.9898 55.4863 48.5702 55.9059 48.0526 55.9059H42.4296C41.912 55.9059 41.4924 55.4863 41.4924 54.9687V3.79867C41.4924 3.28107 41.912 2.86149 42.4296 2.86149H48.0526C48.5327 2.86149 48.9284 3.22232 48.9833 3.68757C48.9937 3.70994 49.0034 3.73292 49.0122 3.75644L60.6109 34.7947V3.79867C60.6109 3.28107 61.0305 2.86149 61.548 2.86149H67.1711C67.6887 2.86149 68.1083 3.28107 68.1083 3.79867V54.9687C68.1083 55.4863 67.6887 55.9059 67.1711 55.9059H61.548C61.095 55.9059 60.717 55.5844 60.6298 55.1571C60.609 55.1181 60.5907 55.0773 60.5752 55.0346ZM60.2172 55.3058C60.1983 55.2662 60.1812 55.2254 60.166 55.1835L49.4253 25.6455V54.9687C49.4253 55.7268 48.8107 56.3414 48.0526 56.3414H42.4296C41.6715 56.3414 41.0569 55.7268 41.0569 54.9687V3.79867C41.0569 3.04059 41.6715 2.42606 42.4296 2.42606H48.0526C48.732 2.42606 49.2957 2.91928 49.4058 3.56749C49.4107 3.57957 49.4155 3.59173 49.42 3.60398L60.1754 32.3856V3.79867C60.1754 3.04059 60.79 2.42606 61.548 2.42606H67.1711C67.9292 2.42606 68.5437 3.04059 68.5437 3.79867V54.9687C68.5437 55.7268 67.9292 56.3414 67.1711 56.3414H61.548C60.9059 56.3414 60.3676 55.9009 60.2172 55.3058Z" fill="#FECD20"/>
<path fill-rule="evenodd" clip-rule="evenodd" d="M72.0445 2.8615C71.5269 2.8615 71.1073 3.28108 71.1073 3.79868V54.9687C71.1073 55.4863 71.5269 55.9059 72.0445 55.9059H77.6676C78.1852 55.9059 78.6047 55.4863 78.6047 54.9687V24.7915H103.534C104.051 24.7915 104.471 24.3719 104.471 23.8543V3.79868C104.471 3.28108 104.051 2.8615 103.534 2.8615H72.0445ZM78.6047 10.3589V17.2941H96.9735V10.3589H78.6047Z" fill="#EB2D34"/>
<path fill-rule="evenodd" clip-rule="evenodd" d="M70.6719 3.79867C70.6719 3.04059 71.2864 2.42606 72.0445 2.42606H103.534C104.292 2.42606 104.906 3.04059 104.906 3.79867V23.8543C104.906 24.6124 104.292 25.227 103.534 25.227H79.0402V54.9687C79.0402 55.7268 78.4257 56.3414 77.6676 56.3414H72.0445C71.2864 56.3414 70.6719 55.7268 70.6719 54.9687V3.79867ZM78.6048 54.9687C78.6048 55.4863 78.1852 55.9059 77.6676 55.9059H72.0445C71.5269 55.9059 71.1073 55.4863 71.1073 54.9687V3.79867C71.1073 3.28107 71.5269 2.86149 72.0445 2.86149H103.534C104.051 2.86149 104.471 3.28107 104.471 3.79867V23.8543C104.471 24.3719 104.051 24.7915 103.534 24.7915H78.6048V54.9687ZM78.6048 17.2941V10.3589H96.9735V17.2941H78.6048ZM96.5381 16.8586V10.7944H79.0402V16.8586H96.5381Z" fill="#EB2D34"/>
<path fill-rule="evenodd" clip-rule="evenodd" d="M81.4163 28.5402V54.9687C81.4163 55.4863 81.8358 55.9059 82.3534 55.9059H87.9765C88.4941 55.9059 88.9137 55.4863 88.9137 54.9687V48.9708H96.9735V54.9687C96.9735 55.4863 97.393 55.9059 97.9106 55.9059H103.534C104.051 55.9059 104.471 55.4863 104.471 54.9687V28.5402C104.471 28.0226 104.051 27.603 103.534 27.603H82.3534C81.8358 27.603 81.4163 28.0226 81.4163 28.5402ZM96.9735 41.4733V35.1005H88.9137V41.4733H96.9735Z" fill="#76A485"/>
<path fill-rule="evenodd" clip-rule="evenodd" d="M82.3535 56.3413C81.5954 56.3413 80.9809 55.7268 80.9809 54.9687V28.5402C80.9809 27.7821 81.5954 27.1676 82.3535 27.1676H103.534C104.292 27.1676 104.906 27.7821 104.906 28.5402V54.9687C104.906 55.7268 104.292 56.3413 103.534 56.3413H97.9107C97.1526 56.3413 96.5381 55.7268 96.5381 54.9687V49.4062H89.3492V54.9687C89.3492 55.7268 88.7347 56.3413 87.9766 56.3413H82.3535ZM88.9138 54.9687C88.9138 55.4863 88.4942 55.9059 87.9766 55.9059H82.3535C81.8359 55.9059 81.4163 55.4863 81.4163 54.9687V28.5402C81.4163 28.0226 81.8359 27.603 82.3535 27.603H103.534C104.051 27.603 104.471 28.0226 104.471 28.5402V54.9687C104.471 55.4863 104.051 55.9059 103.534 55.9059H97.9107C97.3931 55.9059 96.9735 55.4863 96.9735 54.9687V48.9708H88.9138V54.9687ZM96.9735 35.1005V41.4733H88.9138V35.1005H96.9735ZM89.3492 35.5359V41.0379H96.5381V35.5359H89.3492Z" fill="#76A485"/>
<path d="M130.712 2.8615C131.23 2.8615 131.649 3.28108 131.649 3.79868V15.0448C131.649 15.5624 131.23 15.982 130.712 15.982H125.089C124.571 15.982 124.152 15.5624 124.152 15.0448V10.3589H114.78V48.4085H124.152V43.7226C124.152 43.205 124.571 42.7854 125.089 42.7854H130.712C131.23 42.7854 131.649 43.205 131.649 43.7226V54.9687C131.649 55.4863 131.23 55.9059 130.712 55.9059H108.22C107.702 55.9059 107.282 55.4863 107.282 54.9687V3.79868C107.282 3.28108 107.702 2.8615 108.22 2.8615H130.712Z" fill="#07619D"/>
<path fill-rule="evenodd" clip-rule="evenodd" d="M130.712 2.42606C131.47 2.42606 132.085 3.04058 132.085 3.79867V15.0448C132.085 15.8029 131.47 16.4175 130.712 16.4175H125.089C124.331 16.4175 123.716 15.8029 123.716 15.0448V10.7944H115.215V47.973H123.716V43.7226C123.716 42.9645 124.331 42.3499 125.089 42.3499H130.712C131.47 42.3499 132.085 42.9645 132.085 43.7226V54.9687C132.085 55.7268 131.47 56.3414 130.712 56.3414H108.22C107.462 56.3414 106.847 55.7268 106.847 54.9687V3.79867C106.847 3.04059 107.462 2.42606 108.22 2.42606H130.712ZM124.152 43.7226C124.152 43.205 124.571 42.7854 125.089 42.7854H130.712C131.23 42.7854 131.649 43.205 131.649 43.7226V54.9687C131.649 55.4863 131.23 55.9059 130.712 55.9059H108.22C107.702 55.9059 107.282 55.4863 107.282 54.9687V3.79867C107.282 3.28107 107.702 2.86149 108.22 2.86149H130.712C131.23 2.86149 131.649 3.28107 131.649 3.79867V15.0448C131.649 15.5624 131.23 15.982 130.712 15.982H125.089C124.571 15.982 124.152 15.5624 124.152 15.0448V10.3589H114.78V48.4085H124.152V43.7226Z" fill="#07619D"/>
<path fill-rule="evenodd" clip-rule="evenodd" d="M60.9768 42.7082C60.6824 43.0457 60.6944 43.2222 61.2706 47.0048L61.8715 50.9492L60.7299 51.356C59.7393 51.7089 59.5206 51.8633 59.0765 52.5225C57.7701 54.4618 59.0168 55.9884 61.4221 55.395C62.6596 55.0897 63.4582 54.3844 63.5035 53.5566C63.5189 53.2718 63.254 51.1995 62.9145 48.9515C62.575 46.7034 62.261 44.2683 62.2168 43.5405L62.1362 42.2172L61.7101 42.2867C61.4756 42.325 61.1455 42.5146 60.9768 42.7082ZM61.8073 53.1989C61.8476 53.446 61.9055 53.4814 62.0169 53.3266C62.1015 53.2091 62.1239 52.9889 62.0665 52.8375C61.9313 52.4807 61.7348 52.7547 61.8073 53.1989Z" fill="white"/>
<path fill-rule="evenodd" clip-rule="evenodd" d="M81.8108 43.4369C81.528 43.8421 81.5623 44.0343 82.6452 48.115L83.7744 52.3703L82.5706 52.9525C81.526 53.4578 81.3045 53.6531 80.8959 54.4292C79.694 56.7123 81.2435 58.2383 83.8113 57.3007C85.1323 56.8183 85.9244 55.9494 85.8754 55.036C85.8584 54.7217 85.3208 52.4801 84.6804 50.0545C84.0401 47.6289 83.4055 44.9952 83.2702 44.2021L83.0241 42.76L82.565 42.8871C82.3123 42.957 81.9728 43.2044 81.8108 43.4369ZM83.9721 54.8457C84.0458 55.112 84.1135 55.1439 84.2173 54.9608C84.296 54.8219 84.2943 54.5776 84.2134 54.4184C84.0226 54.0431 83.8396 54.3672 83.9721 54.8457Z" fill="white"/>
<path fill-rule="evenodd" clip-rule="evenodd" d="M109.533 26.0538C108.651 26.9553 108.554 27.1863 108.466 28.5951C108.396 29.7244 108.583 31.0753 109.158 33.5779C109.592 35.4661 109.882 37.2683 109.803 37.5827C109.724 37.8973 109.207 38.7261 108.653 39.4247C107.273 41.1677 106.152 43.6799 105.998 45.3775C105.892 46.5507 105.976 46.9845 106.515 48.0469C107.388 49.7655 109.785 51.3669 111.561 51.4172L112.39 51.4405V52.7883C112.39 55.5678 111.442 57.0846 110.038 56.552C109.52 56.3554 109.403 56.1915 109.548 55.8635C109.766 55.3687 109.774 54.4843 109.567 53.9446C109.236 53.085 106.923 54.0242 106.925 55.0174C106.927 55.8065 107.927 57.0734 108.855 57.4637C109.627 57.7879 109.967 57.8038 110.899 57.5586C113.277 56.9328 113.874 56.1105 114.154 53.0776L114.359 50.8653L115.584 49.6783C116.626 48.6692 116.854 48.2735 117.106 47.0403C117.453 45.3485 117.297 44.2568 116.476 42.6411C115.653 41.0189 114.833 40.4336 113.384 40.4336H112.209L111.888 38.9217C111.606 37.5955 111.615 37.3265 111.967 36.7333C112.511 35.8129 113.511 32.2931 113.882 29.9887C114.254 27.6795 113.976 26.5886 112.781 25.6792C111.58 24.7653 110.694 24.8677 109.533 26.0538ZM112.778 30.4141C113.04 28.8799 112.972 27.0748 112.636 26.6714C112.255 26.213 111.301 26.1902 110.935 26.6307C110.439 27.2267 109.906 28.751 109.906 29.5706C109.906 30.2549 110.664 33.7844 111.068 34.9792C111.21 35.4014 112.526 31.8895 112.778 30.4141ZM110.651 40.3371C110.651 41.0179 110.415 41.5143 109.665 42.4076C108.211 44.1403 107.747 45.7273 108.508 46.3578C108.94 46.7155 109.657 46.4547 109.657 45.9398C109.657 45.2934 110.671 43.4087 111.019 43.4087C111.393 43.4087 112.135 46.1795 112.214 47.8714L112.266 48.987L110.973 49.0617C110.152 49.109 109.406 48.9942 108.926 48.7465C107.593 48.0586 106.783 45.768 107.3 44.1448C107.55 43.3591 109.133 40.6634 109.735 39.9997C110.439 39.2224 110.651 39.3003 110.651 40.3371ZM115.146 43.4545C114.871 42.9175 114.465 42.4085 114.243 42.3235C112.965 41.8341 112.934 42.0315 113.726 45.64L114.298 48.2433L114.81 47.412C115.613 46.1074 115.74 44.6166 115.146 43.4545Z" fill="white"/>
<path d="M100.813 47.1624C101.085 44.2243 101.385 41.7208 101.48 41.5995C101.576 41.4782 101.785 41.4445 101.944 41.525C102.103 41.6052 102.316 41.6799 102.417 41.6907C102.519 41.7016 102.702 42.0413 102.825 42.4459C102.948 42.8502 103.406 43.7208 103.843 44.3803C104.905 45.9852 105.333 47.6141 105.122 49.2578C104.967 50.4634 104.625 51.1605 104.307 50.9175C104.23 50.8581 104.167 50.2418 104.167 49.5476C104.168 48.0868 103.781 46.9331 102.875 45.6925L102.232 44.8129L101.941 48.9374C101.781 51.2059 101.708 53.2793 101.779 53.545C102.019 54.4427 101.836 54.7381 100.479 55.6415C99.2306 56.4733 99.0466 56.5335 98.0781 56.4272C96.6617 56.2717 96.0638 55.8662 96.0697 55.0653C96.0779 53.9438 97.891 52.6489 99.5947 52.5476L100.32 52.5046L100.813 47.1624Z" fill="white"/>
<path d="M65.6744 34.7513C65.9639 34.7556 66.2369 34.6656 66.2811 34.551C66.386 34.2791 66.878 34.1972 67.3875 34.3672C67.6109 34.4418 68.2919 34.634 68.9011 34.7945C69.7041 35.0059 70.2653 35.3557 70.9426 36.0671C72.2476 37.4379 72.4813 38.7607 71.8167 41.0133C70.7115 44.7583 69.3858 46.9265 67.3652 48.2938C65.9289 49.2658 65.4128 49.395 65.8074 48.6844C65.9196 48.4819 65.9316 48.2253 65.8337 48.1142C65.7316 47.998 65.8477 47.8777 66.1071 47.8314C66.3553 47.787 66.4847 47.6669 66.3945 47.5645C66.3043 47.4621 66.6006 47.0935 67.0527 46.7451C68.0031 46.0134 69.0855 44.8104 69.0371 44.5394C69.0189 44.4374 69.19 44.0239 69.4172 43.6208C69.9076 42.7512 70.1451 40.8928 69.9233 39.6589C69.6197 37.9693 67.0449 35.6654 66.4438 36.5456C66.1749 36.9394 65.9213 36.9464 65.8526 36.5621C65.8206 36.3829 65.6314 36.2655 65.4322 36.3011C65.1505 36.3515 65.1372 36.4137 65.3722 36.5807C66.1724 37.1495 65.7696 38.8188 64.6154 39.718C64.132 40.0946 63.9176 40.145 63.3487 40.0163C62.0342 39.7188 61.8377 38.4687 62.8679 36.9603C63.693 35.7522 64.9785 34.7403 65.6744 34.7513Z" fill="white"/>
<path d="M74.0021 36.4397C73.2387 35.3176 73.3752 34.0903 74.3257 33.5265C74.7977 33.2466 74.8308 33.2494 75.6885 33.6442C76.3689 33.9571 76.5185 34.1416 76.5982 34.7666C76.7926 36.2877 74.7805 37.5842 74.0021 36.4397Z" fill="white"/>
<path d="M76.2225 42.215C75.3026 42.3794 74.4323 40.8937 74.7889 39.7677C75.0338 38.9954 76.783 38.9951 77.3482 39.7675C77.93 40.5622 77.2545 42.0306 76.2225 42.215Z" fill="white"/>
<path d="M44.7224 35.7486C44.8555 36.3541 44.8821 37.4705 43.9235 37.0913C42.7253 36.6174 39.1305 35.9855 39.2903 37.4863C39.3725 38.259 39.8784 39.0514 40.3776 39.6444C41.3181 39.2925 42.6084 38.8469 43.3643 38.5921C44.8764 38.5695 46.0533 38.7937 46.9668 39.1418C47.173 38.7223 47.3475 38.2858 47.4384 37.8812C47.7579 36.4594 48.1574 34.4847 46.8792 33.3789C45.6011 32.2731 45.2815 32.589 45.1218 31.4042C45.0951 31.1409 45.1537 30.488 45.6011 29.9825C46.0484 29.4769 44.9354 29.0873 44.3229 28.9556C43.9768 28.8503 43.2365 28.6239 43.0448 28.5607C42.8051 28.4817 41.2874 28.9556 41.527 30.3774C41.5552 30.5445 41.5848 30.6932 41.6153 30.8253C41.6893 30.857 41.7664 30.8919 41.8465 30.9303L42.246 31.7992C42.9383 31.8255 44.1791 32.0993 43.604 32.984C43.0288 33.8686 41.5536 34.0898 40.8879 34.0898C39.4767 34.0108 36.5103 34.4216 35.9351 36.6964C36.4411 36.2488 37.8204 35.3536 39.2903 35.3536C40.7601 35.3536 42.0329 35.0903 42.4856 34.9587C43.0981 34.7217 44.4028 34.5479 44.7224 35.7486Z" fill="white"/>
<path d="M41.1276 40.4088C42.1005 41.0441 44.0098 42.1473 45.8349 42.8542C45.8652 42.1155 45.8598 41.4337 45.8407 40.9617C46.1152 40.6055 46.5932 39.9016 46.9668 39.1418C46.0533 38.7937 44.8764 38.5695 43.3643 38.5921C42.6084 38.8469 41.3181 39.2925 40.3776 39.6444C40.654 39.9727 40.9283 40.2399 41.1276 40.4088Z" fill="white"/>
<path d="M48.1574 43.4893C50.9533 43.8053 50.1545 42.8574 49.9947 42.1465C49.8807 41.6395 49.2385 40.0075 46.9668 39.1418C46.5932 39.9016 46.1152 40.6055 45.8407 40.9617C45.8598 41.4337 45.8652 42.1155 45.8349 42.8542C46.6573 43.1728 47.4626 43.4108 48.1574 43.4893Z" fill="white"/>
<path d="M39.2903 40.0929C38.8429 40.3456 36.8671 40.1982 35.9351 40.0929C35.6156 40.1982 34.8008 40.4088 34.0978 40.4088H31.7013C31.0356 40.4352 29.9918 40.7406 31.1421 41.7516C31.435 41.9096 32.5321 42.1308 34.5771 41.7516C35.0032 41.7779 36.0789 41.8938 36.9736 42.1465C37.8683 42.3993 41.0211 41.8306 42.4856 41.5146C42.7785 42.0676 43.3643 43.6947 43.3643 45.78C43.1513 46.8068 42.7892 49.1764 43.0448 50.4402C43.3004 51.7041 42.7785 52.8625 42.4856 53.2838C42.2726 53.3891 42.0383 53.7419 42.8051 54.3106V55.6534C42.8051 56.1537 43.0128 56.9172 43.8436 55.9694C43.9768 55.5481 44.2271 53.7735 44.1632 50.0453C44.2431 49.3871 44.5626 47.7547 45.2017 46.4909C45.6116 45.6802 45.7805 44.176 45.8349 42.8542C44.0098 42.1473 42.1005 41.0441 41.1276 40.4088C40.9283 40.2399 40.654 39.9727 40.3776 39.6444C39.8604 39.838 39.449 40.0032 39.2903 40.0929Z" fill="white"/>
<path d="M40.0092 31.7992C40.5844 33.3789 41.6335 32.4574 42.0862 31.7992C41.9953 31.7992 41.7921 31.5922 41.6153 30.8253C39.8603 30.0734 39.8048 31.1423 40.0092 31.7992Z" fill="white"/>
<path d="M34.0978 40.4088C34.8008 40.4088 35.6156 40.1982 35.9351 40.0929C36.8671 40.1982 38.8429 40.3456 39.2903 40.0929C39.449 40.0032 39.8604 39.838 40.3776 39.6444M34.0978 40.4088C33.3948 40.4088 32.2072 40.4088 31.7013 40.4088M34.0978 40.4088H31.7013M31.7013 40.4088C31.0356 40.4352 29.9918 40.7406 31.1421 41.7516C31.435 41.9096 32.5321 42.1308 34.5771 41.7516C35.0032 41.7779 36.0789 41.8938 36.9736 42.1465C37.8683 42.3993 41.0211 41.8306 42.4856 41.5146C42.7785 42.0676 43.3643 43.6947 43.3643 45.78C43.1513 46.8068 42.7892 49.1764 43.0448 50.4402C43.3004 51.7041 42.7785 52.8625 42.4856 53.2838C42.2726 53.3891 42.0383 53.7419 42.8051 54.3106V55.6534C42.8051 56.1537 43.0128 56.9172 43.8436 55.9694C43.9768 55.5481 44.2271 53.7735 44.1632 50.0453C44.2431 49.3871 44.5626 47.7547 45.2017 46.4909C45.6116 45.6802 45.7805 44.176 45.8349 42.8542M40.3776 39.6444C39.8784 39.0514 39.3725 38.259 39.2903 37.4863C39.1305 35.9855 42.7253 36.6174 43.9235 37.0913C44.8821 37.4705 44.8555 36.3541 44.7224 35.7486C44.4028 34.5479 43.0981 34.7217 42.4856 34.9587C42.0329 35.0903 40.7601 35.3536 39.2903 35.3536C37.8204 35.3536 36.4411 36.2488 35.9351 36.6964C36.5103 34.4216 39.4767 34.0108 40.8879 34.0898C41.5536 34.0898 43.0288 33.8686 43.604 32.984C44.1791 32.0993 42.9383 31.8255 42.246 31.7992L41.8465 30.9303C41.7664 30.8919 41.6893 30.857 41.6153 30.8253M40.3776 39.6444C41.3181 39.2925 42.6084 38.8469 43.3643 38.5921C44.8764 38.5695 46.0533 38.7937 46.9668 39.1418M40.3776 39.6444C40.654 39.9727 40.9283 40.2399 41.1276 40.4088C42.1005 41.0441 44.0098 42.1473 45.8349 42.8542M46.9668 39.1418C47.173 38.7223 47.3475 38.2858 47.4384 37.8812C47.7579 36.4594 48.1574 34.4847 46.8792 33.3789C45.6011 32.2731 45.2815 32.589 45.1218 31.4042C45.0952 31.1409 45.1537 30.488 45.6011 29.9825C46.0484 29.4769 44.9354 29.0873 44.3229 28.9556C43.9768 28.8503 43.2365 28.6239 43.0448 28.5607C42.8051 28.4817 41.2874 28.9556 41.527 30.3774C41.5552 30.5445 41.5848 30.6932 41.6153 30.8253M46.9668 39.1418C46.5932 39.9016 46.1152 40.6055 45.8407 40.9617C45.8598 41.4337 45.8652 42.1155 45.8349 42.8542M46.9668 39.1418C49.2385 40.0075 49.8807 41.6395 49.9947 42.1465C50.1545 42.8574 50.9533 43.8053 48.1574 43.4893C47.4626 43.4108 46.6573 43.1728 45.8349 42.8542M41.6153 30.8253C39.8603 30.0734 39.8048 31.1423 40.0092 31.7992C40.5844 33.3789 41.6335 32.4574 42.0862 31.7992C41.9953 31.7992 41.7921 31.5922 41.6153 30.8253Z" stroke="white" stroke-width="0.217719" stroke-linejoin="round"/>
<path d="M4.93585 46.378C4.42663 43.3225 4.06286 40.7007 4.12749 40.552C4.19212 40.4033 4.39487 40.3134 4.57786 40.3526C4.76081 40.3916 4.99726 40.4105 5.10292 40.3944C5.20878 40.3784 5.48578 40.6743 5.71868 41.0522C5.95133 41.4299 6.64876 42.1915 7.26839 42.7444C8.77592 44.0901 9.64457 45.6298 9.86957 47.3549C10.0343 48.6203 9.87335 49.4193 9.48579 49.2575C9.39126 49.2179 9.16266 48.609 8.97774 47.9041C8.5885 46.4207 7.88782 45.3527 6.63588 44.3352L5.74839 43.6139L6.55462 47.8791C6.99806 50.2249 7.47771 52.3495 7.62083 52.6003C8.10402 53.4476 7.99692 53.7965 6.86106 55.076C5.81528 56.254 5.64455 56.3642 4.63284 56.5149C3.15325 56.7353 2.43794 56.4832 2.23006 55.6685C1.93893 54.5277 3.43394 52.7288 5.13655 52.171L5.86169 51.9336L4.93585 46.378Z" fill="white"/>
<path fill-rule="evenodd" clip-rule="evenodd" d="M18.2343 59.8663C17.0951 59.3262 14.5539 57.5641 13.5028 54.8363C13.201 53.8933 12.6142 51.044 12.6813 47.1917C14.3996 46.1392 18.9062 44.6298 23.1855 47.0123C23.4197 48.579 23.5669 52.52 22.2814 55.7505C21.8474 56.5213 20.4302 58.4235 18.2343 59.8663ZM14.6495 49.0645C14.1487 49.5862 14.1251 49.1414 14.1758 48.8538C14.4303 48.136 14.8453 47.9551 15.5081 47.8178C16.1709 47.6806 16.9073 48.5733 16.9659 48.965C17.0245 49.3566 16.755 49.4362 16.4487 49.0008C16.1425 48.5654 15.2755 48.4123 14.6495 49.0645ZM19.5083 49.0325C19.2405 49.3919 19.0664 49.1239 19.0129 48.945C19.2673 48.2272 19.4564 47.8793 20.5125 47.6844C21.3574 47.5285 21.8219 48.4664 21.9485 48.9548C21.9463 49.2086 21.815 49.5668 21.3075 48.9687C20.6732 48.2212 19.843 48.5831 19.5083 49.0325ZM21.7816 51.8476L21.7175 53.1952C21.665 54.3 20.9393 56.7305 18.4066 57.6183L18.282 57.662L18.1555 57.624C17.1032 57.3078 14.9369 56.0221 14.6837 53.3594L14.5406 51.8546L15.4183 53.0852C15.6403 53.3965 16.0556 53.8742 16.5611 54.2698C17.0753 54.6721 17.6256 54.9446 18.1276 54.9446C18.624 54.9446 19.1963 54.6537 19.746 54.2172C20.2838 53.7902 20.737 53.2742 20.9845 52.9362L21.7816 51.8476Z" fill="white"/>
<path d="M23.106 55.1334C23.5307 55.7168 24.4927 57.2594 24.9425 58.7625C24.1711 59.2195 22.2287 60.1138 20.631 60.0352L19.8719 59.2711C21.4318 58.2434 22.4571 56.7603 23.106 55.1334Z" fill="white"/>
<path fill-rule="evenodd" clip-rule="evenodd" d="M23.87 46.7518C23.6502 46.5763 23.4275 46.4155 23.2025 46.2686C24.7228 46.5794 28.6525 47.8757 30.2685 50.2965C29.7552 52.2396 28.1796 56.4867 25.9836 57.9294C26.3422 56.4674 26.4247 53.2787 23.8855 52.2203C24.2108 50.1518 24.1088 48.1382 23.87 46.7518ZM27.393 52.8395C27.6542 51.3603 26.636 50.3755 26.0943 50.068L26.1813 49.5749C27.7262 50.229 28.1496 51.4477 27.8734 52.2888C27.6524 52.9616 27.4611 52.9363 27.393 52.8395Z" fill="white"/>
<path d="M141.887 18V2.24648H147.974V3.82183H144.085V9.07301H147.099V10.6289H144.085V18H141.887ZM150.923 18.1556C150.482 18.1556 150.139 18.0389 149.892 17.8055C149.646 17.5721 149.471 17.2804 149.367 16.9303C149.277 16.5803 149.231 16.2237 149.231 15.8606V6.7586H151.312V15.2383C151.312 15.6402 151.371 15.9579 151.487 16.1913C151.604 16.4117 151.844 16.5219 152.207 16.5219C152.44 16.5219 152.68 16.4571 152.926 16.3274C153.186 16.1848 153.432 16.0162 153.666 15.8217V6.7586H155.747V18H153.666V16.8914C153.302 17.2415 152.888 17.5397 152.421 17.7861C151.967 18.0324 151.468 18.1556 150.923 18.1556ZM157.875 18V6.7586H159.956V7.86719C160.332 7.51711 160.747 7.21889 161.201 6.97254C161.654 6.72619 162.154 6.60301 162.698 6.60301C163.152 6.60301 163.496 6.71971 163.729 6.95309C163.975 7.18648 164.144 7.47821 164.235 7.82829C164.338 8.17837 164.39 8.53493 164.39 8.89797V18H162.309V9.50089C162.309 9.09894 162.251 8.78776 162.134 8.56734C162.017 8.34692 161.778 8.23671 161.414 8.23671C161.181 8.23671 160.935 8.30803 160.675 8.45065C160.429 8.58031 160.189 8.74238 159.956 8.93687V18H157.875ZM169.028 18.1556C168.081 18.1556 167.375 17.812 166.908 17.1248C166.441 16.4247 166.208 15.2448 166.208 13.5851V11.4069C166.208 10.5511 166.279 9.7602 166.422 9.03411C166.564 8.29506 166.83 7.70511 167.219 7.26427C167.621 6.82343 168.204 6.60301 168.969 6.60301C169.345 6.60301 169.689 6.68729 170 6.85585C170.311 7.02441 170.59 7.23186 170.837 7.47821V2.24648H172.918V18H170.837V17.2804C170.59 17.5397 170.318 17.7537 170.02 17.9222C169.734 18.0778 169.404 18.1556 169.028 18.1556ZM169.553 16.5219C169.747 16.5219 169.955 16.4895 170.175 16.4247C170.396 16.3469 170.616 16.2367 170.837 16.094V8.72293C170.655 8.59328 170.454 8.48307 170.234 8.3923C170.013 8.28858 169.773 8.23671 169.514 8.23671C169.034 8.23671 168.71 8.4701 168.542 8.93687C168.373 9.39068 168.289 9.94173 168.289 10.59V13.7602C168.289 14.2788 168.315 14.7521 168.367 15.1799C168.431 15.5948 168.555 15.9255 168.736 16.1718C168.918 16.4052 169.19 16.5219 169.553 16.5219ZM177.048 18.1556C176.607 18.1556 176.218 18.0324 175.881 17.7861C175.544 17.5268 175.278 17.2026 175.084 16.8136C174.889 16.4117 174.792 15.9903 174.792 15.5495C174.792 14.8493 174.909 14.2594 175.142 13.7796C175.376 13.2999 175.693 12.8979 176.095 12.5738C176.51 12.2367 176.983 11.945 177.515 11.6986C178.059 11.4522 178.63 11.2124 179.226 10.979V10.1816C179.226 9.72779 179.2 9.35178 179.149 9.05356C179.097 8.75535 178.987 8.53493 178.818 8.3923C178.662 8.23671 178.423 8.15892 178.098 8.15892C177.813 8.15892 177.58 8.22375 177.398 8.35341C177.23 8.48307 177.106 8.67107 177.029 8.91742C176.951 9.15081 176.912 9.42957 176.912 9.75372V10.3177L174.85 10.2399C174.876 8.99522 175.162 8.08112 175.706 7.49766C176.251 6.90123 177.094 6.60301 178.235 6.60301C179.35 6.60301 180.141 6.90771 180.607 7.51711C181.074 8.1265 181.307 9.00818 181.307 10.1621V15.2966C181.307 15.6467 181.314 15.9838 181.327 16.308C181.353 16.6321 181.379 16.9368 181.405 17.2221C181.444 17.4943 181.476 17.7537 181.502 18H179.596C179.557 17.7926 179.505 17.5332 179.44 17.2221C179.388 16.8979 179.35 16.6062 179.324 16.3469C179.194 16.7877 178.941 17.2026 178.565 17.5916C178.202 17.9676 177.696 18.1556 177.048 18.1556ZM177.865 16.3663C178.072 16.3663 178.267 16.308 178.448 16.1913C178.63 16.0746 178.792 15.9449 178.935 15.8023C179.077 15.6467 179.175 15.5235 179.226 15.4328V12.2432C178.902 12.4247 178.598 12.6062 178.312 12.7877C178.027 12.9693 177.774 13.1637 177.554 13.3712C177.346 13.5657 177.178 13.7926 177.048 14.0519C176.931 14.2983 176.873 14.5835 176.873 14.9077C176.873 15.3615 176.957 15.718 177.126 15.9773C177.295 16.2367 177.541 16.3663 177.865 16.3663ZM186.379 18.1556C185.459 18.1556 184.759 17.9741 184.279 17.611C183.812 17.235 183.494 16.7099 183.326 16.0357C183.17 15.3615 183.092 14.577 183.092 13.6824V11.0957C183.092 10.1492 183.177 9.3453 183.345 8.68404C183.514 8.00981 183.832 7.49766 184.298 7.14758C184.778 6.78454 185.472 6.60301 186.379 6.60301C187.196 6.60301 187.825 6.73916 188.266 7.01144C188.72 7.27076 189.031 7.66622 189.199 8.19782C189.368 8.71645 189.452 9.36474 189.452 10.1427V10.804H187.566V10.1232C187.566 9.63054 187.533 9.24157 187.468 8.95632C187.404 8.67107 187.287 8.46362 187.118 8.33396C186.95 8.2043 186.71 8.13947 186.399 8.13947C186.062 8.13947 185.802 8.21726 185.621 8.37286C185.439 8.52845 185.316 8.79425 185.251 9.17026C185.199 9.5333 185.173 10.0325 185.173 10.6678V14.2075C185.173 15.167 185.264 15.8088 185.446 16.1329C185.627 16.4571 185.951 16.6191 186.418 16.6191C186.768 16.6191 187.021 16.5414 187.177 16.3858C187.345 16.2172 187.449 15.9838 187.488 15.6856C187.54 15.3874 187.566 15.0503 187.566 14.6743V13.7602H189.452V14.5381C189.452 15.2901 189.361 15.9384 189.18 16.483C189.011 17.0276 188.7 17.4425 188.246 17.7277C187.806 18.013 187.183 18.1556 186.379 18.1556ZM186.515 22.5705C186.308 22.5705 186.094 22.551 185.874 22.5121C185.653 22.4732 185.433 22.4279 185.212 22.376V21.3258C185.381 21.3776 185.55 21.41 185.718 21.423C185.887 21.4489 186.049 21.4619 186.204 21.4619C186.541 21.4619 186.82 21.4036 187.041 21.2869C187.274 21.1702 187.391 20.9757 187.391 20.7034C187.391 20.47 187.326 20.282 187.196 20.1394C187.067 20.0097 186.879 19.8995 186.632 19.8088C186.386 19.731 186.088 19.6661 185.738 19.6143V18H186.788V19.0891C187.436 19.0891 187.955 19.2383 188.344 19.5365C188.746 19.8347 188.947 20.2431 188.947 20.7617C188.947 21.1767 188.836 21.5138 188.616 21.7731C188.408 22.0454 188.117 22.2463 187.741 22.376C187.378 22.5057 186.969 22.5705 186.515 22.5705ZM193.325 18.1556C192.884 18.1556 192.495 18.0324 192.158 17.7861C191.821 17.5268 191.555 17.2026 191.361 16.8136C191.166 16.4117 191.069 15.9903 191.069 15.5495C191.069 14.8493 191.186 14.2594 191.419 13.7796C191.653 13.2999 191.97 12.8979 192.372 12.5738C192.787 12.2367 193.26 11.945 193.792 11.6986C194.336 11.4522 194.907 11.2124 195.503 10.979V10.1816C195.503 9.72779 195.477 9.35178 195.426 9.05356C195.374 8.75535 195.264 8.53493 195.095 8.3923C194.939 8.23671 194.7 8.15892 194.375 8.15892C194.09 8.15892 193.857 8.22375 193.675 8.35341C193.507 8.48307 193.383 8.67107 193.306 8.91742C193.228 9.15081 193.189 9.42957 193.189 9.75372V10.3177L191.127 10.2399C191.153 8.99522 191.439 8.08112 191.983 7.49766C192.528 6.90123 193.371 6.60301 194.512 6.60301C195.627 6.60301 196.417 6.90771 196.884 7.51711C197.351 8.1265 197.584 9.00818 197.584 10.1621V15.2966C197.584 15.6467 197.591 15.9838 197.604 16.308C197.63 16.6321 197.656 16.9368 197.682 17.2221C197.721 17.4943 197.753 17.7537 197.779 18H195.873C195.834 17.7926 195.782 17.5332 195.717 17.2221C195.665 16.8979 195.627 16.6062 195.601 16.3469C195.471 16.7877 195.218 17.2026 194.842 17.5916C194.479 17.9676 193.973 18.1556 193.325 18.1556ZM194.142 16.3663C194.349 16.3663 194.544 16.308 194.725 16.1913C194.907 16.0746 195.069 15.9449 195.212 15.8023C195.354 15.6467 195.452 15.5235 195.503 15.4328V12.2432C195.179 12.4247 194.875 12.6062 194.589 12.7877C194.304 12.9693 194.051 13.1637 193.831 13.3712C193.623 13.5657 193.455 13.7926 193.325 14.0519C193.208 14.2983 193.15 14.5835 193.15 14.9077C193.15 15.3615 193.234 15.718 193.403 15.9773C193.571 16.2367 193.818 16.3663 194.142 16.3663ZM195.99 4.38585C195.627 4.38585 195.302 4.30805 195.017 4.15246C194.745 3.98391 194.486 3.82183 194.239 3.66624C193.993 3.51065 193.727 3.43286 193.442 3.43286C193.221 3.43286 193.053 3.49121 192.936 3.6079C192.832 3.72459 192.781 3.93204 192.781 4.23026H191.594C191.594 3.84128 191.64 3.4912 191.73 3.18002C191.834 2.85588 191.996 2.60304 192.217 2.42152C192.45 2.22703 192.761 2.12979 193.15 2.12979C193.474 2.12979 193.766 2.20758 194.025 2.36317C194.298 2.51876 194.563 2.67435 194.823 2.82995C195.082 2.98554 195.348 3.06333 195.62 3.06333C195.841 3.06333 196.003 3.00499 196.106 2.88829C196.21 2.7716 196.262 2.55766 196.262 2.24648H197.429C197.429 2.63546 197.39 2.99202 197.312 3.31617C197.234 3.64031 197.092 3.89963 196.884 4.09412C196.677 4.28861 196.379 4.38585 195.99 4.38585ZM202.676 18.1556C201.846 18.1556 201.191 17.987 200.711 17.6499C200.232 17.3128 199.888 16.8331 199.681 16.2107C199.486 15.5884 199.389 14.8558 199.389 14.013V10.7456C199.389 9.90283 199.486 9.17026 199.681 8.54789C199.888 7.92553 200.232 7.4458 200.711 7.10868C201.191 6.77157 201.846 6.60301 202.676 6.60301C203.506 6.60301 204.154 6.77157 204.621 7.10868C205.1 7.4458 205.437 7.92553 205.632 8.54789C205.839 9.17026 205.943 9.90283 205.943 10.7456V14.013C205.943 14.8558 205.839 15.5884 205.632 16.2107C205.437 16.8331 205.1 17.3128 204.621 17.6499C204.154 17.987 203.506 18.1556 202.676 18.1556ZM202.676 16.6191C203.078 16.6191 203.356 16.5025 203.512 16.2691C203.681 16.0357 203.778 15.731 203.804 15.355C203.843 14.966 203.862 14.5641 203.862 14.1492V10.6289C203.862 10.201 203.843 9.7991 203.804 9.42309C203.778 9.04708 203.681 8.74238 203.512 8.509C203.356 8.26265 203.078 8.13947 202.676 8.13947C202.274 8.13947 201.989 8.26265 201.82 8.509C201.651 8.74238 201.548 9.04708 201.509 9.42309C201.483 9.7991 201.47 10.201 201.47 10.6289V14.1492C201.47 14.5641 201.483 14.966 201.509 15.355C201.548 15.731 201.651 16.0357 201.82 16.2691C201.989 16.5025 202.274 16.6191 202.676 16.6191ZM141.887 37V21.2465H145.796C146.743 21.2465 147.495 21.4215 148.052 21.7716C148.623 22.1087 149.038 22.6014 149.297 23.2497C149.556 23.898 149.686 24.6824 149.686 25.603C149.686 26.4328 149.537 27.1524 149.238 27.7618C148.953 28.3712 148.525 28.8445 147.955 29.1816C147.384 29.5057 146.671 29.6678 145.815 29.6678H144.085V37H141.887ZM144.085 28.0925H145.096C145.731 28.0925 146.23 28.0211 146.593 27.8785C146.956 27.7359 147.216 27.4895 147.371 27.1395C147.527 26.7764 147.605 26.2708 147.605 25.6225C147.605 24.8704 147.546 24.2935 147.43 23.8915C147.326 23.4896 147.099 23.2108 146.749 23.0552C146.399 22.8996 145.854 22.8218 145.115 22.8218H144.085V28.0925ZM153.079 37.1556C152.638 37.1556 152.249 37.0324 151.912 36.7861C151.575 36.5268 151.309 36.2026 151.115 35.8136C150.92 35.4117 150.823 34.9903 150.823 34.5495C150.823 33.8493 150.94 33.2594 151.173 32.7796C151.406 32.2999 151.724 31.8979 152.126 31.5738C152.541 31.2367 153.014 30.945 153.546 30.6986C154.09 30.4522 154.661 30.2124 155.257 29.979V29.1816C155.257 28.7278 155.231 28.3518 155.179 28.0536C155.128 27.7553 155.017 27.5349 154.849 27.3923C154.693 27.2367 154.453 27.1589 154.129 27.1589C153.844 27.1589 153.611 27.2237 153.429 27.3534C153.261 27.4831 153.137 27.6711 153.06 27.9174C152.982 28.1508 152.943 28.4296 152.943 28.7537V29.3177L150.881 29.2399C150.907 27.9952 151.192 27.0811 151.737 26.4977C152.282 25.9012 153.124 25.603 154.265 25.603C155.38 25.603 156.171 25.9077 156.638 26.5171C157.105 27.1265 157.338 28.0082 157.338 29.1621V34.2966C157.338 34.6467 157.345 34.9838 157.358 35.308C157.384 35.6321 157.41 35.9368 157.436 36.2221C157.474 36.4943 157.507 36.7537 157.533 37H155.627C155.588 36.7926 155.536 36.5332 155.471 36.2221C155.419 35.8979 155.38 35.6062 155.355 35.3469C155.225 35.7877 154.972 36.2026 154.596 36.5916C154.233 36.9676 153.727 37.1556 153.079 37.1556ZM153.896 35.3663C154.103 35.3663 154.298 35.308 154.479 35.1913C154.661 35.0746 154.823 34.9449 154.966 34.8023C155.108 34.6467 155.205 34.5235 155.257 34.4328V31.2432C154.933 31.4247 154.628 31.6062 154.343 31.7877C154.058 31.9693 153.805 32.1637 153.585 32.3712C153.377 32.5657 153.209 32.7926 153.079 33.0519C152.962 33.2983 152.904 33.5835 152.904 33.9077C152.904 34.3615 152.988 34.718 153.157 34.9773C153.325 35.2367 153.572 35.3663 153.896 35.3663ZM159.396 37V25.7586H161.477V27.3534C161.892 26.6662 162.306 26.2059 162.721 25.9725C163.136 25.7392 163.551 25.6225 163.966 25.6225C164.018 25.6225 164.063 25.6225 164.102 25.6225C164.154 25.6225 164.219 25.6289 164.297 25.6419V27.9369C164.141 27.872 163.96 27.8202 163.752 27.7813C163.558 27.7294 163.357 27.7035 163.149 27.7035C162.825 27.7035 162.527 27.7813 162.255 27.9369C161.995 28.0795 161.736 28.3647 161.477 28.7926V37H159.396ZM165.586 37V25.7586H167.667V26.8672C168.043 26.5171 168.458 26.2189 168.912 25.9725C169.366 25.7262 169.865 25.603 170.409 25.603C170.863 25.603 171.207 25.7197 171.44 25.9531C171.686 26.1865 171.855 26.4782 171.946 26.8283C172.049 27.1784 172.101 27.5349 172.101 27.898V37H170.02V28.5009C170.02 28.0989 169.962 27.7878 169.845 27.5673C169.729 27.3469 169.489 27.2367 169.126 27.2367C168.892 27.2367 168.646 27.308 168.387 27.4507C168.14 27.5803 167.9 27.7424 167.667 27.9369V37H165.586ZM176.155 37.1556C175.715 37.1556 175.326 37.0324 174.989 36.7861C174.651 36.5268 174.386 36.2026 174.191 35.8136C173.997 35.4117 173.899 34.9903 173.899 34.5495C173.899 33.8493 174.016 33.2594 174.249 32.7796C174.483 32.2999 174.801 31.8979 175.202 31.5738C175.617 31.2367 176.091 30.945 176.622 30.6986C177.167 30.4522 177.737 30.2124 178.334 29.979V29.1816C178.334 28.7278 178.308 28.3518 178.256 28.0536C178.204 27.7553 178.094 27.5349 177.925 27.3923C177.77 27.2367 177.53 27.1589 177.206 27.1589C176.92 27.1589 176.687 27.2237 176.506 27.3534C176.337 27.4831 176.214 27.6711 176.136 27.9174C176.058 28.1508 176.019 28.4296 176.019 28.7537V29.3177L173.958 29.2399C173.984 27.9952 174.269 27.0811 174.814 26.4977C175.358 25.9012 176.201 25.603 177.342 25.603C178.457 25.603 179.248 25.9077 179.715 26.5171C180.181 27.1265 180.415 28.0082 180.415 29.1621V34.2966C180.415 34.6467 180.421 34.9838 180.434 35.308C180.46 35.6321 180.486 35.9368 180.512 36.2221C180.551 36.4943 180.583 36.7537 180.609 37H178.703C178.664 36.7926 178.613 36.5332 178.548 36.2221C178.496 35.8979 178.457 35.6062 178.431 35.3469C178.301 35.7877 178.048 36.2026 177.672 36.5916C177.309 36.9676 176.804 37.1556 176.155 37.1556ZM176.972 35.3663C177.18 35.3663 177.374 35.308 177.556 35.1913C177.737 35.0746 177.899 34.9449 178.042 34.8023C178.185 34.6467 178.282 34.5235 178.334 34.4328V31.2432C178.01 31.4247 177.705 31.6062 177.42 31.7877C177.134 31.9693 176.882 32.1637 176.661 32.3712C176.454 32.5657 176.285 32.7926 176.155 33.0519C176.039 33.2983 175.98 33.5835 175.98 33.9077C175.98 34.3615 176.065 34.718 176.233 34.9773C176.402 35.2367 176.648 35.3663 176.972 35.3663ZM182.414 37V25.7586H184.339V26.8283C184.715 26.4004 185.13 26.0828 185.584 25.8753C186.038 25.6678 186.504 25.5641 186.984 25.5641C187.399 25.5641 187.769 25.6678 188.093 25.8753C188.43 26.0828 188.67 26.4523 188.812 26.9839C189.214 26.4912 189.649 26.1346 190.115 25.9142C190.595 25.6808 191.094 25.5641 191.613 25.5641C191.976 25.5641 192.307 25.6549 192.605 25.8364C192.903 26.005 193.143 26.2837 193.325 26.6727C193.506 27.0487 193.597 27.5479 193.597 28.1703V37H191.691V28.3064C191.691 27.7618 191.6 27.3988 191.419 27.2173C191.25 27.0228 191.017 26.9255 190.718 26.9255C190.433 26.9255 190.135 27.0098 189.824 27.1784C189.513 27.334 189.227 27.5544 188.968 27.8396C188.968 27.8915 188.968 27.9434 188.968 27.9952C188.968 28.0471 188.968 28.1054 188.968 28.1703V37H187.062V28.3064C187.062 27.7618 186.971 27.3988 186.79 27.2173C186.621 27.0228 186.388 26.9255 186.09 26.9255C185.804 26.9255 185.506 27.0098 185.195 27.1784C184.897 27.334 184.611 27.5544 184.339 27.8396V37H182.414ZM195.769 37V25.7586H197.85V37H195.769ZM195.769 24.086V21.9077H197.85V24.086H195.769ZM200.136 37V25.7586H202.217V27.3534C202.631 26.6662 203.046 26.2059 203.461 25.9725C203.876 25.7392 204.291 25.6225 204.706 25.6225C204.758 25.6225 204.803 25.6225 204.842 25.6225C204.894 25.6225 204.959 25.6289 205.037 25.6419V27.9369C204.881 27.872 204.7 27.8202 204.492 27.7813C204.298 27.7294 204.097 27.7035 203.889 27.7035C203.565 27.7035 203.267 27.7813 202.995 27.9369C202.735 28.0795 202.476 28.3647 202.217 28.7926V37H200.136ZM206.462 37V25.7586H208.543V37H206.462ZM206.462 24.086V21.9077H208.543V24.086H206.462ZM210.77 37V25.7586H212.696V26.8283C213.072 26.4004 213.487 26.0828 213.94 25.8753C214.394 25.6678 214.861 25.5641 215.341 25.5641C215.756 25.5641 216.125 25.6678 216.449 25.8753C216.786 26.0828 217.026 26.4523 217.169 26.9839C217.571 26.4912 218.005 26.1346 218.472 25.9142C218.952 25.6808 219.451 25.5641 219.97 25.5641C220.333 25.5641 220.663 25.6549 220.961 25.8364C221.26 26.005 221.5 26.2837 221.681 26.6727C221.863 27.0487 221.953 27.5479 221.953 28.1703V37H220.047V28.3064C220.047 27.7618 219.957 27.3988 219.775 27.2173C219.606 27.0228 219.373 26.9255 219.075 26.9255C218.79 26.9255 218.491 27.0098 218.18 27.1784C217.869 27.334 217.584 27.5544 217.325 27.8396C217.325 27.8915 217.325 27.9434 217.325 27.9952C217.325 28.0471 217.325 28.1054 217.325 28.1703V37H215.419V28.3064C215.419 27.7618 215.328 27.3988 215.146 27.2173C214.978 27.0228 214.744 26.9255 214.446 26.9255C214.161 26.9255 213.863 27.0098 213.551 27.1784C213.253 27.334 212.968 27.5544 212.696 27.8396V37H210.77ZM144.318 56.1556C143.371 56.1556 142.665 55.812 142.198 55.1248C141.731 54.4247 141.498 53.2448 141.498 51.5851V49.4069C141.498 48.5511 141.569 47.7602 141.712 47.0341C141.854 46.2951 142.12 45.7051 142.509 45.2643C142.911 44.8234 143.495 44.603 144.26 44.603C144.636 44.603 144.979 44.6873 145.29 44.8558C145.602 45.0244 145.88 45.2319 146.127 45.4782V40.2465H148.208V56H146.127V55.2804C145.88 55.5397 145.608 55.7537 145.31 55.9222C145.025 56.0778 144.694 56.1556 144.318 56.1556ZM144.843 54.5219C145.038 54.5219 145.245 54.4895 145.465 54.4247C145.686 54.3469 145.906 54.2367 146.127 54.094V46.7229C145.945 46.5933 145.744 46.4831 145.524 46.3923C145.303 46.2886 145.063 46.2367 144.804 46.2367C144.324 46.2367 144 46.4701 143.832 46.9369C143.663 47.3907 143.579 47.9417 143.579 48.59V51.7602C143.579 52.2788 143.605 52.7521 143.657 53.1799C143.722 53.5948 143.845 53.9255 144.026 54.1718C144.208 54.4052 144.48 54.5219 144.843 54.5219ZM153.427 56.1556C152.546 56.1556 151.865 55.987 151.385 55.6499C150.906 55.2999 150.568 54.7942 150.374 54.1329C150.192 53.4587 150.102 52.6354 150.102 51.6629V49.0957C150.102 48.0973 150.199 47.2675 150.393 46.6062C150.588 45.945 150.925 45.4458 151.405 45.1087C151.897 44.7716 152.572 44.603 153.427 44.603C154.374 44.603 155.068 44.7975 155.508 45.1865C155.962 45.5755 156.26 46.1395 156.403 46.8785C156.546 47.6046 156.617 48.4798 156.617 49.5041V50.4182H152.183V52.6743C152.183 53.1281 152.222 53.4976 152.299 53.7829C152.39 54.0681 152.526 54.282 152.708 54.4247C152.902 54.5543 153.149 54.6191 153.447 54.6191C153.758 54.6191 153.991 54.5478 154.147 54.4052C154.316 54.2496 154.426 54.0357 154.478 53.7634C154.542 53.4782 154.575 53.1475 154.575 52.7715V52.0908H156.598V52.5187C156.598 53.6467 156.358 54.5349 155.878 55.1832C155.398 55.8315 154.581 56.1556 153.427 56.1556ZM152.183 49.2902H154.575V48.2788C154.575 47.8121 154.549 47.4231 154.497 47.1119C154.445 46.7878 154.335 46.5479 154.166 46.3923C154.011 46.2237 153.758 46.1395 153.408 46.1395C153.071 46.1395 152.812 46.2173 152.63 46.3729C152.461 46.5284 152.345 46.7942 152.28 47.1703C152.215 47.5333 152.183 48.039 152.183 48.6873V49.2902ZM167.069 56.1751C165.954 56.1751 165.085 55.9417 164.463 55.4749C163.854 55.0081 163.426 54.3793 163.179 53.5884C162.946 52.7974 162.829 51.9158 162.829 50.9433V45.381C162.829 44.3178 162.946 43.3907 163.179 42.5998C163.426 41.8089 163.854 41.1995 164.463 40.7716C165.085 40.3308 165.954 40.1103 167.069 40.1103C168.054 40.1103 168.832 40.2919 169.403 40.6549C169.986 41.018 170.401 41.5366 170.648 42.2108C170.907 42.885 171.037 43.6954 171.037 44.6419V45.8866H168.956V44.7781C168.956 44.1946 168.923 43.6824 168.858 43.2416C168.807 42.7878 168.651 42.4377 168.392 42.1914C168.132 41.945 167.698 41.8218 167.089 41.8218C166.466 41.8218 166.012 41.958 165.727 42.2303C165.442 42.4896 165.254 42.8656 165.163 43.3583C165.085 43.838 165.046 44.402 165.046 45.0503V51.2934C165.046 52.0843 165.111 52.7132 165.241 53.1799C165.371 53.6337 165.584 53.9579 165.883 54.1524C166.181 54.3469 166.583 54.4441 167.089 54.4441C167.685 54.4441 168.113 54.3145 168.372 54.0551C168.631 53.7829 168.794 53.4133 168.858 52.9466C168.923 52.4798 168.956 51.9352 168.956 51.3129V50.1459H171.037V51.3129C171.037 52.2723 170.92 53.1216 170.687 53.8606C170.453 54.5867 170.051 55.1572 169.481 55.5721C168.91 55.9741 168.106 56.1751 167.069 56.1751ZM174.569 56.1556C174.129 56.1556 173.785 56.0389 173.539 55.8055C173.292 55.5721 173.117 55.2804 173.014 54.9303C172.923 54.5803 172.877 54.2237 172.877 53.8606V44.7586H174.958V53.2383C174.958 53.6402 175.017 53.9579 175.134 54.1913C175.25 54.4117 175.49 54.5219 175.853 54.5219C176.086 54.5219 176.326 54.4571 176.573 54.3274C176.832 54.1848 177.078 54.0162 177.312 53.8217V44.7586H179.393V56H177.312V54.8914C176.949 55.2415 176.534 55.5397 176.067 55.7861C175.613 56.0324 175.114 56.1556 174.569 56.1556ZM181.716 56V40.2465H183.797V56H181.716ZM188.961 56.1556C188.377 56.1556 187.904 56.0454 187.541 55.825C187.191 55.6046 186.931 55.2934 186.763 54.8914C186.607 54.4895 186.529 54.0162 186.529 53.4717V46.1395H185.343V44.7586H186.529V41.4718H188.61V44.7586H190.419V46.1395H188.61V53.3355C188.61 53.7764 188.682 54.094 188.824 54.2885C188.967 54.47 189.239 54.5608 189.641 54.5608C189.745 54.5608 189.862 54.5543 189.991 54.5414C190.134 54.5284 190.27 54.5154 190.4 54.5025V56.0389C190.14 56.0778 189.901 56.1037 189.68 56.1167C189.46 56.1426 189.22 56.1556 188.961 56.1556ZM193.562 56.1556C193.122 56.1556 192.778 56.0389 192.532 55.8055C192.285 55.5721 192.11 55.2804 192.007 54.9303C191.916 54.5803 191.87 54.2237 191.87 53.8606V44.7586H193.951V53.2383C193.951 53.6402 194.01 53.9579 194.126 54.1913C194.243 54.4117 194.483 54.5219 194.846 54.5219C195.079 54.5219 195.319 54.4571 195.566 54.3274C195.825 54.1848 196.071 54.0162 196.305 53.8217V44.7586H198.386V56H196.305V54.8914C195.942 55.2415 195.527 55.5397 195.06 55.7861C194.606 56.0324 194.107 56.1556 193.562 56.1556ZM200.572 56V44.7586H202.653V46.3534C203.068 45.6662 203.483 45.2059 203.898 44.9725C204.313 44.7392 204.728 44.6225 205.143 44.6225C205.195 44.6225 205.24 44.6225 205.279 44.6225C205.331 44.6225 205.396 44.6289 205.473 44.6419V46.9369C205.318 46.872 205.136 46.8202 204.929 46.7813C204.734 46.7294 204.533 46.7035 204.326 46.7035C204.002 46.7035 203.704 46.7813 203.431 46.9369C203.172 47.0795 202.913 47.3647 202.653 47.7926V56H200.572ZM208.785 56.1556C208.345 56.1556 207.956 56.0324 207.618 55.7861C207.281 55.5268 207.016 55.2026 206.821 54.8136C206.627 54.4117 206.529 53.9903 206.529 53.5495C206.529 52.8493 206.646 52.2594 206.879 51.7796C207.113 51.2999 207.43 50.8979 207.832 50.5738C208.247 50.2367 208.721 49.945 209.252 49.6986C209.797 49.4522 210.367 49.2124 210.964 48.979V48.1816C210.964 47.7278 210.938 47.3518 210.886 47.0536C210.834 46.7553 210.724 46.5349 210.555 46.3923C210.4 46.2367 210.16 46.1589 209.836 46.1589C209.55 46.1589 209.317 46.2237 209.135 46.3534C208.967 46.4831 208.844 46.6711 208.766 46.9174C208.688 47.1508 208.649 47.4296 208.649 47.7537V48.3177L206.588 48.2399C206.614 46.9952 206.899 46.0811 207.443 45.4977C207.988 44.9012 208.831 44.603 209.972 44.603C211.087 44.603 211.878 44.9077 212.345 45.5171C212.811 46.1265 213.045 47.0082 213.045 48.1621V53.2966C213.045 53.6467 213.051 53.9838 213.064 54.308C213.09 54.6321 213.116 54.9368 213.142 55.2221C213.181 55.4943 213.213 55.7537 213.239 56H211.333C211.294 55.7926 211.242 55.5332 211.178 55.2221C211.126 54.8979 211.087 54.6062 211.061 54.3469C210.931 54.7877 210.678 55.2026 210.302 55.5916C209.939 55.9676 209.434 56.1556 208.785 56.1556ZM209.602 54.3663C209.81 54.3663 210.004 54.308 210.186 54.1913C210.367 54.0746 210.529 53.9449 210.672 53.8023C210.815 53.6467 210.912 53.5235 210.964 53.4328V50.2432C210.64 50.4247 210.335 50.6062 210.05 50.7877C209.764 50.9693 209.512 51.1637 209.291 51.3712C209.084 51.5657 208.915 51.7926 208.785 52.0519C208.669 52.2983 208.61 52.5835 208.61 52.9077C208.61 53.3615 208.695 53.718 208.863 53.9773C209.032 54.2367 209.278 54.3663 209.602 54.3663Z" fill="black"/>
</svg>
