<svg width="55" height="30" viewBox="0 0 55 30" fill="none" xmlns="http://www.w3.org/2000/svg">
<path d="M5.58687 0C2.50643 0 0 2.50333 0 5.57995V23.5793L4.47035 29.9999H22.535V27.2507L25.0844 29.9999H54.9998V0H5.58687ZM53.7058 28.7075H25.6498L21.241 23.9553V28.7075H5.14742L1.29401 23.1747V5.57995C1.29401 3.21387 3.22215 1.29241 5.58687 1.29241H53.7058V28.7075Z" fill="white"/>
<path d="M19.6994 8.42775H30.949V11.7231H23.0003V18.3095H30.949V21.6049H23.0003L19.6994 18.3095V8.42775Z" fill="white"/>
<path d="M48.3451 4.23329H45.0456V7.52865H48.3451V4.23329Z" fill="white"/>
<path d="M9.95557 11.7232V18.3096H15.3521V15.0143H18.6515V21.6064H6.65469V12.0492C6.65469 10.0491 8.27793 8.4264 10.2819 8.4264H18.6515V11.7232H9.95557Z" fill="white"/>
<path d="M48.3494 8.4264V21.6078H45.0443V11.7203H39.6449V21.6078H36.3469V11.7203H31.9982V8.4264H48.3494Z" fill="white"/>
</svg>