<svg width="32" height="23" viewBox="0 0 32 23" fill="none" xmlns="http://www.w3.org/2000/svg">
<path d="M1.87696 22.0919C1.37677 22.0919 0.957782 21.9224 0.620004 21.5834C0.28105 21.2457 0.111572 20.8267 0.111572 20.3265C0.111572 19.8263 0.28105 19.4073 0.620004 19.0695C0.957782 18.7306 1.37677 18.5611 1.87696 18.5611H30.1232C30.6234 18.5611 31.0423 18.7306 31.3801 19.0695C31.7191 19.4073 31.8885 19.8263 31.8885 20.3265C31.8885 20.8267 31.7191 21.2457 31.3801 21.5834C31.0423 21.9224 30.6234 22.0919 30.1232 22.0919H1.87696ZM1.87696 13.2649C1.37677 13.2649 0.957782 13.0955 0.620004 12.7565C0.28105 12.4187 0.111572 11.9997 0.111572 11.4996C0.111572 10.9994 0.28105 10.5798 0.620004 10.2408C0.957782 9.90305 1.37677 9.73417 1.87696 9.73417H30.1232C30.6234 9.73417 31.0423 9.90305 31.3801 10.2408C31.7191 10.5798 31.8885 10.9994 31.8885 11.4996C31.8885 11.9997 31.7191 12.4187 31.3801 12.7565C31.0423 13.0955 30.6234 13.2649 30.1232 13.2649H1.87696ZM1.87696 4.438C1.37677 4.438 0.957782 4.26911 0.620004 3.93134C0.28105 3.59238 0.111572 3.17281 0.111572 2.67261C0.111572 2.17242 0.28105 1.75285 0.620004 1.41389C0.957782 1.07612 1.37677 0.907227 1.87696 0.907227H30.1232C30.6234 0.907227 31.0423 1.07612 31.3801 1.41389C31.7191 1.75285 31.8885 2.17242 31.8885 2.67261C31.8885 3.17281 31.7191 3.59238 31.3801 3.93134C31.0423 4.26911 30.6234 4.438 30.1232 4.438H1.87696Z" fill="#006CB5"/>
</svg>
