<svg width="686" height="288" viewBox="0 0 686 288" fill="none" xmlns="http://www.w3.org/2000/svg">
<path d="M189.188 7.31286V37.2383C189.188 39.1747 188.419 41.0318 187.05 42.401C185.681 43.7702 183.824 44.5394 181.887 44.5394H44.562V58.867H113.053C114.989 58.867 116.846 59.6363 118.216 61.0055C119.585 62.3747 120.354 64.2318 120.354 66.1682V96.1279C120.354 98.0654 119.585 99.9236 118.216 101.295C116.847 102.666 114.99 103.437 113.053 103.441H44.5391V279.675C44.5391 281.612 43.7703 283.47 42.4014 284.841C41.0325 286.212 39.1755 286.984 37.238 286.987H11.8214C14.1102 286.106 15.7695 284.469 19.5116 280.247C25.5539 273.38 26.1261 271.584 23.5513 267.075C22.796 265.736 20.244 254.43 17.8294 241.899L13.5494 219.194L18.31 223.062C24.5195 227.778 28.9194 234.485 30.7723 242.059C31.7565 245.812 32.9809 249.051 33.4845 249.257C35.5443 250.115 36.4026 245.824 35.5215 239.129C34.3313 229.974 29.7157 221.796 21.6745 214.594C18.6013 211.908 15.8376 208.887 13.435 205.588C12.1876 203.573 10.7228 202.006 10.1506 202.086C9.2143 202.142 8.27473 202.068 7.35834 201.868C6.89939 201.757 6.41655 201.8 5.98431 201.99C5.55207 202.18 5.19444 202.508 4.9666 202.921C4.62328 203.711 6.55728 217.672 9.26945 233.934L14.1903 263.504L10.2994 264.763C6.39416 266.128 2.86562 268.394 0 271.378V7.31286C-2.37243e-06 5.37543 0.768856 3.51718 2.13775 2.14614C3.50665 0.775092 5.36369 0.00332445 7.30112 0.00029247H181.887C183.825 0.00332445 185.682 0.775092 187.051 2.14614C188.42 3.51718 189.188 5.37543 189.188 7.31286Z" fill="white"/>
<path d="M60.9609 248.227C58.2946 251.008 58.1687 248.639 58.4433 247.083C59.7937 243.272 62.0023 242.299 65.5385 241.578C69.0746 240.857 72.9769 245.595 73.2973 247.678C73.6178 249.76 72.153 250.184 70.5394 247.872C68.9258 245.561 64.2911 244.76 60.9609 248.227Z" fill="#FEAA00"/>
<path d="M99.8125 247.643C99.8125 248.994 99.103 250.905 96.3794 247.724C93.0035 243.741 88.5862 245.664 86.801 248.055C85.3819 249.978 84.455 248.547 84.1689 247.598C85.5193 243.775 86.5263 241.876 92.1795 240.892C96.6655 240.056 99.1374 245.046 99.8125 247.643Z" fill="#FEAA00"/>
<path d="M94.6857 268.837L98.9199 263.047L98.5881 270.222C98.0906 276.446 95.5522 282.331 91.367 286.964H68.6626C64.37 282.724 61.7184 277.101 61.1784 271.092L60.4231 263.081L65.0922 269.627C66.8245 271.993 68.8685 274.114 71.1688 275.932C73.9153 278.072 76.8907 279.526 79.5113 279.526C82.1319 279.526 85.2332 277.981 88.1285 275.658C90.5879 273.664 92.7905 271.373 94.6857 268.837Z" fill="#FEAA00"/>
<path d="M57.8597 234.701V124.028C57.8597 122.091 58.6289 120.234 59.9981 118.865C61.3674 117.496 63.2244 116.727 65.1608 116.727H95.0977C97.0341 116.727 98.8912 117.496 100.26 118.865C101.63 120.234 102.399 122.091 102.399 124.028V235.307C85.5651 227.731 68.5825 230.569 57.8597 234.701Z" fill="#FEAA00"/>
<path d="M122.277 286.964H110.032C108.794 284.749 107.438 282.602 105.969 280.533C105.117 282.738 104.123 284.887 102.994 286.964H99.5608C100.442 285.717 101.117 284.675 101.586 283.817C107.308 269.478 107.697 252.507 106.942 242.425H110.867C111.518 249.962 111.268 257.549 110.123 265.027C119.77 269.043 122.311 278.851 122.277 286.964Z" fill="#FEAA00"/>
<path d="M131.352 265.393C130.207 268.975 129.154 268.826 128.788 268.322C129.26 265.458 128.857 262.518 127.632 259.887C126.407 257.255 124.417 255.054 121.922 253.571L122.391 250.951C130.562 254.43 132.816 260.918 131.352 265.393Z" fill="#FEAA00"/>
<path d="M173.694 182.265C173.664 182.384 173.674 182.51 173.721 182.623C173.768 182.737 173.851 182.832 173.957 182.895C174.056 182.969 174.176 183.009 174.3 183.009C174.424 183.009 174.544 182.969 174.643 182.895C176.728 181.14 179.037 179.67 181.51 178.523C183.934 177.339 186.523 176.526 189.188 176.108V200.587H188.971C187.598 200.69 185.927 200.701 184.165 200.655C180.64 200.552 176.795 200.22 174.323 199.934C174.24 199.918 174.154 199.918 174.071 199.934C170.965 200.922 167.738 201.476 164.481 201.582H151.699C150.701 201.617 149.71 201.767 148.746 202.029C147.795 202.25 146.917 202.711 146.194 203.368C145.856 203.701 145.615 204.121 145.496 204.581C145.381 205.089 145.408 205.62 145.576 206.114C146.165 207.549 147.124 208.801 148.357 209.742L148.471 209.822C150.341 210.59 152.344 210.979 154.365 210.966C158.618 211.103 162.873 210.746 167.045 209.902C171.296 210.203 175.511 210.901 179.633 211.985C181.516 212.359 183.443 212.46 185.355 212.282C186.499 212.214 187.861 212.111 189.234 211.973V279.663C189.234 281.601 188.465 283.459 187.096 284.83C185.727 286.201 183.87 286.973 181.933 286.976H129.624C136.925 276.917 142.074 262.475 144.1 254.796C140.747 249.783 135.529 245.641 129.933 242.437H144.649V66.2025C144.649 65.2427 144.838 64.2924 145.206 63.4058C145.574 62.5193 146.113 61.7139 146.792 61.0358C147.471 60.3576 148.277 59.8201 149.164 59.4538C150.051 59.0876 151.002 58.8999 151.962 58.9014H181.887C183.824 58.9014 185.681 59.6706 187.05 61.0398C188.419 62.409 189.188 64.2661 189.188 66.2025V169.128C187.958 169.438 186.746 169.82 185.561 170.272C180.194 172.275 175.284 175.96 173.694 182.265Z" fill="#FEAA00"/>
<path d="M567.05 199.98C570.792 195.849 571.925 196.261 571.925 201.777C571.925 205.404 570.666 208.048 566.673 212.797C558.937 222.021 556.465 230.466 560.516 233.831C562.804 235.73 566.638 234.346 566.638 231.542C566.638 228.109 572.028 218.073 573.882 218.073C575.736 218.073 579.821 232.824 580.245 241.819L580.519 247.758L573.653 248.158C569.282 248.41 565.311 247.804 562.759 246.488C555.664 242.826 551.315 230.627 554.096 221.986C555.412 217.867 563.846 203.516 567.05 199.98Z" fill="white"/>
<path d="M581.183 260.918V268.093C581.183 277.432 579.181 284.115 575.816 287.01H566.466C566.085 286.72 565.829 286.295 565.752 285.822C565.675 285.349 565.784 284.865 566.055 284.469C567.216 281.168 567.252 277.575 566.158 274.25C564.395 269.673 552.082 274.674 552.093 279.972C552.204 281.624 552.719 283.223 553.592 284.63C552.36 283.288 551.678 281.531 551.681 279.709V245.744C557.266 253.697 568.332 260.518 576.766 260.758L581.183 260.918Z" fill="white"/>
<path d="M574.145 173.259C571.994 166.908 567.954 148.083 567.954 144.478C567.954 140.118 570.792 132.004 573.436 128.834C575.381 126.545 580.462 126.545 582.488 129.052C584.273 131.192 584.639 140.804 583.243 148.964C581.904 156.78 574.901 175.513 574.145 173.259Z" fill="white"/>
<path d="M588.29 230.02C584.078 210.806 584.239 209.765 591.048 212.362C592.192 212.82 594.389 215.521 595.843 218.382C595.98 218.649 596.106 218.912 596.22 219.171V235.112C595.631 236.62 594.908 238.072 594.057 239.45L591.334 243.867L588.29 230.02Z" fill="white"/>
<path d="M685.997 7.31286V67.1638C685.998 68.1235 685.81 69.0742 685.444 69.9613C685.078 70.8484 684.54 71.6547 683.862 72.3338C683.184 73.013 682.379 73.5518 681.492 73.9195C680.606 74.2871 679.655 74.4763 678.696 74.4763H648.77C646.831 74.4763 644.971 73.7059 643.599 72.3345C642.228 70.9632 641.458 69.1032 641.458 67.1638V44.5394H596.22V205.13C593.385 203.107 589.948 202.107 586.47 202.292H580.199L578.482 194.281C576.983 187.22 577.029 185.79 578.906 182.631C581.801 177.733 587.123 159 589.102 146.732C591.082 134.465 589.594 128.64 583.232 123.845C576.869 119.05 572.131 119.53 565.952 125.836C561.26 130.642 560.745 131.867 560.23 139.362C559.852 145.37 560.848 152.569 563.915 165.889C566.203 175.937 567.76 185.527 567.348 187.197C566.936 188.868 564.166 193.286 561.225 197.005C557.364 201.976 554.135 207.408 551.612 213.175V7.31286C551.611 6.3473 551.801 5.39101 552.171 4.49937C552.542 3.60772 553.086 2.79843 553.771 2.11834C554.457 1.43825 555.27 0.900864 556.165 0.5373C557.059 0.173735 558.017 -0.00878934 558.982 0.00029247H678.696C679.655 0.000291291 680.606 0.189519 681.492 0.55715C682.379 0.924781 683.184 1.4636 683.862 2.14279C684.54 2.82197 685.078 3.62819 685.444 4.51533C685.81 5.40246 685.998 6.3531 685.997 7.31286Z" fill="white"/>
<path d="M685.997 219.801V279.652C685.998 280.611 685.81 281.562 685.444 282.449C685.078 283.336 684.54 284.143 683.862 284.822C683.184 285.501 682.379 286.04 681.492 286.407C680.606 286.775 679.655 286.964 678.696 286.964H585.6C588.507 283.417 589.777 278.164 590.567 269.593L591.711 257.817L598.234 251.5C602.102 247.769 603.865 245.606 605.032 242.425H641.515V219.801C641.515 218.841 641.704 217.891 642.072 217.004C642.439 216.118 642.978 215.312 643.657 214.634C644.336 213.956 645.143 213.418 646.03 213.052C646.917 212.686 647.868 212.498 648.827 212.5H678.753C680.68 212.512 682.524 213.287 683.882 214.655C685.239 216.023 686 217.873 685.997 219.801Z" fill="white"/>
<path d="M432.735 281.448C432.368 282.764 432.574 283.073 433.49 282.593C433.867 282.331 434.182 281.991 434.416 281.596C434.649 281.201 434.794 280.76 434.84 280.304C434.978 278.152 433.375 279.068 432.735 281.448ZM500.905 208.277C500.894 208.894 500.967 209.51 501.123 210.108H501.443V207.533C501.196 207.724 501.009 207.982 500.905 208.277Z" fill="#76A485"/>
<path d="M534.046 131.684H421.314C420.354 131.684 419.404 131.873 418.517 132.241C417.631 132.608 416.825 133.147 416.147 133.826C415.469 134.505 414.931 135.312 414.565 136.199C414.199 137.086 414.011 138.037 414.013 138.996V279.652C414.001 279.812 414.001 279.972 414.013 280.132C414.505 277.248 416.668 274.307 420.65 271.87C424.358 269.581 425.8 269.329 431.533 269.821L438.136 270.382L444.11 249.371C449.832 229.23 450.175 228.315 452.406 227.308C453.856 226.715 455.449 226.563 456.984 226.873L459.273 227.491L456.675 234.266C455.233 237.996 451.274 250.836 447.852 262.806C444.51 274.491 441.203 285.168 440.368 286.964H451.193C453.133 286.964 454.993 286.194 456.364 284.822C457.736 283.451 458.506 281.591 458.506 279.652V250.047H496.763V279.652C496.762 280.851 497.061 282.031 497.632 283.085C497.781 277.363 503.835 269.627 511.102 266.514L514.649 264.992L507.52 237.344C504.373 225.134 501.798 214.308 501.077 210.108C500.921 209.51 500.848 208.894 500.859 208.277C500.963 207.982 501.15 207.724 501.397 207.533C501.867 207.173 502.457 207.009 503.045 207.075C503.93 207.199 504.827 207.199 505.712 207.075C506.238 206.949 507.771 208.323 509.145 210.119C511.707 213.049 514.585 215.685 517.727 217.981C525.929 224.085 530.987 231.462 532.902 240.113C534.298 246.442 533.84 250.539 531.758 249.898C531.265 249.738 529.846 246.762 528.599 243.283C526.205 236.253 521.471 230.258 515.187 226.301L510.392 223.051L516.343 244.233C519.627 255.883 522.992 266.4 523.827 267.601C526.642 271.675 526.253 273.483 521.081 280.441C518.368 284.092 516.938 285.877 515.278 286.953H533.989C535.927 286.95 537.784 286.178 539.152 284.807C540.521 283.436 541.29 281.578 541.29 279.64V138.996C541.29 137.069 540.529 135.219 539.173 133.85C537.816 132.48 535.974 131.702 534.046 131.684ZM496.808 205.507H458.552V176.234H496.808V205.507Z" fill="#76A485"/>
<path d="M208.723 270.245C211.423 265.897 212.421 260.705 211.527 255.666C210.911 251.341 210.88 246.953 211.435 242.62C211.893 237.962 212.648 233.465 213.22 230.695C213.3 223.139 211.795 215.651 208.803 208.712C206.8 209.135 204.225 209.639 201.513 210.131V279.652C201.513 281.591 202.284 283.451 203.655 284.822C205.026 286.194 206.886 286.964 208.826 286.964H211.115C210.824 286.529 210.614 286.044 210.497 285.534C210.324 284.803 210.24 284.053 210.245 283.302V276.436C208.322 274.96 207.51 273.655 207.441 272.522C207.414 272.06 207.52 271.599 207.747 271.195C207.975 270.791 208.313 270.461 208.723 270.245ZM215.2 159.858C214.918 159.161 214.382 158.597 213.701 158.279C211.86 157.41 209.854 156.946 207.819 156.917C207.743 156.915 207.669 156.897 207.6 156.866C207.531 156.834 207.47 156.79 207.418 156.734C206.738 157.718 205.951 158.624 205.072 159.435C204.162 160.302 203.072 160.959 201.88 161.357L201.513 161.449V167.926C203.666 167.809 205.795 167.424 207.853 166.782C210.537 166.094 212.909 164.517 214.582 162.307C214.861 161.971 215.062 161.577 215.169 161.153C215.275 160.729 215.286 160.287 215.2 159.858ZM220.464 177.505C220.169 176.261 219.493 175.141 218.53 174.3C217.677 173.598 216.648 173.143 215.555 172.984C213.451 172.694 211.308 172.946 209.329 173.717C206.777 174.395 204.181 174.895 201.559 175.216V181.041H201.799C206.995 181.246 212.13 182.233 217.031 183.97C217.407 184.167 217.818 184.286 218.241 184.32C218.664 184.353 219.09 184.301 219.491 184.165C219.763 184.015 219.999 183.808 220.185 183.56C220.37 183.311 220.5 183.026 220.567 182.723C220.939 180.999 220.904 179.212 220.464 177.505ZM239.243 219.137C235.21 218.568 231.261 217.515 227.479 216.001C227.342 219.338 227.028 222.665 226.541 225.969C226.163 229.014 225.338 231.988 224.092 234.792C221.344 240.7 219.504 246.988 218.633 253.445C218.793 263.379 218.553 270.714 218.164 275.864C218.028 278.993 217.607 282.103 216.905 285.156C216.877 285.232 216.834 285.302 216.779 285.362C216.287 285.948 215.739 286.485 215.143 286.964H238.751C240.689 286.961 242.546 286.189 243.915 284.818C245.284 283.447 246.052 281.589 246.052 279.652V219.4C243.78 219.527 241.5 219.439 239.243 219.137ZM332.544 172.046C334.078 172.046 335.531 171.6 335.772 170.982C336.332 169.54 338.941 169.105 341.654 170.009C342.615 170.318 345.155 171.05 347.81 171.783V7.31286C347.81 5.37543 347.042 3.51718 345.673 2.14614C344.304 0.775092 342.447 0.00332445 340.509 0.00029247H310.572C308.633 0.00029247 306.773 0.770721 305.402 2.14209C304.03 3.51347 303.26 5.37345 303.26 7.31286V159.515L246.041 6.27148C246.015 6.20078 245.985 6.13195 245.949 6.06549C245.66 4.36687 244.778 2.82568 243.461 1.71538C242.143 0.605083 240.474 -0.00255 238.751 0.00029247H208.826C206.886 0.00029247 205.026 0.770721 203.655 2.14209C202.284 3.51347 201.513 5.37345 201.513 7.31286V149.513C202.253 149.696 202.98 149.93 203.688 150.211C203.604 149.784 203.524 149.338 203.447 148.872C203.127 147.304 203.269 145.676 203.856 144.187C204.443 142.698 205.45 141.412 206.755 140.484C207.714 139.755 208.789 139.194 209.936 138.825C210.364 138.68 210.804 138.577 211.252 138.516C211.592 138.446 211.942 138.446 212.282 138.516C213.277 138.848 217.168 140.026 219.022 140.598C220.992 141.006 222.892 141.696 224.664 142.647C225.474 143.077 226.142 143.733 226.587 144.535C226.772 144.927 226.828 145.368 226.747 145.794C226.649 146.265 226.423 146.701 226.095 147.053C224.416 149.029 223.553 151.57 223.68 154.159C223.786 155.288 224.06 156.395 224.492 157.444C224.815 158.128 225.303 158.722 225.911 159.172C226.575 159.71 227.411 160.213 228.578 161.003C230.059 162.014 231.481 163.111 232.835 164.287C236.405 167.377 237.607 171.657 237.71 176.063C237.672 180.367 237.115 184.651 236.051 188.822C235.52 190.991 234.753 193.094 233.762 195.094C238.599 196.926 242.845 200.044 246.041 204.111V123.593L297.836 266.034C299.941 263.035 301.269 262.2 306.212 260.438L312.289 258.275L309.085 237.275C306.018 217.146 305.961 216.207 307.528 214.388C308.572 213.254 309.931 212.457 311.431 212.099L313.719 211.733L314.154 218.771C314.383 222.65 316.054 235.605 317.862 247.575C319.67 259.545 321.078 270.565 320.998 272.087C320.757 276.493 316.5 280.247 309.92 281.872C307.96 282.382 305.936 282.605 303.912 282.535C304.478 283.834 305.411 284.94 306.596 285.717C307.781 286.493 309.167 286.907 310.584 286.907H340.521C342.458 286.904 344.315 286.132 345.684 284.761C347.053 283.39 347.822 281.532 347.822 279.594V238.981C345.894 240.886 343.795 242.61 341.551 244.13C333.906 249.303 331.16 249.989 333.254 246.213C333.55 245.766 333.72 245.247 333.746 244.711C333.772 244.176 333.653 243.643 333.403 243.169C332.853 242.551 333.471 241.91 334.856 241.67C336.241 241.429 336.859 240.789 336.39 240.251C335.92 239.713 337.477 237.745 339.891 235.891C342.766 233.632 345.421 231.107 347.822 228.349V186.007C343.439 181.624 338.415 179.004 336.641 181.601C335.211 183.696 333.86 183.73 333.506 181.693C333.449 181.45 333.345 181.22 333.199 181.018C333.053 180.815 332.868 180.644 332.655 180.514C332.442 180.384 332.205 180.298 331.958 180.261C331.711 180.223 331.459 180.236 331.217 180.297C329.718 180.572 329.649 180.903 330.897 181.785C335.154 184.817 333.014 193.698 326.868 198.481C324.293 200.495 323.161 200.77 320.128 200.072C313.136 198.492 312.117 191.832 317.565 183.81C321.993 177.379 328.837 171.989 332.544 172.046ZM313.342 268.311C312.621 266.411 311.568 267.876 311.957 270.233C312.175 271.549 312.484 271.744 313.101 270.92C313.326 270.528 313.463 270.092 313.505 269.642C313.546 269.191 313.491 268.738 313.342 268.311Z" fill="#FECD20"/>
<path d="M534.046 0.00029247H366.441C364.503 0.00332445 362.646 0.775092 361.278 2.14614C359.909 3.51718 359.14 5.37543 359.14 7.31286V177.619C359.609 178.054 360.09 178.535 360.582 179.049C367.528 186.351 368.764 193.389 365.228 205.37C363.603 211.075 361.568 216.655 359.14 222.067V279.64C359.14 281.578 359.909 283.436 361.278 284.807C362.646 286.178 364.503 286.95 366.441 286.953H396.378C398.315 286.95 400.172 286.178 401.541 284.807C402.91 283.436 403.679 281.578 403.679 279.64V121.361H534.046C535.984 121.358 537.841 120.587 539.21 119.216C540.579 117.845 541.347 115.986 541.347 114.049V7.31286C541.347 5.37543 540.579 3.51718 539.21 2.14614C537.841 0.775092 535.984 0.00332445 534.046 0.00029247ZM376.866 181.041C372.804 175.067 373.525 168.533 378.583 165.534C381.1 164.047 381.272 164.058 385.838 166.164C389.466 167.823 390.255 168.807 390.679 172.137C391.72 180.228 381.009 187.129 376.866 181.041ZM388.676 211.779C383.79 212.648 379.155 204.741 381.055 198.756C382.359 194.636 391.663 194.636 394.673 198.756C397.682 202.875 394.169 210.794 388.676 211.779ZM496.808 76.8223H403.679V44.5394H496.808V76.8223Z" fill="#EB2D34"/>
</svg>
