<svg width="18" height="12" viewBox="0 0 18 12" fill="none" xmlns="http://www.w3.org/2000/svg">
<path fill-rule="evenodd" clip-rule="evenodd" d="M0.024353 1.00012C0.024353 0.447837 0.472068 0.00012207 1.02435 0.00012207H16.0244C16.5766 0.00012207 17.0244 0.447837 17.0244 1.00012C17.0244 1.55241 16.5766 2.00012 16.0244 2.00012H1.02435C0.472068 2.00012 0.024353 1.55241 0.024353 1.00012ZM0.024353 6.00012C0.024353 5.44784 0.472068 5.00012 1.02435 5.00012H16.0244C16.5766 5.00012 17.0244 5.44784 17.0244 6.00012C17.0244 6.55241 16.5766 7.00012 16.0244 7.00012H1.02435C0.472068 7.00012 0.024353 6.55241 0.024353 6.00012ZM0.024353 11.0001C0.024353 10.4478 0.472068 10.0001 1.02435 10.0001H16.0244C16.5766 10.0001 17.0244 10.4478 17.0244 11.0001C17.0244 11.5524 16.5766 12.0001 16.0244 12.0001H1.02435C0.472068 12.0001 0.024353 11.5524 0.024353 11.0001Z" fill="currentColor"/>
</svg>
