<svg width="293" height="55" viewBox="0 0 293 55" fill="none" xmlns="http://www.w3.org/2000/svg">
<path d="M55.5189 46.6762C55.6067 47.0031 55.9786 47.6248 56.7632 47.496C56.2606 47.9742 55.3081 48.4797 55.5189 46.6762Z" fill="white"/>
<path d="M56.7632 43.927C56.1839 42.4378 54.8929 42.0955 54.3198 42.1105C54.7195 41.8103 55.7084 41.3539 56.4666 41.9304C57.2248 42.5068 56.9803 43.5017 56.7632 43.927Z" fill="white"/>
<path d="M61.676 45.2181C60.8353 44.7377 59.8644 45.2081 59.4841 45.5033C61.3577 45.5033 62.0663 46.6843 62.1864 47.2748C62.3665 46.7894 62.5167 45.6985 61.676 45.2181Z" fill="white"/>
<path d="M53.1788 46.4491C53.379 46.299 53.8334 46.1068 54.0496 46.5392C54.0696 45.9587 53.9235 45.128 53.1788 46.4491Z" fill="white"/>
<path d="M58.4783 49.1064C58.6634 49.1264 58.9917 49.2865 58.8236 49.7669C59.1839 49.4266 59.6192 48.8181 58.4783 49.1064Z" fill="white"/>
<path d="M58.178 49.4967C54.4549 50.2773 53.6643 48.0405 53.7343 46.8244C52.4853 48.7821 53.304 50.0321 53.8694 50.4124C55.779 51.7095 57.5375 50.3424 58.178 49.4967Z" fill="white"/>
<path fill-rule="evenodd" clip-rule="evenodd" d="M126.098 50.3376L126.09 50.3331C125.826 50.1797 125.566 50.0212 125.311 49.8577C125.331 49.8017 125.349 49.7426 125.364 49.6803C125.411 49.4935 125.074 49.1637 124.893 49.0995C124.756 49.0512 124.637 48.9787 124.598 48.8882C122.019 42.868 124.622 40.2461 126.656 38.1961C127.171 37.6778 127.649 37.1961 127.998 36.7053C128.98 35.3237 127.208 33.2146 125.087 33.2433C124.985 33.2446 124.903 33.3268 124.894 33.4284C124.646 36.2302 124.423 37.37 123.871 38.3158C123.833 38.381 123.762 38.4191 123.687 38.4113C122.692 38.3074 120.633 37.4871 119.151 34.9159C119.055 34.749 118.817 34.7836 118.8 34.9755C118.749 35.5663 118.779 36.3745 119.086 36.8711L119.092 36.8806C119.522 37.5775 120.022 38.388 122.582 39.5609C122.709 39.6188 122.745 39.7818 122.654 39.887L122.636 39.9087C122.52 40.042 122.398 40.1833 122.268 40.3346C120.689 42.1766 120.174 44.9303 120.84 45.9299C120.017 44.9508 119.281 43.8831 118.632 42.729L118.625 42.7164L118.618 42.7036L118.618 42.7034C116.835 39.4428 115.977 35.7519 115.977 31.6985V7.49082C115.977 5.70816 116.62 4.10228 117.923 2.85931C119.229 1.56621 120.891 0.963374 122.705 0.963374C124.429 0.963374 125.93 1.65773 127.13 2.83683C128.475 4.06452 129.166 5.67466 129.166 7.49082V31.6985C129.166 33.5613 129.551 35.059 130.232 36.2741C131.002 37.5218 131.967 38.4574 133.135 39.128C134.383 39.819 135.666 40.1504 137.016 40.1504C138.536 40.1504 139.918 39.8013 141.201 39.1074C142.475 38.4191 143.502 37.4652 144.306 36.2115C145.052 35.0069 145.468 33.5333 145.468 31.6985V7.49082C145.468 5.8404 145.955 4.28756 147.061 3.02113C148.248 1.61248 149.878 0.963374 151.661 0.963374C153.444 0.963374 155.06 1.60953 156.276 2.96255C157.451 4.22401 157.988 5.79703 157.988 7.49082V31.6985C157.988 35.7581 157.105 39.4539 155.273 42.7161C153.503 45.9482 151.028 48.5021 147.875 50.3331C146.858 50.9232 145.795 51.4154 144.689 51.8121C144.479 51.4641 144.211 51.2961 143.937 51.1244C143.824 51.0535 143.71 50.982 143.599 50.8969C143.506 50.8258 143.433 50.7348 143.393 50.6228C143.354 50.5116 143.355 50.4006 143.377 50.3005C143.418 50.1118 143.537 49.9315 143.658 49.7776C143.784 49.6179 143.941 49.4532 144.092 49.2968L144.147 49.2398C144.196 49.1894 144.244 49.1398 144.291 49.0909C144.261 49.0731 144.23 49.0549 144.2 49.0366C144.125 48.9909 144.049 48.9438 143.982 48.902C143.622 49.2491 143.323 49.5855 143.142 49.9017C142.938 50.2577 142.913 50.5343 143.046 50.7703C143.24 51.1133 143.462 51.2596 143.713 51.4255L143.738 51.4425C143.928 51.5681 144.132 51.708 144.304 51.9456C142.06 52.6983 139.64 53.0669 137.065 53.0715C137.073 53.0521 137.082 53.0327 137.09 53.0134C137.173 52.8167 137.255 52.5805 137.335 52.3176C137.494 51.7913 137.656 51.1243 137.814 50.3827C138.131 48.8976 138.443 47.0772 138.701 45.4071C138.883 44.2298 139.039 43.1235 139.153 42.2565C139.174 42.0994 139.121 41.9415 139.011 41.8279C138.901 41.7142 138.744 41.6573 138.587 41.6733L134.774 42.0609C134.559 42.0827 134.38 42.2357 134.325 42.4447C134.108 43.2705 133.778 44.5338 133.465 45.7513C133.19 46.8197 132.926 47.8607 132.763 48.5386C132.429 48.4913 132.045 48.4829 131.686 48.5644C131.389 48.632 131.071 48.7705 130.828 49.0398C130.577 49.3181 130.452 49.6844 130.459 50.113C130.466 50.5872 130.615 51.0691 131.07 51.2801C131.482 51.4715 131.92 51.3251 132.218 51.1614C132.543 50.9836 132.855 50.7058 133.104 50.3894C133.348 50.0808 133.556 49.7053 133.649 49.3058C133.657 49.2792 133.663 49.2525 133.667 49.2259C133.781 48.7136 134.065 47.5842 134.382 46.3488L137.569 45.9317C137.336 47.3926 137.069 48.9069 136.801 50.1663C136.657 50.838 136.515 51.4296 136.378 51.8987C136.097 51.6654 135.748 51.5315 135.409 51.4883C135.028 51.4396 134.599 51.499 134.251 51.7346C133.896 51.975 133.677 52.3657 133.673 52.8549C130.944 52.4899 128.413 51.6604 126.105 50.3415L126.098 50.3376ZM119.729 30.6657C119.848 30.2443 119.933 29.5929 119.979 29.1108C119.992 28.973 120.133 28.8839 120.263 28.9313C121.985 29.559 123.24 29.7896 124.011 29.9311C124.555 30.0312 124.857 30.0866 124.91 30.2063C125.006 30.4227 124.836 31.4294 124.714 32.0369C124.694 32.135 124.607 32.2036 124.508 32.2107C123.466 32.2848 120.716 33.1227 119.173 33.6304C119.034 33.6761 118.894 33.5679 118.914 33.423C119 32.8077 119.23 32.1541 119.384 31.7892C119.417 31.7109 119.496 31.6635 119.581 31.6679L120.74 31.7284C120.997 31.7418 121.044 31.3689 120.792 31.3182L119.979 31.1541C119.805 31.1192 119.681 30.8357 119.729 30.6657ZM126.633 38.5779C125.422 39.9415 124.029 41.9958 124.029 43.4934C124.029 45.7318 124.323 48.8657 125.267 48.6979C125.284 48.6949 125.3 48.6889 125.314 48.6806C125.558 48.5409 125.546 48.2723 125.437 47.5805C125.292 46.6661 124.661 42.6511 126.248 39.9624L126.902 38.7795C127.016 38.5742 126.789 38.4025 126.633 38.5779ZM153.494 37.5607C151.498 36.5601 149.647 35.1844 148.799 34.4968C149.501 33.8126 150.747 33.6707 151.81 34.162C152.378 34.4247 152.876 34.8636 153.187 35.4785C153.46 36.0193 153.596 36.7102 153.494 37.5607ZM153.494 38.1618C151.195 37.0507 149.053 35.4149 148.27 34.7599C147.955 34.6364 147.696 34.7566 147.532 34.9513C147.444 35.0552 147.394 35.1692 147.38 35.2582C147.374 35.3019 147.377 35.3319 147.381 35.3492C147.385 35.3641 147.39 35.3679 147.391 35.3688C147.962 35.8548 148.95 36.6256 150.052 37.3506C151.124 38.0556 152.283 38.7042 153.262 39.0147C153.419 38.9317 153.501 38.8134 153.537 38.681C153.576 38.5383 153.565 38.3578 153.494 38.1618ZM149.756 37.8012C150.761 38.4624 151.876 39.0982 152.874 39.4528C152.556 39.8898 151.878 40.4991 150.683 40.6456C150.312 40.5441 149.717 40.2859 149.139 39.9274C148.532 39.5506 147.99 39.0913 147.737 38.6314L147.73 38.6191L147.722 38.6076C147.451 38.2159 147.296 37.6896 147.258 37.1469C147.23 36.7542 147.263 36.3672 147.347 36.0343C147.946 36.5237 148.81 37.1788 149.756 37.8012ZM150.263 41.0776C149.855 40.9321 149.343 40.689 148.855 40.3857C148.361 40.0794 147.862 39.6944 147.515 39.2613C147.407 39.4498 147.292 39.6633 147.172 39.8885L147.061 40.0957C146.926 40.3492 146.788 40.6097 146.652 40.8534C147.375 41.5762 148.128 42.0752 149.382 42.4871C149.522 42.2598 149.661 42.0408 149.795 41.83C149.963 41.5667 150.122 41.316 150.263 41.0776ZM146.377 41.3391C147.106 42.0443 147.89 42.5496 149.101 42.9616C148.727 43.6132 148.38 44.3015 148.049 44.9648L147.973 45.1176C147.619 45.8289 147.282 46.5041 146.942 47.0842C146.576 47.7092 146.221 48.1967 145.858 48.4925C145.507 48.7792 145.172 48.8703 144.807 48.7568L144.807 48.7566C144.804 48.7558 144.795 48.752 144.776 48.743C144.755 48.7328 144.728 48.7189 144.696 48.7016C144.633 48.6669 144.557 48.6225 144.479 48.5753C144.351 48.4976 144.223 48.4163 144.14 48.3638L144.093 48.334C143.913 48.2203 143.799 47.9565 143.835 47.443C143.871 46.9442 144.046 46.3013 144.317 45.5754C144.818 44.2332 145.626 42.6706 146.377 41.3391Z" fill="white"/>
<path d="M121.016 46.1373C121.074 46.2046 121.133 46.2715 121.192 46.3379C121.136 46.2697 121.077 46.2028 121.016 46.1373Z" fill="white"/>
<path fill-rule="evenodd" clip-rule="evenodd" d="M184.131 13.9579L184.121 13.9556C183.157 13.7332 182.117 13.6171 180.993 13.6171C178.847 13.6171 177.001 13.9538 175.416 14.5787C173.866 15.2078 172.563 16.0999 171.478 17.2569L171.465 17.271L171.451 17.2849C170.369 18.4033 169.522 19.7509 168.919 21.361C168.358 22.9791 168.061 24.8119 168.061 26.8837C168.061 29.3726 168.407 31.4224 169.032 33.0852C169.721 34.8001 170.628 36.1634 171.729 37.2283C172.846 38.3091 174.162 39.1272 175.707 39.6825C177.298 40.2096 179.054 40.4848 180.993 40.4848C182.045 40.4848 183.099 40.3875 184.159 40.1913C185.118 40.0137 186.047 39.6936 186.952 39.2228L186.99 39.203L187.029 39.1845C188.335 38.5628 189.737 38.2902 191.178 38.5044C192.783 38.7359 194.107 39.5626 195.086 40.8145C196.344 42.393 196.937 44.276 196.498 46.3053C196.226 47.6799 195.549 48.8115 194.554 49.656C194.308 49.2353 194.056 48.8341 193.808 48.4846C193.508 48.061 193.223 47.7247 192.973 47.5205C192.261 46.9405 191.985 46.4364 191.813 46.0229C191.777 45.9366 191.748 45.8618 191.722 45.7941L191.722 45.7936C191.683 45.6926 191.65 45.6068 191.608 45.5213C191.545 45.3938 191.476 45.2999 191.366 45.2236C191.26 45.1508 191 45.0064 190.632 44.8143C190.27 44.6249 189.814 44.3953 189.329 44.1545C188.419 43.7033 187.406 43.214 186.701 42.8774L182.719 47.2084C183.376 47.6984 184.287 48.4032 185.091 49.0785C185.533 49.449 185.944 49.8128 186.265 50.1287C186.426 50.2866 186.566 50.4347 186.676 50.5674C186.784 50.6967 186.874 50.8239 186.922 50.9386C187.054 51.2511 187.329 51.6374 187.633 52.0026C187.774 52.1722 187.918 52.3337 188.052 52.4766C187.111 52.7135 186.158 52.9016 185.193 53.0409C183.814 53.2847 182.413 53.4059 180.993 53.4059C177.518 53.4059 174.187 52.8499 171.015 51.7278L171.01 51.7257L171.004 51.7236L171.003 51.7234C169.102 51.04 167.314 50.1574 165.644 49.0774C165.902 47.5273 166.143 45.9951 166.351 44.6199C166.545 43.3378 166.71 42.1895 166.835 41.2866C166.845 41.2154 166.83 41.1465 166.797 41.0887C167.203 40.5851 167.711 39.8406 167.914 38.9173C168.171 37.7448 167.927 36.337 166.52 34.8235C166.457 34.7561 166.368 34.7199 166.276 34.7248C166.184 34.7296 166.099 34.7749 166.043 34.8486C166.025 34.8735 166.003 34.9023 165.977 34.9349C165.459 35.6101 163.695 37.9064 165.02 41.0853C164.851 41.9999 164.643 43.1459 164.419 44.4087C164.231 45.475 164.031 46.6265 163.833 47.7935C163.508 47.5417 163.189 47.2816 162.874 47.0133C162.366 44.345 161.665 41.0533 161.062 38.3251C160.786 37.073 160.53 35.9371 160.322 35.0305C160.931 33.4114 161.104 32.1129 161.062 31.1359C161.019 30.1512 160.757 29.4708 160.479 29.1321C160.427 29.0679 160.351 29.0274 160.268 29.0196C160.185 29.0117 160.103 29.0372 160.04 29.0903C158.478 30.3923 157.912 31.7121 157.882 32.8597C157.859 33.7792 158.181 34.5559 158.559 35.0865C158.519 35.15 158.502 35.2281 158.517 35.3076C158.68 36.2045 158.894 37.3447 159.141 38.6175C159.476 40.3379 159.874 42.3053 160.291 44.2428C158.138 41.6083 156.967 39.3297 156.606 38.3407C155.16 34.9508 154.471 31.1147 154.471 26.8837C154.471 23.1709 155.099 19.6936 156.385 16.4791L156.391 16.4634L156.397 16.448C157.721 13.2613 159.574 10.4856 161.96 8.14911C164.383 5.77596 167.221 3.95227 170.452 2.67766C173.711 1.34685 177.234 0.695936 180.993 0.695936C183.142 0.695936 185.25 0.940344 187.311 1.43123C189.364 1.91988 191.307 2.63125 193.135 3.56871C194.968 4.48983 196.146 6.0604 196.451 8.10538C196.788 10.0585 196.269 11.8781 195.034 13.4037C194.07 14.704 192.709 15.5202 191.061 15.6786C189.667 15.8167 188.315 15.5264 187.047 14.9261C186.146 14.5139 185.178 14.1907 184.14 13.96L184.131 13.9579ZM182.512 46.8212L182.007 44.9742L183.88 43.2142L186.11 42.9081L182.512 46.8212ZM183.488 43.0135L183.126 42.653L182.917 43.55L183.488 43.0135ZM182.751 42.4361L182.372 44.0622L181.79 44.6093C181.729 44.5396 181.66 44.4635 181.59 44.3877L182.021 43.2208L182.751 42.4361ZM181.269 44.062L181.288 44.009L181.253 44.0473L181.263 44.0566L181.269 44.062ZM168.444 47.4206C168.113 49.4414 169.415 49.4016 170.107 49.1291C170.474 48.9103 170.761 48.5069 171.072 48.0693C171.522 47.4352 172.024 46.7292 172.896 46.4082C173.419 46.315 174.354 46.4048 173.913 47.5105C173.473 48.6161 173.981 49.2193 174.29 49.3827C176.301 49.8626 176.339 47.6899 176.107 46.5436C175.999 46.0009 176.022 44.9205 176.976 44.941C177.78 44.9583 177.945 44.4923 178.127 43.9778C178.215 43.7291 178.307 43.4691 178.478 43.2468C178.796 42.8306 179.284 42.9111 179.753 42.9886C180.053 43.0382 180.346 43.0865 180.582 43.0032C181.188 42.7895 181.025 41.9549 179.903 41.6794C178.781 41.404 177.822 41.9836 176.888 43.0756C175.953 44.1677 175.142 44.3911 174.055 44.4221C173.185 44.4469 172.057 44.8935 171.602 45.1137C169.247 46.0635 168.516 47.0474 168.444 47.4206ZM175.689 41.366C175.596 41.627 175.294 42.2097 174.832 42.4527C174.613 42.568 174.435 42.7143 174.276 42.8452C174.099 42.9902 173.946 43.1163 173.784 43.1612C173.289 43.2984 172.675 43.1616 172.7 42.2775C172.733 41.1075 174.01 41.2153 174.645 41.4155C174.854 41.5175 175.355 41.6503 175.689 41.366Z" fill="white"/>
<path d="M189.359 52.1105C189.328 52.1208 189.296 52.1309 189.265 52.141C189.194 52.1462 189.122 52.1144 189.079 52.0513C189.014 51.9567 189.038 51.8277 189.133 51.7631L191.97 49.8234C192.065 49.7588 192.194 49.7831 192.258 49.8776C192.323 49.9721 192.299 50.1011 192.204 50.1657L189.367 52.1054C189.364 52.1072 189.362 52.1089 189.359 52.1105Z" fill="white"/>
<path d="M159.183 35.4948C159.325 36.2666 159.499 37.1928 159.697 38.213L160.381 38.1264C160.154 37.0987 159.942 36.1593 159.762 35.3746L159.183 35.4948Z" fill="white"/>
<path d="M165.779 44.2392C165.934 43.2115 166.069 42.2788 166.177 41.5017L165.594 41.406C165.447 42.1976 165.275 43.1451 165.091 44.1815L165.779 44.2392Z" fill="white"/>
<path d="M189.576 48.7956C189.686 48.7644 189.75 48.6497 189.719 48.5396C189.687 48.4295 189.573 48.3655 189.463 48.3968C189.268 48.4521 189.071 48.6088 188.892 48.7863C188.706 48.9704 188.514 49.204 188.33 49.4505C187.963 49.944 187.616 50.5075 187.409 50.8767C187.353 50.9765 187.388 51.1029 187.488 51.159C187.588 51.2151 187.714 51.1797 187.77 51.0798C187.972 50.7216 188.309 50.1739 188.663 49.6982C188.84 49.4601 189.019 49.2445 189.184 49.0806C189.356 48.9102 189.489 48.8202 189.576 48.7956Z" fill="white"/>
<path d="M189.711 50.1347C189.802 50.0647 189.818 49.9345 189.748 49.8439C189.678 49.7534 189.548 49.7367 189.458 49.8067C189.069 50.1071 188.576 50.6893 188.381 50.937C188.31 51.0269 188.325 51.1573 188.415 51.2281C188.505 51.2989 188.636 51.2833 188.707 51.1934C188.9 50.9476 189.367 50.4012 189.711 50.1347Z" fill="white"/>
<path fill-rule="evenodd" clip-rule="evenodd" d="M89.8453 39.5083L89.8109 39.4886L89.777 39.4677C88.9824 38.9788 88.2803 38.379 87.694 37.6624L87.5994 37.5468L81.0032 27.1172V46.2097C81.0032 47.9164 80.4598 49.4905 79.3149 50.7786L79.2917 50.8047L79.2679 50.8299C78.5185 51.6262 77.6283 52.1597 76.6522 52.4553C76.2627 51.9582 75.8329 51.4025 75.3901 50.8203C74.3978 49.5158 73.3445 48.0838 72.5328 46.8802C72.4019 46.6861 72.2779 46.4988 72.1617 46.3195C71.9505 45.9934 71.7655 45.6941 71.6137 45.4299C71.7661 45.4111 71.914 45.3711 72.0535 45.3149C72.2334 45.2425 72.3996 45.1432 72.5438 45.0274C72.8378 44.7912 73.0886 44.4474 73.1593 44.0401C73.2351 43.6035 73.0905 43.1606 72.7082 42.8162C72.4014 42.5398 72.0631 42.3547 71.7051 42.3163C71.3396 42.2771 71.0114 42.3977 70.7578 42.6224C70.7519 42.6276 70.746 42.6329 70.7401 42.6383C70.2619 43.0772 70.0927 43.8425 70.1545 44.601C70.1698 44.788 70.2394 44.9884 70.3165 45.1698C70.3983 45.3621 70.509 45.5796 70.6396 45.8135C70.9013 46.2819 71.2601 46.8469 71.6734 47.4598C71.779 47.6163 71.8885 47.7765 72.0012 47.9396C72.7721 49.0547 73.6951 50.3042 74.565 51.4479C74.894 51.8803 75.2158 52.2983 75.5196 52.6889C75.2429 52.7212 74.9614 52.7372 74.6764 52.7372C72.9908 52.7372 71.4548 52.1527 70.2578 50.94C70.2221 50.9039 70.1868 50.8672 70.1518 50.83L70.128 50.8048L70.1049 50.7787C68.9599 49.4907 68.4164 47.9164 68.4164 46.2097V40.7509V29.455V23.4534V13.0794V7.49082C68.4164 5.73449 69.0695 4.17319 70.2935 2.92817C70.308 2.9135 70.3225 2.89887 70.3371 2.88429L70.3605 2.8608L70.3846 2.83801C71.683 1.60797 73.2875 0.963374 75.0776 0.963374C76.1489 0.963374 77.1604 1.26258 78.0858 1.74258C79.1016 2.20241 80.0106 2.88662 80.6589 3.85913L80.667 3.87121L93.2111 23.1778L106.161 3.83173L106.177 3.8085L106.177 3.80822C107.428 2.0302 109.232 0.963374 111.456 0.963374C113.168 0.963374 114.699 1.59183 115.964 2.72392C117.364 3.9766 118.05 5.63745 118.05 7.49082V46.2097C118.05 47.9591 117.456 49.5515 116.245 50.8331L116.221 50.8585L116.196 50.8833C115.694 51.3859 115.135 51.7779 114.535 52.0693C114.841 51.5495 115.012 50.8521 114.946 49.9323C114.697 46.5136 115.049 43.2503 115.256 42.046C116.319 40.1482 116.012 38.482 115.567 37.551C115.482 37.3728 115.256 37.4412 115.256 37.6386V39.3022C115.256 39.4824 115.042 39.5768 114.909 39.4552L113.312 37.9966C113.201 37.8946 113.231 37.7092 113.366 37.6398C113.963 37.3315 114.863 36.7185 115.238 35.9226C115.25 35.8963 115.256 35.8676 115.256 35.8385V35.2527C115.256 35.0862 115.07 34.9868 114.93 35.0774C114.107 35.6114 112.787 36.383 112.132 36.4684C112.07 36.4764 112.011 36.4488 111.972 36.4009C111.514 35.8489 110.761 34.8199 110.498 34.0503C110.438 33.8753 110.194 33.7997 110.106 33.9624C109.825 34.4804 109.658 35.3231 110.19 36.3332C110.269 36.4845 110.156 36.7018 109.998 36.7674C109.544 36.9561 109.001 37.5234 108.854 38.861C108.834 39.0396 109.045 39.1493 109.195 39.0493C109.764 38.6678 110.655 38.2314 111.428 38.3446C111.469 38.3505 111.506 38.3703 111.536 38.3991L115.256 42.046C114.948 43.6613 113.919 47.1901 112.262 48.3835C111.01 49.2858 109.889 48.2808 109.199 47.2092C109.074 47.0157 108.717 47.1111 108.735 47.3406C108.965 50.2262 109.713 51.8591 110.374 52.6651C109.006 52.4779 107.746 51.9208 106.699 50.9321L106.648 50.884L106.6 50.8331C105.39 49.5515 104.795 47.9592 104.795 46.2097V27.4869L98.1856 37.5626L98.104 37.6624C97.4974 38.4038 96.7548 39.0071 95.9188 39.4894C95.0019 40.0452 93.9699 40.3447 92.869 40.3025C91.7653 40.3464 90.7427 40.0211 89.8453 39.5083ZM115.312 32.2629C114.442 32.3525 112.903 32.3067 111.797 31.612C111.654 31.5221 111.445 31.6098 111.411 31.7752C111.333 32.1483 111.173 32.6278 110.885 32.9885C110.81 33.0835 110.811 33.224 110.907 33.2981C111.681 33.8926 113.375 34.7348 115.26 34.2945C115.345 34.2746 115.407 34.2009 115.414 34.1138L115.552 32.493C115.563 32.3587 115.446 32.2491 115.312 32.2629ZM75.4464 43.3839C75.5038 43.5316 75.6256 43.6449 75.777 43.6915C75.9284 43.738 76.0928 43.7128 76.2233 43.623L79.2995 41.5053C79.4775 41.3828 79.5607 41.1627 79.5085 40.953C79.3071 40.1455 78.9971 38.9114 78.6941 37.7242C78.4299 36.6887 78.1692 35.681 77.9909 35.0248C78.2966 34.9083 78.6254 34.736 78.8919 34.4999C79.1156 34.3016 79.3245 34.0321 79.4068 33.6846C79.4919 33.3253 79.4257 32.9506 79.218 32.585C78.9888 32.1814 78.6314 31.8342 78.1368 31.8673C77.6886 31.8972 77.3793 32.2324 77.2004 32.5132C77.0056 32.8188 76.8687 33.204 76.8033 33.5928C76.7395 33.972 76.7374 34.3923 76.8456 34.7795C76.8512 34.8063 76.8588 34.8323 76.8682 34.8571C77.0102 35.3473 77.2958 36.4407 77.603 37.6411L75.0964 39.4753C74.6132 38.1228 74.1338 36.711 73.7749 35.514C73.5854 34.8819 73.4317 34.3169 73.3289 33.856C73.6749 33.9187 74.0309 33.8686 74.3366 33.7484C74.6875 33.6104 75.0293 33.3567 75.218 32.9888C75.4202 32.5946 75.4139 32.1287 75.1514 31.6862C74.9407 31.3311 74.6728 31.0537 74.3424 30.9105C73.9973 30.761 73.6395 30.7828 73.3254 30.9309C72.7382 31.2077 72.349 31.888 72.1824 32.6305C72.1413 32.8135 72.1482 33.0256 72.1678 33.2218C72.1887 33.4297 72.2297 33.6702 72.2848 33.9324C72.3953 34.4575 72.5698 35.1036 72.782 35.8117C73.2071 37.2296 73.7943 38.9313 74.3564 40.4795C74.7525 41.5709 75.1375 42.5895 75.4464 43.3839Z" fill="white"/>
<path d="M58.4056 52.7372H65.6362C67.3299 52.7372 68.9029 52.2002 70.1643 51.0255C70.1958 50.9972 70.227 50.9687 70.2578 50.94C70.2221 50.9039 70.1868 50.8672 70.1518 50.83L70.128 50.8048L70.1049 50.7787C68.9599 49.4907 68.4164 47.9164 68.4164 46.2097V40.7509C67.5658 40.3496 66.6283 40.1504 65.6362 40.1504H60.6128C62.2528 41.3437 64.4118 42.4033 67.0584 42.7854C67.1405 42.7973 67.1896 42.8841 67.1514 42.9578C65.7534 45.6596 62.2604 51.1326 58.8334 52.5639C58.6885 52.6244 58.5459 52.6821 58.4056 52.7372Z" fill="white"/>
<path fill-rule="evenodd" clip-rule="evenodd" d="M4.91481 47.9577C4.64229 48.1422 4.45067 48.4157 4.37514 48.7543C3.86196 48.3719 3.35609 47.9656 2.85753 47.5358C2.82809 47.5108 2.79884 47.4856 2.76979 47.4603C2.81571 47.4393 2.85939 47.4171 2.90039 47.3946C3.22275 47.2178 3.53286 46.9416 3.78114 46.6271C4.02334 46.3203 4.2303 45.947 4.3229 45.5497C4.331 45.5232 4.33687 45.4966 4.34063 45.4701C4.45407 44.9616 4.73556 43.8414 5.04987 42.6156L8.20774 42.2023C7.9763 43.6516 7.7121 45.1533 7.4454 46.4025C7.30353 47.0671 7.16254 47.6525 7.02726 48.1174C6.74843 47.8874 6.4027 47.7553 6.06762 47.7125C5.68823 47.6641 5.26115 47.7232 4.91481 47.9577Z" fill="white"/>
<path d="M36.7888 15.3241C37.9173 14.1293 38.594 12.6546 38.594 10.9682C38.594 9.21057 37.9041 7.7103 36.7849 6.48607C36.7326 6.83564 36.7067 7.19345 36.7067 7.55773V15.4097C36.7342 15.3814 36.7616 15.3529 36.7888 15.3241Z" fill="white"/>
<path fill-rule="evenodd" clip-rule="evenodd" d="M10.8735 52.1578L10.8925 52.1636C13.6596 53.0036 16.7136 53.4059 20.0296 53.4059C20.2816 53.4059 20.5325 53.4024 20.7823 53.3954C20.6452 53.225 20.4929 53.0394 20.3318 52.8429L20.3307 52.8416C20.2715 52.7695 20.2111 52.6959 20.1498 52.6211C19.6952 52.0658 19.1996 51.4505 18.8609 50.9273C17.9429 49.5093 17.2451 48.2784 16.774 47.2891C16.5386 46.7947 16.3566 46.354 16.2322 45.976C16.1105 45.6063 16.0326 45.2634 16.031 44.9758C16.0267 44.2018 16.2572 43.4409 16.7735 43.0345C17.0496 42.8173 17.397 42.7147 17.7709 42.7837C18.129 42.8498 18.4568 43.0626 18.7463 43.3661C19.1059 43.7431 19.2176 44.2008 19.1078 44.6351C19.0053 45.0406 18.7258 45.3689 18.4103 45.5851C18.103 45.7959 17.7136 45.934 17.3123 45.9218C17.4131 46.1897 17.5451 46.4975 17.7099 46.8435C18.1561 47.7805 18.8293 48.9712 19.731 50.364C20.0331 50.8306 20.4913 51.4019 20.9519 51.9644C21.0115 52.0372 21.0713 52.1101 21.1309 52.1827L21.1311 52.1829C21.3563 52.4572 21.5777 52.727 21.7679 52.9698L23.9199 51.0519C23.7182 50.7007 23.4749 50.3272 23.1982 49.9025L23.1981 49.9023C22.9707 49.5532 22.7208 49.1695 22.4528 48.735C22.4459 48.7238 22.4394 48.7123 22.4333 48.7005C22.1002 48.0547 21.8468 47.5067 21.6442 47.0636L21.59 46.9448L21.5897 46.9443L21.5896 46.9441C21.4211 46.575 21.2977 46.3048 21.1904 46.1085C21.176 46.0867 21.1631 46.0635 21.1518 46.039C20.9566 45.6808 20.8627 45.2644 20.8394 44.8742C20.8155 44.4742 20.8633 44.0617 20.9863 43.7152C21.0994 43.3964 21.3284 42.9967 21.762 42.8658C22.2402 42.7215 22.6707 42.9812 22.9897 43.3285C23.2781 43.6425 23.4283 43.9972 23.426 44.3706C23.4237 44.7318 23.2791 45.0452 23.103 45.2922C22.8879 45.5939 22.5925 45.8443 22.31 46.0308C22.3785 46.1758 22.4507 46.3342 22.5278 46.503C22.5472 46.5456 22.5669 46.5888 22.5869 46.6327C22.7856 47.0673 23.0282 47.5916 23.3454 48.2078C23.5723 48.5749 23.8016 48.9277 24.0206 49.2646C24.4171 49.8746 24.7799 50.4326 25.0333 50.9306C25.1401 51.1404 25.092 51.3959 24.9162 51.5525L23.0303 53.2333C25.2622 52.9709 27.3947 52.4083 29.4179 51.537C32.3782 50.2814 34.8303 48.4466 36.7067 46.0186C36.7218 45.999 36.7369 45.9795 36.7519 45.9598C38.5797 43.5735 39.527 40.7818 39.6501 37.6825C39.6501 36.1173 39.428 33.9714 39.317 33.0941C39.1226 32.0961 38.8426 31.1544 38.4676 30.277C38.0115 29.1854 37.424 28.1912 36.7067 27.3024C36.1268 26.5838 35.462 25.9342 34.7132 25.3576C33.1006 24.0722 31.1364 23.0859 28.8879 22.3519C26.7529 21.6407 24.304 21.0373 21.5556 20.5329C19.597 20.1492 17.9583 19.732 16.623 19.289C15.4515 18.8593 14.6993 18.368 14.2316 17.8938C13.9257 17.5129 13.7176 16.9951 13.7176 16.1842C13.7176 15.6009 13.8782 15.159 14.194 14.7589C14.5196 14.3465 15.0854 13.9052 16.0702 13.5297C17.0609 13.1687 18.3812 12.9484 20.0964 12.9484C20.9744 12.9484 21.9835 13.1007 23.1378 13.447L23.1739 13.4578L23.2104 13.4676C24.4048 13.7861 25.5305 14.2016 26.5909 14.7122L26.6245 14.7284L26.6586 14.7435C27.7183 15.2145 28.4443 15.6745 28.9163 16.0875L28.9857 16.1482L29.0595 16.2036C30.0183 16.9226 31.1356 17.2951 32.334 17.2951C34.0483 17.2951 35.5381 16.607 36.7067 15.4097V7.55773C36.7067 7.19345 36.7326 6.83564 36.7849 6.48607C36.4759 6.1481 36.1342 5.83116 35.7652 5.53565C33.9225 3.96559 31.6175 2.75091 28.9326 1.83732C26.1915 0.844139 23.2385 0.361588 20.0964 0.361588C16.7318 0.361588 13.5953 0.947912 10.7205 2.15837C7.80806 3.38466 5.41472 5.20753 3.61636 7.64061L3.60603 7.65458L3.5959 7.6687C1.78342 10.1952 0.930172 13.1876 0.930172 16.5186C0.930172 18.7036 1.28659 20.7566 2.04152 22.644L2.04608 22.6554L2.05079 22.6668C2.80647 24.502 3.91533 26.1211 5.35818 27.5105L5.39139 27.5425L5.42581 27.5732C6.91252 28.9006 8.69642 29.9728 10.7328 30.8171L10.7565 30.827L10.7805 30.8363C12.8147 31.6301 15.1169 32.2049 17.6646 32.5823L17.6651 32.5824L17.674 32.5837L17.6831 32.585C20.1048 32.9249 21.988 33.3993 23.3895 33.9674L23.4161 33.9782L23.4429 33.9884C24.8634 34.5258 25.6835 35.1132 26.1285 35.6324C26.5175 36.0863 26.7428 36.6436 26.7428 37.4495C26.7428 37.8641 26.612 38.273 26.1664 38.7503C25.6166 39.2927 24.8305 39.8043 23.7257 40.236C22.6451 40.6149 21.4207 40.8191 20.0296 40.8191C17.8068 40.8191 16.0808 40.4948 14.771 39.9455C13.3711 39.3386 11.894 38.423 10.3427 37.1574L10.3337 37.1501L10.3245 37.1427C9.22688 36.2646 7.93104 35.8037 6.52141 35.8037C4.7408 35.8037 3.15838 36.4771 1.93287 37.7747L1.92997 37.7778C0.796417 38.9821 0.19458 40.4712 0.19458 42.1306C0.19458 43.1778 0.45943 44.1744 0.921153 45.0979C1.02444 45.3045 1.13677 45.5048 1.2577 45.6988C1.31858 45.5443 1.40447 45.4047 1.51504 45.2822C1.75706 45.0141 2.07361 44.8763 2.3694 44.8091C2.72495 44.7282 3.10553 44.7362 3.43686 44.7829C3.59888 44.1096 3.86068 43.0773 4.13314 42.0181C4.44416 40.809 4.77178 39.5545 4.98752 38.7344C5.04249 38.5254 5.22135 38.3725 5.43632 38.3507L9.22226 37.9657C9.37987 37.9497 9.53614 38.0067 9.6465 38.1203C9.75686 38.234 9.80918 38.3918 9.78854 38.5489C9.67534 39.41 9.52018 40.5086 9.33943 41.6777C9.08301 43.3363 8.77399 45.1441 8.45911 46.6189C8.30188 47.3554 8.14129 48.0179 7.98282 48.5407C7.90368 48.8018 7.82257 49.0365 7.73952 49.232C7.66105 49.4166 7.56378 49.6083 7.4385 49.7505C7.23925 49.9766 7.01477 50.1775 6.7762 50.3362C8.09134 51.0928 9.45071 51.7005 10.8545 52.1517L10.8735 52.1578ZM32.1515 30.503C32.1889 31.5483 31.7646 33.0707 30.6977 35.183C30.955 35.4831 31.2245 35.7481 31.4823 35.9777C31.7032 35.8594 31.9412 35.7808 32.1819 35.7356C32.7222 35.6342 33.299 35.6943 33.8115 35.8575C34.3216 36.02 34.81 36.2983 35.1527 36.6767C35.9728 37.5819 36.122 38.8303 35.5186 39.894C35.6751 40.1777 35.7977 40.461 35.8897 40.7467C36.2863 41.9778 36.0828 43.1629 35.7692 44.4333C35.3646 46.0729 34.0313 46.9405 32.7989 47.1591C32.1842 47.2681 31.5538 47.2247 31.0373 47.0034C30.5115 46.7781 30.0711 46.3466 29.9833 45.7025C29.9163 45.2113 29.9475 44.7959 30.0745 44.4507C30.2044 44.0973 30.424 43.8474 30.678 43.681C31.1403 43.3782 31.6821 43.3791 31.8812 43.3794L31.8988 43.3794C32.2978 43.3794 32.6756 43.5553 32.9667 43.7891C33.2615 44.0259 33.514 44.3584 33.6399 44.7432C33.7408 45.0517 33.7603 45.3982 33.6483 45.7399C34.1634 45.4121 34.5869 44.898 34.7629 44.1849C35.0714 42.9347 35.204 41.9986 34.9031 41.0645C34.8716 40.9666 34.835 40.8679 34.7927 40.7679C33.9674 41.4809 32.6971 41.9488 31.0156 41.9986C30.074 42.0265 29.3553 41.7453 28.9004 41.1663C28.4657 40.6128 28.3507 39.8833 28.3779 39.1758C28.4277 37.8806 28.9652 36.3798 29.4773 35.3035C28.7594 34.2877 28.3262 33.1068 28.1919 32.0437C28.0809 31.1648 28.2226 30.3361 28.6165 29.7078C29.0199 29.0643 29.6775 28.6554 30.4967 28.6554C30.9194 28.6554 31.3444 28.7924 31.6643 29.1363C31.978 29.4733 32.1315 29.9458 32.1515 30.503Z" fill="white"/>
<path d="M46.3413 32.7351C46.4679 33.1423 46.9637 33.9446 47.9338 33.896C48.9039 33.8475 49.5984 33.9923 49.8244 34.0707C49.8049 33.7086 49.4789 32.9817 48.3309 32.9718C47.1829 32.9619 46.5261 32.8099 46.3413 32.7351Z" fill="white"/>
<path d="M41.4612 36.5589C41.506 36.247 41.7861 35.5642 42.5486 35.3283C43.5017 35.0334 43.7243 34.1435 43.7267 33.3763C43.6105 33.6505 43.1543 34.2426 42.2589 34.4181C41.3635 34.5935 41.3541 35.9184 41.4612 36.5589Z" fill="white"/>
<path d="M45.2302 37.703C45.1145 37.5386 44.9846 37.2511 45.3904 37.4157C45.7963 37.5804 46.3493 37.3478 46.5751 37.211C46.6954 37.0869 46.9363 36.928 46.937 37.2845C46.9379 37.7301 45.9022 38.218 45.2302 37.703Z" fill="white"/>
<path d="M49.282 39.9651C48.9909 39.4492 48.0663 38.5395 46.6969 39.0288C45.3278 39.518 45.1895 40.6736 45.1282 41.1862C45.115 41.2961 45.1054 41.3764 45.0879 41.4143C45.6851 40.4456 45.8621 40.3393 46.6965 39.8385C46.7327 39.8168 46.7701 39.7944 46.8088 39.7711C47.5582 39.3203 48.7699 39.7126 49.282 39.9651Z" fill="white"/>
<path d="M29.4947 30.2584C29.2573 30.6372 29.1315 31.211 29.2203 31.9138C29.3134 32.6512 29.581 33.4696 30.0149 34.2221C30.8671 32.4355 31.1412 31.2559 31.1156 30.5401C31.1013 30.1418 30.9966 29.9403 30.9055 29.8423C30.8206 29.7512 30.6943 29.692 30.4967 29.692C30.0602 29.692 29.7227 29.8947 29.4947 30.2584Z" fill="white"/>
<path d="M30.2131 36.1911C29.8066 37.1363 29.45 38.272 29.4137 39.2156C29.3907 39.8136 29.4997 40.2512 29.7156 40.526C29.9114 40.7753 30.27 40.9837 30.9849 40.9625C32.6358 40.9136 33.6824 40.427 34.259 39.8484C33.8067 39.2338 33.1235 38.5588 32.1104 37.781C32.0743 37.7532 32.0201 37.7144 31.9514 37.6652L31.9506 37.6646C31.8429 37.5874 31.6991 37.4844 31.5313 37.357C31.4152 37.606 31.3516 37.976 31.4317 38.5196C31.4893 38.9102 31.7143 39.122 31.8769 39.18C31.9541 39.2076 32.01 39.2008 32.0487 39.1841C32.0858 39.168 32.157 39.1213 32.2233 38.9764C32.3424 38.7161 32.6499 38.6016 32.9102 38.7206C33.1705 38.8397 33.285 39.1472 33.1659 39.4075C33.0121 39.7437 32.7716 40.0009 32.4599 40.1356C32.1498 40.2696 31.8198 40.2603 31.5284 40.1563C30.9539 39.9512 30.5113 39.3834 30.4062 38.6708C30.2874 37.8644 30.3969 37.1954 30.7195 36.6846C30.5533 36.5336 30.3826 36.3688 30.2131 36.1911Z" fill="white"/>
<path d="M33.4969 36.8452C33.1445 36.7329 32.7723 36.695 32.4452 36.7424C32.4682 36.7591 32.4905 36.7751 32.5119 36.7906L32.5372 36.8089C32.6202 36.8688 32.6895 36.9188 32.7417 36.9588C33.6218 37.6345 34.3017 38.2644 34.8127 38.8761C34.9275 38.3474 34.7779 37.8068 34.3845 37.3726C34.1928 37.161 33.8777 36.9665 33.4969 36.8452Z" fill="white"/>
<path fill-rule="evenodd" clip-rule="evenodd" d="M38.594 10.9682C38.594 12.6546 37.9173 14.1293 36.7888 15.3241C36.7616 15.3529 36.7342 15.3814 36.7067 15.4097V27.3024C37.424 28.1912 38.0115 29.1854 38.4676 30.277C38.8426 31.1544 39.1226 32.0961 39.317 33.0941C39.428 33.9714 39.6501 36.1173 39.6501 37.6825C39.527 40.7818 38.5797 43.5735 36.7519 45.9598C36.7369 45.9795 36.7218 45.999 36.7067 46.0186V46.2097C36.7067 47.9592 37.3014 49.5515 38.5118 50.8331L38.5599 50.884L38.6107 50.932C39.8923 52.1424 41.4847 52.7372 43.2341 52.7372H51.9355C51.282 51.4513 50.693 49.2471 51.4401 46.6082C51.8948 45.372 53.1127 42.6318 54.7942 40.1504H51.7311L51.3429 40.1517C50.7624 41.489 49.672 43.3882 48.6022 43.8428C47.3111 44.3915 45.6697 43.2026 44.9188 42.6586C44.7645 42.5468 44.6477 42.4623 44.5794 42.4257C44.1786 42.2109 43.6845 41.7995 42.7476 40.9425C41.998 40.257 40.725 37.5542 40.1822 36.2885L39.3554 32.9208C39.3836 33.0006 39.4341 32.8835 39.4101 31.7765C39.3862 30.6695 40.6345 30.7809 41.2616 30.9749C42.0252 31.2515 43.6784 30.7234 44.8575 30.3467C45.4042 30.1721 45.849 30.03 46.0561 30.0158C46.4314 29.9899 47.2513 29.6148 47.9915 29.2761L47.9917 29.276C48.5404 29.0249 49.0453 28.7939 49.2927 28.7401C49.7576 28.639 50.2131 29.4233 50.3826 29.8281L51.11 32.6756H62.627C64.2888 32.6756 65.8515 32.1814 67.1223 31.0601L67.1237 31.0588L67.129 31.0541C67.6638 30.5788 68.0931 30.0416 68.4164 29.455V23.4534C68.1061 22.8836 67.696 22.359 67.1828 21.8924C65.9331 20.6693 64.3524 20.0888 62.627 20.0888H49.9622V13.6171H65.6362C66.6083 13.6171 67.5488 13.4459 68.4164 13.0794V7.49082C68.4164 5.73449 69.0695 4.17319 70.2935 2.92817C70.2602 2.89648 70.2263 2.86503 70.192 2.83385C68.9423 1.61077 67.3617 1.03028 65.6362 1.03028H43.2341C41.4414 1.03028 39.8331 1.6785 38.5606 2.95106C37.5653 3.94633 36.9839 5.15668 36.7849 6.48607C37.9041 7.7103 38.594 9.21057 38.594 10.9682ZM45.0785 41.4297C45.0819 41.4258 45.085 41.4207 45.0879 41.4143L45.0785 41.4297Z" fill="white"/>
<path d="M213.103 15.538C212.549 15.538 212.013 15.4908 211.494 15.3965C210.975 15.314 210.486 15.1843 210.026 15.0075C209.567 14.8307 209.154 14.6126 208.789 14.3533C208.635 14.2472 208.523 14.1176 208.453 13.9643C208.394 13.8111 208.376 13.6637 208.4 13.5223C208.435 13.3691 208.5 13.2394 208.594 13.1333C208.7 13.0272 208.824 12.9624 208.966 12.9388C209.107 12.9152 209.26 12.9624 209.425 13.0803C209.967 13.4457 210.533 13.7109 211.123 13.8759C211.724 14.0409 212.384 14.1235 213.103 14.1235C214.14 14.1235 214.901 13.9349 215.384 13.5577C215.879 13.1805 216.126 12.6854 216.126 12.0724C216.126 11.5655 215.95 11.1707 215.596 10.8878C215.242 10.5931 214.647 10.3632 213.81 10.1982L211.936 9.80919C210.828 9.57343 209.997 9.18444 209.443 8.64221C208.901 8.09998 208.63 7.37504 208.63 6.46739C208.63 5.91337 208.742 5.4124 208.966 4.96446C209.189 4.50475 209.508 4.10986 209.92 3.77981C210.333 3.44975 210.816 3.19632 211.37 3.0195C211.936 2.84269 212.561 2.75428 213.244 2.75428C213.975 2.75428 214.659 2.85448 215.295 3.05487C215.944 3.25526 216.527 3.54995 217.046 3.93894C217.187 4.04503 217.282 4.17469 217.329 4.32793C217.376 4.46938 217.382 4.61084 217.347 4.75229C217.323 4.89374 217.258 5.01162 217.152 5.10592C217.058 5.20022 216.934 5.25326 216.781 5.26505C216.639 5.27684 216.48 5.22379 216.303 5.10592C215.832 4.77586 215.349 4.54011 214.853 4.39866C214.358 4.24542 213.816 4.1688 213.227 4.1688C212.626 4.1688 212.101 4.2631 211.653 4.4517C211.217 4.6403 210.875 4.90553 210.628 5.24737C210.392 5.57742 210.274 5.96641 210.274 6.41434C210.274 6.95658 210.439 7.38093 210.769 7.68741C211.099 7.99389 211.653 8.22964 212.431 8.39467L214.288 8.76598C215.466 9.01352 216.339 9.39662 216.904 9.91527C217.482 10.4221 217.771 11.1058 217.771 11.9663C217.771 12.5086 217.659 12.9977 217.435 13.4339C217.223 13.87 216.916 14.2472 216.515 14.5655C216.115 14.872 215.626 15.1136 215.048 15.2904C214.47 15.4555 213.822 15.538 213.103 15.538ZM223.715 15.538C222.784 15.538 221.982 15.3612 221.31 15.0075C220.65 14.6421 220.137 14.1294 219.772 13.4692C219.406 12.7974 219.224 12.0076 219.224 11.0999C219.224 10.2041 219.4 9.42019 219.754 8.7483C220.12 8.0764 220.615 7.55185 221.239 7.17465C221.876 6.79744 222.601 6.60884 223.414 6.60884C223.992 6.60884 224.51 6.70904 224.97 6.90943C225.442 7.09803 225.842 7.37504 226.172 7.74045C226.503 8.10587 226.75 8.5538 226.915 9.08425C227.092 9.6029 227.18 10.1923 227.18 10.8524C227.18 11.041 227.121 11.1883 227.003 11.2944C226.897 11.3887 226.738 11.4359 226.526 11.4359H220.479V10.4104H226.119L225.819 10.6579C225.819 10.0449 225.725 9.52628 225.536 9.10193C225.359 8.66578 225.094 8.33573 224.74 8.11177C224.398 7.8878 223.968 7.77582 223.45 7.77582C222.884 7.77582 222.4 7.91138 222 8.18249C221.599 8.44182 221.292 8.81313 221.08 9.29642C220.868 9.76793 220.762 10.3161 220.762 10.9408V11.0469C220.762 12.1078 221.015 12.9093 221.522 13.4516C222.029 13.9938 222.76 14.2649 223.715 14.2649C224.092 14.2649 224.475 14.2178 224.864 14.1235C225.265 14.0292 225.648 13.8582 226.013 13.6107C226.19 13.5046 226.349 13.4575 226.491 13.4692C226.644 13.4692 226.768 13.5164 226.862 13.6107C226.956 13.6932 227.015 13.7993 227.039 13.929C227.062 14.0468 227.045 14.1765 226.986 14.318C226.927 14.4594 226.815 14.5832 226.65 14.6893C226.261 14.9604 225.795 15.1726 225.253 15.3258C224.723 15.4673 224.21 15.538 223.715 15.538ZM232.912 15.538C232.04 15.538 231.286 15.3553 230.649 14.9899C230.013 14.6126 229.523 14.0881 229.181 13.4162C228.84 12.7325 228.669 11.931 228.669 11.0115C228.669 10.3278 228.763 9.71488 228.952 9.17265C229.152 8.63042 229.435 8.1707 229.8 7.7935C230.166 7.40451 230.608 7.10982 231.126 6.90943C231.657 6.70904 232.252 6.60884 232.912 6.60884C233.325 6.60884 233.761 6.67367 234.221 6.80334C234.68 6.933 235.105 7.14518 235.494 7.43987C235.623 7.53417 235.706 7.64615 235.741 7.77582C235.777 7.89369 235.777 8.01746 235.741 8.14713C235.718 8.27679 235.659 8.38877 235.564 8.48308C235.482 8.56559 235.37 8.61274 235.229 8.62453C235.099 8.63632 234.957 8.59506 234.804 8.50076C234.521 8.28858 234.221 8.13534 233.902 8.04104C233.596 7.94674 233.301 7.89959 233.018 7.89959C232.582 7.89959 232.193 7.97031 231.851 8.11177C231.521 8.25322 231.238 8.4595 231.003 8.73062C230.779 8.98994 230.608 9.3141 230.49 9.7031C230.372 10.0803 230.313 10.5223 230.313 11.0292C230.313 12.0312 230.549 12.8209 231.02 13.3985C231.492 13.9643 232.158 14.2472 233.018 14.2472C233.301 14.2472 233.596 14.206 233.902 14.1235C234.209 14.0292 234.51 13.8759 234.804 13.6637C234.957 13.5694 235.099 13.5341 235.229 13.5577C235.358 13.5694 235.464 13.6225 235.547 13.7168C235.641 13.7993 235.7 13.9054 235.724 14.0351C235.747 14.1529 235.735 14.2767 235.688 14.4064C235.653 14.536 235.57 14.6421 235.441 14.7246C235.064 15.0075 234.651 15.2138 234.203 15.3435C233.755 15.4731 233.325 15.538 232.912 15.538ZM238.232 15.5026C237.961 15.5026 237.754 15.4319 237.613 15.2904C237.471 15.149 237.401 14.9427 237.401 14.6716V7.45755C237.401 7.18644 237.471 6.98605 237.613 6.85638C237.754 6.71493 237.949 6.6442 238.196 6.6442C238.444 6.6442 238.632 6.71493 238.762 6.85638C238.904 6.98605 238.974 7.18644 238.974 7.45755V8.81902H238.797C238.986 8.11176 239.34 7.57543 239.858 7.21001C240.377 6.84459 241.031 6.63831 241.821 6.59116C242.01 6.57937 242.163 6.62652 242.281 6.73261C242.399 6.82691 242.463 6.99194 242.475 7.22769C242.487 7.45166 242.434 7.63437 242.316 7.77582C242.198 7.90548 242.015 7.9821 241.768 8.00568L241.45 8.02336C240.672 8.10587 240.071 8.35931 239.646 8.78366C239.234 9.20802 239.027 9.7915 239.027 10.5341V14.6716C239.027 14.9427 238.957 15.149 238.815 15.2904C238.685 15.4319 238.491 15.5026 238.232 15.5026ZM247.716 15.538C246.785 15.538 245.983 15.3612 245.311 15.0075C244.651 14.6421 244.138 14.1294 243.773 13.4692C243.408 12.7974 243.225 12.0076 243.225 11.0999C243.225 10.2041 243.402 9.42019 243.755 8.7483C244.121 8.0764 244.616 7.55185 245.241 7.17465C245.877 6.79744 246.602 6.60884 247.415 6.60884C247.993 6.60884 248.512 6.70904 248.971 6.90943C249.443 7.09803 249.844 7.37504 250.174 7.74045C250.504 8.10587 250.751 8.5538 250.916 9.08425C251.093 9.6029 251.182 10.1923 251.182 10.8524C251.182 11.041 251.123 11.1883 251.005 11.2944C250.899 11.3887 250.739 11.4359 250.527 11.4359H244.48V10.4104H250.121L249.82 10.6579C249.82 10.0449 249.726 9.52628 249.537 9.10193C249.36 8.66578 249.095 8.33573 248.741 8.11177C248.4 7.8878 247.969 7.77582 247.451 7.77582C246.885 7.77582 246.402 7.91138 246.001 8.18249C245.6 8.44182 245.294 8.81313 245.081 9.29642C244.869 9.76793 244.763 10.3161 244.763 10.9408V11.0469C244.763 12.1078 245.017 12.9093 245.523 13.4516C246.03 13.9938 246.761 14.2649 247.716 14.2649C248.093 14.2649 248.476 14.2178 248.865 14.1235C249.266 14.0292 249.649 13.8582 250.015 13.6107C250.191 13.5046 250.35 13.4575 250.492 13.4692C250.645 13.4692 250.769 13.5164 250.863 13.6107C250.958 13.6932 251.016 13.7993 251.04 13.929C251.064 14.0468 251.046 14.1765 250.987 14.318C250.928 14.4594 250.816 14.5832 250.651 14.6893C250.262 14.9604 249.796 15.1726 249.254 15.3258C248.724 15.4673 248.211 15.538 247.716 15.538ZM256.737 15.538C256.042 15.538 255.458 15.4142 254.987 15.1667C254.527 14.9191 254.179 14.5596 253.943 14.0881C253.719 13.6166 253.607 13.039 253.607 12.3553V8.00568H252.476C252.264 8.00568 252.099 7.95263 251.981 7.84654C251.863 7.72867 251.804 7.57543 251.804 7.38683C251.804 7.18644 251.863 7.0332 251.981 6.92711C252.099 6.82102 252.264 6.76797 252.476 6.76797H253.607V4.8407C253.607 4.56958 253.678 4.36919 253.82 4.23952C253.961 4.09807 254.161 4.02735 254.421 4.02735C254.68 4.02735 254.875 4.09807 255.004 4.23952C255.146 4.36919 255.216 4.56958 255.216 4.8407V6.76797H257.356C257.58 6.76797 257.751 6.82102 257.869 6.92711C257.987 7.0332 258.046 7.18644 258.046 7.38683C258.046 7.57543 257.987 7.72867 257.869 7.84654C257.751 7.95263 257.58 8.00568 257.356 8.00568H255.216V12.2139C255.216 12.8622 255.352 13.3514 255.623 13.6814C255.894 14.0115 256.342 14.1765 256.967 14.1765C257.191 14.1765 257.38 14.1588 257.533 14.1235C257.686 14.0763 257.822 14.0527 257.939 14.0527C258.046 14.0409 258.134 14.0763 258.205 14.1588C258.287 14.2413 258.328 14.3946 258.328 14.6185C258.328 14.7836 258.299 14.9368 258.24 15.0783C258.193 15.2079 258.093 15.2963 257.939 15.3435C257.798 15.3906 257.609 15.4319 257.374 15.4673C257.138 15.5144 256.926 15.538 256.737 15.538ZM262.243 15.538C261.654 15.538 261.117 15.4201 260.634 15.1843C260.163 14.9486 259.791 14.6303 259.52 14.2296C259.261 13.8288 259.131 13.3808 259.131 12.8858C259.131 12.2492 259.29 11.7483 259.609 11.3828C259.927 11.0174 260.463 10.7581 261.218 10.6049C261.972 10.4398 262.986 10.3573 264.259 10.3573H265.09V11.3828H264.294C263.386 11.3828 262.667 11.4241 262.137 11.5066C261.618 11.5891 261.253 11.7365 261.041 11.9486C260.829 12.149 260.722 12.4319 260.722 12.7974C260.722 13.2571 260.882 13.6343 261.2 13.929C261.53 14.2237 261.978 14.371 262.544 14.371C262.992 14.371 263.386 14.2649 263.728 14.0527C264.07 13.8288 264.341 13.5341 264.542 13.1687C264.742 12.7915 264.842 12.3612 264.842 11.8779V9.84455C264.842 9.14908 264.701 8.6481 264.418 8.34162C264.135 8.02336 263.658 7.86422 262.986 7.86422C262.597 7.86422 262.196 7.91727 261.783 8.02336C261.371 8.12945 260.941 8.29447 260.493 8.51844C260.316 8.60095 260.163 8.63042 260.033 8.60685C259.903 8.57148 259.797 8.50076 259.715 8.39467C259.644 8.27679 259.603 8.15302 259.591 8.02336C259.591 7.88191 259.62 7.74635 259.679 7.61668C259.75 7.48702 259.868 7.39272 260.033 7.33378C260.552 7.07445 261.064 6.89174 261.571 6.78566C262.09 6.66778 262.573 6.60884 263.021 6.60884C263.787 6.60884 264.418 6.73261 264.913 6.98015C265.408 7.2159 265.779 7.58722 266.027 8.09408C266.274 8.58916 266.398 9.2257 266.398 10.0037V14.6716C266.398 14.9427 266.333 15.149 266.204 15.2904C266.074 15.4319 265.885 15.5026 265.638 15.5026C265.402 15.5026 265.214 15.4319 265.072 15.2904C264.942 15.149 264.878 14.9427 264.878 14.6716V13.4162H265.037C264.942 13.8523 264.766 14.2296 264.506 14.5478C264.247 14.8661 263.923 15.1136 263.534 15.2904C263.157 15.4555 262.726 15.538 262.243 15.538ZM269.761 15.5026C269.49 15.5026 269.284 15.4319 269.142 15.2904C269.001 15.149 268.93 14.9427 268.93 14.6716V7.45755C268.93 7.18644 269.001 6.98605 269.142 6.85638C269.284 6.71493 269.478 6.6442 269.726 6.6442C269.973 6.6442 270.162 6.71493 270.292 6.85638C270.433 6.98605 270.504 7.18644 270.504 7.45755V8.81902H270.327C270.516 8.11176 270.869 7.57543 271.388 7.21001C271.907 6.84459 272.561 6.63831 273.351 6.59116C273.539 6.57937 273.692 6.62652 273.81 6.73261C273.928 6.82691 273.993 6.99194 274.005 7.22769C274.017 7.45166 273.964 7.63437 273.846 7.77582C273.728 7.90548 273.545 7.9821 273.298 8.00568L272.979 8.02336C272.201 8.10587 271.6 8.35931 271.176 8.78366C270.763 9.20802 270.557 9.7915 270.557 10.5341V14.6716C270.557 14.9427 270.486 15.149 270.345 15.2904C270.215 15.4319 270.021 15.5026 269.761 15.5026ZM276.184 15.4673C275.936 15.4673 275.742 15.3906 275.6 15.2374C275.459 15.0842 275.388 14.872 275.388 14.6009V7.54596C275.388 7.26306 275.459 7.05088 275.6 6.90943C275.742 6.75619 275.936 6.67957 276.184 6.67957C276.443 6.67957 276.644 6.75619 276.785 6.90943C276.926 7.05088 276.997 7.26306 276.997 7.54596V14.6009C276.997 14.872 276.926 15.0842 276.785 15.2374C276.655 15.3906 276.455 15.4673 276.184 15.4673ZM276.184 4.76997C275.866 4.76997 275.612 4.68746 275.423 4.52243C275.247 4.34561 275.158 4.11576 275.158 3.83285C275.158 3.52637 275.247 3.29651 275.423 3.14327C275.612 2.97825 275.866 2.89573 276.184 2.89573C276.526 2.89573 276.779 2.97825 276.944 3.14327C277.121 3.29651 277.209 3.52637 277.209 3.83285C277.209 4.11576 277.121 4.34561 276.944 4.52243C276.779 4.68746 276.526 4.76997 276.184 4.76997ZM282.325 15.538C281.735 15.538 281.199 15.4201 280.716 15.1843C280.244 14.9486 279.873 14.6303 279.602 14.2296C279.342 13.8288 279.213 13.3808 279.213 12.8858C279.213 12.2492 279.372 11.7483 279.69 11.3828C280.008 11.0174 280.545 10.7581 281.299 10.6049C282.054 10.4398 283.067 10.3573 284.34 10.3573H285.171V11.3828H284.376C283.468 11.3828 282.749 11.4241 282.219 11.5066C281.7 11.5891 281.334 11.7365 281.122 11.9486C280.91 12.149 280.804 12.4319 280.804 12.7974C280.804 13.2571 280.963 13.6343 281.281 13.929C281.611 14.2237 282.059 14.371 282.625 14.371C283.073 14.371 283.468 14.2649 283.81 14.0527C284.152 13.8288 284.423 13.5341 284.623 13.1687C284.824 12.7915 284.924 12.3612 284.924 11.8779V9.84455C284.924 9.14908 284.782 8.6481 284.499 8.34162C284.217 8.02336 283.739 7.86422 283.067 7.86422C282.678 7.86422 282.277 7.91727 281.865 8.02336C281.452 8.12945 281.022 8.29447 280.574 8.51844C280.397 8.60095 280.244 8.63042 280.114 8.60685C279.985 8.57148 279.879 8.50076 279.796 8.39467C279.725 8.27679 279.684 8.15302 279.672 8.02336C279.672 7.88191 279.702 7.74635 279.761 7.61668C279.832 7.48702 279.949 7.39272 280.114 7.33378C280.633 7.07445 281.146 6.89174 281.653 6.78566C282.171 6.66778 282.655 6.60884 283.103 6.60884C283.869 6.60884 284.499 6.73261 284.995 6.98015C285.49 7.2159 285.861 7.58722 286.108 8.09408C286.356 8.58916 286.48 9.2257 286.48 10.0037V14.6716C286.48 14.9427 286.415 15.149 286.285 15.2904C286.156 15.4319 285.967 15.5026 285.719 15.5026C285.484 15.5026 285.295 15.4319 285.154 15.2904C285.024 15.149 284.959 14.9427 284.959 14.6716V13.4162H285.118C285.024 13.8523 284.847 14.2296 284.588 14.5478C284.329 14.8661 284.004 15.1136 283.615 15.2904C283.238 15.4555 282.808 15.538 282.325 15.538ZM209.797 33.5026C209.561 33.5026 209.378 33.4319 209.248 33.2904C209.119 33.149 209.054 32.9604 209.054 32.7246V21.5676C209.054 21.3201 209.119 21.1315 209.248 21.0018C209.39 20.8604 209.578 20.7896 209.814 20.7896C210.026 20.7896 210.191 20.8309 210.309 20.9134C210.439 20.9959 210.557 21.1374 210.663 21.3378L215.402 30.2315H214.853L219.592 21.3378C219.698 21.1374 219.81 20.9959 219.928 20.9134C220.046 20.8309 220.211 20.7896 220.423 20.7896C220.659 20.7896 220.842 20.8604 220.971 21.0018C221.101 21.1315 221.166 21.3201 221.166 21.5676V32.7246C221.166 32.9604 221.101 33.149 220.971 33.2904C220.853 33.4319 220.671 33.5026 220.423 33.5026C220.176 33.5026 219.987 33.4319 219.857 33.2904C219.739 33.149 219.68 32.9604 219.68 32.7246V23.1943H220.069L215.826 31.1333C215.732 31.2865 215.631 31.4044 215.525 31.4869C215.431 31.5577 215.295 31.593 215.119 31.593C214.954 31.593 214.812 31.5518 214.694 31.4692C214.588 31.3867 214.494 31.2748 214.411 31.1333L210.115 23.1766H210.539V32.7246C210.539 32.9604 210.474 33.149 210.345 33.2904C210.227 33.4319 210.044 33.5026 209.797 33.5026ZM227.061 33.538C226.365 33.538 225.782 33.4083 225.31 33.149C224.851 32.8897 224.509 32.5066 224.285 31.9997C224.061 31.4928 223.949 30.8563 223.949 30.0901V25.4576C223.949 25.1864 224.014 24.986 224.143 24.8564C224.285 24.7149 224.485 24.6442 224.744 24.6442C225.004 24.6442 225.204 24.7149 225.346 24.8564C225.487 24.986 225.558 25.1864 225.558 25.4576V30.0901C225.558 30.8209 225.705 31.3632 226 31.7168C226.294 32.0586 226.76 32.2296 227.397 32.2296C228.104 32.2296 228.676 31.9938 229.112 31.5223C229.56 31.0508 229.784 30.426 229.784 29.6481V25.4576C229.784 25.1864 229.848 24.986 229.978 24.8564C230.12 24.7149 230.32 24.6442 230.579 24.6442C230.839 24.6442 231.039 24.7149 231.18 24.8564C231.322 24.986 231.393 25.1864 231.393 25.4576V32.6716C231.393 33.2256 231.133 33.5026 230.615 33.5026C230.355 33.5026 230.155 33.4319 230.013 33.2904C229.884 33.149 229.819 32.9427 229.819 32.6716V31.1333L230.049 31.4339C229.813 32.1176 229.43 32.6421 228.9 33.0075C228.381 33.3612 227.768 33.538 227.061 33.538ZM234.777 33.5026C234.53 33.5026 234.335 33.4319 234.194 33.2904C234.052 33.149 233.982 32.9427 233.982 32.6716V25.4576C233.982 25.1864 234.052 24.986 234.194 24.8564C234.335 24.7149 234.53 24.6442 234.777 24.6442C235.025 24.6442 235.214 24.7149 235.343 24.8564C235.485 24.986 235.555 25.1864 235.555 25.4576V26.9074L235.361 26.6422C235.608 25.9703 236.009 25.4634 236.563 25.1216C237.129 24.7798 237.771 24.6088 238.491 24.6088C239.186 24.6088 239.758 24.7326 240.206 24.9802C240.654 25.2277 240.989 25.6049 241.213 26.1118C241.437 26.6186 241.549 27.2611 241.549 28.039V32.6716C241.549 32.9427 241.479 33.149 241.337 33.2904C241.208 33.4319 241.013 33.5026 240.754 33.5026C240.494 33.5026 240.294 33.4319 240.153 33.2904C240.011 33.149 239.94 32.9427 239.94 32.6716V28.1275C239.94 27.3613 239.793 26.8013 239.498 26.4477C239.204 26.0941 238.732 25.9173 238.084 25.9173C237.329 25.9173 236.722 26.153 236.263 26.6245C235.815 27.0842 235.591 27.709 235.591 28.4988V32.6716C235.591 33.2256 235.32 33.5026 234.777 33.5026ZM244.896 33.4673C244.648 33.4673 244.454 33.3906 244.312 33.2374C244.171 33.0842 244.1 32.872 244.1 32.6009V25.546C244.1 25.2631 244.171 25.0509 244.312 24.9094C244.454 24.7562 244.648 24.6796 244.896 24.6796C245.155 24.6796 245.356 24.7562 245.497 24.9094C245.639 25.0509 245.709 25.2631 245.709 25.546V32.6009C245.709 32.872 245.639 33.0842 245.497 33.2374C245.367 33.3906 245.167 33.4673 244.896 33.4673ZM244.896 22.77C244.578 22.77 244.324 22.6875 244.136 22.5224C243.959 22.3456 243.87 22.1158 243.87 21.8329C243.87 21.5264 243.959 21.2965 244.136 21.1433C244.324 20.9782 244.578 20.8957 244.896 20.8957C245.238 20.8957 245.491 20.9782 245.656 21.1433C245.833 21.2965 245.921 21.5264 245.921 21.8329C245.921 22.1158 245.833 22.3456 245.656 22.5224C245.491 22.6875 245.238 22.77 244.896 22.77ZM252.027 33.538C251.155 33.538 250.4 33.3553 249.764 32.9899C249.127 32.6126 248.638 32.0881 248.296 31.4162C247.954 30.7325 247.783 29.931 247.783 29.0115C247.783 28.3278 247.878 27.7149 248.066 27.1727C248.267 26.6304 248.55 26.1707 248.915 25.7935C249.28 25.4045 249.722 25.1098 250.241 24.9094C250.772 24.709 251.367 24.6088 252.027 24.6088C252.439 24.6088 252.876 24.6737 253.335 24.8033C253.795 24.933 254.219 25.1452 254.608 25.4399C254.738 25.5342 254.821 25.6462 254.856 25.7758C254.891 25.8937 254.891 26.0175 254.856 26.1471C254.832 26.2768 254.773 26.3888 254.679 26.4831C254.597 26.5656 254.485 26.6127 254.343 26.6245C254.214 26.6363 254.072 26.5951 253.919 26.5008C253.636 26.2886 253.335 26.1353 253.017 26.041C252.711 25.9467 252.416 25.8996 252.133 25.8996C251.697 25.8996 251.308 25.9703 250.966 26.1118C250.636 26.2532 250.353 26.4595 250.117 26.7306C249.893 26.9899 249.722 27.3141 249.605 27.7031C249.487 28.0803 249.428 28.5223 249.428 29.0292C249.428 30.0312 249.663 30.8209 250.135 31.3985C250.606 31.9643 251.272 32.2472 252.133 32.2472C252.416 32.2472 252.711 32.206 253.017 32.1235C253.324 32.0292 253.624 31.8759 253.919 31.6637C254.072 31.5694 254.214 31.5341 254.343 31.5577C254.473 31.5694 254.579 31.6225 254.661 31.7168C254.756 31.7993 254.815 31.9054 254.838 32.0351C254.862 32.1529 254.85 32.2767 254.803 32.4064C254.768 32.536 254.685 32.6421 254.555 32.7246C254.178 33.0075 253.766 33.2138 253.318 33.3435C252.87 33.4731 252.439 33.538 252.027 33.538ZM257.311 33.4673C257.063 33.4673 256.869 33.3906 256.727 33.2374C256.586 33.0842 256.515 32.872 256.515 32.6009V25.546C256.515 25.2631 256.586 25.0509 256.727 24.9094C256.869 24.7562 257.063 24.6796 257.311 24.6796C257.57 24.6796 257.771 24.7562 257.912 24.9094C258.054 25.0509 258.124 25.2631 258.124 25.546V32.6009C258.124 32.872 258.054 33.0842 257.912 33.2374C257.782 33.3906 257.582 33.4673 257.311 33.4673ZM257.311 22.77C256.993 22.77 256.739 22.6875 256.551 22.5224C256.374 22.3456 256.285 22.1158 256.285 21.8329C256.285 21.5264 256.374 21.2965 256.551 21.1433C256.739 20.9782 256.993 20.8957 257.311 20.8957C257.653 20.8957 257.906 20.9782 258.071 21.1433C258.248 21.2965 258.336 21.5264 258.336 21.8329C258.336 22.1158 258.248 22.3456 258.071 22.5224C257.906 22.6875 257.653 22.77 257.311 22.77ZM261.507 36.6853C261.259 36.6853 261.065 36.6146 260.923 36.4731C260.782 36.3316 260.711 36.1313 260.711 35.8719V25.4576C260.711 25.1864 260.782 24.986 260.923 24.8564C261.065 24.7149 261.259 24.6442 261.507 24.6442C261.766 24.6442 261.961 24.7149 262.09 24.8564C262.232 24.986 262.302 25.1864 262.302 25.4576V27.0666L262.108 26.7483C262.297 26.1 262.668 25.5813 263.222 25.1923C263.776 24.8033 264.442 24.6088 265.22 24.6088C265.986 24.6088 266.652 24.7915 267.218 25.157C267.784 25.5106 268.226 26.0234 268.544 26.6953C268.862 27.3554 269.021 28.1451 269.021 29.0646C269.021 29.9722 268.862 30.7679 268.544 31.4516C268.238 32.1235 267.795 32.6421 267.218 33.0075C266.652 33.3612 265.986 33.538 265.22 33.538C264.454 33.538 263.794 33.3435 263.24 32.9545C262.686 32.5655 262.314 32.0527 262.126 31.4162H262.32V35.8719C262.32 36.1313 262.249 36.3316 262.108 36.4731C261.967 36.6146 261.766 36.6853 261.507 36.6853ZM264.849 32.2649C265.355 32.2649 265.797 32.1411 266.175 31.8936C266.564 31.6461 266.864 31.2865 267.076 30.815C267.289 30.3435 267.395 29.76 267.395 29.0646C267.395 28.0273 267.165 27.2375 266.705 26.6953C266.245 26.153 265.627 25.8819 264.849 25.8819C264.33 25.8819 263.876 26.0057 263.487 26.2532C263.11 26.489 262.815 26.8426 262.603 27.3141C262.403 27.7856 262.302 28.3691 262.302 29.0646C262.302 30.1019 262.532 30.8975 262.992 31.4516C263.452 31.9938 264.071 32.2649 264.849 32.2649ZM273.829 33.538C273.24 33.538 272.704 33.4201 272.22 33.1843C271.749 32.9486 271.377 32.6303 271.106 32.2296C270.847 31.8288 270.717 31.3808 270.717 30.8858C270.717 30.2492 270.876 29.7483 271.195 29.3828C271.513 29.0174 272.049 28.7581 272.804 28.6049C273.558 28.4398 274.572 28.3573 275.845 28.3573H276.676V29.3828H275.88C274.973 29.3828 274.254 29.4241 273.723 29.5066C273.205 29.5891 272.839 29.7365 272.627 29.9486C272.415 30.149 272.309 30.4319 272.309 30.7974C272.309 31.2571 272.468 31.6343 272.786 31.929C273.116 32.2237 273.564 32.371 274.13 32.371C274.578 32.371 274.973 32.2649 275.314 32.0527C275.656 31.8288 275.927 31.5341 276.128 31.1687C276.328 30.7915 276.428 30.3612 276.428 29.8779V27.8445C276.428 27.1491 276.287 26.6481 276.004 26.3416C275.721 26.0234 275.244 25.8642 274.572 25.8642C274.183 25.8642 273.782 25.9173 273.37 26.0234C272.957 26.1294 272.527 26.2945 272.079 26.5184C271.902 26.601 271.749 26.6304 271.619 26.6068C271.489 26.5715 271.383 26.5008 271.301 26.3947C271.23 26.2768 271.189 26.153 271.177 26.0234C271.177 25.8819 271.206 25.7463 271.265 25.6167C271.336 25.487 271.454 25.3927 271.619 25.3338C272.138 25.0745 272.65 24.8917 273.157 24.7857C273.676 24.6678 274.159 24.6088 274.607 24.6088C275.373 24.6088 276.004 24.7326 276.499 24.9802C276.994 25.2159 277.366 25.5872 277.613 26.0941C277.861 26.5892 277.984 27.2257 277.984 28.0037V32.6716C277.984 32.9427 277.92 33.149 277.79 33.2904C277.66 33.4319 277.472 33.5026 277.224 33.5026C276.988 33.5026 276.8 33.4319 276.658 33.2904C276.529 33.149 276.464 32.9427 276.464 32.6716V31.4162H276.623C276.529 31.8523 276.352 32.2296 276.092 32.5478C275.833 32.8661 275.509 33.1136 275.12 33.2904C274.743 33.4555 274.313 33.538 273.829 33.538ZM283.222 33.538C282.338 33.538 281.666 33.2787 281.206 32.76C280.746 32.2296 280.516 31.4692 280.516 30.4791V21.603C280.516 21.3319 280.587 21.1315 280.729 21.0018C280.87 20.8604 281.065 20.7896 281.312 20.7896C281.571 20.7896 281.772 20.8604 281.913 21.0018C282.055 21.1315 282.125 21.3319 282.125 21.603V30.3553C282.125 30.9683 282.249 31.428 282.497 31.7345C282.756 32.0292 283.122 32.1765 283.593 32.1765C283.699 32.1765 283.793 32.1765 283.876 32.1765C283.958 32.1647 284.041 32.1529 284.123 32.1411C284.253 32.1294 284.347 32.1647 284.406 32.2472C284.465 32.3297 284.495 32.4948 284.495 32.7423C284.495 32.9663 284.442 33.1431 284.336 33.2728C284.241 33.3906 284.082 33.4673 283.858 33.5026C283.752 33.5144 283.646 33.5203 283.54 33.5203C283.434 33.5321 283.328 33.538 283.222 33.538ZM212.095 51.538C211.341 51.538 210.675 51.3612 210.097 51.0075C209.531 50.6421 209.089 50.1235 208.771 49.4516C208.453 48.7679 208.294 47.9722 208.294 47.0646C208.294 46.1451 208.447 45.3554 208.753 44.6953C209.072 44.0234 209.514 43.5106 210.079 43.157C210.657 42.7915 211.329 42.6088 212.095 42.6088C212.861 42.6088 213.521 42.8033 214.075 43.1923C214.629 43.5695 215.001 44.0764 215.189 44.7129H214.995V39.603C214.995 39.3319 215.06 39.1315 215.189 39.0018C215.331 38.8604 215.531 38.7896 215.791 38.7896C216.05 38.7896 216.25 38.8604 216.392 39.0018C216.533 39.1315 216.604 39.3319 216.604 39.603V50.6716C216.604 50.9427 216.533 51.149 216.392 51.2904C216.25 51.4319 216.05 51.5026 215.791 51.5026C215.543 51.5026 215.349 51.4319 215.207 51.2904C215.066 51.149 214.995 50.9427 214.995 50.6716V49.0626L215.189 49.3808C215.013 50.0409 214.641 50.5655 214.075 50.9545C213.521 51.3435 212.861 51.538 212.095 51.538ZM212.466 50.2649C212.985 50.2649 213.433 50.1411 213.81 49.8936C214.199 49.6461 214.494 49.2865 214.694 48.815C214.906 48.3435 215.013 47.76 215.013 47.0646C215.013 46.0273 214.783 45.2375 214.323 44.6953C213.863 44.153 213.244 43.8819 212.466 43.8819C211.96 43.8819 211.512 44.0057 211.123 44.2532C210.745 44.489 210.451 44.8426 210.239 45.3141C210.026 45.7856 209.92 46.3691 209.92 47.0646C209.92 48.1019 210.15 48.8975 210.61 49.4516C211.081 49.9938 211.7 50.2649 212.466 50.2649ZM223.162 51.538C222.231 51.538 221.429 51.3612 220.758 51.0075C220.097 50.6421 219.585 50.1294 219.219 49.4692C218.854 48.7974 218.671 48.0076 218.671 47.0999C218.671 46.2041 218.848 45.4202 219.202 44.7483C219.567 44.0764 220.062 43.5519 220.687 43.1746C221.323 42.7974 222.048 42.6088 222.862 42.6088C223.439 42.6088 223.958 42.709 224.418 42.9094C224.889 43.098 225.29 43.375 225.62 43.7405C225.95 44.1059 226.198 44.5538 226.363 45.0842C226.539 45.6029 226.628 46.1923 226.628 46.8524C226.628 47.041 226.569 47.1883 226.451 47.2944C226.345 47.3887 226.186 47.4359 225.974 47.4359H219.926V46.4104H225.567L225.266 46.6579C225.266 46.0449 225.172 45.5263 224.983 45.1019C224.807 44.6658 224.541 44.3357 224.188 44.1118C223.846 43.8878 223.416 43.7758 222.897 43.7758C222.331 43.7758 221.848 43.9114 221.447 44.1825C221.046 44.4418 220.74 44.8131 220.528 45.2964C220.315 45.7679 220.209 46.3161 220.209 46.9408V47.0469C220.209 48.1078 220.463 48.9093 220.97 49.4516C221.477 49.9938 222.207 50.2649 223.162 50.2649C223.539 50.2649 223.922 50.2178 224.311 50.1235C224.712 50.0292 225.095 49.8582 225.461 49.6107C225.638 49.5046 225.797 49.4575 225.938 49.4692C226.091 49.4692 226.215 49.5164 226.309 49.6107C226.404 49.6932 226.463 49.7993 226.486 49.929C226.51 50.0468 226.492 50.1765 226.433 50.318C226.374 50.4594 226.262 50.5832 226.097 50.6893C225.708 50.9604 225.243 51.1726 224.7 51.3258C224.17 51.4673 223.657 51.538 223.162 51.538ZM238.933 51.538C237.695 51.538 236.634 51.2787 235.75 50.76C234.866 50.2413 234.182 49.5046 233.699 48.5498C233.227 47.5832 232.992 46.4457 232.992 45.1373C232.992 44.1589 233.127 43.2807 233.398 42.5028C233.669 41.713 234.058 41.0411 234.565 40.4871C235.072 39.9213 235.691 39.491 236.422 39.1963C237.165 38.9016 238.001 38.7543 238.933 38.7543C239.64 38.7543 240.318 38.8545 240.966 39.0549C241.626 39.2553 242.192 39.5382 242.663 39.9036C242.852 40.0332 242.976 40.1806 243.035 40.3456C243.094 40.5106 243.1 40.6698 243.052 40.823C243.017 40.9645 242.94 41.0882 242.823 41.1943C242.717 41.2886 242.581 41.3417 242.416 41.3535C242.251 41.3535 242.074 41.2886 241.885 41.159C241.473 40.8407 241.019 40.6108 240.524 40.4694C240.041 40.3161 239.522 40.2395 238.968 40.2395C238.06 40.2395 237.288 40.434 236.652 40.823C236.027 41.2002 235.55 41.7542 235.22 42.4851C234.901 43.2041 234.742 44.0882 234.742 45.1373C234.742 46.1746 234.901 47.0646 235.22 47.8072C235.55 48.538 236.027 49.0979 236.652 49.4869C237.288 49.8641 238.06 50.0527 238.968 50.0527C239.522 50.0527 240.047 49.9761 240.542 49.8229C241.049 49.6696 241.514 49.4339 241.939 49.1156C242.127 48.986 242.298 48.927 242.451 48.9388C242.616 48.9506 242.752 49.0036 242.858 49.0979C242.964 49.1805 243.035 49.2983 243.07 49.4516C243.117 49.593 243.117 49.7404 243.07 49.8936C243.023 50.0468 242.917 50.1824 242.752 50.3003C242.269 50.7128 241.691 51.0252 241.019 51.2374C240.359 51.4378 239.664 51.538 238.933 51.538ZM248.04 51.538C247.345 51.538 246.761 51.4083 246.29 51.149C245.83 50.8897 245.488 50.5066 245.264 49.9997C245.04 49.4928 244.928 48.8563 244.928 48.0901V43.4576C244.928 43.1864 244.993 42.986 245.123 42.8564C245.264 42.7149 245.465 42.6442 245.724 42.6442C245.983 42.6442 246.184 42.7149 246.325 42.8564C246.466 42.986 246.537 43.1864 246.537 43.4576V48.0901C246.537 48.8209 246.685 49.3632 246.979 49.7168C247.274 50.0586 247.74 50.2296 248.376 50.2296C249.083 50.2296 249.655 49.9938 250.091 49.5223C250.539 49.0508 250.763 48.426 250.763 47.6481V43.4576C250.763 43.1864 250.828 42.986 250.958 42.8564C251.099 42.7149 251.299 42.6442 251.559 42.6442C251.818 42.6442 252.018 42.7149 252.16 42.8564C252.301 42.986 252.372 43.1864 252.372 43.4576V50.6716C252.372 51.2256 252.113 51.5026 251.594 51.5026C251.335 51.5026 251.134 51.4319 250.993 51.2904C250.863 51.149 250.798 50.9427 250.798 50.6716V49.1333L251.028 49.4339C250.793 50.1176 250.409 50.6421 249.879 51.0075C249.36 51.3612 248.747 51.538 248.04 51.538ZM257.666 51.538C256.782 51.538 256.11 51.2787 255.651 50.76C255.191 50.2296 254.961 49.4692 254.961 48.4791V39.603C254.961 39.3319 255.032 39.1315 255.173 39.0018C255.315 38.8604 255.509 38.7896 255.757 38.7896C256.016 38.7896 256.217 38.8604 256.358 39.0018C256.499 39.1315 256.57 39.3319 256.57 39.603V48.3553C256.57 48.9683 256.694 49.428 256.942 49.7345C257.201 50.0292 257.566 50.1765 258.038 50.1765C258.144 50.1765 258.238 50.1765 258.321 50.1765C258.403 50.1647 258.486 50.1529 258.568 50.1411C258.698 50.1294 258.792 50.1647 258.851 50.2472C258.91 50.3297 258.94 50.4948 258.94 50.7423C258.94 50.9663 258.886 51.1431 258.78 51.2728C258.686 51.3906 258.527 51.4673 258.303 51.5026C258.197 51.5144 258.091 51.5203 257.985 51.5203C257.879 51.5321 257.773 51.538 257.666 51.538ZM263.678 51.538C262.983 51.538 262.399 51.4142 261.928 51.1667C261.468 50.9191 261.121 50.5596 260.885 50.0881C260.661 49.6166 260.549 49.039 260.549 48.3553V44.0057H259.417C259.205 44.0057 259.04 43.9526 258.922 43.8465C258.804 43.7287 258.745 43.5754 258.745 43.3868C258.745 43.1864 258.804 43.0332 258.922 42.9271C259.04 42.821 259.205 42.768 259.417 42.768H260.549V40.8407C260.549 40.5696 260.62 40.3692 260.761 40.2395C260.902 40.0981 261.103 40.0273 261.362 40.0273C261.621 40.0273 261.816 40.0981 261.946 40.2395C262.087 40.3692 262.158 40.5696 262.158 40.8407V42.768H264.297C264.521 42.768 264.692 42.821 264.81 42.9271C264.928 43.0332 264.987 43.1864 264.987 43.3868C264.987 43.5754 264.928 43.7287 264.81 43.8465C264.692 43.9526 264.521 44.0057 264.297 44.0057H262.158V48.2139C262.158 48.8622 262.293 49.3514 262.565 49.6814C262.836 50.0115 263.284 50.1765 263.908 50.1765C264.132 50.1765 264.321 50.1588 264.474 50.1235C264.627 50.0763 264.763 50.0527 264.881 50.0527C264.987 50.0409 265.075 50.0763 265.146 50.1588C265.229 50.2413 265.27 50.3946 265.27 50.6185C265.27 50.7836 265.24 50.9368 265.181 51.0783C265.134 51.2079 265.034 51.2963 264.881 51.3435C264.739 51.3906 264.551 51.4319 264.315 51.4673C264.079 51.5144 263.867 51.538 263.678 51.538ZM269.52 51.538C268.825 51.538 268.241 51.4083 267.77 51.149C267.31 50.8897 266.968 50.5066 266.744 49.9997C266.52 49.4928 266.408 48.8563 266.408 48.0901V43.4576C266.408 43.1864 266.473 42.986 266.603 42.8564C266.744 42.7149 266.945 42.6442 267.204 42.6442C267.463 42.6442 267.664 42.7149 267.805 42.8564C267.947 42.986 268.017 43.1864 268.017 43.4576V48.0901C268.017 48.8209 268.165 49.3632 268.459 49.7168C268.754 50.0586 269.22 50.2296 269.856 50.2296C270.564 50.2296 271.135 49.9938 271.571 49.5223C272.019 49.0508 272.243 48.426 272.243 47.6481V43.4576C272.243 43.1864 272.308 42.986 272.438 42.8564C272.579 42.7149 272.78 42.6442 273.039 42.6442C273.298 42.6442 273.499 42.7149 273.64 42.8564C273.782 42.986 273.852 43.1864 273.852 43.4576V50.6716C273.852 51.2256 273.593 51.5026 273.074 51.5026C272.815 51.5026 272.615 51.4319 272.473 51.2904C272.343 51.149 272.279 50.9427 272.279 50.6716V49.1333L272.509 49.4339C272.273 50.1176 271.89 50.6421 271.359 51.0075C270.841 51.3612 270.228 51.538 269.52 51.538ZM277.272 51.5026C277.001 51.5026 276.795 51.4319 276.654 51.2904C276.512 51.149 276.441 50.9427 276.441 50.6716V43.4576C276.441 43.1864 276.512 42.986 276.654 42.8564C276.795 42.7149 276.99 42.6442 277.237 42.6442C277.485 42.6442 277.673 42.7149 277.803 42.8564C277.944 42.986 278.015 43.1864 278.015 43.4576V44.819H277.838C278.027 44.1118 278.38 43.5754 278.899 43.21C279.418 42.8446 280.072 42.6383 280.862 42.5912C281.05 42.5794 281.204 42.6265 281.321 42.7326C281.439 42.8269 281.504 42.9919 281.516 43.2277C281.528 43.4517 281.475 43.6344 281.357 43.7758C281.239 43.9055 281.056 43.9821 280.809 44.0057L280.49 44.0234C279.712 44.1059 279.111 44.3593 278.687 44.7837C278.274 45.208 278.068 45.7915 278.068 46.5341V50.6716C278.068 50.9427 277.997 51.149 277.856 51.2904C277.726 51.4319 277.532 51.5026 277.272 51.5026ZM285.554 51.538C284.964 51.538 284.428 51.4201 283.945 51.1843C283.473 50.9486 283.102 50.6303 282.831 50.2296C282.571 49.8288 282.442 49.3808 282.442 48.8858C282.442 48.2492 282.601 47.7483 282.919 47.3828C283.237 47.0174 283.774 46.7581 284.528 46.6049C285.282 46.4398 286.296 46.3573 287.569 46.3573H288.4V47.3828H287.605C286.697 47.3828 285.978 47.4241 285.447 47.5066C284.929 47.5891 284.563 47.7365 284.351 47.9486C284.139 48.149 284.033 48.4319 284.033 48.7974C284.033 49.2571 284.192 49.6343 284.51 49.929C284.84 50.2237 285.288 50.371 285.854 50.371C286.302 50.371 286.697 50.2649 287.039 50.0527C287.381 49.8288 287.652 49.5341 287.852 49.1687C288.053 48.7915 288.153 48.3612 288.153 47.8779V45.8445C288.153 45.1491 288.011 44.6481 287.728 44.3416C287.445 44.0234 286.968 43.8642 286.296 43.8642C285.907 43.8642 285.506 43.9173 285.094 44.0234C284.681 44.1294 284.251 44.2945 283.803 44.5184C283.626 44.601 283.473 44.6304 283.343 44.6068C283.214 44.5715 283.108 44.5008 283.025 44.3947C282.954 44.2768 282.913 44.153 282.901 44.0234C282.901 43.8819 282.931 43.7463 282.99 43.6167C283.06 43.487 283.178 43.3927 283.343 43.3338C283.862 43.0745 284.375 42.8917 284.882 42.7857C285.4 42.6678 285.884 42.6088 286.332 42.6088C287.098 42.6088 287.728 42.7326 288.223 42.9802C288.719 43.2159 289.09 43.5872 289.337 44.0941C289.585 44.5892 289.709 45.2257 289.709 46.0037V50.6716C289.709 50.9427 289.644 51.149 289.514 51.2904C289.385 51.4319 289.196 51.5026 288.948 51.5026C288.713 51.5026 288.524 51.4319 288.383 51.2904C288.253 51.149 288.188 50.9427 288.188 50.6716V49.4162H288.347C288.253 49.8523 288.076 50.2296 287.817 50.5478C287.557 50.8661 287.233 51.1136 286.844 51.2904C286.467 51.4555 286.037 51.538 285.554 51.538Z" fill="white"/>
</svg>
