<svg width="293" height="55" viewBox="0 0 293 55" fill="none" xmlns="http://www.w3.org/2000/svg">
<path d="M55.519 47.176C55.6068 47.503 55.9787 48.1247 56.7634 47.9959C56.2607 48.4741 55.3082 48.9796 55.519 47.176Z" fill="#FEAA00"/>
<path d="M56.7634 44.4269C56.184 42.9377 54.893 42.5954 54.3199 42.6104C54.7196 42.3101 55.7085 41.8538 56.4667 42.4302C57.2249 43.0067 56.9804 44.0016 56.7634 44.4269Z" fill="#FEAA00"/>
<path d="M61.6761 45.718C60.8354 45.2376 59.8646 45.708 59.4842 46.0032C61.3578 46.0032 62.0664 47.1842 62.1865 47.7747C62.3667 47.2893 62.5168 46.1984 61.6761 45.718Z" fill="#FEAA00"/>
<path d="M53.179 46.949C53.3791 46.7989 53.8335 46.6067 54.0497 47.0391C54.0697 46.4586 53.9236 45.6279 53.179 46.949Z" fill="#FEAA00"/>
<path d="M58.4784 49.6063C58.6636 49.6263 58.9918 49.7864 58.8237 50.2668C59.184 49.9265 59.6194 49.318 58.4784 49.6063Z" fill="#FEAA00"/>
<path d="M58.1782 49.9966C54.455 50.7772 53.6644 48.5404 53.7344 47.3243C52.4854 49.282 53.3041 50.532 53.8696 50.9123C55.7792 52.2094 57.5376 50.8423 58.1782 49.9966Z" fill="#FEAA00"/>
<path fill-rule="evenodd" clip-rule="evenodd" d="M126.098 50.8375L126.09 50.833C125.826 50.6796 125.566 50.5211 125.311 50.3576C125.331 50.3016 125.349 50.2425 125.365 50.1802C125.411 49.9934 125.074 49.6636 124.893 49.5994C124.756 49.551 124.637 49.4786 124.599 49.3881C122.019 43.3679 124.622 40.746 126.656 38.696C127.171 38.1777 127.649 37.696 127.998 37.2052C128.98 35.8236 127.209 33.7145 125.087 33.7432C124.985 33.7445 124.904 33.8267 124.895 33.9283C124.646 36.7301 124.423 37.8699 123.871 38.8157C123.833 38.8809 123.762 38.919 123.687 38.9112C122.692 38.8073 120.633 37.987 119.151 35.4158C119.055 35.2489 118.817 35.2835 118.8 35.4754C118.749 36.0662 118.779 36.8744 119.086 37.371L119.092 37.3805C119.522 38.0774 120.022 38.8879 122.583 40.0608C122.709 40.1187 122.746 40.2817 122.654 40.3869L122.636 40.4086C122.52 40.5419 122.398 40.6832 122.268 40.8345C120.689 42.6765 120.174 45.4301 120.84 46.4298C120.018 45.4506 119.281 44.383 118.632 43.2288L118.625 43.2163L118.618 43.2035L118.618 43.2033C116.835 39.9427 115.977 36.2518 115.977 32.1984V7.99071C115.977 6.20805 116.62 4.60218 117.923 3.35921C119.229 2.06611 120.891 1.46327 122.705 1.46327C124.429 1.46327 125.931 2.15762 127.13 3.33672C128.475 4.56441 129.166 6.17455 129.166 7.99071V32.1984C129.166 34.0612 129.551 35.5589 130.232 36.774C131.002 38.0217 131.967 38.9573 133.135 39.6279C134.384 40.3189 135.666 40.6503 137.016 40.6503C138.536 40.6503 139.918 40.3012 141.201 39.6073C142.475 38.919 143.502 37.9651 144.306 36.7114C145.052 35.5068 145.468 34.0332 145.468 32.1984V7.99071C145.468 6.34029 145.955 4.78745 147.061 3.52103C148.248 2.11237 149.878 1.46327 151.661 1.46327C153.444 1.46327 155.06 2.10942 156.276 3.46244C157.451 4.7239 157.988 6.29693 157.988 7.99071V32.1984C157.988 36.258 157.105 39.9538 155.273 43.216C153.503 46.4481 151.028 49.0019 147.875 50.833C146.858 51.4231 145.796 51.9153 144.689 52.312C144.479 51.964 144.211 51.796 143.938 51.6243C143.824 51.5534 143.71 51.4819 143.599 51.3968C143.506 51.3257 143.433 51.2347 143.393 51.1227C143.354 51.0115 143.356 50.9005 143.377 50.8004C143.418 50.6117 143.537 50.4314 143.658 50.2775C143.784 50.1178 143.941 49.9531 144.092 49.7967L144.148 49.7397C144.196 49.6893 144.244 49.6397 144.291 49.5908C144.261 49.573 144.23 49.5548 144.2 49.5365C144.125 49.4908 144.049 49.4436 143.982 49.4019C143.622 49.749 143.323 50.0854 143.142 50.4016C142.939 50.7576 142.913 51.0342 143.046 51.2701C143.24 51.6132 143.462 51.7595 143.713 51.9254L143.739 51.9424C143.929 52.068 144.132 52.2079 144.304 52.4455C142.06 53.1982 139.64 53.5668 137.065 53.5714C137.073 53.552 137.082 53.5326 137.09 53.5132C137.174 53.3166 137.255 53.0804 137.335 52.8175C137.494 52.2912 137.656 51.6242 137.814 50.8826C138.132 49.3975 138.443 47.5771 138.701 45.907C138.883 44.7297 139.039 43.6234 139.153 42.7564C139.174 42.5993 139.121 42.4414 139.011 42.3278C138.901 42.2141 138.744 42.1572 138.587 42.1732L134.774 42.5608C134.559 42.5826 134.381 42.7356 134.326 42.9445C134.108 43.7704 133.778 45.0337 133.465 46.2512C133.19 47.3195 132.926 48.3606 132.763 49.0385C132.429 48.9912 132.045 48.9828 131.686 49.0643C131.389 49.1319 131.071 49.2704 130.828 49.5397C130.577 49.818 130.452 50.1843 130.459 50.6129C130.466 51.0871 130.615 51.569 131.07 51.78C131.482 51.9714 131.92 51.825 132.219 51.6613C132.543 51.4835 132.855 51.2057 133.104 50.8893C133.348 50.5807 133.556 50.2052 133.649 49.8057C133.657 49.7791 133.663 49.7524 133.667 49.7258C133.781 49.2135 134.065 48.0841 134.382 46.8487L137.569 46.4316C137.336 47.8925 137.07 49.4068 136.801 50.6662C136.657 51.3379 136.515 51.9295 136.378 52.3986C136.097 52.1653 135.748 52.0314 135.409 51.9882C135.028 51.9395 134.599 51.9989 134.251 52.2345C133.896 52.4749 133.678 52.8656 133.673 53.3548C130.944 52.9898 128.413 52.1603 126.105 50.8414L126.098 50.8375ZM119.729 31.1656C119.848 30.7442 119.933 30.0928 119.979 29.6107C119.992 29.4729 120.133 29.3838 120.263 29.4312C121.985 30.0589 123.24 30.2895 124.011 30.431C124.555 30.5311 124.857 30.5865 124.91 30.7062C125.006 30.9226 124.837 31.9293 124.714 32.5368C124.694 32.6348 124.608 32.7034 124.508 32.7106C123.467 32.7847 120.717 33.6226 119.173 34.1303C119.034 34.176 118.894 34.0678 118.914 33.9229C119 33.3076 119.23 32.654 119.384 32.2891C119.417 32.2108 119.496 32.1634 119.581 32.1678L120.74 32.2283C120.997 32.2417 121.044 31.8688 120.792 31.818L119.979 31.654C119.806 31.6191 119.681 31.3356 119.729 31.1656ZM126.634 39.0778C125.422 40.4414 124.029 42.4957 124.029 43.9933C124.029 46.2317 124.324 49.3656 125.267 49.1978C125.284 49.1948 125.3 49.1888 125.315 49.1805C125.558 49.0407 125.546 48.7722 125.437 48.0804C125.293 47.166 124.661 43.151 126.248 40.4623L126.903 39.2794C127.016 39.0741 126.789 38.9024 126.634 39.0778ZM153.494 38.0606C151.498 37.06 149.647 35.6843 148.799 34.9967C149.501 34.3125 150.748 34.1706 151.81 34.6619C152.378 34.9246 152.876 35.3635 153.187 35.9784C153.461 36.5192 153.597 37.2101 153.494 38.0606ZM153.494 38.6617C151.195 37.5506 149.053 35.9148 148.27 35.2598C147.955 35.1363 147.697 35.2565 147.532 35.4512C147.444 35.5551 147.394 35.6691 147.38 35.7581C147.374 35.8017 147.377 35.8318 147.381 35.8491C147.386 35.864 147.39 35.8678 147.391 35.8687C147.962 36.3547 148.95 37.1255 150.052 37.8505C151.124 38.5555 152.283 39.2041 153.263 39.5146C153.419 39.4316 153.501 39.3133 153.537 39.1809C153.576 39.0382 153.565 38.8577 153.494 38.6617ZM149.756 38.3011C150.761 38.9623 151.876 39.5981 152.874 39.9527C152.556 40.3897 151.878 40.999 150.683 41.1455C150.312 41.044 149.717 40.7858 149.139 40.4273C148.532 40.0505 147.99 39.5912 147.737 39.1313L147.73 39.119L147.722 39.1075C147.451 38.7158 147.296 38.1895 147.258 37.6468C147.23 37.2541 147.263 36.8671 147.347 36.5342C147.946 37.0236 148.81 37.6787 149.756 38.3011ZM150.263 41.5775C149.855 41.432 149.344 41.1889 148.855 40.8856C148.361 40.5793 147.862 40.1943 147.515 39.7612C147.407 39.9497 147.292 40.1632 147.172 40.3884L147.061 40.5955C146.927 40.8491 146.788 41.1096 146.652 41.3533C147.375 42.0761 148.128 42.5751 149.383 42.9869C149.522 42.7597 149.661 42.5407 149.795 42.3299C149.963 42.0666 150.122 41.8159 150.263 41.5775ZM146.377 41.8389C147.107 42.5442 147.89 43.0495 149.101 43.4615C148.727 44.1131 148.38 44.8014 148.05 45.4647L147.973 45.6175C147.619 46.3288 147.282 47.004 146.942 47.5841C146.576 48.2091 146.221 48.6966 145.858 48.9924C145.507 49.2791 145.172 49.3702 144.807 49.2566L144.807 49.2565C144.805 49.2557 144.795 49.2519 144.776 49.2429C144.755 49.2327 144.728 49.2188 144.696 49.2015C144.633 49.1668 144.558 49.1224 144.48 49.0752C144.351 48.9975 144.223 48.9162 144.141 48.8637L144.093 48.8339C143.913 48.7202 143.799 48.4564 143.836 47.9429C143.871 47.4441 144.046 46.8011 144.317 46.0752C144.819 44.7331 145.626 43.1705 146.377 41.8389Z" fill="#EB2D34"/>
<path d="M121.016 46.6372C121.074 46.7045 121.133 46.7714 121.192 46.8378C121.136 46.7696 121.077 46.7026 121.016 46.6372Z" fill="#FEAA00"/>
<path fill-rule="evenodd" clip-rule="evenodd" d="M184.131 14.4578L184.121 14.4555C183.157 14.2331 182.117 14.117 180.993 14.117C178.848 14.117 177.001 14.4537 175.416 15.0786C173.866 15.7077 172.563 16.5998 171.478 17.7567L171.465 17.7709L171.451 17.7848C170.369 18.9032 169.522 20.2508 168.919 21.8609C168.358 23.479 168.061 25.3118 168.061 27.3836C168.061 29.8725 168.407 31.9223 169.032 33.5851C169.721 35.3 170.629 36.6633 171.729 37.7282C172.846 38.809 174.163 39.6271 175.707 40.1824C177.298 40.7095 179.054 40.9847 180.993 40.9847C182.045 40.9847 183.1 40.8874 184.159 40.6912C185.118 40.5136 186.047 40.1934 186.952 39.7227L186.991 39.7029L187.029 39.6844C188.335 39.0626 189.737 38.7901 191.178 39.0043C192.783 39.2358 194.107 40.0625 195.086 41.3144C196.344 42.8929 196.937 44.7759 196.498 46.8052C196.226 48.1797 195.55 49.3114 194.554 50.1559C194.308 49.7352 194.056 49.334 193.808 48.9845C193.508 48.5609 193.223 48.2246 192.973 48.0204C192.261 47.4404 191.985 46.9363 191.813 46.5228C191.777 46.4365 191.748 46.3617 191.722 46.294L191.722 46.2935C191.683 46.1924 191.65 46.1067 191.608 46.0212C191.545 45.8937 191.476 45.7998 191.366 45.7235C191.26 45.6507 191 45.5063 190.632 45.3142C190.27 45.1248 189.815 44.8952 189.329 44.6544C188.42 44.2032 187.406 43.7139 186.701 43.3773L182.719 47.7082C183.376 48.1983 184.287 48.9031 185.091 49.5784C185.533 49.9488 185.945 50.3127 186.266 50.6286C186.426 50.7865 186.566 50.9346 186.676 51.0673C186.784 51.1966 186.874 51.3238 186.922 51.4385C187.054 51.751 187.329 52.1373 187.633 52.5025C187.774 52.672 187.919 52.8336 188.052 52.9765C187.111 53.2134 186.158 53.4015 185.193 53.5408C183.814 53.7846 182.413 53.9058 180.993 53.9058C177.518 53.9058 174.187 53.3498 171.016 52.2277L171.01 52.2256L171.004 52.2235L171.003 52.2233C169.102 51.5399 167.314 50.6573 165.644 49.5773C165.902 48.0272 166.143 46.495 166.351 45.1198C166.545 43.8377 166.71 42.6894 166.836 41.7864C166.845 41.7153 166.83 41.6464 166.797 41.5886C167.203 41.085 167.711 40.3404 167.914 39.4172C168.171 38.2447 167.928 36.8369 166.52 35.3234C166.457 35.256 166.368 35.2198 166.276 35.2247C166.184 35.2295 166.099 35.2748 166.043 35.3484C166.025 35.3734 166.003 35.4022 165.978 35.4348C165.459 36.11 163.695 38.4063 165.021 41.5851C164.851 42.4997 164.643 43.6457 164.419 44.9086C164.231 45.9749 164.031 47.1264 163.834 48.2934C163.509 48.0416 163.189 47.7815 162.874 47.5132C162.366 44.8449 161.665 41.5532 161.062 38.825C160.786 37.5729 160.53 36.437 160.322 35.5304C160.931 33.9112 161.104 32.6128 161.062 31.6358C161.019 30.6511 160.757 29.9707 160.479 29.632C160.427 29.5678 160.351 29.5273 160.268 29.5195C160.186 29.5116 160.103 29.5371 160.04 29.5902C158.478 30.8922 157.912 32.212 157.882 33.3596C157.859 34.2791 158.182 35.0558 158.559 35.5864C158.519 35.6499 158.502 35.728 158.517 35.8075C158.68 36.7043 158.894 37.8446 159.142 39.1174C159.476 40.8378 159.874 42.8052 160.291 44.7427C158.138 42.1082 156.968 39.8296 156.606 38.8406C155.161 35.4507 154.471 31.6146 154.471 27.3836C154.471 23.6708 155.099 20.1935 156.385 16.979L156.391 16.9633L156.398 16.9479C157.721 13.7612 159.574 10.9854 161.961 8.649C164.383 6.27586 167.222 4.45217 170.452 3.17755C173.711 1.84674 177.234 1.19583 180.993 1.19583C183.142 1.19583 185.25 1.44024 187.311 1.93113C189.364 2.41977 191.307 3.13114 193.135 4.0686C194.968 4.98972 196.146 6.5603 196.451 8.60527C196.788 10.5584 196.269 12.378 195.034 13.9036C194.07 15.2039 192.709 16.0201 191.061 16.1785C189.667 16.3165 188.315 16.0263 187.048 15.4259C186.146 15.0138 185.178 14.6906 184.14 14.4599L184.131 14.4578ZM182.512 47.3211L182.007 45.4741L183.88 43.7141L186.11 43.408L182.512 47.3211ZM183.488 43.5134L183.127 43.1529L182.917 44.0499L183.488 43.5134ZM182.751 42.936L182.372 44.5621L181.79 45.1092C181.729 45.0395 181.661 44.9634 181.59 44.8876L182.021 43.7207L182.751 42.936ZM181.269 44.5619L181.288 44.5089L181.253 44.5472L181.263 44.5565L181.269 44.5619ZM168.444 47.9205C168.113 49.9413 169.415 49.9015 170.107 49.629C170.475 49.4102 170.761 49.0068 171.072 48.5692C171.522 47.9351 172.024 47.2291 172.896 46.9081C173.419 46.8149 174.354 46.9047 173.914 48.0104C173.473 49.116 173.981 49.7192 174.29 49.8826C176.301 50.3625 176.34 48.1898 176.107 47.0435C175.999 46.5008 176.022 45.4204 176.976 45.4409C177.78 45.4582 177.945 44.9922 178.127 44.4777C178.215 44.229 178.308 43.969 178.478 43.7467C178.796 43.3305 179.284 43.411 179.753 43.4885C180.053 43.5381 180.346 43.5864 180.582 43.5031C181.188 43.2894 181.026 42.4548 179.903 42.1793C178.781 41.9038 177.822 42.4834 176.888 43.5755C175.953 44.6676 175.142 44.891 174.055 44.922C173.185 44.9468 172.057 45.3934 171.602 45.6136C169.247 46.5634 168.516 47.5473 168.444 47.9205ZM175.689 41.8659C175.596 42.1269 175.295 42.7096 174.832 42.9526C174.613 43.0679 174.435 43.2142 174.276 43.3451C174.099 43.49 173.946 43.6162 173.784 43.6611C173.29 43.7983 172.675 43.6615 172.7 42.7774C172.733 41.6074 174.011 41.7152 174.645 41.9154C174.854 42.0174 175.355 42.1502 175.689 41.8659Z" fill="#76A485"/>
<path d="M189.359 52.6104C189.328 52.6206 189.297 52.6308 189.265 52.6409C189.194 52.6461 189.122 52.6143 189.079 52.5512C189.014 52.4566 189.039 52.3276 189.133 52.263L191.97 50.3233C192.065 50.2587 192.194 50.2829 192.258 50.3775C192.323 50.472 192.299 50.601 192.204 50.6656L189.367 52.6053C189.364 52.6071 189.362 52.6088 189.359 52.6104Z" fill="#76A485"/>
<path d="M159.183 35.9946C159.325 36.7665 159.499 37.6927 159.697 38.7129L160.381 38.6263C160.154 37.5986 159.942 36.6592 159.762 35.8745L159.183 35.9946Z" fill="#76A485"/>
<path d="M165.779 44.7391C165.934 43.7114 166.069 42.7787 166.178 42.0016L165.594 41.9059C165.448 42.6975 165.276 43.645 165.091 44.6814L165.779 44.7391Z" fill="#76A485"/>
<path d="M189.576 49.2955C189.686 49.2643 189.75 49.1496 189.719 49.0395C189.687 48.9293 189.573 48.8654 189.463 48.8967C189.268 48.952 189.071 49.1087 188.892 49.2862C188.706 49.4703 188.514 49.7038 188.331 49.9504C187.963 50.4439 187.616 51.0074 187.409 51.3766C187.353 51.4764 187.388 51.6028 187.488 51.6589C187.588 51.715 187.714 51.6796 187.77 51.5797C187.972 51.2215 188.309 50.6738 188.663 50.1981C188.84 49.9599 189.019 49.7444 189.184 49.5805C189.356 49.4101 189.489 49.3201 189.576 49.2955Z" fill="#76A485"/>
<path d="M189.711 50.6346C189.802 50.5646 189.819 50.4344 189.748 50.3438C189.678 50.2533 189.548 50.2366 189.458 50.3066C189.069 50.607 188.576 51.1892 188.381 51.4369C188.31 51.5268 188.326 51.6572 188.416 51.728C188.506 51.7988 188.636 51.7832 188.707 51.6933C188.9 51.4475 189.367 50.9011 189.711 50.6346Z" fill="#76A485"/>
<path fill-rule="evenodd" clip-rule="evenodd" d="M89.8455 40.0082L89.811 39.9885L89.7771 39.9676C88.9825 39.4787 88.2804 38.8788 87.6941 38.1623L87.5996 38.0467L81.0033 27.6171V46.7096C81.0033 48.4163 80.4599 49.9904 79.315 51.2785L79.2918 51.3046L79.268 51.3298C78.5186 52.1261 77.6284 52.6596 76.6523 52.9552C76.2628 52.4581 75.833 51.9024 75.3902 51.3202C74.3979 50.0157 73.3446 48.5837 72.5329 47.3801C72.402 47.186 72.278 46.9987 72.1619 46.8194C71.9506 46.4933 71.7657 46.194 71.6138 45.9298C71.7662 45.911 71.9141 45.871 72.0537 45.8148C72.2336 45.7424 72.3997 45.6431 72.5439 45.5273C72.8379 45.2911 73.0887 44.9473 73.1594 44.5399C73.2352 44.1033 73.0906 43.6605 72.7083 43.3161C72.4016 43.0397 72.0632 42.8546 71.7052 42.8162C71.3398 42.777 71.0115 42.8976 70.7579 43.1223C70.752 43.1275 70.7461 43.1328 70.7403 43.1382C70.262 43.5771 70.0929 44.3424 70.1547 45.1009C70.1699 45.2878 70.2395 45.4883 70.3167 45.6697C70.3984 45.862 70.5091 46.0795 70.6398 46.3134C70.9014 46.7818 71.2602 47.3468 71.6735 47.9596C71.7791 48.1162 71.8886 48.2764 72.0013 48.4395C72.7723 49.5546 73.6952 50.8041 74.5652 51.9478C74.8941 52.3802 75.2159 52.7982 75.5197 53.1888C75.243 53.2211 74.9616 53.237 74.6765 53.237C72.991 53.237 71.4549 52.6526 70.2579 51.4398C70.2223 51.4038 70.1869 51.3671 70.1519 51.3299L70.1282 51.3046L70.105 51.2786C68.9601 49.9906 68.4165 48.4163 68.4165 46.7096V41.2508V29.9549V23.9533V13.5793V7.99071C68.4165 6.23438 69.0696 4.67308 70.2937 3.42807C70.3081 3.41339 70.3226 3.39877 70.3372 3.38418L70.3607 3.36069L70.3847 3.3379C71.6831 2.10786 73.2876 1.46327 75.0777 1.46327C76.149 1.46327 77.1605 1.76247 78.0859 2.24248C79.1018 2.70231 80.0107 3.38651 80.659 4.35902L80.6671 4.37111L93.2112 23.6777L106.161 4.33163L106.177 4.30839L106.177 4.30812C107.428 2.5301 109.232 1.46327 111.456 1.46327C113.168 1.46327 114.699 2.09172 115.964 3.22381C117.364 4.47649 118.05 6.13735 118.05 7.99071V46.7096C118.05 48.459 117.456 50.0514 116.245 51.333L116.221 51.3584L116.197 51.3831C115.694 51.8858 115.135 52.2778 114.535 52.5692C114.841 52.0494 115.013 51.352 114.946 50.4322C114.697 47.0135 115.049 43.7502 115.256 42.5459C116.319 40.648 116.012 38.9819 115.568 38.0509C115.482 37.8727 115.256 37.9411 115.256 38.1385V39.8021C115.256 39.9823 115.042 40.0767 114.909 39.9551L113.312 38.4965C113.201 38.3945 113.232 38.2091 113.366 38.1397C113.963 37.8314 114.863 37.2184 115.238 36.4225C115.251 36.3962 115.256 36.3675 115.256 36.3384V35.7526C115.256 35.5861 115.07 35.4867 114.93 35.5773C114.107 36.1113 112.788 36.8829 112.132 36.9683C112.07 36.9763 112.011 36.9487 111.972 36.9008C111.514 36.3488 110.762 35.3198 110.498 34.5502C110.438 34.3752 110.194 34.2996 110.106 34.4623C109.825 34.9803 109.658 35.823 110.19 36.8331C110.269 36.9844 110.156 37.2017 109.999 37.2673C109.544 37.456 109.001 38.0233 108.854 39.3609C108.835 39.5395 109.045 39.6492 109.195 39.5492C109.764 39.1677 110.655 38.7313 111.429 38.8445C111.469 38.8504 111.506 38.8702 111.536 38.899L115.256 42.5459C114.949 44.1611 113.919 47.69 112.262 48.8834C111.01 49.7857 109.889 48.7807 109.199 47.7091C109.074 47.5156 108.717 47.611 108.735 47.8405C108.965 50.7261 109.713 52.359 110.374 53.165C109.006 52.9778 107.746 52.4207 106.699 51.432L106.648 51.3839L106.6 51.333C105.39 50.0514 104.795 48.4591 104.795 46.7096V27.9868L98.1857 38.0625L98.1041 38.1623C97.4975 38.9037 96.7549 39.507 95.9189 39.9893C95.002 40.545 93.97 40.8446 92.8691 40.8024C91.7655 40.8463 90.7429 40.521 89.8455 40.0082ZM115.312 32.7628C114.442 32.8524 112.903 32.8066 111.797 32.1119C111.654 32.022 111.445 32.1097 111.411 32.2751C111.333 32.6482 111.173 33.1277 110.886 33.4884C110.81 33.5833 110.811 33.7239 110.908 33.798C111.681 34.3925 113.375 35.2347 115.26 34.7944C115.346 34.7745 115.407 34.7008 115.414 34.6137L115.552 32.9929C115.564 32.8586 115.446 32.749 115.312 32.7628ZM75.4465 43.8838C75.5039 44.0315 75.6257 44.1448 75.7771 44.1914C75.9286 44.2379 76.093 44.2127 76.2234 44.1229L79.2996 42.0052C79.4776 41.8826 79.5609 41.6626 79.5086 41.4529C79.3073 40.6454 78.9972 39.4113 78.6943 38.2241C78.43 37.1886 78.1693 36.1809 77.991 35.5247C78.2967 35.4082 78.6255 35.2359 78.892 34.9998C79.1158 34.8015 79.3246 34.532 79.4069 34.1845C79.492 33.8252 79.4258 33.4505 79.2182 33.0849C78.9889 32.6813 78.6315 32.3341 78.1369 32.3672C77.6887 32.3971 77.3794 32.7323 77.2005 33.0131C77.0057 33.3187 76.8688 33.7039 76.8034 34.0927C76.7396 34.4719 76.7375 34.8921 76.8458 35.2794C76.8513 35.3062 76.8589 35.3321 76.8683 35.357C77.0103 35.8472 77.2959 36.9406 77.6031 38.141L75.0965 39.9752C74.6133 38.6227 74.1339 37.2109 73.7751 36.0139C73.5855 35.3818 73.4319 34.8168 73.329 34.3559C73.675 34.4185 74.031 34.3685 74.3367 34.2483C74.6877 34.1103 75.0294 33.8566 75.2181 33.4887C75.4204 33.0944 75.414 32.6286 75.1515 32.1861C74.9409 31.831 74.6729 31.5536 74.3425 31.4104C73.9974 31.2609 73.6396 31.2827 73.3255 31.4308C72.7383 31.7076 72.3492 32.3879 72.1825 33.1304C72.1414 33.3134 72.1483 33.5255 72.168 33.7217C72.1888 33.9295 72.2298 34.1701 72.2849 34.4323C72.3954 34.9574 72.5699 35.6035 72.7822 36.3116C73.2073 37.7295 73.7945 39.4311 74.3565 40.9794C74.7527 42.0708 75.1376 43.0894 75.4465 43.8838Z" fill="#FECD20"/>
<path d="M58.4057 53.2371H65.6364C67.3301 53.2371 68.903 52.7001 70.1644 51.5254C70.196 51.4971 70.2271 51.4686 70.2579 51.4398C70.2223 51.4038 70.1869 51.3671 70.1519 51.3299L70.1282 51.3046L70.105 51.2786C68.9601 49.9906 68.4165 48.4163 68.4165 46.7096V41.2508C67.5659 40.8495 66.6284 40.6503 65.6364 40.6503H60.6129C62.2529 41.8436 64.4119 42.9032 67.0585 43.2853C67.1407 43.2972 67.1897 43.384 67.1516 43.4577C65.7535 46.1595 62.2605 51.6325 58.8335 53.0638C58.6887 53.1243 58.546 53.182 58.4057 53.2371Z" fill="#FEAA00"/>
<path fill-rule="evenodd" clip-rule="evenodd" d="M4.91493 48.4576C4.64242 48.6421 4.45079 48.9156 4.37526 49.2542C3.86208 48.8718 3.35621 48.4655 2.85765 48.0357C2.82821 48.0107 2.79896 47.9855 2.76992 47.9602C2.81584 47.9392 2.85951 47.917 2.90051 47.8945C3.22287 47.7177 3.53298 47.4415 3.78126 47.127C4.02346 46.8202 4.23043 46.4469 4.32303 46.0496C4.33112 46.0231 4.33699 45.9965 4.34075 45.97C4.45419 45.4615 4.73568 44.3413 5.04999 43.1155L8.20786 42.7022C7.97642 44.1515 7.71222 45.6532 7.44553 46.9024C7.30365 47.5669 7.16266 48.1524 7.02738 48.6173C6.74855 48.3873 6.40282 48.2552 6.06774 48.2124C5.68836 48.164 5.26127 48.223 4.91493 48.4576Z" fill="#006CB5"/>
<path d="M36.7889 15.824C37.9174 14.6291 38.5941 13.1545 38.5941 11.4681C38.5941 9.71046 37.9042 8.2102 36.785 6.98597C36.7327 7.33554 36.7068 7.69334 36.7068 8.05762V15.9096C36.7344 15.8813 36.7617 15.8528 36.7889 15.824Z" fill="#006CB5"/>
<path fill-rule="evenodd" clip-rule="evenodd" d="M10.8736 52.6577L10.8926 52.6634C13.6597 53.5035 16.7137 53.9058 20.0297 53.9058C20.2817 53.9058 20.5326 53.9023 20.7824 53.8953C20.6453 53.7249 20.4931 53.5393 20.3319 53.3428L20.3308 53.3415C20.2716 53.2694 20.2112 53.1958 20.1499 53.121C19.6954 52.5657 19.1997 51.9504 18.861 51.4272C17.943 50.0092 17.2452 48.7783 16.7742 47.789C16.5387 47.2946 16.3567 46.8539 16.2323 46.4759C16.1106 46.1061 16.0327 45.7633 16.0311 45.4757C16.0268 44.7016 16.2573 43.9408 16.7736 43.5344C17.0497 43.3172 17.3971 43.2146 17.771 43.2836C18.1291 43.3497 18.4569 43.5625 18.7464 43.866C19.106 44.243 19.2178 44.7007 19.1079 45.135C19.0054 45.5405 18.7259 45.8688 18.4104 46.085C18.1031 46.2958 17.7137 46.4339 17.3124 46.4217C17.4132 46.6896 17.5452 46.9973 17.71 47.3434C18.1562 48.2804 18.8295 49.4711 19.7312 50.8639C20.0332 51.3305 20.4914 51.9017 20.952 52.4643C21.0116 52.5371 21.0714 52.61 21.131 52.6826L21.1312 52.6828C21.3564 52.9571 21.5779 53.2268 21.768 53.4697L23.9201 51.5518C23.7184 51.2006 23.475 50.8271 23.1984 50.4024L23.1983 50.4022C22.9709 50.0531 22.7209 49.6694 22.4529 49.2349C22.446 49.2237 22.4395 49.2122 22.4334 49.2004C22.1003 48.5545 21.8469 48.0066 21.6443 47.5635L21.5901 47.4447L21.5899 47.4442L21.5898 47.444C21.4212 47.0749 21.2978 46.8047 21.1905 46.6084C21.1761 46.5866 21.1632 46.5634 21.1519 46.5389C20.9567 46.1806 20.8629 45.7643 20.8396 45.3741C20.8157 44.9741 20.8634 44.5616 20.9864 44.2151C21.0996 43.8963 21.3285 43.4966 21.7622 43.3657C22.2403 43.2214 22.6709 43.4811 22.9898 43.8284C23.2782 44.1424 23.4285 44.4971 23.4261 44.8704C23.4238 45.2316 23.2792 45.5451 23.1031 45.7921C22.888 46.0938 22.5926 46.3442 22.3101 46.5307C22.3786 46.6757 22.4509 46.8341 22.5279 47.0029C22.5473 47.0455 22.567 47.0887 22.5871 47.1326C22.7857 47.5672 23.0283 48.0915 23.3456 48.7077C23.5724 49.0748 23.8017 49.4276 24.0208 49.7645C24.4172 50.3745 24.78 50.9325 25.0334 51.4305C25.1402 51.6403 25.0921 51.8958 24.9163 52.0524L23.0304 53.7332C25.2623 53.4708 27.3948 52.9082 29.4181 52.0369C32.3783 50.7813 34.8305 48.9465 36.7068 46.5185C36.7219 46.4989 36.737 46.4794 36.752 46.4597C38.5798 44.0734 39.5272 41.2817 39.6502 38.1824C39.6502 36.6172 39.4282 34.4713 39.3171 33.594C39.1227 32.596 38.8427 31.6543 38.4677 30.7769C38.0116 29.6853 37.4241 28.6911 36.7068 27.8023C36.1269 27.0837 35.4621 26.434 34.7133 25.8575C33.1007 24.5721 31.1365 23.5858 28.888 22.8518C26.753 22.1406 24.3042 21.5372 21.5557 21.0328C19.5971 20.6491 17.9584 20.2319 16.6231 19.7888C15.4516 19.3591 14.6994 18.8679 14.2317 18.3937C13.9259 18.0128 13.7177 17.495 13.7177 16.6841C13.7177 16.1008 13.8783 15.6589 14.1941 15.2588C14.5197 14.8464 15.0856 14.4051 16.0704 14.0296C17.061 13.6686 18.3813 13.4483 20.0966 13.4483C20.9745 13.4483 21.9836 13.6006 23.1379 13.9469L23.174 13.9577L23.2106 13.9675C24.4049 14.2859 25.5306 14.7015 26.591 15.2121L26.6246 15.2283L26.6588 15.2434C27.7185 15.7144 28.4444 16.1744 28.9164 16.5873L28.9858 16.6481L29.0596 16.7035C30.0184 17.4225 31.1357 17.795 32.3341 17.795C34.0485 17.795 35.5382 17.1069 36.7068 15.9096V8.05762C36.7068 7.69334 36.7327 7.33554 36.785 6.98597C36.476 6.64799 36.1343 6.33105 35.7653 6.03555C33.9226 4.46548 31.6176 3.2508 28.9328 2.33721C26.1917 1.34403 23.2387 0.861481 20.0966 0.861481C16.7319 0.861481 13.5955 1.44781 10.7206 2.65826C7.80818 3.88455 5.41485 5.70742 3.61648 8.1405L3.60616 8.15447L3.59602 8.1686C1.78354 10.6951 0.930294 13.6875 0.930294 17.0185C0.930294 19.2035 1.28671 21.2565 2.04164 23.1439L2.0462 23.1553L2.05091 23.1667C2.80659 25.0019 3.91545 26.6209 5.3583 28.0104L5.39151 28.0423L5.42593 28.0731C6.91264 29.4005 8.69654 30.4726 10.7329 31.317L10.7567 31.3268L10.7806 31.3362C12.8148 32.13 15.117 32.7048 17.6647 33.0822L17.6652 33.0823L17.6742 33.0836L17.6832 33.0849C20.1049 33.4248 21.9882 33.8992 23.3897 34.4673L23.4162 34.4781L23.4431 34.4883C24.8636 35.0257 25.6836 35.6131 26.1286 36.1323C26.5176 36.5861 26.7429 37.1435 26.7429 37.9494C26.7429 38.364 26.6122 38.7729 26.1665 39.2502C25.6167 39.7926 24.8306 40.3042 23.7258 40.7358C22.6453 41.1147 21.4208 41.319 20.0297 41.319C17.8069 41.319 16.081 40.9947 14.7712 40.4454C13.3712 39.8385 11.8942 38.9229 10.3428 37.6573L10.3338 37.65L10.3246 37.6426C9.227 36.7645 7.93117 36.3036 6.52153 36.3036C4.74092 36.3036 3.1585 36.977 1.93299 38.2746L1.93009 38.2776C0.796539 39.482 0.194702 40.971 0.194702 42.6305C0.194702 43.6777 0.459552 44.6743 0.921275 45.5978C1.02456 45.8044 1.13689 46.0047 1.25782 46.1987C1.3187 46.0442 1.40459 45.9046 1.51517 45.7821C1.75718 45.514 2.07373 45.3762 2.36952 45.309C2.72507 45.2281 3.10565 45.2361 3.43698 45.2828C3.599 44.6095 3.8608 43.5772 4.13326 42.518C4.44428 41.3089 4.7719 40.0544 4.98764 39.2343C5.04261 39.0253 5.22147 38.8724 5.43644 38.8505L9.22238 38.4656C9.37999 38.4496 9.53627 38.5065 9.64663 38.6202C9.75699 38.7339 9.80931 38.8917 9.78866 39.0488C9.67546 39.9099 9.5203 41.0085 9.33955 42.1776C9.08313 43.8362 8.77411 45.6439 8.45923 47.1188C8.302 47.8553 8.14141 48.5178 7.98294 49.0406C7.90381 49.3017 7.82269 49.5364 7.73964 49.7319C7.66118 49.9165 7.5639 50.1082 7.43862 50.2504C7.23938 50.4764 7.01489 50.6774 6.77632 50.8361C8.09146 51.5927 9.45083 52.2003 10.8546 52.6516L10.8736 52.6577ZM32.1516 31.0029C32.189 32.0482 31.7648 33.5706 30.6978 35.6829C30.9551 35.983 31.2246 36.248 31.4825 36.4776C31.7033 36.3593 31.9413 36.2807 32.182 36.2355C32.7223 36.1341 33.2991 36.1942 33.8116 36.3574C34.3217 36.5199 34.8101 36.7982 35.1528 37.1766C35.9729 38.0818 36.1221 39.3302 35.5187 40.3939C35.6752 40.6776 35.7978 40.9609 35.8898 41.2465C36.2864 42.4777 36.0829 43.6628 35.7694 44.9331C35.3647 46.5728 34.0314 47.4404 32.799 47.659C32.1844 47.768 31.5539 47.7246 31.0375 47.5033C30.5116 47.278 30.0712 46.8465 29.9834 46.2024C29.9164 45.7112 29.9477 45.2958 30.0746 44.9506C30.2045 44.5972 30.4241 44.3473 30.6781 44.1809C31.1404 43.8781 31.6823 43.879 31.8814 43.8793L31.8989 43.8793C32.298 43.8793 32.6757 44.0552 32.9668 44.289C33.2616 44.5258 33.5141 44.8582 33.64 45.2431C33.7409 45.5516 33.7604 45.8981 33.6484 46.2398C34.1635 45.912 34.587 45.3978 34.763 44.6848C35.0716 43.4346 35.2041 42.4985 34.9032 41.5644C34.8717 41.4665 34.8351 41.3677 34.7928 41.2677C33.9676 41.9808 32.6973 42.4487 31.0157 42.4985C30.0742 42.5264 29.3554 42.2452 28.9006 41.6662C28.4658 41.1127 28.3508 40.3832 28.378 39.6757C28.4278 38.3805 28.9653 36.8797 29.4774 35.8034C28.7595 34.7876 28.3263 33.6067 28.192 32.5436C28.081 31.6647 28.2228 30.836 28.6166 30.2077C29.02 29.5642 29.6777 29.1553 30.4968 29.1553C30.9195 29.1553 31.3445 29.2923 31.6645 29.6361C31.9781 29.9732 32.1317 30.4457 32.1516 31.0029Z" fill="#006CB5"/>
<path d="M46.3414 33.235C46.468 33.6422 46.9638 34.4445 47.9339 34.3959C48.904 34.3474 49.5985 34.4922 49.8245 34.5706C49.805 34.2085 49.4791 33.4816 48.331 33.4717C47.183 33.4618 46.5263 33.3098 46.3414 33.235Z" fill="#FEAA00"/>
<path d="M41.4614 37.0588C41.5061 36.7469 41.7863 36.0641 42.5488 35.8282C43.5019 35.5333 43.7245 34.6434 43.7268 33.8762C43.6106 34.1504 43.1544 34.7425 42.259 34.9179C41.3637 35.0933 41.3542 36.4182 41.4614 37.0588Z" fill="#FEAA00"/>
<path d="M45.2303 38.2029C45.1146 38.0385 44.9847 37.751 45.3906 37.9156C45.7964 38.0803 46.3494 37.8477 46.5752 37.7109C46.6955 37.5868 46.9365 37.4279 46.9371 37.7844C46.938 38.23 45.9023 38.7178 45.2303 38.2029Z" fill="#FEAA00"/>
<path d="M49.2821 40.465C48.991 39.9491 48.0664 39.0394 46.697 39.5287C45.3279 40.0179 45.1896 41.1735 45.1283 41.6861C45.1151 41.796 45.1055 41.8763 45.0881 41.9142C45.6852 40.9455 45.8623 40.8392 46.6967 40.3384C46.7328 40.3167 46.7702 40.2943 46.8089 40.271C47.5583 39.8202 48.77 40.2125 49.2821 40.465Z" fill="#FEAA00"/>
<path d="M29.4949 30.7583C29.2574 31.1371 29.1316 31.7109 29.2204 32.4137C29.3135 33.1511 29.5811 33.9695 30.0151 34.722C30.8672 32.9354 31.1414 31.7558 31.1157 31.04C31.1015 30.6417 30.9967 30.4402 30.9056 30.3422C30.8208 30.2511 30.6944 30.1919 30.4969 30.1919C30.0604 30.1919 29.7228 30.3946 29.4949 30.7583Z" fill="#006CB5"/>
<path d="M30.2133 36.691C29.8067 37.6362 29.4501 38.7719 29.4138 39.7155C29.3908 40.3135 29.4998 40.7511 29.7157 41.0259C29.9116 41.2752 30.2701 41.4836 30.985 41.4624C32.636 41.4135 33.6825 40.9269 34.2591 40.3483C33.8069 39.7337 33.1236 39.0587 32.1105 38.2809C32.0744 38.2531 32.0203 38.2143 31.9515 38.1651L31.9508 38.1645C31.843 38.0873 31.6993 37.9843 31.5314 37.8569C31.4153 38.1059 31.3517 38.4759 31.4318 39.0195C31.4894 39.4101 31.7144 39.6219 31.877 39.6799C31.9542 39.7075 32.0101 39.7007 32.0489 39.6839C32.0859 39.6679 32.1571 39.6212 32.2234 39.4762C32.3425 39.216 32.65 39.1015 32.9103 39.2205C33.1706 39.3396 33.2851 39.6471 33.166 39.9074C33.0123 40.2436 32.7717 40.5008 32.46 40.6355C32.1499 40.7694 31.8199 40.7602 31.5286 40.6562C30.954 40.4511 30.5114 39.8833 30.4063 39.1707C30.2875 38.3643 30.397 37.6953 30.7196 37.1845C30.5534 37.0335 30.3827 36.8687 30.2133 36.691Z" fill="#006CB5"/>
<path d="M33.497 37.3451C33.1447 37.2328 32.7724 37.1949 32.4453 37.2423C32.4684 37.259 32.4906 37.275 32.512 37.2905L32.5373 37.3088C32.6204 37.3687 32.6897 37.4187 32.7418 37.4587C33.6219 38.1344 34.3019 38.7642 34.8128 39.376C34.9276 38.8473 34.778 38.3067 34.3846 37.8725C34.1929 37.6609 33.8778 37.4664 33.497 37.3451Z" fill="#006CB5"/>
<path fill-rule="evenodd" clip-rule="evenodd" d="M38.5941 11.4681C38.5941 13.1545 37.9174 14.6291 36.7889 15.824C36.7617 15.8528 36.7344 15.8813 36.7068 15.9096V27.8023C37.4241 28.6911 38.0116 29.6853 38.4677 30.7769C38.8427 31.6543 39.1227 32.596 39.3171 33.594C39.4282 34.4713 39.6502 36.6172 39.6502 38.1824C39.5272 41.2817 38.5798 44.0734 36.752 46.4597C36.737 46.4794 36.7219 46.4989 36.7068 46.5185V46.7096C36.7068 48.4591 37.3016 50.0514 38.512 51.333L38.56 51.3839L38.6108 51.4319C39.8924 52.6423 41.4848 53.2371 43.2342 53.2371H51.9356C51.2821 51.9512 50.6931 49.747 51.4402 47.1081C51.8949 45.8719 53.1128 43.1317 54.7943 40.6503H51.7312L51.3431 40.6516C50.7625 41.9889 49.6722 43.888 48.6023 44.3427C47.3112 44.8914 45.6698 43.7025 44.9189 43.1585C44.7646 43.0467 44.6479 42.9622 44.5795 42.9256C44.1787 42.7108 43.6846 42.2994 42.7477 41.4424C41.9981 40.7569 40.7251 38.0541 40.1823 36.7884L39.3555 33.4207C39.3837 33.5005 39.4342 33.3834 39.4102 32.2764C39.3863 31.1694 40.6346 31.2808 41.2617 31.4748C42.0253 31.7514 43.6785 31.2233 44.8577 30.8466C45.4044 30.672 45.8492 30.5299 46.0562 30.5157C46.4315 30.4898 47.2514 30.1146 47.9916 29.776L47.9919 29.7759C48.5406 29.5248 49.0454 29.2938 49.2928 29.24C49.7577 29.1389 50.2132 29.9232 50.3828 30.328L51.1101 33.1755H62.6271C64.289 33.1755 65.8516 32.6813 67.1224 31.56L67.1238 31.5587L67.1292 31.554C67.6639 31.0787 68.0932 30.5415 68.4165 29.9549V23.9533C68.1062 23.3835 67.6961 22.8589 67.1829 22.3923C65.9332 21.1692 64.3525 20.5887 62.6271 20.5887H49.9623V14.117H65.6364C66.6085 14.117 67.5489 13.9458 68.4165 13.5793V7.99071C68.4165 6.23438 69.0696 4.67308 70.2937 3.42807C70.2603 3.39637 70.2264 3.36493 70.1922 3.33374C68.9425 2.11066 67.3618 1.53018 65.6364 1.53018H43.2342C41.4415 1.53018 39.8333 2.17839 38.5607 3.45095C37.5654 4.44623 36.984 5.65658 36.785 6.98597C37.9042 8.2102 38.5941 9.71046 38.5941 11.4681ZM45.0786 41.9296C45.082 41.9257 45.0851 41.9206 45.0881 41.9142L45.0786 41.9296Z" fill="#FEAA00"/>
<path d="M213.103 16.0379C212.549 16.0379 212.013 15.9907 211.494 15.8964C210.975 15.8139 210.486 15.6842 210.027 15.5074C209.567 15.3306 209.154 15.1125 208.789 14.8532C208.636 14.7471 208.524 14.6175 208.453 14.4642C208.394 14.311 208.376 14.1636 208.4 14.0222C208.435 13.8689 208.5 13.7393 208.594 13.6332C208.7 13.5271 208.824 13.4623 208.966 13.4387C209.107 13.4151 209.26 13.4623 209.425 13.5801C209.968 13.9456 210.533 14.2108 211.123 14.3758C211.724 14.5408 212.384 14.6234 213.103 14.6234C214.14 14.6234 214.901 14.4348 215.384 14.0575C215.879 13.6803 216.127 13.1853 216.127 12.5723C216.127 12.0654 215.95 11.6706 215.596 11.3876C215.243 11.093 214.647 10.8631 213.81 10.6981L211.936 10.3091C210.828 10.0733 209.997 9.68433 209.443 9.1421C208.901 8.59987 208.63 7.87493 208.63 6.96728C208.63 6.41326 208.742 5.91229 208.966 5.46436C209.19 5.00464 209.508 4.60975 209.92 4.2797C210.333 3.94965 210.816 3.69621 211.37 3.5194C211.936 3.34258 212.561 3.25418 213.245 3.25418C213.975 3.25418 214.659 3.35437 215.296 3.55476C215.944 3.75515 216.527 4.04984 217.046 4.43883C217.188 4.54492 217.282 4.67459 217.329 4.82783C217.376 4.96928 217.382 5.11073 217.347 5.25218C217.323 5.39363 217.258 5.51151 217.152 5.60581C217.058 5.70011 216.934 5.75316 216.781 5.76494C216.639 5.77673 216.48 5.72369 216.303 5.60581C215.832 5.27576 215.349 5.04 214.854 4.89855C214.358 4.74531 213.816 4.66869 213.227 4.66869C212.626 4.66869 212.101 4.76299 211.653 4.9516C211.217 5.1402 210.875 5.40542 210.628 5.74726C210.392 6.07732 210.274 6.46631 210.274 6.91424C210.274 7.45647 210.439 7.88082 210.769 8.1873C211.099 8.49378 211.653 8.72953 212.431 8.89456L214.288 9.26587C215.467 9.51341 216.339 9.89651 216.905 10.4152C217.482 10.922 217.771 11.6057 217.771 12.4662C217.771 13.0084 217.659 13.4976 217.435 13.9338C217.223 14.3699 216.916 14.7471 216.516 15.0654C216.115 15.3719 215.626 15.6135 215.048 15.7903C214.47 15.9554 213.822 16.0379 213.103 16.0379ZM223.715 16.0379C222.784 16.0379 221.982 15.8611 221.31 15.5074C220.65 15.142 220.137 14.6292 219.772 13.9691C219.406 13.2972 219.224 12.5075 219.224 11.5998C219.224 10.704 219.401 9.92009 219.754 9.24819C220.12 8.5763 220.615 8.05175 221.239 7.67454C221.876 7.29734 222.601 7.10873 223.414 7.10873C223.992 7.10873 224.511 7.20893 224.97 7.40932C225.442 7.59792 225.843 7.87493 226.173 8.24035C226.503 8.60576 226.75 9.05369 226.915 9.58414C227.092 10.1028 227.18 10.6922 227.18 11.3523C227.18 11.5409 227.121 11.6882 227.004 11.7943C226.898 11.8886 226.738 11.9358 226.526 11.9358H220.479V10.9102H226.12L225.819 11.1578C225.819 10.5448 225.725 10.0262 225.536 9.60182C225.359 9.16568 225.094 8.83562 224.74 8.61166C224.399 8.38769 223.968 8.27571 223.45 8.27571C222.884 8.27571 222.401 8.41127 222 8.68238C221.599 8.94171 221.293 9.31302 221.08 9.79632C220.868 10.2678 220.762 10.8159 220.762 11.4407V11.5468C220.762 12.6077 221.015 13.4092 221.522 13.9515C222.029 14.4937 222.76 14.7648 223.715 14.7648C224.092 14.7648 224.475 14.7177 224.864 14.6234C225.265 14.5291 225.648 14.3581 226.013 14.1106C226.19 14.0045 226.349 13.9574 226.491 13.9691C226.644 13.9691 226.768 14.0163 226.862 14.1106C226.956 14.1931 227.015 14.2992 227.039 14.4289C227.063 14.5467 227.045 14.6764 226.986 14.8179C226.927 14.9593 226.815 15.0831 226.65 15.1892C226.261 15.4603 225.795 15.6725 225.253 15.8257C224.723 15.9671 224.21 16.0379 223.715 16.0379ZM232.912 16.0379C232.04 16.0379 231.286 15.8552 230.649 15.4897C230.013 15.1125 229.523 14.588 229.182 13.9161C228.84 13.2324 228.669 12.4309 228.669 11.5114C228.669 10.8277 228.763 10.2148 228.952 9.67255C229.152 9.13031 229.435 8.6706 229.8 8.29339C230.166 7.9044 230.608 7.60971 231.127 7.40932C231.657 7.20893 232.252 7.10873 232.912 7.10873C233.325 7.10873 233.761 7.17357 234.221 7.30323C234.681 7.43289 235.105 7.64507 235.494 7.93976C235.624 8.03406 235.706 8.14605 235.741 8.27571C235.777 8.39359 235.777 8.51736 235.741 8.64702C235.718 8.77669 235.659 8.88867 235.565 8.98297C235.482 9.06548 235.37 9.11263 235.229 9.12442C235.099 9.13621 234.958 9.09495 234.804 9.00065C234.521 8.78847 234.221 8.63523 233.903 8.54093C233.596 8.44663 233.301 8.39948 233.018 8.39948C232.582 8.39948 232.193 8.47021 231.852 8.61166C231.521 8.75311 231.239 8.95939 231.003 9.23051C230.779 9.48984 230.608 9.814 230.49 10.203C230.372 10.5802 230.313 11.0222 230.313 11.5291C230.313 12.531 230.549 13.3208 231.02 13.8984C231.492 14.4642 232.158 14.7471 233.018 14.7471C233.301 14.7471 233.596 14.7059 233.903 14.6234C234.209 14.5291 234.51 14.3758 234.804 14.1636C234.958 14.0693 235.099 14.034 235.229 14.0575C235.358 14.0693 235.464 14.1224 235.547 14.2167C235.641 14.2992 235.7 14.4053 235.724 14.5349C235.747 14.6528 235.736 14.7766 235.688 14.9063C235.653 15.0359 235.571 15.142 235.441 15.2245C235.064 15.5074 234.651 15.7137 234.203 15.8434C233.755 15.973 233.325 16.0379 232.912 16.0379ZM238.232 16.0025C237.961 16.0025 237.754 15.9318 237.613 15.7903C237.471 15.6489 237.401 15.4426 237.401 15.1715V7.95744C237.401 7.68633 237.471 7.48594 237.613 7.35627C237.754 7.21482 237.949 7.1441 238.196 7.1441C238.444 7.1441 238.633 7.21482 238.762 7.35627C238.904 7.48594 238.974 7.68633 238.974 7.95744V9.31892H238.798C238.986 8.61166 239.34 8.07532 239.858 7.7099C240.377 7.34449 241.031 7.1382 241.821 7.09105C242.01 7.07927 242.163 7.12642 242.281 7.2325C242.399 7.32681 242.464 7.49183 242.475 7.72759C242.487 7.95155 242.434 8.13426 242.316 8.27571C242.198 8.40537 242.016 8.48199 241.768 8.50557L241.45 8.52325C240.672 8.60576 240.071 8.8592 239.646 9.28355C239.234 9.70791 239.027 10.2914 239.027 11.034V15.1715C239.027 15.4426 238.957 15.6489 238.815 15.7903C238.686 15.9318 238.491 16.0025 238.232 16.0025ZM247.716 16.0379C246.785 16.0379 245.983 15.8611 245.311 15.5074C244.651 15.142 244.139 14.6292 243.773 13.9691C243.408 13.2972 243.225 12.5075 243.225 11.5998C243.225 10.704 243.402 9.92009 243.755 9.24819C244.121 8.5763 244.616 8.05175 245.241 7.67454C245.877 7.29734 246.602 7.10873 247.415 7.10873C247.993 7.10873 248.512 7.20893 248.971 7.40932C249.443 7.59792 249.844 7.87493 250.174 8.24035C250.504 8.60576 250.751 9.05369 250.916 9.58414C251.093 10.1028 251.182 10.6922 251.182 11.3523C251.182 11.5409 251.123 11.6882 251.005 11.7943C250.899 11.8886 250.74 11.9358 250.527 11.9358H244.48V10.9102H250.121L249.82 11.1578C249.82 10.5448 249.726 10.0262 249.537 9.60182C249.36 9.16568 249.095 8.83562 248.742 8.61166C248.4 8.38769 247.97 8.27571 247.451 8.27571C246.885 8.27571 246.402 8.41127 246.001 8.68238C245.6 8.94171 245.294 9.31302 245.082 9.79632C244.869 10.2678 244.763 10.8159 244.763 11.4407V11.5468C244.763 12.6077 245.017 13.4092 245.524 13.9515C246.03 14.4937 246.761 14.7648 247.716 14.7648C248.093 14.7648 248.476 14.7177 248.865 14.6234C249.266 14.5291 249.649 14.3581 250.015 14.1106C250.191 14.0045 250.351 13.9574 250.492 13.9691C250.645 13.9691 250.769 14.0163 250.863 14.1106C250.958 14.1931 251.017 14.2992 251.04 14.4289C251.064 14.5467 251.046 14.6764 250.987 14.8179C250.928 14.9593 250.816 15.0831 250.651 15.1892C250.262 15.4603 249.797 15.6725 249.254 15.8257C248.724 15.9671 248.211 16.0379 247.716 16.0379ZM256.737 16.0379C256.042 16.0379 255.458 15.9141 254.987 15.6666C254.527 15.419 254.179 15.0595 253.944 14.588C253.72 14.1165 253.608 13.5389 253.608 12.8552V8.50557H252.476C252.264 8.50557 252.099 8.45252 251.981 8.34644C251.863 8.22856 251.804 8.07532 251.804 7.88672C251.804 7.68633 251.863 7.53309 251.981 7.427C252.099 7.32091 252.264 7.26787 252.476 7.26787H253.608V5.34059C253.608 5.06947 253.678 4.86908 253.82 4.73942C253.961 4.59797 254.162 4.52724 254.421 4.52724C254.68 4.52724 254.875 4.59797 255.004 4.73942C255.146 4.86908 255.217 5.06947 255.217 5.34059V7.26787H257.356C257.58 7.26787 257.751 7.32091 257.869 7.427C257.987 7.53309 258.046 7.68633 258.046 7.88672C258.046 8.07532 257.987 8.22856 257.869 8.34644C257.751 8.45252 257.58 8.50557 257.356 8.50557H255.217V12.7138C255.217 13.3621 255.352 13.8513 255.623 14.1813C255.894 14.5114 256.342 14.6764 256.967 14.6764C257.191 14.6764 257.38 14.6587 257.533 14.6234C257.686 14.5762 257.822 14.5526 257.94 14.5526C258.046 14.5408 258.134 14.5762 258.205 14.6587C258.287 14.7412 258.329 14.8945 258.329 15.1184C258.329 15.2835 258.299 15.4367 258.24 15.5782C258.193 15.7078 258.093 15.7962 257.94 15.8434C257.798 15.8905 257.609 15.9318 257.374 15.9671C257.138 16.0143 256.926 16.0379 256.737 16.0379ZM262.243 16.0379C261.654 16.0379 261.117 15.92 260.634 15.6842C260.163 15.4485 259.791 15.1302 259.52 14.7294C259.261 14.3287 259.131 13.8807 259.131 13.3857C259.131 12.7491 259.29 12.2481 259.609 11.8827C259.927 11.5173 260.463 11.258 261.218 11.1047C261.972 10.9397 262.986 10.8572 264.259 10.8572H265.09V11.8827H264.294C263.387 11.8827 262.668 11.924 262.137 12.0065C261.618 12.089 261.253 12.2364 261.041 12.4485C260.829 12.6489 260.723 12.9318 260.723 13.2972C260.723 13.757 260.882 14.1342 261.2 14.4289C261.53 14.7235 261.978 14.8709 262.544 14.8709C262.992 14.8709 263.387 14.7648 263.728 14.5526C264.07 14.3287 264.341 14.034 264.542 13.6686C264.742 13.2914 264.842 12.8611 264.842 12.3778V10.3444C264.842 9.64897 264.701 9.148 264.418 8.84152C264.135 8.52325 263.658 8.36412 262.986 8.36412C262.597 8.36412 262.196 8.41716 261.783 8.52325C261.371 8.62934 260.941 8.79437 260.493 9.01833C260.316 9.10085 260.163 9.13031 260.033 9.10674C259.903 9.07138 259.797 9.00065 259.715 8.89456C259.644 8.77669 259.603 8.65291 259.591 8.52325C259.591 8.3818 259.62 8.24624 259.679 8.11658C259.75 7.98691 259.868 7.89261 260.033 7.83367C260.552 7.57435 261.064 7.39164 261.571 7.28555C262.09 7.16767 262.573 7.10873 263.021 7.10873C263.787 7.10873 264.418 7.2325 264.913 7.48004C265.408 7.7158 265.779 8.08711 266.027 8.59398C266.275 9.08906 266.398 9.72559 266.398 10.5036V15.1715C266.398 15.4426 266.333 15.6489 266.204 15.7903C266.074 15.9318 265.886 16.0025 265.638 16.0025C265.402 16.0025 265.214 15.9318 265.072 15.7903C264.943 15.6489 264.878 15.4426 264.878 15.1715V13.9161H265.037C264.943 14.3522 264.766 14.7294 264.506 15.0477C264.247 15.366 263.923 15.6135 263.534 15.7903C263.157 15.9554 262.726 16.0379 262.243 16.0379ZM269.761 16.0025C269.49 16.0025 269.284 15.9318 269.143 15.7903C269.001 15.6489 268.93 15.4426 268.93 15.1715V7.95744C268.93 7.68633 269.001 7.48594 269.143 7.35627C269.284 7.21482 269.478 7.1441 269.726 7.1441C269.974 7.1441 270.162 7.21482 270.292 7.35627C270.433 7.48594 270.504 7.68633 270.504 7.95744V9.31892H270.327C270.516 8.61166 270.869 8.07532 271.388 7.7099C271.907 7.34449 272.561 7.1382 273.351 7.09105C273.539 7.07927 273.693 7.12642 273.81 7.2325C273.928 7.32681 273.993 7.49183 274.005 7.72759C274.017 7.95155 273.964 8.13426 273.846 8.27571C273.728 8.40537 273.545 8.48199 273.298 8.50557L272.979 8.52325C272.201 8.60576 271.6 8.8592 271.176 9.28355C270.763 9.70791 270.557 10.2914 270.557 11.034V15.1715C270.557 15.4426 270.486 15.6489 270.345 15.7903C270.215 15.9318 270.021 16.0025 269.761 16.0025ZM276.184 15.9671C275.936 15.9671 275.742 15.8905 275.6 15.7373C275.459 15.584 275.388 15.3719 275.388 15.1008V8.04585C275.388 7.76295 275.459 7.55077 275.6 7.40932C275.742 7.25608 275.936 7.17946 276.184 7.17946C276.443 7.17946 276.644 7.25608 276.785 7.40932C276.927 7.55077 276.997 7.76295 276.997 8.04585V15.1008C276.997 15.3719 276.927 15.584 276.785 15.7373C276.655 15.8905 276.455 15.9671 276.184 15.9671ZM276.184 5.26986C275.866 5.26986 275.612 5.18735 275.424 5.02232C275.247 4.84551 275.158 4.61565 275.158 4.33274C275.158 4.02627 275.247 3.79641 275.424 3.64317C275.612 3.47814 275.866 3.39563 276.184 3.39563C276.526 3.39563 276.779 3.47814 276.944 3.64317C277.121 3.79641 277.209 4.02627 277.209 4.33274C277.209 4.61565 277.121 4.84551 276.944 5.02232C276.779 5.18735 276.526 5.26986 276.184 5.26986ZM282.325 16.0379C281.735 16.0379 281.199 15.92 280.716 15.6842C280.244 15.4485 279.873 15.1302 279.602 14.7294C279.342 14.3287 279.213 13.8807 279.213 13.3857C279.213 12.7491 279.372 12.2481 279.69 11.8827C280.008 11.5173 280.545 11.258 281.299 11.1047C282.054 10.9397 283.067 10.8572 284.34 10.8572H285.171V11.8827H284.376C283.468 11.8827 282.749 11.924 282.219 12.0065C281.7 12.089 281.335 12.2364 281.122 12.4485C280.91 12.6489 280.804 12.9318 280.804 13.2972C280.804 13.757 280.963 14.1342 281.282 14.4289C281.612 14.7235 282.06 14.8709 282.625 14.8709C283.073 14.8709 283.468 14.7648 283.81 14.5526C284.152 14.3287 284.423 14.034 284.623 13.6686C284.824 13.2914 284.924 12.8611 284.924 12.3778V10.3444C284.924 9.64897 284.782 9.148 284.5 8.84152C284.217 8.52325 283.739 8.36412 283.067 8.36412C282.678 8.36412 282.278 8.41716 281.865 8.52325C281.452 8.62934 281.022 8.79437 280.574 9.01833C280.397 9.10085 280.244 9.13031 280.115 9.10674C279.985 9.07138 279.879 9.00065 279.796 8.89456C279.726 8.77669 279.684 8.65291 279.673 8.52325C279.673 8.3818 279.702 8.24624 279.761 8.11658C279.832 7.98691 279.95 7.89261 280.115 7.83367C280.633 7.57435 281.146 7.39164 281.653 7.28555C282.172 7.16767 282.655 7.10873 283.103 7.10873C283.869 7.10873 284.5 7.2325 284.995 7.48004C285.49 7.7158 285.861 8.08711 286.109 8.59398C286.356 9.08906 286.48 9.72559 286.48 10.5036V15.1715C286.48 15.4426 286.415 15.6489 286.285 15.7903C286.156 15.9318 285.967 16.0025 285.72 16.0025C285.484 16.0025 285.295 15.9318 285.154 15.7903C285.024 15.6489 284.959 15.4426 284.959 15.1715V13.9161H285.118C285.024 14.3522 284.847 14.7294 284.588 15.0477C284.329 15.366 284.005 15.6135 283.616 15.7903C283.238 15.9554 282.808 16.0379 282.325 16.0379ZM209.797 34.0025C209.561 34.0025 209.378 33.9318 209.249 33.7903C209.119 33.6489 209.054 33.4603 209.054 33.2245V22.0675C209.054 21.82 209.119 21.6314 209.249 21.5017C209.39 21.3603 209.579 21.2895 209.814 21.2895C210.027 21.2895 210.192 21.3308 210.309 21.4133C210.439 21.4958 210.557 21.6373 210.663 21.8377L215.402 30.7314H214.854L219.592 21.8377C219.698 21.6373 219.81 21.4958 219.928 21.4133C220.046 21.3308 220.211 21.2895 220.423 21.2895C220.659 21.2895 220.842 21.3603 220.971 21.5017C221.101 21.6314 221.166 21.82 221.166 22.0675V33.2245C221.166 33.4603 221.101 33.6489 220.971 33.7903C220.853 33.9318 220.671 34.0025 220.423 34.0025C220.176 34.0025 219.987 33.9318 219.857 33.7903C219.74 33.6489 219.681 33.4603 219.681 33.2245V23.6942H220.07L215.826 31.6332C215.732 31.7864 215.632 31.9043 215.525 31.9868C215.431 32.0575 215.296 32.0929 215.119 32.0929C214.954 32.0929 214.812 32.0517 214.694 31.9691C214.588 31.8866 214.494 31.7746 214.412 31.6332L210.115 23.6765H210.539V33.2245C210.539 33.4603 210.474 33.6489 210.345 33.7903C210.227 33.9318 210.044 34.0025 209.797 34.0025ZM227.061 34.0379C226.365 34.0379 225.782 33.9082 225.31 33.6489C224.851 33.3896 224.509 33.0065 224.285 32.4996C224.061 31.9927 223.949 31.3562 223.949 30.59V25.9574C223.949 25.6863 224.014 25.4859 224.143 25.3563C224.285 25.2148 224.485 25.1441 224.745 25.1441C225.004 25.1441 225.204 25.2148 225.346 25.3563C225.487 25.4859 225.558 25.6863 225.558 25.9574V30.59C225.558 31.3208 225.705 31.8631 226 32.2167C226.295 32.5585 226.76 32.7294 227.397 32.7294C228.104 32.7294 228.676 32.4937 229.112 32.0222C229.56 31.5507 229.784 30.9259 229.784 30.148V25.9574C229.784 25.6863 229.849 25.4859 229.978 25.3563C230.12 25.2148 230.32 25.1441 230.579 25.1441C230.839 25.1441 231.039 25.2148 231.181 25.3563C231.322 25.4859 231.393 25.6863 231.393 25.9574V33.1715C231.393 33.7255 231.133 34.0025 230.615 34.0025C230.355 34.0025 230.155 33.9318 230.014 33.7903C229.884 33.6489 229.819 33.4426 229.819 33.1715V31.6332L230.049 31.9338C229.813 32.6175 229.43 33.142 228.9 33.5074C228.381 33.8611 227.768 34.0379 227.061 34.0379ZM234.778 34.0025C234.53 34.0025 234.335 33.9318 234.194 33.7903C234.053 33.6489 233.982 33.4426 233.982 33.1715V25.9574C233.982 25.6863 234.053 25.4859 234.194 25.3563C234.335 25.2148 234.53 25.1441 234.778 25.1441C235.025 25.1441 235.214 25.2148 235.343 25.3563C235.485 25.4859 235.556 25.6863 235.556 25.9574V27.4073L235.361 27.1421C235.609 26.4702 236.009 25.9633 236.563 25.6215C237.129 25.2797 237.772 25.1087 238.491 25.1087C239.186 25.1087 239.758 25.2325 240.206 25.48C240.654 25.7276 240.99 26.1048 241.214 26.6117C241.438 27.1185 241.55 27.761 241.55 28.5389V33.1715C241.55 33.4426 241.479 33.6489 241.337 33.7903C241.208 33.9318 241.013 34.0025 240.754 34.0025C240.495 34.0025 240.294 33.9318 240.153 33.7903C240.011 33.6489 239.941 33.4426 239.941 33.1715V28.6273C239.941 27.8611 239.793 27.3012 239.498 26.9476C239.204 26.594 238.732 26.4172 238.084 26.4172C237.33 26.4172 236.722 26.6529 236.263 27.1244C235.815 27.5841 235.591 28.2089 235.591 28.9987V33.1715C235.591 33.7255 235.32 34.0025 234.778 34.0025ZM244.896 33.9671C244.648 33.9671 244.454 33.8905 244.313 33.7373C244.171 33.584 244.1 33.3719 244.1 33.1008V26.0459C244.1 25.7629 244.171 25.5508 244.313 25.4093C244.454 25.2561 244.648 25.1795 244.896 25.1795C245.155 25.1795 245.356 25.2561 245.497 25.4093C245.639 25.5508 245.709 25.7629 245.709 26.0459V33.1008C245.709 33.3719 245.639 33.584 245.497 33.7373C245.368 33.8905 245.167 33.9671 244.896 33.9671ZM244.896 23.2699C244.578 23.2699 244.324 23.1873 244.136 23.0223C243.959 22.8455 243.87 22.6156 243.87 22.3327C243.87 22.0263 243.959 21.7964 244.136 21.6432C244.324 21.4781 244.578 21.3956 244.896 21.3956C245.238 21.3956 245.491 21.4781 245.656 21.6432C245.833 21.7964 245.922 22.0263 245.922 22.3327C245.922 22.6156 245.833 22.8455 245.656 23.0223C245.491 23.1873 245.238 23.2699 244.896 23.2699ZM252.027 34.0379C251.155 34.0379 250.4 33.8552 249.764 33.4897C249.127 33.1125 248.638 32.588 248.296 31.9161C247.954 31.2324 247.783 30.4309 247.783 29.5114C247.783 28.8277 247.878 28.2148 248.066 27.6725C248.267 27.1303 248.55 26.6706 248.915 26.2934C249.281 25.9044 249.723 25.6097 250.241 25.4093C250.772 25.2089 251.367 25.1087 252.027 25.1087C252.44 25.1087 252.876 25.1736 253.335 25.3032C253.795 25.4329 254.22 25.6451 254.609 25.9398C254.738 26.0341 254.821 26.146 254.856 26.2757C254.891 26.3936 254.891 26.5174 254.856 26.647C254.832 26.7767 254.774 26.8887 254.679 26.983C254.597 27.0655 254.485 27.1126 254.343 27.1244C254.214 27.1362 254.072 27.095 253.919 27.0007C253.636 26.7885 253.335 26.6352 253.017 26.5409C252.711 26.4466 252.416 26.3995 252.133 26.3995C251.697 26.3995 251.308 26.4702 250.966 26.6117C250.636 26.7531 250.353 26.9594 250.117 27.2305C249.893 27.4898 249.723 27.814 249.605 28.203C249.487 28.5802 249.428 29.0222 249.428 29.5291C249.428 30.531 249.664 31.3208 250.135 31.8984C250.607 32.4642 251.273 32.7471 252.133 32.7471C252.416 32.7471 252.711 32.7059 253.017 32.6234C253.324 32.5291 253.624 32.3758 253.919 32.1636C254.072 32.0693 254.214 32.034 254.343 32.0575C254.473 32.0693 254.579 32.1224 254.662 32.2167C254.756 32.2992 254.815 32.4053 254.838 32.5349C254.862 32.6528 254.85 32.7766 254.803 32.9063C254.768 33.0359 254.685 33.142 254.555 33.2245C254.178 33.5074 253.766 33.7137 253.318 33.8434C252.87 33.973 252.44 34.0379 252.027 34.0379ZM257.311 33.9671C257.063 33.9671 256.869 33.8905 256.728 33.7373C256.586 33.584 256.515 33.3719 256.515 33.1008V26.0459C256.515 25.7629 256.586 25.5508 256.728 25.4093C256.869 25.2561 257.063 25.1795 257.311 25.1795C257.57 25.1795 257.771 25.2561 257.912 25.4093C258.054 25.5508 258.124 25.7629 258.124 26.0459V33.1008C258.124 33.3719 258.054 33.584 257.912 33.7373C257.783 33.8905 257.582 33.9671 257.311 33.9671ZM257.311 23.2699C256.993 23.2699 256.739 23.1873 256.551 23.0223C256.374 22.8455 256.285 22.6156 256.285 22.3327C256.285 22.0263 256.374 21.7964 256.551 21.6432C256.739 21.4781 256.993 21.3956 257.311 21.3956C257.653 21.3956 257.906 21.4781 258.071 21.6432C258.248 21.7964 258.337 22.0263 258.337 22.3327C258.337 22.6156 258.248 22.8455 258.071 23.0223C257.906 23.1873 257.653 23.2699 257.311 23.2699ZM261.507 37.1852C261.259 37.1852 261.065 37.1144 260.923 36.973C260.782 36.8315 260.711 36.6312 260.711 36.3718V25.9574C260.711 25.6863 260.782 25.4859 260.923 25.3563C261.065 25.2148 261.259 25.1441 261.507 25.1441C261.766 25.1441 261.961 25.2148 262.09 25.3563C262.232 25.4859 262.303 25.6863 262.303 25.9574V27.5665L262.108 27.2482C262.297 26.5999 262.668 26.0812 263.222 25.6922C263.776 25.3032 264.442 25.1087 265.22 25.1087C265.986 25.1087 266.652 25.2914 267.218 25.6569C267.784 26.0105 268.226 26.5233 268.544 27.1951C268.862 27.8553 269.022 28.645 269.022 29.5645C269.022 30.4721 268.862 31.2678 268.544 31.9515C268.238 32.6234 267.796 33.142 267.218 33.5074C266.652 33.8611 265.986 34.0379 265.22 34.0379C264.454 34.0379 263.794 33.8434 263.24 33.4544C262.686 33.0654 262.314 32.5526 262.126 31.9161H262.32V36.3718C262.32 36.6312 262.25 36.8315 262.108 36.973C261.967 37.1144 261.766 37.1852 261.507 37.1852ZM264.849 32.7648C265.356 32.7648 265.798 32.641 266.175 32.3935C266.564 32.146 266.864 31.7864 267.077 31.3149C267.289 30.8434 267.395 30.2599 267.395 29.5645C267.395 28.5271 267.165 27.7374 266.705 27.1951C266.246 26.6529 265.627 26.3818 264.849 26.3818C264.33 26.3818 263.876 26.5056 263.487 26.7531C263.11 26.9889 262.815 27.3425 262.603 27.814C262.403 28.2855 262.303 28.869 262.303 29.5645C262.303 30.6018 262.532 31.3974 262.992 31.9515C263.452 32.4937 264.071 32.7648 264.849 32.7648ZM273.829 34.0379C273.24 34.0379 272.704 33.92 272.22 33.6842C271.749 33.4485 271.378 33.1302 271.106 32.7294C270.847 32.3287 270.717 31.8807 270.717 31.3857C270.717 30.7491 270.877 30.2481 271.195 29.8827C271.513 29.5173 272.049 29.258 272.804 29.1047C273.558 28.9397 274.572 28.8572 275.845 28.8572H276.676V29.8827H275.88C274.973 29.8827 274.254 29.924 273.723 30.0065C273.205 30.089 272.839 30.2364 272.627 30.4485C272.415 30.6489 272.309 30.9318 272.309 31.2972C272.309 31.757 272.468 32.1342 272.786 32.4289C273.116 32.7235 273.564 32.8709 274.13 32.8709C274.578 32.8709 274.973 32.7648 275.315 32.5526C275.656 32.3287 275.928 32.034 276.128 31.6686C276.328 31.2914 276.429 30.8611 276.429 30.3778V28.3444C276.429 27.649 276.287 27.148 276.004 26.8415C275.721 26.5233 275.244 26.3641 274.572 26.3641C274.183 26.3641 273.782 26.4172 273.37 26.5233C272.957 26.6293 272.527 26.7944 272.079 27.0183C271.902 27.1008 271.749 27.1303 271.619 27.1067C271.49 27.0714 271.383 27.0007 271.301 26.8946C271.23 26.7767 271.189 26.6529 271.177 26.5233C271.177 26.3818 271.207 26.2462 271.266 26.1166C271.336 25.9869 271.454 25.8926 271.619 25.8337C272.138 25.5743 272.651 25.3916 273.157 25.2855C273.676 25.1677 274.159 25.1087 274.607 25.1087C275.374 25.1087 276.004 25.2325 276.499 25.48C276.994 25.7158 277.366 26.0871 277.613 26.594C277.861 27.0891 277.985 27.7256 277.985 28.5036V33.1715C277.985 33.4426 277.92 33.6489 277.79 33.7903C277.66 33.9318 277.472 34.0025 277.224 34.0025C276.988 34.0025 276.8 33.9318 276.658 33.7903C276.529 33.6489 276.464 33.4426 276.464 33.1715V31.9161H276.623C276.529 32.3522 276.352 32.7294 276.093 33.0477C275.833 33.366 275.509 33.6135 275.12 33.7903C274.743 33.9554 274.313 34.0379 273.829 34.0379ZM283.222 34.0379C282.338 34.0379 281.666 33.7785 281.206 33.2599C280.746 32.7294 280.517 31.9691 280.517 30.979V22.1029C280.517 21.8318 280.587 21.6314 280.729 21.5017C280.87 21.3603 281.065 21.2895 281.312 21.2895C281.572 21.2895 281.772 21.3603 281.913 21.5017C282.055 21.6314 282.126 21.8318 282.126 22.1029V30.8552C282.126 31.4682 282.249 31.9279 282.497 32.2344C282.756 32.5291 283.122 32.6764 283.593 32.6764C283.699 32.6764 283.794 32.6764 283.876 32.6764C283.959 32.6646 284.041 32.6528 284.124 32.641C284.253 32.6292 284.348 32.6646 284.406 32.7471C284.465 32.8296 284.495 32.9947 284.495 33.2422C284.495 33.4662 284.442 33.643 284.336 33.7726C284.241 33.8905 284.082 33.9671 283.858 34.0025C283.752 34.0143 283.646 34.0202 283.54 34.0202C283.434 34.032 283.328 34.0379 283.222 34.0379ZM212.095 52.0379C211.341 52.0379 210.675 51.8611 210.097 51.5074C209.531 51.142 209.089 50.6234 208.771 49.9515C208.453 49.2678 208.294 48.4721 208.294 47.5645C208.294 46.645 208.447 45.8553 208.753 45.1951C209.072 44.5233 209.514 44.0105 210.08 43.6569C210.657 43.2914 211.329 43.1087 212.095 43.1087C212.861 43.1087 213.522 43.3032 214.076 43.6922C214.63 44.0694 215.001 44.5763 215.19 45.2128H214.995V40.1029C214.995 39.8318 215.06 39.6314 215.19 39.5017C215.331 39.3603 215.531 39.2895 215.791 39.2895C216.05 39.2895 216.25 39.3603 216.392 39.5017C216.533 39.6314 216.604 39.8318 216.604 40.1029V51.1715C216.604 51.4426 216.533 51.6489 216.392 51.7903C216.25 51.9318 216.05 52.0025 215.791 52.0025C215.543 52.0025 215.349 51.9318 215.207 51.7903C215.066 51.6489 214.995 51.4426 214.995 51.1715V49.5625L215.19 49.8807C215.013 50.5408 214.641 51.0654 214.076 51.4544C213.522 51.8434 212.861 52.0379 212.095 52.0379ZM212.467 50.7648C212.985 50.7648 213.433 50.641 213.81 50.3935C214.199 50.146 214.494 49.7864 214.694 49.3149C214.907 48.8434 215.013 48.2599 215.013 47.5645C215.013 46.5271 214.783 45.7374 214.323 45.1951C213.863 44.6529 213.245 44.3818 212.467 44.3818C211.96 44.3818 211.512 44.5056 211.123 44.7531C210.746 44.9889 210.451 45.3425 210.239 45.814C210.027 46.2855 209.92 46.869 209.92 47.5645C209.92 48.6018 210.15 49.3974 210.61 49.9515C211.082 50.4937 211.7 50.7648 212.467 50.7648ZM223.162 52.0379C222.231 52.0379 221.43 51.8611 220.758 51.5074C220.098 51.142 219.585 50.6292 219.219 49.9691C218.854 49.2972 218.671 48.5075 218.671 47.5998C218.671 46.704 218.848 45.9201 219.202 45.2482C219.567 44.5763 220.062 44.0517 220.687 43.6745C221.323 43.2973 222.048 43.1087 222.862 43.1087C223.439 43.1087 223.958 43.2089 224.418 43.4093C224.889 43.5979 225.29 43.8749 225.62 44.2403C225.95 44.6058 226.198 45.0537 226.363 45.5841C226.539 46.1028 226.628 46.6922 226.628 47.3523C226.628 47.5409 226.569 47.6882 226.451 47.7943C226.345 47.8886 226.186 47.9358 225.974 47.9358H219.927V46.9102H225.567L225.266 47.1578C225.266 46.5448 225.172 46.0262 224.984 45.6018C224.807 45.1657 224.541 44.8356 224.188 44.6117C223.846 44.3877 223.416 44.2757 222.897 44.2757C222.331 44.2757 221.848 44.4113 221.447 44.6824C221.046 44.9417 220.74 45.313 220.528 45.7963C220.316 46.2678 220.21 46.8159 220.21 47.4407V47.5468C220.21 48.6077 220.463 49.4092 220.97 49.9515C221.477 50.4937 222.208 50.7648 223.162 50.7648C223.54 50.7648 223.923 50.7177 224.312 50.6234C224.712 50.5291 225.095 50.3581 225.461 50.1106C225.638 50.0045 225.797 49.9574 225.938 49.9691C226.092 49.9691 226.215 50.0163 226.31 50.1106C226.404 50.1931 226.463 50.2992 226.486 50.4289C226.51 50.5467 226.492 50.6764 226.433 50.8179C226.374 50.9593 226.262 51.0831 226.097 51.1892C225.708 51.4603 225.243 51.6725 224.701 51.8257C224.17 51.9671 223.657 52.0379 223.162 52.0379ZM238.933 52.0379C237.695 52.0379 236.634 51.7785 235.75 51.2599C234.866 50.7412 234.182 50.0045 233.699 49.0497C233.228 48.0831 232.992 46.9456 232.992 45.6372C232.992 44.6588 233.127 43.7806 233.399 43.0026C233.67 42.2129 234.059 41.541 234.565 40.987C235.072 40.4212 235.691 39.9909 236.422 39.6962C237.165 39.4015 238.002 39.2542 238.933 39.2542C239.64 39.2542 240.318 39.3544 240.966 39.5548C241.626 39.7552 242.192 40.0381 242.664 40.4035C242.852 40.5331 242.976 40.6805 243.035 40.8455C243.094 41.0105 243.1 41.1697 243.053 41.3229C243.017 41.4644 242.941 41.5881 242.823 41.6942C242.717 41.7885 242.581 41.8416 242.416 41.8534C242.251 41.8534 242.074 41.7885 241.886 41.6589C241.473 41.3406 241.019 41.1107 240.524 40.9693C240.041 40.816 239.522 40.7394 238.968 40.7394C238.061 40.7394 237.288 40.9339 236.652 41.3229C236.027 41.7001 235.55 42.2541 235.22 42.985C234.901 43.704 234.742 44.5881 234.742 45.6372C234.742 46.6745 234.901 47.5645 235.22 48.3071C235.55 49.0379 236.027 49.5978 236.652 49.9868C237.288 50.364 238.061 50.5526 238.968 50.5526C239.522 50.5526 240.047 50.476 240.542 50.3228C241.049 50.1695 241.514 49.9338 241.939 49.6155C242.127 49.4858 242.298 49.4269 242.451 49.4387C242.616 49.4505 242.752 49.5035 242.858 49.5978C242.964 49.6803 243.035 49.7982 243.07 49.9515C243.117 50.0929 243.117 50.2403 243.07 50.3935C243.023 50.5467 242.917 50.6823 242.752 50.8002C242.269 51.2127 241.691 51.5251 241.019 51.7373C240.359 51.9377 239.664 52.0379 238.933 52.0379ZM248.04 52.0379C247.345 52.0379 246.761 51.9082 246.29 51.6489C245.83 51.3896 245.488 51.0065 245.264 50.4996C245.04 49.9927 244.928 49.3562 244.928 48.59V43.9574C244.928 43.6863 244.993 43.4859 245.123 43.3563C245.264 43.2148 245.465 43.1441 245.724 43.1441C245.983 43.1441 246.184 43.2148 246.325 43.3563C246.467 43.4859 246.537 43.6863 246.537 43.9574V48.59C246.537 49.3208 246.685 49.8631 246.979 50.2167C247.274 50.5585 247.74 50.7294 248.376 50.7294C249.083 50.7294 249.655 50.4937 250.091 50.0222C250.539 49.5507 250.763 48.9259 250.763 48.148V43.9574C250.763 43.6863 250.828 43.4859 250.958 43.3563C251.099 43.2148 251.3 43.1441 251.559 43.1441C251.818 43.1441 252.019 43.2148 252.16 43.3563C252.302 43.4859 252.372 43.6863 252.372 43.9574V51.1715C252.372 51.7255 252.113 52.0025 251.594 52.0025C251.335 52.0025 251.135 51.9318 250.993 51.7903C250.863 51.6489 250.799 51.4426 250.799 51.1715V49.6332L251.028 49.9338C250.793 50.6175 250.41 51.142 249.879 51.5074C249.36 51.8611 248.748 52.0379 248.04 52.0379ZM257.667 52.0379C256.783 52.0379 256.111 51.7785 255.651 51.2599C255.191 50.7294 254.961 49.9691 254.961 48.979V40.1029C254.961 39.8318 255.032 39.6314 255.173 39.5017C255.315 39.3603 255.509 39.2895 255.757 39.2895C256.016 39.2895 256.217 39.3603 256.358 39.5017C256.5 39.6314 256.57 39.8318 256.57 40.1029V48.8552C256.57 49.4682 256.694 49.9279 256.942 50.2344C257.201 50.5291 257.566 50.6764 258.038 50.6764C258.144 50.6764 258.238 50.6764 258.321 50.6764C258.403 50.6646 258.486 50.6528 258.568 50.641C258.698 50.6292 258.792 50.6646 258.851 50.7471C258.91 50.8296 258.94 50.9947 258.94 51.2422C258.94 51.4662 258.887 51.643 258.781 51.7726C258.686 51.8905 258.527 51.9671 258.303 52.0025C258.197 52.0143 258.091 52.0202 257.985 52.0202C257.879 52.032 257.773 52.0379 257.667 52.0379ZM263.679 52.0379C262.983 52.0379 262.4 51.9141 261.928 51.6666C261.468 51.419 261.121 51.0595 260.885 50.588C260.661 50.1165 260.549 49.5389 260.549 48.8552V44.5056H259.417C259.205 44.5056 259.04 44.4525 258.922 44.3464C258.804 44.2286 258.745 44.0753 258.745 43.8867C258.745 43.6863 258.804 43.5331 258.922 43.427C259.04 43.3209 259.205 43.2679 259.417 43.2679H260.549V41.3406C260.549 41.0695 260.62 40.8691 260.761 40.7394C260.903 40.598 261.103 40.5272 261.362 40.5272C261.622 40.5272 261.816 40.598 261.946 40.7394C262.087 40.8691 262.158 41.0695 262.158 41.3406V43.2679H264.297C264.521 43.2679 264.692 43.3209 264.81 43.427C264.928 43.5331 264.987 43.6863 264.987 43.8867C264.987 44.0753 264.928 44.2286 264.81 44.3464C264.692 44.4525 264.521 44.5056 264.297 44.5056H262.158V48.7138C262.158 49.3621 262.294 49.8513 262.565 50.1813C262.836 50.5114 263.284 50.6764 263.908 50.6764C264.132 50.6764 264.321 50.6587 264.474 50.6234C264.627 50.5762 264.763 50.5526 264.881 50.5526C264.987 50.5408 265.075 50.5762 265.146 50.6587C265.229 50.7412 265.27 50.8945 265.27 51.1184C265.27 51.2835 265.24 51.4367 265.181 51.5782C265.134 51.7078 265.034 51.7962 264.881 51.8434C264.739 51.8905 264.551 51.9318 264.315 51.9671C264.079 52.0143 263.867 52.0379 263.679 52.0379ZM269.52 52.0379C268.825 52.0379 268.242 51.9082 267.77 51.6489C267.31 51.3896 266.968 51.0065 266.744 50.4996C266.521 49.9927 266.409 49.3562 266.409 48.59V43.9574C266.409 43.6863 266.473 43.4859 266.603 43.3563C266.744 43.2148 266.945 43.1441 267.204 43.1441C267.464 43.1441 267.664 43.2148 267.805 43.3563C267.947 43.4859 268.018 43.6863 268.018 43.9574V48.59C268.018 49.3208 268.165 49.8631 268.46 50.2167C268.754 50.5585 269.22 50.7294 269.856 50.7294C270.564 50.7294 271.135 50.4937 271.572 50.0222C272.019 49.5507 272.243 48.9259 272.243 48.148V43.9574C272.243 43.6863 272.308 43.4859 272.438 43.3563C272.579 43.2148 272.78 43.1441 273.039 43.1441C273.298 43.1441 273.499 43.2148 273.64 43.3563C273.782 43.4859 273.852 43.6863 273.852 43.9574V51.1715C273.852 51.7255 273.593 52.0025 273.074 52.0025C272.815 52.0025 272.615 51.9318 272.473 51.7903C272.344 51.6489 272.279 51.4426 272.279 51.1715V49.6332L272.509 49.9338C272.273 50.6175 271.89 51.142 271.359 51.5074C270.841 51.8611 270.228 52.0379 269.52 52.0379ZM277.273 52.0025C277.001 52.0025 276.795 51.9318 276.654 51.7903C276.512 51.6489 276.442 51.4426 276.442 51.1715V43.9574C276.442 43.6863 276.512 43.4859 276.654 43.3563C276.795 43.2148 276.99 43.1441 277.237 43.1441C277.485 43.1441 277.673 43.2148 277.803 43.3563C277.944 43.4859 278.015 43.6863 278.015 43.9574V45.3189H277.838C278.027 44.6117 278.381 44.0753 278.899 43.7099C279.418 43.3445 280.072 43.1382 280.862 43.0911C281.051 43.0793 281.204 43.1264 281.322 43.2325C281.439 43.3268 281.504 43.4918 281.516 43.7276C281.528 43.9516 281.475 44.1343 281.357 44.2757C281.239 44.4054 281.056 44.482 280.809 44.5056L280.491 44.5233C279.713 44.6058 279.111 44.8592 278.687 45.2836C278.275 45.7079 278.068 46.2914 278.068 47.034V51.1715C278.068 51.4426 277.998 51.6489 277.856 51.7903C277.726 51.9318 277.532 52.0025 277.273 52.0025ZM285.554 52.0379C284.964 52.0379 284.428 51.92 283.945 51.6842C283.473 51.4485 283.102 51.1302 282.831 50.7294C282.571 50.3287 282.442 49.8807 282.442 49.3857C282.442 48.7491 282.601 48.2481 282.919 47.8827C283.237 47.5173 283.774 47.258 284.528 47.1047C285.283 46.9397 286.296 46.8572 287.569 46.8572H288.4V47.8827H287.605C286.697 47.8827 285.978 47.924 285.448 48.0065C284.929 48.089 284.564 48.2364 284.351 48.4485C284.139 48.6489 284.033 48.9318 284.033 49.2972C284.033 49.757 284.192 50.1342 284.51 50.4289C284.841 50.7235 285.288 50.8709 285.854 50.8709C286.302 50.8709 286.697 50.7648 287.039 50.5526C287.381 50.3287 287.652 50.034 287.852 49.6686C288.053 49.2914 288.153 48.8611 288.153 48.3778V46.3444C288.153 45.649 288.011 45.148 287.729 44.8415C287.446 44.5233 286.968 44.3641 286.296 44.3641C285.907 44.3641 285.507 44.4172 285.094 44.5233C284.681 44.6293 284.251 44.7944 283.803 45.0183C283.626 45.1008 283.473 45.1303 283.344 45.1067C283.214 45.0714 283.108 45.0007 283.025 44.8946C282.955 44.7767 282.913 44.6529 282.901 44.5233C282.901 44.3818 282.931 44.2462 282.99 44.1166C283.061 43.9869 283.178 43.8926 283.344 43.8337C283.862 43.5743 284.375 43.3916 284.882 43.2855C285.4 43.1677 285.884 43.1087 286.332 43.1087C287.098 43.1087 287.729 43.2325 288.224 43.48C288.719 43.7158 289.09 44.0871 289.338 44.594C289.585 45.0891 289.709 45.7256 289.709 46.5036V51.1715C289.709 51.4426 289.644 51.6489 289.514 51.7903C289.385 51.9318 289.196 52.0025 288.949 52.0025C288.713 52.0025 288.524 51.9318 288.383 51.7903C288.253 51.6489 288.188 51.4426 288.188 51.1715V49.9161H288.347C288.253 50.3522 288.076 50.7294 287.817 51.0477C287.558 51.366 287.233 51.6135 286.844 51.7903C286.467 51.9554 286.037 52.0379 285.554 52.0379Z" fill="black"/>
</svg>
