<svg width="814" height="280" viewBox="0 0 814 280" fill="none" xmlns="http://www.w3.org/2000/svg">
<path d="M811.17 252.396C811.17 252.396 801.573 231.765 801.547 231.676C799.878 228.26 797.571 225.521 794.716 223.495C791.402 221.124 787.438 219.876 783.27 219.876C782.761 219.876 782.238 219.888 781.728 219.939C782.034 219.723 782.327 219.493 782.62 219.251C789.248 213.631 793.671 206.075 795.417 197.384C797.979 185.393 794.92 173.185 786.903 163.156C780.441 154.886 771.672 149.738 761.616 148.273C759.589 147.967 757.537 147.827 755.485 147.827C749.023 147.827 742.587 149.317 736.354 152.287C736.354 152.287 735.64 152.656 735.589 152.669C733.499 153.765 731.409 154.491 729.216 154.886C726.094 155.472 722.946 155.765 719.849 155.765C714.279 155.765 709.142 155.014 704.592 153.523C700.858 152.159 697.735 150.235 695.046 147.635C692.318 144.998 690.139 141.608 688.38 137.263C686.595 132.433 685.69 126.304 685.69 119.015C685.69 113.038 686.481 107.661 688.074 103.022C689.603 98.9953 691.668 95.6821 694.383 92.8787C694.459 92.8022 694.561 92.6875 694.651 92.5983C697.302 89.7694 700.437 87.654 704.095 86.1631C708.492 84.4301 713.794 83.5635 719.849 83.5635C722.882 83.5635 725.724 83.8439 728.312 84.4428C728.426 84.4683 728.528 84.5065 728.656 84.5193C731.472 85.1564 734.149 86.0484 736.596 87.1571C742.969 90.1517 749.546 91.6681 756.148 91.6681C757.563 91.6681 758.977 91.6044 760.328 91.4642C770.907 90.4575 780.262 85.1819 786.737 76.5804C794.27 67.1505 797.329 55.5416 795.366 43.8436C793.378 30.9221 785.794 20.5493 774.081 14.6748C765.936 10.4951 757.155 7.2711 747.991 5.0793C738.839 2.90025 729.382 1.80435 719.849 1.80435C703.203 1.80435 687.5 4.77347 673.136 10.6225C662.29 14.9042 652.374 20.6258 643.528 27.6854C641.718 23.3146 639.195 19.2878 635.906 15.7325C628.374 7.41127 617.884 2.83653 606.324 2.83653C596.841 2.83653 581.292 11.5782 581.292 11.5782C552.385 23.7733 519.055 11.5782 519.055 11.5782C519.055 11.5782 503.378 2.83653 494.252 2.83653C486.134 2.83653 478.652 4.88816 472.177 8.82575C465.677 4.9009 458.387 2.83653 450.726 2.83653C437.229 2.83653 425.363 9.14433 417.269 20.6513C417.193 20.766 417.116 20.8679 417.027 20.9826L380.307 75.8285C380.307 75.8285 344.786 21.161 344.747 21.11C340.809 15.2227 335.341 10.6098 328.522 7.43676C322.494 4.39118 316.248 2.83653 309.939 2.83653C303.63 2.83653 297.092 4.27649 291.407 7.07996C285.939 4.4549 279.873 3.09139 273.398 3.09139H186.703C175.423 3.09139 165.29 7.2711 157.388 15.1718C157.069 15.4903 156.802 15.8217 156.496 16.1402C150.556 12.6359 143.916 9.61582 136.613 7.10544C124.479 2.73459 111.198 0.517303 97.1652 0.517303C81.9216 0.517303 67.6465 3.28254 54.7353 8.72381C40.728 14.6111 29.2825 23.4547 20.7047 35.0381C20.59 35.1656 20.4881 35.3185 20.3733 35.4841C11.5917 47.7557 7.13073 62.3846 7.13073 78.9251C7.13073 89.5527 8.95334 99.505 12.5731 108.565C12.5986 108.629 12.6368 108.693 12.6495 108.756C16.3967 117.855 21.941 125.972 29.1168 132.879L29.8178 133.542C31.7933 135.287 33.8836 136.97 36.0758 138.562C28.1864 140.244 21.0106 144.259 15.3006 150.299C8.08664 157.97 4.27573 167.553 4.27573 178.028C4.27573 184.412 5.7797 190.669 8.74941 196.607C9.37394 197.843 10.0495 199.066 10.776 200.226C12.025 202.252 13.7202 203.896 15.6575 205.145C16.5752 207.209 17.9262 209.095 19.6851 210.637L20.0802 210.968C22.2852 212.88 24.5539 214.702 26.8353 216.384C28.6325 217.735 30.6845 218.652 32.813 219.136C33.0934 219.519 33.3865 219.863 33.7052 220.22C31.9718 219.952 30.2256 219.812 28.5177 219.812C25.2421 219.812 22.1195 220.271 19.2262 221.15C16.0781 222.106 13.2104 223.533 10.6995 225.406C10.6358 225.457 10.5848 225.482 10.5465 225.533C7.66604 227.738 5.38459 230.491 3.66394 233.816C2.00702 237.117 1.19131 240.723 1.19131 244.533C1.19131 247.044 1.53544 249.452 2.24919 251.708C1.58642 253.313 1.14033 254.995 0.910905 256.728C0.452066 260.462 1.10209 264.209 2.7845 267.573C2.83548 267.649 2.86097 267.751 2.91196 267.84C4.78555 271.396 7.768 274.25 11.5152 276.06C13.1339 276.837 14.9183 277.499 16.8173 278.047C18.5762 278.544 20.4116 278.901 22.2852 279.131C24.0695 279.373 25.8284 279.5 27.5108 279.5C30.761 279.5 33.8836 279.067 36.7004 278.251C37.6436 277.984 38.5485 277.665 39.4279 277.308C42.0025 278.468 44.8703 279.067 47.8655 279.067H60.8914C64.1798 279.067 67.2897 278.29 70.0045 276.85C73.9938 278.595 78.442 279.5 83.2471 279.5C85.758 279.5 88.2943 279.194 90.7542 278.621C91.6719 278.404 92.5768 278.149 93.4563 277.856C95.8652 278.876 98.5162 279.411 101.282 279.411C104.048 279.411 106.814 278.85 109.261 277.818C111.759 278.863 114.499 279.411 117.341 279.411C120.184 279.411 122.363 278.914 124.313 278.2C126.2 278.774 128.226 279.054 130.291 279.054H143.317C146.529 279.054 149.588 278.302 152.264 276.913C155.17 278.532 158.509 279.411 162.027 279.411C164.666 279.411 167.189 278.939 169.496 278.035C171.765 278.939 174.25 279.411 176.799 279.411C181.63 279.411 185.237 277.869 187.761 276.136C190.233 277.793 193.891 279.411 198.849 279.411C200.774 279.411 202.647 279.143 204.406 278.621C206.216 279.143 208.128 279.411 210.091 279.411C212.92 279.411 215.622 278.85 218.069 277.818C220.568 278.863 223.308 279.411 226.15 279.411C228.597 279.411 230.738 279.016 232.561 278.417C234.575 279.067 236.716 279.411 238.934 279.411C240.948 279.411 242.885 279.131 244.72 278.595C246.53 279.131 248.417 279.411 250.379 279.411C255.223 279.411 258.83 277.869 261.353 276.136C263.813 277.793 267.484 279.411 272.416 279.411C276.393 279.411 280.14 278.264 283.301 276.111C283.62 275.894 283.938 275.664 284.244 275.422C287.545 278.009 291.688 279.411 296.123 279.411C300.304 279.411 304.191 278.188 307.377 275.907C310.589 278.188 314.477 279.411 318.619 279.411C322.022 279.411 325.221 278.595 328.025 277.079C328.726 277.385 329.453 277.665 330.205 277.92C330.268 277.933 330.345 277.971 330.421 277.996C333.506 278.978 336.896 279.487 340.516 279.487C345.053 279.487 349.221 278.672 352.904 277.104C355.696 278.595 358.908 279.411 362.285 279.411C365.497 279.411 368.543 278.697 371.233 277.334C373.947 278.71 376.994 279.411 380.295 279.411C382.538 279.411 384.692 279.029 386.706 278.315C388.783 279.029 391.026 279.411 393.346 279.411C397.08 279.411 400.585 278.455 403.593 276.684C407.659 278.544 412.235 279.5 417.193 279.5C419.704 279.5 422.24 279.194 424.687 278.621C425.63 278.404 426.51 278.149 427.389 277.856C429.798 278.876 432.449 279.411 435.215 279.411C437.624 279.411 439.944 279.016 442.098 278.251C444.226 279.016 446.533 279.411 448.917 279.411C453.135 279.411 457.074 278.188 460.298 275.932C460.426 276.021 460.541 276.11 460.668 276.187C463.816 278.302 467.563 279.411 471.502 279.411C476.332 279.411 479.914 277.869 482.463 276.136C484.923 277.793 488.593 279.411 493.551 279.411C495.693 279.411 497.757 279.08 499.733 278.43C501.364 278.837 503.085 279.067 504.831 279.067H517.691C522.152 279.067 526.32 277.64 529.621 275.015C532.999 277.64 537.294 279.067 541.87 279.067H549.402C553.405 279.067 557.164 278.506 560.657 277.372C561.613 277.053 562.53 276.709 563.435 276.314C566.469 278.111 570.025 279.08 573.785 279.08H586.811C591.96 279.08 596.688 277.168 600.117 273.74C600.563 273.282 600.996 272.797 601.391 272.313C602.985 273.677 604.705 274.887 606.604 275.881C611.065 278.277 616.202 279.5 621.823 279.5C624.333 279.5 626.87 279.194 629.317 278.621C631.343 278.149 633.243 277.512 634.976 276.697C635.945 277.155 636.952 277.576 637.997 277.92C638.073 277.933 638.137 277.971 638.213 277.996C641.298 278.978 644.688 279.487 648.308 279.487C653.036 279.487 657.37 278.608 661.168 276.901C663.934 278.315 667.082 279.054 670.345 279.054H683.205C685.193 279.054 687.118 278.774 688.928 278.226C691.069 279.003 693.376 279.398 695.772 279.398C700.463 279.398 704.796 277.907 708.186 275.142C709.971 276.263 711.908 277.194 713.973 277.907C714.049 277.92 714.126 277.958 714.215 277.984C717.299 278.965 720.69 279.475 724.297 279.475C728.885 279.475 733.091 278.646 736.813 277.041C739.642 278.57 742.892 279.385 746.308 279.385C749.151 279.385 751.853 278.825 754.287 277.793C756.785 278.837 759.525 279.385 762.368 279.385C764.241 279.385 765.924 279.143 767.428 278.761C769.021 279.169 770.665 279.385 772.373 279.385C777.216 279.385 780.81 277.844 783.334 276.111C785.807 277.767 789.465 279.385 794.423 279.385C798.399 279.385 802.146 278.239 805.282 276.085C809.411 273.294 812.126 269.051 812.955 264.132C813.643 260.207 813.044 256.155 811.221 252.383L811.17 252.396Z" fill="white"/>
<path d="M234.256 195.613C234.6 196.875 236.04 199.283 239.074 198.786C237.124 200.634 233.44 202.596 234.256 195.613Z" fill="#FEAA00"/>
<path d="M239.074 184.973C236.83 179.213 231.834 177.887 229.616 177.938C231.159 176.779 234.995 175.007 237.927 177.238C240.858 179.468 239.915 183.316 239.074 184.96V184.973Z" fill="#FEAA00"/>
<path d="M258.09 189.968C254.84 188.107 251.08 189.93 249.601 191.076C256.854 191.076 259.594 195.651 260.066 197.932C260.767 196.059 261.34 191.828 258.09 189.968Z" fill="#FEAA00"/>
<path d="M225.194 194.734C225.971 194.148 227.73 193.408 228.559 195.078C228.635 192.835 228.074 189.611 225.194 194.734Z" fill="#FEAA00"/>
<path d="M245.714 205.017C246.428 205.094 247.702 205.718 247.052 207.579C248.442 206.266 250.137 203.909 245.714 205.017Z" fill="#FEAA00"/>
<path d="M244.541 206.521C230.126 209.541 227.067 200.889 227.348 196.186C222.517 203.756 225.678 208.598 227.87 210.076C235.263 215.097 242.069 209.809 244.541 206.534V206.521Z" fill="#FEAA00"/>
<path fill-rule="evenodd" clip-rule="evenodd" d="M507.38 209.783C506.36 209.172 505.353 208.56 504.372 207.923C504.448 207.706 504.512 207.477 504.576 207.235C504.754 206.508 503.454 205.234 502.753 204.992C502.218 204.801 501.759 204.52 501.619 204.176C491.639 180.882 501.708 170.739 509.585 162.8C511.573 160.799 513.421 158.926 514.772 157.027C518.571 151.675 511.713 143.52 503.505 143.634C503.11 143.634 502.792 143.953 502.753 144.348C501.797 155.192 500.931 159.601 498.789 163.258C498.637 163.513 498.369 163.653 498.076 163.628C494.227 163.22 486.261 160.047 480.525 150.108C480.155 149.458 479.238 149.598 479.174 150.337C478.97 152.618 479.098 155.753 480.283 157.677L480.308 157.715C481.978 160.417 483.915 163.552 493.819 168.088C494.303 168.317 494.443 168.942 494.099 169.35L494.023 169.439C493.577 169.949 493.105 170.496 492.595 171.083C486.49 178.206 484.489 188.859 487.064 192.733C483.877 188.948 481.035 184.807 478.524 180.347L478.473 180.245C471.578 167.629 468.251 153.344 468.251 137.658V43.9838C468.251 37.0899 470.737 30.8713 475.784 26.0672C480.844 21.0591 487.267 18.7272 494.29 18.7272C501.313 18.7272 506.768 21.416 511.42 25.978C516.62 30.7311 519.297 36.9624 519.297 43.9838V137.658C519.297 144.87 520.788 150.656 523.427 155.358C526.409 160.187 530.143 163.806 534.668 166.406C539.499 169.082 544.457 170.356 549.682 170.356C555.571 170.356 560.911 169.006 565.882 166.317C570.814 163.653 574.791 159.958 577.901 155.116C580.781 150.452 582.4 144.756 582.4 137.658V43.9838C582.4 37.5996 584.287 31.5849 588.569 26.6916C593.17 21.2376 599.466 18.7272 606.375 18.7272C613.283 18.7272 619.528 21.2248 624.231 26.4622C628.781 31.3428 630.859 37.4339 630.859 43.9838V137.658C630.859 153.37 627.443 167.668 620.356 180.283C613.499 192.784 603.927 202.673 591.73 209.758C587.792 212.039 583.687 213.95 579.405 215.479C578.589 214.129 577.557 213.479 576.499 212.816C576.066 212.536 575.62 212.268 575.186 211.937C574.829 211.656 574.549 211.312 574.396 210.879C574.243 210.446 574.256 210.013 574.332 209.63C574.485 208.904 574.944 208.203 575.416 207.604C575.9 206.992 576.512 206.343 577.098 205.744L577.315 205.527C577.506 205.336 577.684 205.145 577.863 204.954C577.748 204.89 577.633 204.813 577.506 204.737C577.213 204.559 576.92 204.38 576.665 204.215C575.275 205.553 574.116 206.865 573.415 208.088C572.624 209.465 572.522 210.535 573.045 211.453C573.797 212.778 574.651 213.351 575.62 213.988L575.721 214.052C576.461 214.536 577.251 215.084 577.914 216.002C569.234 218.92 559.866 220.347 549.899 220.36C549.937 220.283 549.963 220.207 550.001 220.131C550.32 219.366 550.638 218.461 550.944 217.442C551.556 215.403 552.193 212.829 552.805 209.949C554.029 204.202 555.239 197.155 556.234 190.694C556.935 186.145 557.546 181.863 557.98 178.499C558.056 177.887 557.852 177.276 557.432 176.842C556.998 176.396 556.399 176.18 555.788 176.244L541.028 177.747C540.2 177.836 539.511 178.423 539.295 179.238C538.454 182.437 537.179 187.317 535.968 192.032C534.91 196.161 533.878 200.2 533.253 202.813C531.966 202.634 530.475 202.596 529.086 202.915C527.938 203.17 526.702 203.718 525.759 204.75C524.79 205.82 524.306 207.247 524.331 208.904C524.357 210.739 524.931 212.599 526.689 213.415C528.283 214.154 529.978 213.593 531.138 212.956C532.387 212.268 533.597 211.198 534.566 209.974C535.509 208.776 536.312 207.324 536.669 205.782C536.695 205.68 536.72 205.578 536.733 205.476C537.179 203.488 538.275 199.117 539.499 194.339L551.836 192.72C550.931 198.378 549.899 204.227 548.867 209.108C548.319 211.707 547.758 214.001 547.235 215.811C546.152 214.906 544.801 214.383 543.488 214.218C542.01 214.027 540.353 214.256 539.002 215.173C537.625 216.104 536.784 217.62 536.771 219.506C526.205 218.092 516.417 214.88 507.482 209.783H507.38ZM482.756 133.656C483.214 132.025 483.546 129.502 483.724 127.642C483.775 127.107 484.323 126.762 484.82 126.941C491.486 129.375 496.342 130.267 499.325 130.815C501.428 131.197 502.6 131.414 502.804 131.885C503.174 132.726 502.524 136.613 502.04 138.97C501.963 139.353 501.632 139.62 501.237 139.646C497.209 139.939 486.566 143.175 480.589 145.138C480.053 145.316 479.505 144.896 479.582 144.335C479.913 141.952 480.805 139.429 481.405 138.015C481.532 137.709 481.838 137.53 482.169 137.543L486.656 137.772C487.65 137.823 487.828 136.383 486.86 136.18L483.711 135.542C483.036 135.402 482.564 134.306 482.743 133.656H482.756ZM509.483 164.278C504.793 169.553 499.401 177.505 499.401 183.303C499.401 191.968 500.536 204.087 504.194 203.437C504.257 203.437 504.321 203.399 504.372 203.373C505.315 202.838 505.264 201.793 504.844 199.117C504.283 195.575 501.836 180.041 507.979 169.643L510.515 165.068C510.961 164.278 510.082 163.615 509.47 164.291L509.483 164.278ZM613.436 160.34C605.712 156.466 598.549 151.14 595.273 148.489C597.988 145.839 602.806 145.291 606.923 147.189C609.128 148.209 611.052 149.904 612.25 152.287C613.308 154.377 613.831 157.053 613.436 160.34ZM613.436 162.672C604.539 158.378 596.255 152.045 593.221 149.509C591.998 149.037 591.003 149.496 590.366 150.248C590.022 150.656 589.831 151.089 589.78 151.433C589.754 151.599 589.767 151.713 589.78 151.79C589.793 151.853 589.805 151.866 589.818 151.866C592.023 153.752 595.847 156.734 600.116 159.537C604.259 162.264 608.745 164.775 612.543 165.973C613.142 165.654 613.474 165.195 613.601 164.686C613.754 164.138 613.703 163.437 613.436 162.672ZM598.969 161.283C602.857 163.845 607.177 166.304 611.039 167.68C609.816 169.375 607.178 171.733 602.564 172.293C601.123 171.898 598.829 170.904 596.586 169.515C594.241 168.063 592.138 166.279 591.156 164.495L591.105 164.393C590.06 162.876 589.461 160.837 589.308 158.735C589.206 157.218 589.334 155.715 589.652 154.428C591.972 156.326 595.311 158.862 598.969 161.271V161.283ZM600.932 173.963C599.352 173.402 597.376 172.459 595.477 171.287C593.565 170.101 591.641 168.611 590.29 166.941C589.869 167.668 589.423 168.496 588.964 169.362L588.544 170.165C588.021 171.146 587.486 172.153 586.963 173.096C589.754 175.887 592.673 177.824 597.529 179.417C598.064 178.537 598.613 177.684 599.122 176.868C599.772 175.849 600.384 174.88 600.932 173.963ZM585.892 174.969C588.709 177.696 591.743 179.659 596.433 181.252C594.98 183.775 593.642 186.438 592.367 188.999L592.074 189.586C590.698 192.338 589.397 194.95 588.085 197.193C586.67 199.614 585.293 201.5 583.891 202.647C582.528 203.756 581.24 204.113 579.826 203.667C579.826 203.667 579.775 203.654 579.711 203.616C579.634 203.577 579.52 203.526 579.405 203.45C579.163 203.31 578.87 203.144 578.564 202.966C578.067 202.66 577.57 202.354 577.251 202.15L577.073 202.035C576.372 201.589 575.938 200.57 576.078 198.582C576.219 196.645 576.894 194.16 577.939 191.357C579.877 186.158 582.999 180.117 585.918 174.969H585.892Z" fill="#EB2D34"/>
<path d="M487.739 193.523C487.968 193.778 488.185 194.046 488.415 194.3C488.198 194.033 487.968 193.778 487.739 193.523Z" fill="#FEAA00"/>
<path fill-rule="evenodd" clip-rule="evenodd" d="M732.007 69.0111H731.969C728.235 68.1446 724.22 67.6986 719.861 67.6986C711.551 67.6986 704.413 68.9984 698.283 71.4195C692.28 73.8535 687.245 77.3068 683.039 81.7796L682.937 81.8816C678.744 86.2142 675.468 91.4261 673.136 97.6574C670.969 103.914 669.809 111.012 669.809 119.027C669.809 128.661 671.147 136.587 673.569 143.023C676.233 149.662 679.751 154.937 684.008 159.053C688.328 163.233 693.427 166.406 699.404 168.547C705.56 170.586 712.354 171.656 719.861 171.656C723.927 171.656 728.018 171.274 732.109 170.522C735.818 169.834 739.412 168.598 742.917 166.776L743.223 166.623C748.271 164.214 753.7 163.157 759.283 163.985C765.49 164.877 770.614 168.075 774.412 172.918C779.28 179.022 781.575 186.311 779.879 194.16C778.822 199.474 776.209 203.858 772.36 207.133C771.404 205.502 770.435 203.947 769.479 202.596C768.319 200.952 767.21 199.652 766.242 198.862C763.489 196.62 762.418 194.67 761.755 193.064C761.615 192.733 761.5 192.44 761.398 192.185C761.245 191.79 761.118 191.459 760.952 191.127C760.71 190.63 760.443 190.274 760.009 189.981C759.601 189.7 758.594 189.14 757.167 188.4C755.765 187.661 754.006 186.782 752.12 185.852C748.602 184.106 744.676 182.207 741.949 180.908L726.539 197.665C729.076 199.563 732.606 202.29 735.716 204.903C737.424 206.343 739.017 207.744 740.266 208.968C740.891 209.579 741.426 210.153 741.86 210.662C742.28 211.159 742.624 211.656 742.816 212.102C743.325 213.313 744.383 214.804 745.569 216.218C746.117 216.868 746.677 217.505 747.187 218.053C743.542 218.971 739.859 219.697 736.124 220.232C730.784 221.175 725.367 221.647 719.874 221.647C706.427 221.647 693.528 219.493 681.255 215.148H681.229L681.204 215.135C673.849 212.485 666.929 209.07 660.467 204.903C661.461 198.901 662.391 192.975 663.207 187.649C663.959 182.692 664.596 178.244 665.08 174.753C665.119 174.472 665.055 174.205 664.927 173.988C666.495 172.038 668.458 169.158 669.248 165.59C670.242 161.054 669.299 155.613 663.857 149.751C663.615 149.496 663.271 149.356 662.914 149.369C662.557 149.381 662.225 149.56 662.009 149.853C661.932 149.955 661.856 150.057 661.754 150.184C659.74 152.796 652.921 161.678 658.045 173.988C657.395 177.531 656.579 181.965 655.712 186.846C654.986 190.975 654.209 195.422 653.444 199.946C652.182 198.964 650.946 197.97 649.722 196.926C647.759 186.604 645.044 173.861 642.712 163.309C641.641 158.467 640.647 154.071 639.844 150.566C642.202 144.297 642.865 139.276 642.712 135.491C642.546 131.681 641.527 129.043 640.456 127.744C640.252 127.502 639.959 127.336 639.64 127.31C639.322 127.285 639.003 127.374 638.761 127.578C632.72 132.611 630.527 137.721 630.413 142.169C630.323 145.724 631.572 148.731 633.038 150.783C632.885 151.025 632.822 151.331 632.872 151.637C633.497 155.103 634.338 159.525 635.294 164.444C636.594 171.095 638.124 178.716 639.742 186.209C631.407 176.014 626.882 167.196 625.48 163.373C619.885 150.261 617.221 135.415 617.221 119.04C617.221 104.679 619.655 91.2222 624.626 78.785L624.677 78.6576C629.801 66.3223 636.977 55.5927 646.204 46.5452C655.585 37.3575 666.572 30.3106 679.062 25.379C691.68 20.2309 705.305 17.7077 719.861 17.7077C728.184 17.7077 736.328 18.6507 744.319 20.5494C752.26 22.4354 759.78 25.1879 766.854 28.8196C773.953 32.3877 778.503 38.4661 779.688 46.3795C780.988 53.9361 778.987 60.983 774.208 66.883C770.473 71.9165 765.209 75.0768 758.837 75.6885C753.445 76.2237 748.207 75.1023 743.3 72.7703C739.808 71.1774 736.06 69.9286 732.045 69.0366H732.007V69.0111ZM725.749 196.161L723.799 189.012L731.051 182.207L739.68 181.022L725.749 196.161ZM729.522 181.43L728.12 180.041L727.317 183.507L729.522 181.43ZM726.667 179.2L725.201 185.495L722.945 187.61C722.703 187.343 722.448 187.05 722.168 186.757L723.837 182.246L726.667 179.213V179.2ZM720.931 185.495L721.008 185.291L720.868 185.444L720.906 185.482L720.931 185.508V185.495ZM671.3 198.493C670.013 206.317 675.06 206.164 677.737 205.107C679.164 204.253 680.26 202.698 681.471 201.003C683.217 198.544 685.155 195.817 688.532 194.581C690.559 194.224 694.179 194.581 692.471 198.85C690.763 203.131 692.725 205.463 693.924 206.1C701.711 207.961 701.851 199.551 700.959 195.116C700.539 193.013 700.628 188.834 704.324 188.91C707.434 188.974 708.071 187.177 708.785 185.189C709.129 184.221 709.486 183.214 710.136 182.36C711.372 180.755 713.259 181.06 715.068 181.366C716.228 181.557 717.363 181.749 718.28 181.417C720.626 180.589 720.001 177.365 715.655 176.295C711.309 175.224 707.6 177.467 703.98 181.698C700.36 185.928 697.225 186.782 693.019 186.909C689.654 187.011 685.282 188.732 683.523 189.586C674.41 193.256 671.581 197.066 671.3 198.518V198.493ZM699.34 175.071C698.984 176.078 697.811 178.333 696.027 179.276C695.173 179.722 694.484 180.283 693.873 180.793C693.184 181.354 692.598 181.838 691.974 182.016C690.062 182.551 687.678 182.016 687.78 178.601C687.908 174.077 692.853 174.485 695.313 175.262C696.116 175.657 698.066 176.167 699.353 175.071H699.34Z" fill="#76A485"/>
<path d="M752.234 216.639C752.107 216.677 751.992 216.715 751.865 216.754C751.584 216.779 751.317 216.652 751.138 216.41C750.883 216.04 750.985 215.543 751.342 215.288L762.329 207.783C762.699 207.528 763.196 207.63 763.438 207.986C763.693 208.356 763.591 208.853 763.234 209.095L752.247 216.601C752.247 216.601 752.222 216.601 752.222 216.613L752.234 216.639Z" fill="#76A485"/>
<path d="M635.447 152.35C635.995 155.332 636.671 158.926 637.435 162.863L640.086 162.532C639.207 158.556 638.391 154.925 637.69 151.879L635.447 152.338V152.35Z" fill="#76A485"/>
<path d="M660.976 186.183C661.575 182.207 662.098 178.601 662.519 175.594L660.263 175.224C659.702 178.282 659.026 181.952 658.313 185.966L660.976 186.183Z" fill="#76A485"/>
<path d="M753.076 203.807C753.496 203.692 753.751 203.246 753.624 202.813C753.509 202.392 753.063 202.137 752.63 202.265C751.878 202.481 751.113 203.08 750.425 203.768C749.711 204.482 748.959 205.387 748.258 206.343C746.83 208.254 745.492 210.433 744.689 211.86C744.472 212.243 744.613 212.74 744.995 212.956C745.377 213.173 745.875 213.033 746.091 212.65C746.869 211.261 748.169 209.146 749.545 207.298C750.233 206.381 750.922 205.54 751.559 204.915C752.222 204.253 752.744 203.909 753.076 203.807Z" fill="#76A485"/>
<path d="M753.598 208.993C753.955 208.726 754.019 208.216 753.738 207.872C753.471 207.515 752.961 207.451 752.617 207.732C751.113 208.891 749.201 211.147 748.449 212.102C748.169 212.446 748.232 212.956 748.576 213.224C748.921 213.491 749.43 213.44 749.698 213.084C750.45 212.128 752.247 210.025 753.585 208.993H753.598Z" fill="#76A485"/>
<path fill-rule="evenodd" clip-rule="evenodd" d="M367.103 167.871L366.848 167.719C363.776 165.833 361.048 163.501 358.792 160.735L358.423 160.289L332.894 119.932V193.803C332.894 200.404 330.791 206.496 326.355 211.478L326.177 211.682C323.271 214.766 319.829 216.83 316.057 217.977C314.553 216.053 312.883 213.899 311.175 211.656C307.339 206.61 303.26 201.067 300.112 196.416C299.602 195.664 299.131 194.938 298.672 194.249C297.856 192.988 297.142 191.828 296.556 190.809C297.142 190.732 297.716 190.579 298.264 190.363C298.965 190.082 299.602 189.7 300.163 189.254C301.297 188.337 302.266 187.011 302.546 185.431C302.84 183.736 302.279 182.029 300.8 180.691C299.615 179.62 298.302 178.907 296.913 178.754C295.498 178.601 294.224 179.073 293.242 179.939C293.217 179.965 293.191 179.977 293.178 180.003C291.33 181.698 290.668 184.667 290.91 187.598C290.973 188.324 291.241 189.101 291.534 189.802C291.853 190.541 292.273 191.382 292.783 192.3C293.79 194.109 295.179 196.301 296.785 198.671C297.193 199.27 297.614 199.895 298.06 200.532C301.042 204.852 304.611 209.681 307.989 214.103C309.263 215.772 310.512 217.391 311.685 218.907C310.614 219.035 309.531 219.098 308.422 219.098C301.896 219.098 295.957 216.843 291.318 212.141C291.177 212.001 291.037 211.86 290.91 211.72L290.731 211.516C286.296 206.534 284.193 200.443 284.193 193.842V43.9838C284.193 37.1918 286.716 31.1516 291.458 26.3348C291.509 26.2838 291.572 26.2201 291.623 26.1691L291.802 25.9907C296.824 21.2376 303.031 18.7399 309.964 18.7399C314.107 18.7399 318.019 19.8995 321.601 21.76C325.539 23.544 329.057 26.1818 331.555 29.9538L331.581 30.0047L380.128 104.704L430.244 29.8518L430.308 29.7626C435.151 22.8814 442.136 18.7527 450.739 18.7527C457.366 18.7527 463.293 21.1866 468.187 25.5702C473.604 30.4125 476.255 36.8477 476.255 44.0093V193.829C476.255 200.595 473.948 206.763 469.271 211.72L469.182 211.822L469.092 211.911C467.142 213.861 464.988 215.377 462.656 216.499C463.841 214.485 464.504 211.784 464.249 208.229C463.28 195.001 464.644 182.373 465.447 177.709C469.564 170.369 468.366 163.921 466.645 160.315C466.314 159.627 465.447 159.894 465.447 160.659V167.094C465.447 167.795 464.619 168.152 464.109 167.68L457.927 162.035C457.494 161.64 457.609 160.926 458.131 160.659C460.438 159.461 463.93 157.091 465.371 154.02C465.422 153.918 465.447 153.803 465.447 153.688V151.42C465.447 150.77 464.721 150.388 464.185 150.745C460.999 152.809 455.888 155.791 453.352 156.122C453.109 156.148 452.88 156.046 452.727 155.868C450.955 153.727 448.049 149.751 447.017 146.769C446.788 146.094 445.844 145.801 445.5 146.425C444.417 148.426 443.767 151.688 445.819 155.6C446.125 156.186 445.692 157.027 445.08 157.282C443.321 158.008 441.218 160.213 440.644 165.387C440.568 166.075 441.384 166.508 441.957 166.113C444.162 164.635 447.603 162.953 450.599 163.386C450.752 163.411 450.904 163.488 451.019 163.603L465.422 177.709C464.236 183.953 460.247 197.614 453.836 202.227C448.993 205.718 444.659 201.832 441.983 197.677C441.498 196.925 440.122 197.295 440.185 198.187C441.078 209.35 443.971 215.67 446.533 218.792C441.231 218.066 436.362 215.913 432.309 212.09L432.105 211.899L431.914 211.707C427.236 206.75 424.929 200.583 424.929 193.816V121.372L399.349 160.353L399.03 160.735C396.685 163.603 393.804 165.934 390.567 167.808C387.024 169.961 383.022 171.121 378.765 170.955C374.495 171.121 370.531 169.872 367.064 167.884L367.103 167.871ZM465.664 139.837C462.299 140.181 456.347 140.002 452.064 137.314C451.516 136.97 450.701 137.314 450.573 137.951C450.267 139.391 449.655 141.251 448.547 142.64C448.253 143.01 448.253 143.558 448.636 143.838C451.631 146.145 458.182 149.394 465.485 147.699C465.817 147.623 466.046 147.342 466.084 146.998L466.62 140.729C466.658 140.206 466.212 139.786 465.689 139.837H465.664ZM311.379 182.87C311.596 183.443 312.067 183.877 312.654 184.055C313.24 184.233 313.877 184.132 314.387 183.787L326.291 175.594C326.98 175.122 327.298 174.268 327.094 173.453C326.317 170.331 325.119 165.552 323.946 160.965C322.927 156.963 321.92 153.064 321.219 150.515C322.404 150.069 323.678 149.394 324.711 148.489C325.578 147.725 326.381 146.68 326.699 145.329C327.031 143.94 326.776 142.487 325.973 141.073C325.08 139.505 323.704 138.167 321.792 138.295C320.059 138.41 318.861 139.709 318.172 140.793C317.42 141.978 316.885 143.469 316.63 144.972C316.388 146.438 316.375 148.069 316.796 149.56C316.821 149.662 316.847 149.764 316.885 149.866C317.433 151.764 318.542 155.995 319.727 160.633L310.028 167.731C308.154 162.494 306.306 157.04 304.917 152.401C304.178 149.955 303.592 147.776 303.196 145.992C304.535 146.234 305.911 146.043 307.097 145.571C308.46 145.036 309.773 144.055 310.512 142.627C311.29 141.098 311.264 139.302 310.257 137.581C309.442 136.205 308.409 135.135 307.122 134.574C305.784 134 304.407 134.077 303.184 134.65C300.915 135.721 299.398 138.359 298.761 141.226C298.608 141.939 298.634 142.755 298.71 143.52C298.786 144.322 298.952 145.253 299.169 146.272C299.602 148.298 300.265 150.809 301.093 153.548C302.738 159.041 305.006 165.616 307.186 171.605C308.715 175.823 310.206 179.773 311.405 182.844L311.379 182.87Z" fill="#FECD20"/>
<path d="M245.434 219.06H273.423C279.974 219.06 286.066 216.983 290.948 212.434C291.063 212.319 291.19 212.217 291.305 212.102C291.165 211.962 291.024 211.822 290.897 211.682L290.719 211.478C286.283 206.496 284.18 200.404 284.18 193.803V172.676C280.892 171.121 277.259 170.356 273.423 170.356H253.986C260.333 174.969 268.694 179.073 278.929 180.551C279.248 180.602 279.439 180.933 279.286 181.213C273.882 191.663 260.359 212.842 247.091 218.385C246.53 218.614 245.982 218.843 245.434 219.06Z" fill="#FEAA00"/>
<path fill-rule="evenodd" clip-rule="evenodd" d="M38.4079 200.57C37.35 201.284 36.6108 202.341 36.3176 203.654C34.3293 202.176 32.3792 200.608 30.4419 198.939C30.3272 198.837 30.2125 198.748 30.0978 198.646C30.2762 198.569 30.4419 198.48 30.6076 198.391C31.8567 197.703 33.0547 196.632 34.0107 195.422C34.9538 194.237 35.7441 192.784 36.1137 191.255C36.1392 191.153 36.1647 191.051 36.1774 190.949C36.6108 188.987 37.7069 184.641 38.9177 179.901L51.1407 178.308C50.2485 183.915 49.2288 189.726 48.1964 194.555C47.6484 197.129 47.1003 199.398 46.5778 201.194C45.4944 200.302 44.1561 199.793 42.8688 199.627C41.4031 199.436 39.7462 199.665 38.4079 200.57Z" fill="#006CB5"/>
<path d="M198.734 141.672C199.231 143.252 201.143 146.348 204.903 146.17C208.663 145.979 211.339 146.54 212.219 146.845C212.142 145.444 210.881 142.628 206.445 142.589C201.997 142.551 199.461 141.965 198.747 141.672H198.734Z" fill="#FEAA00"/>
<path d="M179.845 156.466C180.024 155.256 181.107 152.618 184.051 151.701C187.735 150.554 188.601 147.113 188.614 144.144C188.168 145.202 186.396 147.495 182.93 148.171C179.463 148.846 179.424 153.982 179.845 156.454V156.466Z" fill="#FEAA00"/>
<path d="M194.439 160.888C193.993 160.251 193.483 159.142 195.063 159.78C196.631 160.417 198.772 159.512 199.652 158.99C200.123 158.505 201.054 157.894 201.054 159.27C201.054 160.99 197.052 162.876 194.452 160.888H194.439Z" fill="#FEAA00"/>
<path d="M210.116 169.643C208.994 167.642 205.413 164.125 200.111 166.024C194.808 167.922 194.273 172.382 194.044 174.37C193.993 174.791 193.954 175.109 193.891 175.25C196.198 171.503 196.886 171.095 200.111 169.158C200.251 169.069 200.391 168.993 200.544 168.904C203.45 167.158 208.127 168.674 210.116 169.655V169.643Z" fill="#FEAA00"/>
<path d="M133.541 132.089C132.623 133.554 132.139 135.772 132.483 138.499C132.84 141.353 133.885 144.513 135.554 147.432C138.855 140.525 139.913 135.95 139.811 133.185C139.76 131.643 139.353 130.866 138.996 130.483C138.664 130.127 138.18 129.897 137.415 129.897C135.72 129.897 134.42 130.687 133.541 132.089Z" fill="#006CB5"/>
<path d="M136.319 155.039C134.751 158.696 133.362 163.093 133.222 166.737C133.133 169.057 133.553 170.739 134.395 171.809C135.147 172.777 136.536 173.58 139.302 173.504C145.687 173.313 149.74 171.427 151.971 169.197C150.224 166.814 147.573 164.201 143.661 161.194C143.616 161.162 143.565 161.124 143.508 161.082C143.384 160.991 143.231 160.879 143.049 160.748C143.003 160.715 142.956 160.681 142.908 160.646C142.509 160.356 142.01 159.994 141.43 159.55C140.984 160.519 140.729 161.946 141.048 164.049C141.264 165.565 142.144 166.38 142.768 166.61C143.061 166.712 143.278 166.686 143.431 166.623C143.571 166.559 143.852 166.38 144.107 165.82C144.565 164.813 145.764 164.367 146.77 164.826C147.777 165.285 148.223 166.482 147.765 167.489C147.166 168.789 146.235 169.783 145.037 170.305C143.839 170.828 142.564 170.79 141.43 170.382C139.212 169.592 137.492 167.387 137.084 164.635C136.625 161.513 137.046 158.926 138.295 156.951C137.657 156.364 136.995 155.727 136.332 155.039H136.319Z" fill="#006CB5"/>
<path d="M149.026 157.575C147.663 157.142 146.222 156.989 144.961 157.18C145.05 157.244 145.139 157.307 145.215 157.371L145.317 157.448C145.34 157.464 145.362 157.48 145.384 157.496C145.673 157.704 145.918 157.88 146.108 158.034C149.511 160.646 152.149 163.08 154.125 165.45C154.571 163.399 153.984 161.309 152.468 159.627C151.728 158.811 150.505 158.059 149.026 157.588V157.575Z" fill="#006CB5"/>
<path fill-rule="evenodd" clip-rule="evenodd" d="M168.756 57.4405C168.756 63.9649 166.144 69.6737 161.772 74.2995C161.67 74.4141 161.543 74.4779 161.441 74.5926L161.453 120.646C164.232 124.086 166.501 127.935 168.272 132.153C169.725 135.542 170.809 139.187 171.561 143.048C171.994 146.438 172.848 154.746 172.848 160.799C172.376 172.79 168.706 183.596 161.632 192.822C161.568 192.899 161.517 192.975 161.453 193.052V193.791C161.453 200.557 163.76 206.725 168.438 211.682L168.82 212.064C173.778 216.754 179.947 219.047 186.715 219.047H220.389C217.865 214.078 215.584 205.54 218.477 195.333C220.236 190.554 224.952 179.952 231.452 170.344H218.094C215.851 175.517 211.632 182.87 207.49 184.628C202.494 186.757 196.147 182.144 193.241 180.041C192.642 179.608 192.196 179.276 191.928 179.136C190.373 178.308 188.461 176.715 184.841 173.402C181.935 170.751 177.016 160.289 174.913 155.396L171.713 142.36C171.828 142.666 172.019 142.22 171.93 137.938C171.841 133.656 176.671 134.09 179.093 134.842C182.05 135.912 188.448 133.873 193.011 132.408C195.127 131.732 196.848 131.184 197.651 131.121C199.104 131.019 202.277 129.566 205.145 128.253C207.274 127.285 209.224 126.393 210.179 126.176C211.977 125.781 213.735 128.814 214.398 130.381L217.215 141.404H261.786C268.223 141.404 274.264 139.493 279.184 135.147L279.209 135.122C281.274 133.287 282.944 131.21 284.193 128.929V105.711C282.995 103.506 281.402 101.48 279.413 99.6708C274.583 94.9431 268.465 92.6876 261.786 92.6876H212.767V67.6476H273.423C277.183 67.6476 280.828 66.985 284.18 65.5705V43.9456C284.18 37.1536 286.704 31.1134 291.445 26.2965C291.318 26.1691 291.19 26.0544 291.05 25.927C286.219 21.1993 280.102 18.9438 273.423 18.9438H186.728C179.794 18.9438 173.562 21.4542 168.642 26.373C164.793 30.2214 162.537 34.9108 161.772 40.0462C166.105 44.7866 168.769 50.5847 168.769 57.3895L168.756 57.4405ZM193.852 175.313C193.852 175.313 193.878 175.275 193.891 175.25L193.852 175.313Z" fill="#FEAA00"/>
<path fill-rule="evenodd" clip-rule="evenodd" d="M24.2731 263.368C25.3947 263.52 26.478 263.597 27.4977 263.597L27.4722 263.622C29.2438 263.622 30.837 263.419 32.239 263.011C33.641 262.603 34.8519 262.017 35.846 261.278C36.8529 260.513 37.6176 259.583 38.153 258.512C38.6883 257.442 38.9559 256.231 38.9559 254.906C38.9559 252.931 38.3314 251.325 37.1078 250.102C35.8843 248.879 34.0234 247.987 31.538 247.452L27.0771 246.496C25.8663 246.241 25.0378 245.935 24.579 245.578C24.1456 245.183 23.9289 244.737 23.9289 244.189C23.9289 243.641 24.0946 243.17 24.426 242.762C24.7956 242.354 25.3055 242.049 25.9682 241.845C26.631 241.615 27.4467 241.501 28.3899 241.501C29.2566 241.501 30.1615 241.59 31.0792 241.768C32.0224 241.921 32.8763 242.163 33.6156 242.494C34.4185 242.826 35.094 242.928 35.6548 242.8C36.2411 242.647 36.7 242.354 37.0314 241.921C37.3882 241.475 37.5922 240.978 37.6431 240.417C37.6941 239.818 37.5922 239.258 37.3372 238.723C37.0823 238.175 36.6617 237.754 36.0754 237.448C35.0813 236.862 33.8832 236.429 32.5067 236.148C31.1557 235.843 29.8046 235.69 28.4791 235.69C26.7585 235.69 25.1907 235.906 23.7887 236.34C22.4122 236.747 21.2014 237.346 20.1818 238.111C19.1749 238.875 18.3974 239.818 17.8366 240.914C17.3013 241.985 17.0336 243.183 17.0336 244.521C17.0336 246.547 17.6454 248.191 18.8435 249.478C20.0416 250.752 21.8769 251.657 24.3368 252.166L28.836 253.122C30.0468 253.377 30.8753 253.683 31.3341 254.04C31.8184 254.396 32.0606 254.868 32.0606 255.454C32.0606 256.13 31.7165 256.69 31.0282 257.149C30.3654 257.582 29.1928 257.799 27.4977 257.799C26.4271 257.799 25.2672 257.671 24.0437 257.417C22.8201 257.162 21.7112 256.805 20.7426 256.346C19.9906 256.015 19.3278 255.938 18.7415 256.117C18.1425 256.27 17.6709 256.588 17.314 257.073C16.9571 257.544 16.7405 258.079 16.664 258.691C16.5875 259.315 16.6895 259.901 16.9699 260.462C17.263 260.997 17.7474 261.431 18.4356 261.762C19.2258 262.144 20.1308 262.476 21.1249 262.756C22.1191 263.036 23.177 263.24 24.2731 263.368ZM45.0993 262.259C45.7366 262.871 46.667 263.176 47.8651 263.176V263.189H60.891C61.8214 263.189 62.5097 262.96 62.9685 262.501C63.4274 262.03 63.6568 261.341 63.6568 260.462C63.6568 259.583 63.4274 258.92 62.9685 258.462C62.5097 257.977 61.8087 257.735 60.891 257.735H50.9367V252.166H60.037C60.942 252.166 61.6175 251.937 62.0763 251.478C62.5607 251.02 62.8028 250.344 62.8028 249.439C62.8028 248.535 62.5607 247.859 62.0763 247.401C61.6175 246.942 60.9292 246.712 60.037 246.712H50.9367V241.564H60.891C61.8214 241.564 62.5097 241.335 62.9685 240.876C63.4274 240.392 63.6568 239.678 63.6568 238.799C63.6568 237.92 63.4274 237.257 62.9685 236.798C62.5097 236.34 61.8087 236.11 60.891 236.11H47.8651C46.667 236.11 45.7366 236.429 45.0993 237.066C44.4875 237.678 44.1816 238.582 44.1816 239.755V259.532C44.1816 260.717 44.4875 261.622 45.0993 262.259ZM75.5229 261.864C77.6769 263.023 80.2515 263.597 83.2467 263.597L83.2594 263.584C84.5595 263.584 85.8723 263.431 87.1723 263.125C88.4978 262.807 89.6194 262.386 90.5116 261.851C91.1744 261.494 91.6332 261.023 91.8882 260.437C92.1558 259.838 92.2578 259.252 92.1558 258.665C92.0538 258.041 91.8117 257.506 91.4293 257.047C91.0597 256.588 90.5754 256.282 89.9636 256.13C89.3773 255.977 88.689 256.066 87.9243 256.397C87.185 256.754 86.4203 257.022 85.6556 257.2C84.8781 257.353 84.1643 257.429 83.5016 257.429C81.9211 257.429 80.5829 257.136 79.5122 256.55C78.4544 255.938 77.6641 255.046 77.1288 253.899C76.5935 252.714 76.3259 251.274 76.3259 249.592C76.3259 247.91 76.5935 246.483 77.1288 245.336C77.6641 244.189 78.4671 243.31 79.5122 242.724C80.5829 242.112 81.9084 241.806 83.5016 241.806C84.3173 241.806 85.1075 241.908 85.8468 242.112C86.6115 242.291 87.389 242.558 88.1537 242.915C88.8292 243.246 89.441 243.336 90.0018 243.183C90.5626 243.004 91.0215 242.673 91.3783 242.189C91.7352 241.704 91.9519 241.156 92.0284 240.545C92.1303 239.92 92.0411 239.321 91.7607 238.735C91.4675 238.136 90.9705 237.652 90.2567 237.27C89.2881 236.735 88.1537 236.34 86.8792 236.085C85.6301 235.804 84.4065 235.664 83.2339 235.664C81.0035 235.664 79.0024 235.996 77.2053 236.658C75.4337 237.295 73.9169 238.238 72.6679 239.462C71.4443 240.698 70.4884 242.163 69.8256 243.883C69.1883 245.604 68.8697 247.503 68.8697 249.605C68.8697 252.421 69.4433 254.881 70.5649 256.983C71.7247 259.086 73.3689 260.717 75.5229 261.864ZM98.6688 262.603C99.2806 263.215 100.16 263.52 101.282 263.52L101.294 263.533C102.467 263.533 103.359 263.227 103.945 262.616C104.532 261.979 104.825 261.087 104.825 259.965V253.097H106.941C107.565 253.097 108.1 253.211 108.559 253.441C109.044 253.645 109.439 254.027 109.745 254.588L113.237 260.997C113.734 261.877 114.282 262.514 114.894 262.922C115.531 263.329 116.347 263.533 117.354 263.533C118.361 263.533 119.113 263.317 119.622 262.883C120.158 262.412 120.438 261.838 120.464 261.15C120.489 260.437 120.298 259.698 119.89 258.958L117.966 255.505C117.405 254.422 116.691 253.632 115.85 253.122C115.453 252.87 115.025 252.677 114.568 252.543C115.08 252.4 115.559 252.223 116.003 252.014C117.43 251.325 118.526 250.344 119.266 249.095C120.03 247.808 120.413 246.317 120.413 244.597C120.413 241.934 119.571 239.869 117.876 238.379C116.207 236.862 113.836 236.11 110.764 236.11H101.32C100.198 236.11 99.3061 236.416 98.6688 237.028C98.057 237.639 97.7511 238.531 97.7511 239.678V259.952C97.7511 261.087 98.057 261.966 98.6688 262.603ZM109.502 248.089H104.812V241.526H109.502C110.854 241.526 111.899 241.806 112.612 242.367C113.326 242.902 113.683 243.667 113.683 244.788C113.683 245.91 113.326 246.751 112.612 247.286C111.899 247.821 110.854 248.089 109.502 248.089ZM127.512 262.259C128.149 262.871 129.08 263.176 130.278 263.176V263.189H143.304C144.234 263.189 144.922 262.96 145.381 262.501C145.84 262.03 146.069 261.341 146.069 260.462C146.069 259.583 145.84 258.92 145.381 258.462C144.922 257.977 144.221 257.735 143.304 257.735H133.349V252.166H142.45C143.355 252.166 144.03 251.937 144.489 251.478C144.973 251.02 145.215 250.344 145.215 249.439C145.215 248.535 144.973 247.859 144.489 247.401C144.03 246.942 143.342 246.712 142.45 246.712H133.349V241.564H143.304C144.234 241.564 144.922 241.335 145.381 240.876C145.84 240.392 146.069 239.678 146.069 238.799C146.069 237.92 145.84 237.257 145.381 236.798C144.922 236.34 144.221 236.11 143.304 236.11H130.278C129.08 236.11 128.149 236.429 127.512 237.066C126.9 237.678 126.594 238.582 126.594 239.755V259.532C126.594 260.717 126.9 261.622 127.512 262.259ZM159.401 262.603C160.013 263.215 160.892 263.52 162.014 263.52H162.027C163.199 263.52 164.092 263.215 164.678 262.603C165.264 261.966 165.557 261.074 165.557 259.952V241.87H171.586C172.542 241.87 173.256 241.628 173.74 241.144C174.25 240.634 174.505 239.946 174.505 238.99C174.505 238.034 174.25 237.321 173.74 236.837C173.256 236.352 172.529 236.11 171.586 236.11H152.455C151.499 236.11 150.773 236.352 150.263 236.837C149.778 237.321 149.536 238.06 149.536 238.99C149.536 239.92 149.778 240.634 150.263 241.144C150.773 241.628 151.512 241.87 152.455 241.87H158.484V259.952C158.484 261.087 158.789 261.966 159.401 262.603ZM174.785 262.985C175.319 263.341 175.993 263.52 176.78 263.52C176.778 263.52 176.776 263.52 176.773 263.52H176.786H176.78C177.784 263.519 178.521 263.29 179.004 262.832C179.488 262.374 179.96 261.622 180.419 260.602L181.661 257.684H193.745L194.987 260.602C195.433 261.635 195.917 262.374 196.453 262.832C197.013 263.291 197.816 263.52 198.836 263.52C199.613 263.52 200.251 263.342 200.761 262.985C201.296 262.616 201.614 262.106 201.716 261.443C201.844 260.768 201.704 260.029 201.296 259.213L191.737 238.633C191.24 237.627 190.666 236.9 190.003 236.442C189.366 235.983 188.601 235.753 187.735 235.753C186.868 235.753 186.078 235.983 185.389 236.442C184.714 236.9 184.153 237.639 183.694 238.633L174.135 259.213C173.791 260.042 173.663 260.781 173.791 261.443C173.918 262.093 174.25 262.603 174.785 262.985ZM183.972 252.268L187.658 243.476H187.735L191.452 252.268H183.972ZM182.127 252.268H183.972L183.197 254.116L182.127 252.268ZM207.465 262.603C208.076 263.215 208.956 263.52 210.078 263.52L210.09 263.533C211.263 263.533 212.155 263.227 212.741 262.616C213.328 261.979 213.621 261.087 213.621 259.965V253.097H215.737C216.348 253.097 216.884 253.211 217.342 253.441C217.827 253.645 218.222 254.027 218.528 254.588L222.02 260.997C222.517 261.877 223.065 262.514 223.677 262.922C224.314 263.329 225.13 263.533 226.137 263.533C227.144 263.533 227.896 263.317 228.406 262.883C228.941 262.412 229.221 261.838 229.247 261.15C229.272 260.437 229.081 259.698 228.673 258.958L226.749 255.505C226.175 254.422 225.474 253.632 224.633 253.122C224.235 252.869 223.806 252.676 223.348 252.542C223.86 252.399 224.339 252.223 224.786 252.014C226.213 251.325 227.309 250.344 228.049 249.095C228.813 247.808 229.196 246.317 229.196 244.597C229.196 241.934 228.355 239.869 226.659 238.379C225.003 236.862 222.632 236.11 219.56 236.11H210.116C208.981 236.11 208.102 236.416 207.465 237.028C206.853 237.639 206.547 238.531 206.547 239.678V259.952C206.547 261.087 206.853 261.966 207.465 262.603ZM218.298 248.089H213.608V241.526H218.298C219.649 241.526 220.695 241.806 221.408 242.367C222.122 242.902 222.479 243.667 222.479 244.788C222.479 245.91 222.122 246.751 221.408 247.286C220.695 247.821 219.649 248.089 218.298 248.089ZM236.308 262.603C236.92 263.215 237.799 263.52 238.921 263.52C240.093 263.52 240.985 263.215 241.572 262.603C242.158 261.966 242.451 261.061 242.451 259.914V239.372C242.451 238.187 242.145 237.295 241.534 236.684C240.947 236.072 240.042 235.766 238.921 235.766C237.799 235.766 236.92 236.072 236.308 236.684C235.696 237.295 235.39 238.2 235.39 239.372V259.914C235.39 261.074 235.696 261.966 236.308 262.603ZM248.352 262.985C248.885 263.34 249.556 263.519 250.341 263.52C250.337 263.52 250.332 263.52 250.328 263.52H250.353C250.349 263.52 250.345 263.52 250.341 263.52C251.341 263.518 252.076 263.289 252.558 262.832C253.055 262.374 253.527 261.622 253.986 260.602L255.228 257.684H267.312L268.554 260.602C269 261.635 269.484 262.374 270.02 262.832C270.581 263.291 271.384 263.52 272.403 263.52C273.181 263.52 273.818 263.342 274.328 262.985C274.863 262.616 275.182 262.106 275.284 261.443C275.411 260.768 275.271 260.029 274.863 259.213L265.304 238.633C264.807 237.627 264.233 236.9 263.571 236.442C262.933 235.983 262.169 235.753 261.302 235.753C260.435 235.753 259.645 235.983 258.957 236.442C258.281 236.9 257.72 237.639 257.262 238.633L247.702 259.213C247.358 260.042 247.231 260.781 247.358 261.443C247.486 262.093 247.817 262.603 248.352 262.985ZM257.539 252.268L261.225 243.476H261.302L265.02 252.268H257.539ZM293.714 262.679C294.275 263.24 295.078 263.52 296.097 263.52H296.135C297.181 263.52 297.983 263.24 298.519 262.679C299.054 262.119 299.322 261.316 299.322 260.296V248.57L304.662 257.837C304.994 258.398 305.363 258.818 305.771 259.099C306.192 259.379 306.689 259.519 307.351 259.519C308.014 259.519 308.537 259.379 308.919 259.099C309.327 258.818 309.709 258.398 310.066 257.837L315.445 248.479V260.296C315.445 261.329 315.713 262.119 316.248 262.679C316.809 263.24 317.586 263.52 318.631 263.52C319.676 263.52 320.479 263.24 321.015 262.679C321.55 262.119 321.818 261.316 321.818 260.296V238.977C321.818 237.933 321.537 237.13 320.976 236.594C320.441 236.034 319.651 235.753 318.631 235.753C317.726 235.753 317.013 235.932 316.477 236.289C315.955 236.633 315.47 237.193 315.012 237.983L307.458 251.6L299.87 237.983C299.424 237.181 298.939 236.62 298.404 236.289C297.894 235.932 297.181 235.753 296.288 235.753C295.218 235.753 294.377 236.034 293.79 236.594C293.204 237.13 292.911 237.933 292.911 238.977V260.296C292.911 261.329 293.178 262.119 293.714 262.679ZM335.264 262.871C336.778 263.354 338.507 263.596 340.477 263.597C340.473 263.597 340.469 263.597 340.464 263.597H340.49C340.486 263.597 340.481 263.597 340.477 263.597C343.072 263.596 345.272 263.15 347.067 262.284C348.851 261.392 350.202 260.067 351.094 258.296C352.025 256.512 352.483 254.295 352.483 251.657V239.334C352.483 238.162 352.19 237.27 351.604 236.684C351.018 236.072 350.151 235.766 349.029 235.766C347.908 235.766 347.028 236.072 346.417 236.684C345.83 237.27 345.537 238.162 345.537 239.334V251.733C345.537 253.708 345.104 255.187 344.237 256.193C343.37 257.2 342.134 257.697 340.477 257.697C338.82 257.697 337.546 257.187 336.679 256.193C335.812 255.187 335.379 253.708 335.379 251.733V239.334C335.379 238.162 335.073 237.27 334.461 236.684C333.875 236.072 332.97 235.766 331.848 235.766C330.727 235.766 329.847 236.072 329.236 236.684C328.624 237.27 328.318 238.162 328.318 239.334V251.657C328.318 253.632 328.573 255.378 329.083 256.881C329.618 258.36 330.408 259.608 331.428 260.602C332.473 261.609 333.76 262.361 335.264 262.871ZM359.812 262.679C360.373 263.24 361.201 263.52 362.272 263.52V263.533C363.343 263.533 364.158 263.253 364.694 262.692C365.254 262.132 365.535 261.29 365.535 260.195V247.633L376.636 261.533C377.21 262.221 377.732 262.73 378.217 263.062C378.726 263.368 379.415 263.52 380.294 263.52C381.174 263.52 381.862 263.24 382.372 262.679C382.882 262.093 383.136 261.303 383.136 260.335V239.054C383.136 237.983 382.856 237.155 382.295 236.594C381.76 236.034 380.944 235.753 379.874 235.753C378.803 235.753 377.974 236.034 377.414 236.594C376.878 237.155 376.611 237.983 376.611 239.054V251.619L365.509 237.754C364.936 237.04 364.426 236.531 363.967 236.225C363.508 235.919 362.858 235.766 362.043 235.766C361.112 235.766 360.373 236.072 359.812 236.684C359.251 237.27 358.971 238.136 358.971 239.258V260.182C358.971 261.29 359.251 262.119 359.812 262.679ZM390.72 262.603C391.332 263.215 392.211 263.52 393.333 263.52C394.505 263.52 395.398 263.215 395.984 262.603C396.57 261.966 396.863 261.061 396.863 259.914V239.372C396.863 238.187 396.557 237.295 395.946 236.684C395.359 236.072 394.454 235.766 393.333 235.766C392.211 235.766 391.332 236.072 390.72 236.684C390.108 237.295 389.802 238.2 389.802 239.372V259.914C389.802 261.074 390.108 261.966 390.72 262.603ZM409.443 261.864C411.597 263.023 414.172 263.597 417.167 263.597V263.584C418.467 263.584 419.78 263.431 421.08 263.125C422.405 262.807 423.527 262.386 424.419 261.851C425.095 261.494 425.554 261.023 425.808 260.437C426.089 259.838 426.178 259.252 426.076 258.665C425.974 258.041 425.732 257.506 425.35 257.047C424.98 256.588 424.496 256.282 423.884 256.13C423.298 255.977 422.609 256.066 421.845 256.397C421.093 256.754 420.341 257.022 419.576 257.2C418.811 257.353 418.085 257.429 417.422 257.429C415.841 257.429 414.503 257.136 413.433 256.55C412.375 255.938 411.584 255.046 411.049 253.899C410.514 252.714 410.246 251.274 410.246 249.592C410.246 247.91 410.514 246.483 411.049 245.336C411.584 244.189 412.387 243.31 413.433 242.724C414.503 242.112 415.841 241.806 417.422 241.806C418.238 241.806 419.028 241.908 419.767 242.112C420.532 242.291 421.309 242.558 422.074 242.915C422.75 243.246 423.361 243.336 423.922 243.183C424.483 243.004 424.942 242.673 425.299 242.189C425.656 241.704 425.872 241.156 425.949 240.545C426.051 239.92 425.961 239.321 425.681 238.735C425.388 238.136 424.891 237.652 424.177 237.27C423.208 236.735 422.074 236.34 420.799 236.085C419.55 235.804 418.327 235.664 417.154 235.664C414.924 235.664 412.923 235.996 411.126 236.658C409.354 237.295 407.837 238.238 406.588 239.462C405.365 240.698 404.409 242.163 403.746 243.883C403.109 245.604 402.79 247.503 402.79 249.605C402.79 252.421 403.364 254.881 404.485 256.983C405.645 259.086 407.289 260.717 409.443 261.864ZM432.589 262.603C433.201 263.215 434.08 263.52 435.202 263.52C436.375 263.52 437.267 263.215 437.853 262.603C438.439 261.966 438.732 261.061 438.732 259.914V239.372C438.732 238.187 438.427 237.295 437.815 236.684C437.229 236.072 436.324 235.766 435.202 235.766C434.08 235.766 433.201 236.072 432.589 236.684C431.977 237.295 431.671 238.2 431.671 239.372V259.914C431.671 261.074 431.977 261.966 432.589 262.603ZM446.278 262.603C446.89 263.215 447.769 263.52 448.891 263.52C450.063 263.52 450.955 263.215 451.542 262.603C452.128 261.966 452.421 261.074 452.421 259.952V253.849H458.373C461.445 253.849 463.803 253.071 465.473 251.504C467.168 249.924 468.009 247.745 468.009 244.979C468.009 242.214 467.168 240.048 465.473 238.493C463.816 236.9 461.445 236.11 458.373 236.11H448.929C447.795 236.11 446.915 236.416 446.278 237.028C445.666 237.639 445.36 238.531 445.36 239.678V259.952C445.36 261.087 445.666 261.966 446.278 262.603ZM457.15 248.433H452.421V241.526H457.15C458.475 241.526 459.508 241.806 460.221 242.367C460.935 242.928 461.292 243.833 461.292 244.979C461.292 246.126 460.935 247.006 460.221 247.592C459.508 248.152 458.488 248.433 457.15 248.433ZM469.462 262.985C469.996 263.341 470.669 263.52 471.457 263.52C471.455 263.52 471.452 263.52 471.45 263.52H471.463C471.461 263.52 471.459 263.52 471.457 263.52C472.46 263.519 473.197 263.29 473.681 262.832C474.165 262.374 474.637 261.622 475.095 260.602L476.338 257.684H488.421L489.664 260.602C490.11 261.635 490.594 262.374 491.129 262.832C491.69 263.291 492.493 263.52 493.513 263.52C494.29 263.52 494.928 263.342 495.437 262.985C495.973 262.616 496.291 262.106 496.393 261.443C496.521 260.768 496.381 260.029 495.973 259.213L486.414 238.633C485.916 237.627 485.343 236.9 484.68 236.442C484.043 235.983 483.278 235.753 482.411 235.753C481.545 235.753 480.754 235.983 480.066 236.442C479.391 236.9 478.83 237.639 478.371 238.633L468.812 259.213C468.468 260.042 468.34 260.781 468.468 261.443C468.595 262.093 468.927 262.603 469.462 262.985ZM478.649 252.268L482.335 243.476H482.411L486.129 252.268H478.649ZM502.142 262.259C502.779 262.871 503.671 263.176 504.793 263.176H517.653C518.634 263.176 519.373 262.922 519.883 262.412C520.419 261.902 520.686 261.176 520.686 260.22C520.686 259.264 520.419 258.551 519.883 258.066C519.373 257.557 518.621 257.302 517.653 257.302H508.285V239.64C508.285 238.493 507.979 237.601 507.367 236.99C506.781 236.378 505.876 236.072 504.754 236.072C503.633 236.072 502.753 236.378 502.142 236.99C501.53 237.601 501.224 238.493 501.224 239.64V259.608C501.224 260.743 501.53 261.622 502.142 262.259ZM539.065 262.259C539.703 262.871 540.633 263.176 541.831 263.176V263.189H549.364C551.722 263.189 553.799 262.896 555.622 262.31C557.47 261.698 559.012 260.806 560.274 259.659C561.536 258.474 562.492 257.06 563.154 255.39C563.817 253.696 564.149 251.784 564.149 249.631C564.149 245.323 562.861 241.998 560.274 239.64C557.712 237.283 554.08 236.11 549.364 236.11H541.831C540.633 236.11 539.703 236.429 539.065 237.066C538.454 237.678 538.148 238.582 538.148 239.755V259.532C538.148 260.717 538.454 261.622 539.065 262.259ZM548.892 257.455H545.209V241.819H548.892C551.556 241.819 553.544 242.469 554.844 243.743C556.157 244.992 556.807 246.955 556.807 249.618C556.807 250.943 556.641 252.103 556.31 253.071C555.991 254.04 555.507 254.855 554.844 255.492C554.207 256.142 553.379 256.627 552.384 256.958C551.416 257.289 550.243 257.455 548.892 257.455ZM570.993 262.259C571.63 262.871 572.561 263.176 573.759 263.176V263.189H586.785C587.715 263.189 588.403 262.96 588.862 262.501C589.321 262.03 589.55 261.341 589.55 260.462C589.55 259.583 589.321 258.92 588.862 258.462C588.403 257.977 587.702 257.735 586.785 257.735H576.83V252.166H585.931C586.836 252.166 587.511 251.937 587.97 251.478C588.454 251.02 588.696 250.344 588.696 249.439C588.696 248.535 588.454 247.859 587.97 247.401C587.498 246.942 586.823 246.712 585.931 246.712H576.83V241.564H586.785C587.715 241.564 588.403 241.335 588.862 240.876C589.321 240.392 589.55 239.678 589.55 238.799C589.55 237.92 589.321 237.257 588.862 236.798C588.403 236.34 587.702 236.11 586.785 236.11H573.759C572.548 236.11 571.63 236.429 570.993 237.066C570.381 237.678 570.075 238.582 570.075 239.755V259.532C570.075 260.717 570.381 261.622 570.993 262.259ZM614.06 261.864C616.214 263.023 618.789 263.597 621.784 263.597V263.584C623.084 263.584 624.397 263.431 625.697 263.125C627.022 262.807 628.144 262.386 629.036 261.851C629.712 261.494 630.17 261.023 630.425 260.437C630.693 259.838 630.795 259.252 630.693 258.665C630.591 258.041 630.349 257.506 629.966 257.047C629.597 256.588 629.112 256.282 628.501 256.13C627.914 255.977 627.226 256.066 626.461 256.397C625.71 256.754 624.958 257.022 624.193 257.2C623.428 257.353 622.702 257.429 622.039 257.429C620.458 257.429 619.12 257.136 618.049 256.55C616.992 255.938 616.201 255.046 615.666 253.899C615.131 252.714 614.863 251.274 614.863 249.592C614.863 247.91 615.131 246.483 615.666 245.336C616.201 244.189 617.004 243.31 618.049 242.724C619.12 242.112 620.458 241.806 622.039 241.806C622.854 241.806 623.645 241.908 624.384 242.112C625.149 242.291 625.926 242.558 626.691 242.915C627.366 243.246 627.978 243.336 628.539 243.183C629.1 243.004 629.559 242.673 629.915 242.189C630.272 241.704 630.489 241.156 630.566 240.545C630.668 239.92 630.578 239.321 630.298 238.735C630.005 238.136 629.508 237.652 628.794 237.27C627.825 236.735 626.691 236.34 625.416 236.085C624.167 235.804 622.944 235.664 621.771 235.664C619.541 235.664 617.54 235.996 615.742 236.658C613.971 237.295 612.454 238.238 611.205 239.462C609.981 240.698 609.026 242.163 608.363 243.883C607.726 245.604 607.407 247.503 607.407 249.605C607.407 252.421 607.98 254.881 609.102 256.983C610.262 259.086 611.906 260.717 614.06 261.864ZM643.043 262.871C644.557 263.354 646.286 263.596 648.256 263.597C648.252 263.597 648.248 263.597 648.244 263.597H648.269C648.265 263.597 648.261 263.597 648.256 263.597C650.864 263.596 653.052 263.15 654.846 262.284C656.63 261.392 657.981 260.067 658.873 258.296C659.804 256.512 660.263 254.295 660.263 251.657V239.334C660.263 238.162 659.97 237.27 659.383 236.684C658.797 236.072 657.93 235.766 656.809 235.766C655.687 235.766 654.808 236.072 654.196 236.684C653.609 237.27 653.316 238.162 653.316 239.334V251.733C653.316 253.708 652.883 255.199 652.016 256.193C651.15 257.2 649.913 257.697 648.256 257.697C646.599 257.697 645.325 257.2 644.458 256.193C643.592 255.187 643.158 253.708 643.158 251.733V239.334C643.158 238.162 642.852 237.27 642.24 236.684C641.654 236.072 640.749 235.766 639.628 235.766C638.506 235.766 637.627 236.072 637.015 236.684C636.403 237.27 636.097 238.162 636.097 239.334V251.657C636.097 253.632 636.352 255.378 636.862 256.881C637.397 258.36 638.187 259.608 639.207 260.602C640.252 261.609 641.539 262.361 643.043 262.871ZM667.668 262.259C668.305 262.871 669.197 263.176 670.319 263.176H683.179C684.161 263.176 684.9 262.922 685.41 262.412C685.945 261.902 686.213 261.176 686.213 260.22C686.213 259.264 685.945 258.551 685.41 258.066C684.9 257.557 684.148 257.302 683.179 257.302H673.811V239.64C673.811 238.493 673.505 237.601 672.893 236.99C672.307 236.378 671.402 236.072 670.281 236.072C669.159 236.072 668.28 236.378 667.668 236.99C667.056 237.601 666.75 238.493 666.75 239.64V259.608C666.75 260.743 667.056 261.622 667.668 262.259ZM693.133 262.603C693.745 263.215 694.625 263.52 695.746 263.52H695.759C696.932 263.52 697.824 263.215 698.41 262.603C698.996 261.966 699.289 261.074 699.289 259.952V241.87H705.318C706.274 241.87 706.988 241.628 707.472 241.144C707.982 240.634 708.237 239.946 708.237 238.99C708.237 238.034 707.982 237.321 707.472 236.837C706.988 236.352 706.261 236.11 705.318 236.11H686.187C685.231 236.11 684.505 236.352 683.995 236.837C683.511 237.321 683.268 238.06 683.268 238.99C683.268 239.92 683.511 240.634 683.995 241.144C684.505 241.628 685.244 241.87 686.187 241.87H692.216V259.952C692.216 261.087 692.522 261.966 693.133 262.603ZM719.045 262.871C720.559 263.354 722.288 263.596 724.258 263.597C724.254 263.597 724.249 263.597 724.245 263.597H724.271C724.266 263.597 724.262 263.597 724.258 263.597C726.865 263.596 729.053 263.15 730.847 262.284C732.632 261.392 733.983 260.067 734.875 258.296C735.805 256.512 736.264 254.295 736.264 251.657V239.334C736.264 238.162 735.971 237.27 735.385 236.684C734.799 236.072 733.932 235.766 732.81 235.766C731.689 235.766 730.809 236.072 730.197 236.684C729.611 237.27 729.318 238.162 729.318 239.334V251.733C729.318 253.708 728.885 255.199 728.018 256.193C727.151 257.2 725.915 257.697 724.258 257.697C722.601 257.697 721.327 257.2 720.46 256.193C719.593 255.187 719.16 253.708 719.16 251.733V239.334C719.16 238.162 718.854 237.27 718.242 236.684C717.656 236.072 716.751 235.766 715.629 235.766C714.508 235.766 713.628 236.072 713.016 236.684C712.405 237.27 712.099 238.162 712.099 239.334V251.657C712.099 253.632 712.354 255.378 712.864 256.881C713.399 258.36 714.189 259.608 715.209 260.602C716.254 261.609 717.528 262.361 719.045 262.871ZM743.669 262.603C744.281 263.215 745.161 263.52 746.282 263.52V263.533C747.455 263.533 748.347 263.227 748.933 262.616C749.52 261.979 749.813 261.087 749.813 259.965V253.097H751.929C752.553 253.097 753.088 253.211 753.547 253.441C754.032 253.645 754.427 254.027 754.733 254.588L758.225 260.997C758.722 261.877 759.27 262.514 759.882 262.922C760.519 263.329 761.335 263.533 762.342 263.533C763.349 263.533 764.101 263.317 764.61 262.883C765.146 262.412 765.426 261.838 765.452 261.15C765.477 260.437 765.286 259.698 764.878 258.958L762.953 255.505C762.393 254.422 761.679 253.632 760.838 253.122C760.44 252.869 760.011 252.676 759.553 252.542C760.065 252.399 760.544 252.223 760.991 252.014C762.418 251.325 763.514 250.344 764.254 249.095C765.018 247.808 765.401 246.317 765.401 244.597C765.401 241.934 764.559 239.869 762.864 238.379C761.207 236.862 758.837 236.11 755.765 236.11H746.321C745.199 236.11 744.307 236.416 743.669 237.028C743.058 237.639 742.752 238.531 742.752 239.678V259.952C742.752 261.087 743.058 261.966 743.669 262.603ZM754.503 248.089H749.813V241.526H754.503C755.854 241.526 756.899 241.806 757.613 242.367C758.327 242.902 758.684 243.667 758.684 244.788C758.684 245.91 758.327 246.751 757.613 247.286C756.899 247.821 755.854 248.089 754.503 248.089ZM770.333 262.985C770.866 263.34 771.537 263.519 772.322 263.52C772.318 263.52 772.313 263.52 772.309 263.52H772.334C772.33 263.52 772.326 263.52 772.322 263.52C773.322 263.518 774.057 263.289 774.539 262.832C775.036 262.374 775.508 261.622 775.967 260.602L777.209 257.684H789.293L790.535 260.602C790.981 261.635 791.465 262.374 792 262.832C792.561 263.291 793.364 263.52 794.384 263.52C795.161 263.52 795.799 263.342 796.309 262.985C796.844 262.616 797.162 262.106 797.264 261.443C797.392 260.768 797.252 260.029 796.844 259.213L787.285 238.633C786.788 237.627 786.214 236.9 785.551 236.442C784.914 235.983 784.149 235.753 783.283 235.753C782.416 235.753 781.626 235.983 780.937 236.442C780.262 236.9 779.701 237.639 779.242 238.633L769.683 259.213C769.339 260.042 769.212 260.781 769.339 261.443C769.466 262.093 769.798 262.603 770.333 262.985ZM779.52 252.268L783.206 243.476H783.283L787 252.268H779.52Z" fill="#606060"/>
<path d="M182.127 252.268L183.197 254.116L183.972 252.268H182.127Z" fill="#606060"/>
<path fill-rule="evenodd" clip-rule="evenodd" d="M61.4773 216.817L61.5538 216.843C72.26 220.092 84.0879 221.647 96.9099 221.647C97.8913 221.647 98.86 221.634 99.8286 221.609C99.2933 220.946 98.707 220.232 98.0825 219.468C97.8531 219.188 97.6236 218.894 97.3815 218.614C95.6226 216.461 93.698 214.09 92.398 212.064C88.842 206.572 86.1399 201.819 84.3173 197.983C83.4124 196.072 82.6986 194.364 82.2143 192.899C81.7427 191.471 81.4368 190.146 81.4368 189.025C81.4241 186.03 82.3163 183.087 84.3046 181.519C85.3752 180.678 86.7135 180.283 88.1665 180.551C89.5557 180.806 90.8175 181.634 91.9391 182.806C93.3284 184.272 93.7617 186.03 93.3411 187.712C92.946 189.28 91.8627 190.554 90.6391 191.382C89.4537 192.198 87.937 192.733 86.3948 192.682C86.7899 193.714 87.2998 194.912 87.937 196.25C89.6577 199.869 92.2705 204.482 95.7628 209.872C96.9354 211.682 98.707 213.886 100.491 216.065L101.18 216.907C102.046 217.964 102.913 219.009 103.64 219.952L111.962 212.536C111.219 211.233 110.325 209.86 109.313 208.306L109.171 208.088C108.292 206.738 107.323 205.247 106.291 203.577C106.265 203.539 106.24 203.488 106.214 203.45C104.927 200.952 103.945 198.837 103.155 197.117L102.951 196.658C102.301 195.231 101.817 194.186 101.409 193.421L101.256 193.154C100.504 191.765 100.135 190.159 100.045 188.643C99.9561 187.101 100.135 185.495 100.619 184.157C101.052 182.921 101.944 181.379 103.627 180.869C105.475 180.309 107.145 181.315 108.381 182.653C109.502 183.864 110.076 185.24 110.063 186.68C110.063 188.082 109.49 189.292 108.814 190.248C107.986 191.421 106.839 192.389 105.743 193.103C106.01 193.663 106.291 194.275 106.584 194.925L106.813 195.422C107.578 197.104 108.521 199.13 109.745 201.513C110.624 202.94 111.516 204.304 112.357 205.603L112.5 205.823C113.975 208.096 115.332 210.187 116.27 212.051C116.678 212.867 116.5 213.848 115.812 214.46L108.508 220.959C117.15 219.939 125.396 217.773 133.235 214.396C144.693 209.541 154.176 202.443 161.441 193.039C161.504 192.962 161.555 192.886 161.619 192.809C168.693 183.571 172.363 172.777 172.835 160.786C172.835 154.733 171.981 146.425 171.548 143.035C170.796 139.174 169.712 135.53 168.259 132.14C166.501 127.922 164.219 124.074 161.441 120.633C159.197 117.855 156.623 115.345 153.729 113.102C147.484 108.132 139.888 104.309 131.183 101.468C122.924 98.7151 113.441 96.3831 102.811 94.4334C95.2275 92.9425 88.8929 91.3369 83.7183 89.6166C79.1808 87.96 76.2749 86.0485 74.465 84.2135C73.2797 82.7353 72.4767 80.7347 72.4767 77.5999C72.4767 75.3444 73.1012 73.6368 74.3248 72.0822C75.5866 70.4893 77.7788 68.7817 81.5898 67.329C85.4262 65.9273 90.5371 65.0735 97.1776 65.0735C100.581 65.0735 104.481 65.6597 108.942 66.9977L109.222 67.0742C113.849 68.3102 118.195 69.9159 122.299 71.891L122.554 72.0185C126.658 73.8407 129.462 75.6247 131.297 77.2176L131.565 77.447L131.845 77.6636C135.554 80.4416 139.875 81.8816 144.514 81.8816C151.155 81.8816 156.916 79.2183 161.441 74.5926C161.543 74.4779 161.67 74.4014 161.772 74.2867V74.2995C166.144 69.6737 168.756 63.9649 168.756 57.4405C168.756 50.916 166.105 44.7866 161.772 40.0462C160.574 38.7337 159.223 37.5359 157.795 36.389C150.658 30.3106 141.749 25.6084 131.348 22.0786C120.744 18.2302 109.311 16.3697 97.1521 16.3697C84.1261 16.3697 71.9924 18.638 60.8655 23.3274C49.5985 28.0678 40.3324 35.1274 33.3734 44.5445L33.2969 44.6465C26.2869 54.4204 22.9858 66.0038 22.9858 78.887C22.9858 87.3356 24.3623 95.2872 27.281 102.589V102.627L27.3193 102.665C30.238 109.763 34.5332 116.033 40.1158 121.41L40.2432 121.538L40.3707 121.652C46.1189 126.788 53.027 130.942 60.9037 134.204L61.0822 134.281C68.9589 137.352 77.8681 139.582 87.7204 141.035H87.7968C97.1648 142.36 104.455 144.195 109.885 146.387L110.089 146.463C115.582 148.54 118.756 150.821 120.476 152.822C121.98 154.58 122.86 156.734 122.86 159.856C122.86 161.462 122.35 163.042 120.629 164.89C118.501 166.992 115.455 168.967 111.185 170.637C107.004 172.102 102.263 172.892 96.8844 172.892C88.2812 172.892 81.6025 171.643 76.5298 169.515C71.1129 167.171 65.3902 163.628 59.387 158.722L59.3106 158.671C55.0663 155.269 50.0445 153.485 44.5895 153.485C37.6941 153.485 31.5763 156.084 26.8349 161.105C22.4505 165.782 20.118 171.541 20.118 177.964C20.118 182.016 21.1377 185.877 22.9348 189.445C23.3299 190.248 23.7632 191.013 24.2348 191.765C24.4643 191.166 24.8084 190.63 25.229 190.159C26.1594 189.127 27.3957 188.592 28.5301 188.324C29.9066 188.005 31.3851 188.044 32.6596 188.222C33.2842 185.622 34.3038 181.621 35.3489 177.531C36.547 172.854 37.8216 167.999 38.65 164.826C38.8667 164.023 39.555 163.424 40.3834 163.335L55.0408 161.844C55.6526 161.78 56.2516 161.997 56.685 162.443C57.1183 162.889 57.3095 163.488 57.233 164.099C56.7997 167.425 56.2006 171.682 55.4996 176.205C54.5055 182.628 53.3074 189.624 52.0966 195.32C51.4848 198.174 50.8603 200.736 50.2485 202.762C49.9426 203.769 49.6239 204.686 49.3053 205.438C48.9994 206.151 48.6298 206.891 48.1455 207.438C47.368 208.318 46.5013 209.095 45.5836 209.707C50.6691 212.638 55.933 214.982 61.3626 216.728L61.4391 216.754L61.4773 216.817ZM138.205 151.14C142.335 142.972 143.966 137.072 143.826 133.032L143.813 133.019C143.737 130.866 143.138 129.031 141.927 127.731C140.678 126.406 139.034 125.87 137.402 125.87C134.229 125.87 131.68 127.463 130.125 129.948C128.595 132.369 128.047 135.581 128.481 138.983C128.99 143.099 130.673 147.674 133.451 151.599C131.463 155.766 129.386 161.576 129.194 166.584C129.092 169.311 129.538 172.14 131.221 174.281C132.98 176.524 135.758 177.607 139.404 177.505C145.916 177.314 150.824 175.504 154.023 172.739C154.188 173.122 154.329 173.504 154.456 173.886C155.616 177.505 155.106 181.124 153.908 185.967C153.232 188.719 151.588 190.72 149.6 191.981C150.033 190.656 149.957 189.318 149.562 188.12C149.077 186.629 148.109 185.342 146.962 184.425C145.84 183.52 144.374 182.844 142.832 182.844H142.768C142.004 182.844 139.901 182.844 138.116 184.017C137.135 184.667 136.281 185.635 135.784 186.999C135.287 188.337 135.172 189.942 135.427 191.841C135.771 194.339 137.466 196.008 139.505 196.875C141.507 197.728 143.941 197.894 146.324 197.473C151.091 196.62 156.253 193.268 157.821 186.922C159.044 182.016 159.822 177.429 158.292 172.663C157.936 171.554 157.464 170.458 156.852 169.362C159.185 165.246 158.611 160.417 155.437 156.912C154.112 155.447 152.226 154.364 150.25 153.739C148.262 153.102 146.031 152.873 143.941 153.268C143.01 153.446 142.093 153.752 141.239 154.211C140.245 153.332 139.2 152.299 138.205 151.14Z" fill="#006CB5"/>
<path fill-rule="evenodd" clip-rule="evenodd" d="M133.541 132.089C132.623 133.554 132.139 135.772 132.483 138.499C132.84 141.353 133.885 144.513 135.554 147.432C138.855 140.525 139.913 135.95 139.811 133.185C139.76 131.643 139.353 130.866 138.996 130.483C138.664 130.127 138.18 129.897 137.415 129.897C135.72 129.897 134.42 130.687 133.541 132.089ZM136.319 155.039C134.751 158.696 133.362 163.093 133.222 166.737C133.133 169.057 133.553 170.739 134.395 171.809C135.147 172.777 136.536 173.58 139.302 173.504C145.687 173.313 149.74 171.427 151.971 169.197C150.224 166.814 147.573 164.201 143.661 161.194C143.616 161.162 143.565 161.124 143.508 161.082C143.384 160.991 143.231 160.879 143.049 160.748C143.003 160.715 142.956 160.681 142.908 160.646C142.509 160.356 142.01 159.994 141.43 159.55C140.984 160.519 140.729 161.946 141.048 164.049C141.264 165.565 142.144 166.38 142.768 166.61C143.061 166.712 143.278 166.686 143.431 166.623C143.571 166.559 143.852 166.38 144.107 165.82C144.565 164.813 145.764 164.367 146.77 164.826C147.777 165.285 148.223 166.482 147.765 167.489C147.166 168.789 146.235 169.783 145.037 170.305C143.839 170.828 142.564 170.79 141.43 170.382C139.212 169.592 137.492 167.387 137.084 164.635C136.625 161.513 137.046 158.926 138.295 156.951C137.657 156.364 136.995 155.727 136.332 155.039H136.319ZM149.026 157.575C147.663 157.142 146.222 156.989 144.961 157.18C145.05 157.244 145.139 157.307 145.215 157.371L145.317 157.448L145.384 157.496C145.673 157.704 145.918 157.88 146.108 158.034C149.511 160.646 152.149 163.08 154.125 165.45C154.571 163.399 153.984 161.309 152.468 159.627C151.728 158.811 150.505 158.059 149.026 157.588V157.575Z" fill="#006CB5"/>
</svg>
