<svg width="912" height="247" viewBox="0 0 912 247" fill="none" xmlns="http://www.w3.org/2000/svg">
<path d="M256.929 215.34C257.337 216.857 259.062 219.742 262.703 219.145C260.371 221.364 255.951 223.71 256.929 215.34Z" fill="#FEAA00"/>
<path d="M262.703 202.583C260.015 195.672 254.024 194.084 251.365 194.154C253.219 192.76 257.809 190.643 261.327 193.318C264.845 195.993 263.71 200.609 262.703 202.583Z" fill="#FEAA00"/>
<path d="M285.5 208.574C281.599 206.345 277.094 208.528 275.329 209.898C284.024 209.898 287.312 215.378 287.869 218.118C288.705 215.866 289.402 210.804 285.5 208.574Z" fill="#FEAA00"/>
<path d="M246.07 214.287C246.999 213.59 249.108 212.698 250.111 214.705C250.204 212.011 249.526 208.156 246.07 214.287Z" fill="#FEAA00"/>
<path d="M270.662 226.617C271.521 226.71 273.044 227.453 272.264 229.683C273.936 228.104 275.956 225.28 270.662 226.617Z" fill="#FEAA00"/>
<path d="M269.269 228.429C251.992 232.051 248.323 221.671 248.648 216.028C242.852 225.113 246.651 230.913 249.275 232.678C258.136 238.697 266.296 232.353 269.269 228.429Z" fill="#FEAA00"/>
<path fill-rule="evenodd" clip-rule="evenodd" d="M584.445 232.331L584.409 232.31C583.183 231.598 581.978 230.863 580.795 230.104C580.887 229.844 580.97 229.57 581.042 229.281C581.259 228.414 579.695 226.884 578.852 226.586C578.218 226.361 577.667 226.025 577.487 225.605C565.519 197.669 577.595 185.502 587.037 175.989C589.424 173.584 591.642 171.349 593.262 169.071C597.819 162.66 589.599 152.873 579.756 153.006C579.282 153.012 578.903 153.394 578.861 153.865C577.71 166.867 576.672 172.156 574.112 176.545C573.935 176.847 573.605 177.024 573.256 176.988C568.64 176.506 559.086 172.699 552.21 160.768C551.763 159.993 550.659 160.154 550.582 161.044C550.344 163.786 550.484 167.536 551.906 169.841L551.934 169.885C553.93 173.118 556.252 176.88 568.132 182.322C568.719 182.591 568.889 183.348 568.466 183.836L568.379 183.936C567.843 184.555 567.275 185.211 566.673 185.913C559.346 194.46 556.956 207.239 560.045 211.878C556.23 207.334 552.813 202.379 549.801 197.024L549.768 196.965L549.736 196.906L549.735 196.905C541.461 181.774 537.481 164.647 537.481 145.838V33.5037C537.481 25.2314 540.465 17.7794 546.51 12.0115C552.573 6.01096 560.285 3.21354 568.702 3.21354C576.702 3.21354 583.669 6.43564 589.237 11.9072C595.478 17.6042 598.682 25.0759 598.682 33.5037V145.838C598.682 154.482 600.469 161.432 603.63 167.07C607.201 172.86 611.679 177.202 617.101 180.314C622.894 183.52 628.844 185.058 635.109 185.058C642.163 185.058 648.575 183.438 654.532 180.218C660.441 177.024 665.209 172.598 668.94 166.78C672.399 161.19 674.33 154.352 674.33 145.838V33.5037C674.33 25.845 676.592 18.6392 681.722 12.7624C687.233 6.22566 694.794 3.21354 703.068 3.21354C711.344 3.21354 718.841 6.21197 724.484 12.4906C729.936 18.3443 732.427 25.6438 732.427 33.5037V145.838C732.427 164.676 728.331 181.826 719.83 196.964C711.615 211.962 700.133 223.813 685.499 232.31C680.783 235.049 675.851 237.333 670.715 239.173C669.742 237.558 668.499 236.779 667.229 235.982C666.704 235.653 666.175 235.321 665.658 234.926C665.226 234.596 664.886 234.174 664.703 233.654C664.522 233.138 664.528 232.623 664.628 232.159C664.817 231.283 665.368 230.446 665.932 229.732C666.518 228.991 667.246 228.227 667.947 227.501L668.203 227.237C668.429 227.003 668.652 226.773 668.869 226.546C668.729 226.463 668.587 226.379 668.447 226.294C668.097 226.082 667.745 225.863 667.437 225.669C665.766 227.28 664.377 228.841 663.537 230.308C662.593 231.96 662.473 233.244 663.093 234.339C663.993 235.93 665.021 236.61 666.187 237.379L666.306 237.458C667.187 238.041 668.133 238.69 668.929 239.793C658.516 243.286 647.287 244.996 635.336 245.017C635.376 244.927 635.415 244.837 635.453 244.748C635.841 243.835 636.22 242.739 636.59 241.519C637.33 239.077 638.08 235.981 638.815 232.54C640.286 225.649 641.73 217.201 642.928 209.451C643.773 203.988 644.498 198.855 645.027 194.831C645.123 194.102 644.88 193.37 644.368 192.842C643.856 192.315 643.131 192.051 642.399 192.125L624.708 193.924C623.71 194.025 622.88 194.735 622.625 195.704C621.617 199.537 620.086 205.399 618.633 211.049C617.358 216.006 616.133 220.837 615.376 223.983C613.826 223.763 612.043 223.724 610.378 224.103C608.998 224.416 607.523 225.059 606.395 226.309C605.229 227.6 604.652 229.3 604.682 231.289C604.715 233.489 605.408 235.725 607.516 236.705C609.428 237.593 611.464 236.913 612.848 236.154C614.352 235.329 615.799 234.04 616.958 232.572C618.089 231.139 619.055 229.397 619.487 227.543C619.525 227.42 619.552 227.296 619.569 227.172C620.1 224.795 621.417 219.554 622.887 213.821L637.677 211.886C636.595 218.665 635.359 225.692 634.111 231.536C633.445 234.653 632.784 237.398 632.149 239.575C630.846 238.493 629.225 237.871 627.654 237.671C625.884 237.445 623.893 237.72 622.279 238.813C620.631 239.929 619.618 241.742 619.598 244.012C606.935 242.318 595.187 238.469 584.477 232.349L584.445 232.331ZM554.89 141.045C555.442 139.089 555.837 136.067 556.05 133.83C556.111 133.19 556.764 132.777 557.367 132.997C565.36 135.909 571.185 136.98 574.759 137.636C577.286 138.1 578.687 138.358 578.934 138.913C579.379 139.917 578.592 144.589 578.024 147.408C577.932 147.863 577.529 148.181 577.066 148.214C572.235 148.558 559.473 152.447 552.312 154.802C551.667 155.014 551.017 154.512 551.11 153.84C551.508 150.985 552.577 147.952 553.291 146.259C553.444 145.895 553.811 145.675 554.205 145.696L559.584 145.976C560.774 146.039 560.992 144.308 559.824 144.073L556.049 143.312C555.246 143.15 554.668 141.834 554.89 141.045ZM586.931 177.761C581.309 184.089 574.845 193.621 574.845 200.571C574.845 210.958 576.211 225.501 580.591 224.722C580.667 224.708 580.743 224.68 580.81 224.642C581.939 223.993 581.886 222.747 581.379 219.537C580.708 215.294 577.777 196.662 585.142 184.186L588.179 178.696C588.706 177.744 587.654 176.947 586.931 177.761ZM711.574 173.041C702.313 168.398 693.724 162.014 689.79 158.823C693.047 155.648 698.83 154.99 703.76 157.269C706.396 158.488 708.707 160.525 710.15 163.378C711.42 165.888 712.05 169.094 711.574 173.041ZM711.574 175.83C700.908 170.674 690.967 163.083 687.335 160.044C685.872 159.471 684.672 160.028 683.907 160.932C683.499 161.414 683.268 161.943 683.205 162.356C683.174 162.559 683.188 162.698 683.21 162.778C683.229 162.848 683.25 162.865 683.255 162.87C685.903 165.125 690.49 168.701 695.604 172.066C700.577 175.337 705.957 178.347 710.501 179.788C711.227 179.403 711.609 178.854 711.776 178.24C711.956 177.577 711.906 176.74 711.574 175.83ZM694.229 174.157C698.893 177.225 704.068 180.175 708.697 181.821C707.224 183.849 704.075 186.676 698.53 187.356C696.809 186.885 694.047 185.687 691.366 184.023C688.547 182.275 686.034 180.143 684.861 178.009L684.829 177.952L684.792 177.899C683.531 176.081 682.816 173.639 682.636 171.121C682.507 169.298 682.662 167.502 683.052 165.958C685.831 168.229 689.839 171.269 694.229 174.157ZM696.583 189.361C694.689 188.685 692.315 187.557 690.046 186.15C687.756 184.729 685.44 182.942 683.829 180.932C683.33 181.807 682.794 182.797 682.237 183.843L681.725 184.804C681.099 185.981 680.456 187.189 679.826 188.32C683.18 191.674 686.674 193.99 692.496 195.901C693.142 194.847 693.789 193.83 694.411 192.852C695.188 191.63 695.928 190.467 696.583 189.361ZM678.549 190.574C681.934 193.847 685.571 196.191 691.189 198.103C689.453 201.127 687.846 204.321 686.31 207.399L685.957 208.108C684.311 211.409 682.75 214.542 681.172 217.234C679.472 220.134 677.823 222.396 676.142 223.769C674.513 225.099 672.959 225.522 671.263 224.995L671.262 224.995C671.252 224.991 671.207 224.973 671.12 224.931C671.021 224.884 670.897 224.819 670.75 224.739C670.457 224.578 670.106 224.372 669.744 224.153C669.149 223.793 668.554 223.415 668.171 223.172L667.952 223.033C667.117 222.506 666.585 221.282 666.755 218.899C666.921 216.584 667.731 213.601 668.99 210.232C671.317 204.004 675.063 196.753 678.549 190.574Z" fill="#EB2D34"/>
<path d="M560.865 212.84C561.134 213.152 561.406 213.462 561.679 213.771C561.419 213.454 561.148 213.144 560.865 212.84Z" fill="#FEAA00"/>
<path fill-rule="evenodd" clip-rule="evenodd" d="M853.742 63.5136L853.696 63.5031C849.224 62.4711 844.397 61.9322 839.184 61.9322C829.226 61.9322 820.656 63.4948 813.304 66.3946C806.108 69.3137 800.062 73.4536 795.029 78.8222L794.967 78.888L794.905 78.9523C789.882 84.1423 785.95 90.3958 783.155 97.8674C780.551 105.376 779.172 113.881 779.172 123.495C779.172 135.044 780.779 144.556 783.676 152.273C786.874 160.23 791.087 166.557 796.193 171.498C801.375 176.514 807.485 180.31 814.653 182.887C822.036 185.333 830.186 186.61 839.184 186.61C844.064 186.61 848.957 186.158 853.872 185.248C858.323 184.424 862.635 182.938 866.835 180.754L867.013 180.662L867.192 180.576C873.252 177.691 879.76 176.426 886.446 177.42C893.893 178.494 900.038 182.33 904.58 188.14C910.417 195.465 913.171 204.203 911.131 213.619C909.869 219.998 906.731 225.249 902.111 229.168C900.971 227.216 899.8 225.354 898.651 223.732C897.259 221.767 895.935 220.206 894.773 219.258C891.472 216.567 890.189 214.228 889.39 212.309C889.224 211.908 889.09 211.562 888.97 211.247L888.969 211.245C888.789 210.776 888.636 210.378 888.441 209.981C888.15 209.389 887.827 208.954 887.315 208.6C886.827 208.262 885.62 207.592 883.913 206.701C882.23 205.821 880.118 204.756 877.865 203.639C873.644 201.545 868.943 199.274 865.672 197.712L847.193 217.81C850.24 220.084 854.467 223.354 858.2 226.488C860.248 228.207 862.159 229.896 863.649 231.362C864.393 232.094 865.043 232.782 865.555 233.397C866.054 233.998 866.471 234.588 866.695 235.12C867.306 236.57 868.583 238.363 869.994 240.057C870.649 240.844 871.32 241.594 871.941 242.257C867.573 243.356 863.15 244.229 858.673 244.876C852.272 246.007 845.773 246.569 839.184 246.569C823.056 246.569 807.599 243.989 792.882 238.782L792.856 238.772L792.828 238.763L792.826 238.762C784.002 235.59 775.708 231.495 767.958 226.483C769.154 219.29 770.271 212.18 771.236 205.798C772.135 199.849 772.904 194.52 773.485 190.33C773.531 190 773.461 189.68 773.306 189.412C775.192 187.075 777.547 183.62 778.489 179.336C779.684 173.895 778.553 167.362 772.02 160.339C771.729 160.026 771.314 159.858 770.888 159.881C770.461 159.903 770.066 160.114 769.81 160.455C769.723 160.571 769.62 160.705 769.504 160.856C767.097 163.989 758.913 174.645 765.063 189.396C764.276 193.64 763.311 198.958 762.274 204.818C761.398 209.767 760.47 215.11 759.555 220.525C758.047 219.357 756.562 218.15 755.101 216.905C752.746 204.523 749.491 189.248 746.695 176.588C745.412 170.778 744.223 165.506 743.258 161.3C746.086 153.786 746.888 147.761 746.693 143.227C746.496 138.658 745.277 135.5 743.99 133.928C743.746 133.631 743.393 133.443 743.01 133.406C742.627 133.37 742.245 133.488 741.949 133.734C734.703 139.776 732.075 145.901 731.939 151.226C731.83 155.493 733.327 159.097 735.08 161.559C734.895 161.854 734.815 162.216 734.883 162.585C735.639 166.747 736.633 172.038 737.782 177.945C739.336 185.928 741.18 195.058 743.114 204.048C733.123 191.823 727.694 181.25 726.014 176.66C719.308 160.93 716.109 143.128 716.109 123.495C716.109 106.266 719.023 90.1296 724.989 75.2131L725.018 75.1404L725.048 75.0687C731.191 60.281 739.79 47.4005 750.863 36.5584C762.105 25.546 775.277 17.0833 790.266 11.1686C805.389 4.99301 821.738 1.97251 839.184 1.97251C849.155 1.97251 858.935 3.10666 868.502 5.3846C878.026 7.65214 887.043 10.9532 895.524 15.3034C904.032 19.5778 909.497 26.8659 910.913 36.3555C912.476 45.4189 910.068 53.8625 904.337 60.9418C899.863 66.9759 893.549 70.7634 885.901 71.4984C879.435 72.1391 873.161 70.792 867.278 68.0063C863.093 66.0939 858.603 64.5938 853.786 63.5235L853.742 63.5136ZM846.231 216.014L843.888 207.443L852.58 199.275L862.927 197.855L846.231 216.014ZM850.762 198.344L849.082 196.671L848.112 200.834L850.762 198.344ZM847.341 195.665L845.582 203.211L842.881 205.749C842.596 205.426 842.279 205.073 841.954 204.721L843.954 199.306L847.341 195.665ZM840.461 203.209L840.552 202.963L840.387 203.141L840.434 203.185L840.461 203.209ZM780.951 218.795C779.413 228.172 785.455 227.988 788.668 226.723C790.372 225.708 791.701 223.836 793.144 221.805C795.233 218.863 797.56 215.586 801.607 214.097C804.034 213.664 808.375 214.081 806.33 219.212C804.286 224.343 806.643 227.142 808.077 227.9C817.411 230.127 817.588 220.045 816.509 214.725C816.008 212.207 816.114 207.193 820.542 207.288C824.273 207.369 825.039 205.206 825.884 202.819C826.293 201.665 826.72 200.458 827.51 199.427C828.989 197.495 831.251 197.869 833.43 198.229C834.822 198.458 836.179 198.683 837.276 198.296C840.089 197.305 839.333 193.432 834.125 192.153C828.916 190.875 824.467 193.565 820.132 198.632C815.796 203.7 812.031 204.737 806.986 204.88C802.949 204.996 797.715 207.068 795.602 208.09C784.676 212.497 781.282 217.063 780.951 218.795ZM814.568 190.699C814.137 191.91 812.739 194.614 810.594 195.742C809.576 196.277 808.75 196.956 808.011 197.563C807.192 198.236 806.48 198.821 805.73 199.029C803.435 199.666 800.581 199.031 800.698 194.929C800.853 189.499 806.781 190 809.725 190.929C810.694 191.402 813.019 192.018 814.568 190.699Z" fill="#76A485"/>
<path d="M878.004 240.558C877.859 240.606 877.714 240.653 877.568 240.7C877.238 240.724 876.904 240.576 876.704 240.283C876.404 239.844 876.517 239.246 876.955 238.946L890.121 229.945C890.559 229.645 891.158 229.758 891.458 230.196C891.758 230.635 891.645 231.233 891.207 231.533L878.041 240.534C878.029 240.543 878.017 240.55 878.004 240.558Z" fill="#76A485"/>
<path d="M737.975 163.454C738.632 167.036 739.441 171.334 740.358 176.068L743.535 175.666C742.479 170.897 741.496 166.537 740.663 162.896L737.975 163.454Z" fill="#76A485"/>
<path d="M768.583 204.032C769.3 199.263 769.927 194.935 770.432 191.328L767.723 190.885C767.044 194.558 766.246 198.955 765.392 203.764L768.583 204.032Z" fill="#76A485"/>
<path d="M879.01 225.176C879.521 225.031 879.818 224.499 879.673 223.987C879.528 223.476 878.996 223.18 878.485 223.325C877.581 223.581 876.666 224.309 875.836 225.132C874.975 225.987 874.083 227.07 873.231 228.214C871.525 230.504 869.917 233.119 868.954 234.833C868.694 235.296 868.858 235.882 869.321 236.143C869.785 236.403 870.371 236.238 870.631 235.775C871.566 234.113 873.13 231.571 874.774 229.364C875.597 228.259 876.425 227.258 877.192 226.498C877.989 225.707 878.609 225.29 879.01 225.176Z" fill="#76A485"/>
<path d="M879.638 231.39C880.059 231.065 880.136 230.461 879.811 230.04C879.486 229.62 878.882 229.543 878.462 229.867C876.659 231.261 874.369 233.963 873.465 235.112C873.136 235.53 873.208 236.135 873.626 236.463C874.043 236.792 874.648 236.72 874.977 236.302C875.874 235.161 878.039 232.626 879.638 231.39Z" fill="#76A485"/>
<path fill-rule="evenodd" clip-rule="evenodd" d="M416.218 182.078L416.059 181.987L415.901 181.89C412.214 179.621 408.956 176.838 406.235 173.512L405.797 172.976L375.187 124.578V213.176C375.187 221.095 372.666 228.4 367.353 234.377L367.245 234.498L367.135 234.616C363.657 238.311 359.526 240.786 354.996 242.158C353.189 239.851 351.195 237.273 349.14 234.571C344.535 228.518 339.647 221.872 335.881 216.287C335.273 215.387 334.698 214.517 334.159 213.685C333.179 212.172 332.32 210.783 331.616 209.557C332.323 209.47 333.009 209.284 333.657 209.024C334.492 208.688 335.263 208.227 335.932 207.689C337.296 206.594 338.46 204.998 338.788 203.108C339.14 201.082 338.469 199.027 336.695 197.429C335.271 196.146 333.701 195.287 332.04 195.109C330.344 194.927 328.821 195.487 327.644 196.529C327.617 196.553 327.589 196.578 327.562 196.603C325.343 198.64 324.558 202.191 324.845 205.711C324.915 206.578 325.239 207.508 325.596 208.35C325.976 209.242 326.49 210.252 327.096 211.337C328.31 213.511 329.975 216.133 331.893 218.977C332.383 219.703 332.891 220.446 333.414 221.203C336.991 226.378 341.274 232.176 345.311 237.483C346.838 239.49 348.331 241.429 349.741 243.242C348.457 243.392 347.151 243.466 345.828 243.466C338.006 243.466 330.878 240.754 325.324 235.126C325.158 234.959 324.995 234.789 324.832 234.616L324.722 234.499L324.614 234.378C319.301 228.401 316.779 221.095 316.779 213.176V187.845V135.427V107.577V59.4369V33.5037C316.779 25.3535 319.81 18.1084 325.49 12.331C325.557 12.263 325.624 12.1951 325.692 12.1274L325.801 12.0184L325.912 11.9126C331.937 6.20472 339.383 3.21354 347.69 3.21354C352.661 3.21354 357.355 4.60198 361.649 6.8294C366.363 8.9632 370.581 12.1382 373.589 16.6511L373.627 16.7071L431.837 106.298L491.928 16.5239L492.004 16.4161L492.004 16.4148C497.811 8.16408 506.18 3.21354 516.501 3.21354C524.447 3.21354 531.549 6.12984 537.42 11.3832C543.917 17.1962 547.101 24.9033 547.101 33.5037V213.176C547.101 221.294 544.342 228.683 538.725 234.63L538.613 234.748L538.499 234.863C536.166 237.196 533.572 239.015 530.787 240.367C532.21 237.955 533.005 234.718 532.694 230.45C531.541 214.586 533.175 199.443 534.136 193.854C539.068 185.048 537.642 177.316 535.58 172.996C535.185 172.169 534.136 172.486 534.136 173.402V181.122C534.136 181.958 533.143 182.396 532.526 181.832L525.115 175.064C524.597 174.59 524.74 173.73 525.364 173.408C528.133 171.977 532.311 169.132 534.051 165.439C534.109 165.317 534.136 165.184 534.136 165.049V162.331C534.136 161.558 533.27 161.097 532.622 161.517C528.802 163.995 522.68 167.576 519.638 167.972C519.351 168.009 519.078 167.881 518.894 167.659C516.769 165.097 513.278 160.322 512.054 156.751C511.776 155.939 510.646 155.588 510.236 156.343C508.933 158.747 508.158 162.657 510.624 167.345C510.993 168.047 510.47 169.055 509.737 169.359C507.628 170.235 505.11 172.868 504.427 179.075C504.336 179.903 505.315 180.413 506.007 179.949C508.65 178.178 512.783 176.153 516.373 176.678C516.562 176.706 516.735 176.798 516.871 176.931L534.136 193.854C532.708 201.35 527.929 217.725 520.242 223.263C514.43 227.45 509.231 222.787 506.026 217.814C505.448 216.916 503.789 217.359 503.874 218.424C504.942 231.814 508.412 239.391 511.481 243.131C505.13 242.263 499.284 239.678 494.426 235.09L494.19 234.866L493.967 234.63C488.35 228.683 485.59 221.294 485.59 213.176V126.294L454.921 173.05L454.542 173.512C451.727 176.953 448.281 179.752 444.402 181.991C440.147 184.57 435.358 185.959 430.25 185.764C425.128 185.968 420.383 184.458 416.218 182.078ZM534.394 148.457C530.357 148.872 523.217 148.66 518.084 145.436C517.42 145.019 516.452 145.426 516.291 146.194C515.929 147.925 515.188 150.15 513.853 151.824C513.502 152.264 513.508 152.917 513.955 153.26C517.544 156.019 525.405 159.927 534.154 157.884C534.55 157.792 534.835 157.45 534.869 157.046L535.508 149.524C535.561 148.901 535.016 148.393 534.394 148.457ZM349.401 200.063C349.668 200.748 350.233 201.274 350.935 201.49C351.638 201.706 352.401 201.589 353.006 201.172L367.281 191.345C368.107 190.777 368.494 189.755 368.251 188.782C367.317 185.035 365.878 179.308 364.472 173.799C363.246 168.994 362.036 164.318 361.209 161.273C362.627 160.733 364.153 159.933 365.39 158.837C366.428 157.917 367.397 156.666 367.779 155.054C368.174 153.387 367.867 151.648 366.903 149.951C365.839 148.079 364.181 146.467 361.886 146.621C359.806 146.76 358.371 148.315 357.54 149.618C356.637 151.036 356.001 152.824 355.698 154.628C355.402 156.388 355.392 158.338 355.894 160.135C355.92 160.259 355.955 160.38 355.999 160.495C356.658 162.77 357.983 167.844 359.409 173.414L347.777 181.925C345.535 175.649 343.31 169.098 341.645 163.543C340.765 160.61 340.052 157.988 339.575 155.849C341.18 156.14 342.833 155.908 344.251 155.35C345.88 154.71 347.466 153.532 348.341 151.825C349.28 149.996 349.25 147.834 348.032 145.781C347.055 144.133 345.811 142.845 344.278 142.181C342.677 141.487 341.017 141.588 339.559 142.276C336.834 143.56 335.028 146.717 334.255 150.163C334.064 151.012 334.096 151.996 334.187 152.906C334.284 153.871 334.474 154.987 334.73 156.204C335.243 158.64 336.052 161.639 337.037 164.925C339.01 171.505 341.735 179.401 344.343 186.585C346.181 191.65 347.968 196.377 349.401 200.063Z" fill="#FECD20"/>
<path d="M270.324 243.466H303.878C311.737 243.466 319.037 240.974 324.89 235.523C325.036 235.392 325.181 235.26 325.324 235.126C325.158 234.959 324.995 234.789 324.832 234.616L324.722 234.499L324.614 234.378C319.301 228.401 316.779 221.095 316.779 213.176V187.845C312.832 185.982 308.482 185.058 303.878 185.058H280.567C288.177 190.595 298.196 195.513 310.477 197.286C310.858 197.341 311.086 197.744 310.909 198.086C304.422 210.623 288.213 236.02 272.31 242.662C271.638 242.943 270.976 243.211 270.324 243.466Z" fill="#FEAA00"/>
<path fill-rule="evenodd" clip-rule="evenodd" d="M22.1046 221.287C20.84 222.144 19.9507 223.413 19.6003 224.984C17.2189 223.209 14.8714 221.324 12.5579 219.329C12.4213 219.213 12.2856 219.097 12.1508 218.979C12.3639 218.882 12.5665 218.779 12.7568 218.674C14.2527 217.854 15.6917 216.572 16.8438 215.113C17.9677 213.689 18.9282 211.957 19.3579 210.113C19.3954 209.99 19.4227 209.867 19.4401 209.744C19.9665 207.384 21.2728 202.186 22.7313 196.498L37.3852 194.58C36.3112 201.305 35.0852 208.274 33.8476 214.07C33.1892 217.154 32.535 219.871 31.9072 222.028C30.6133 220.961 29.009 220.348 27.4541 220.15C25.6936 219.925 23.7117 220.199 22.1046 221.287Z" fill="white"/>
<path d="M170.013 69.8536C175.25 64.3088 178.39 57.4656 178.39 49.6403C178.39 41.484 175.189 34.5222 169.995 28.8412C169.752 30.4634 169.632 32.1237 169.632 33.8142V70.2506C169.76 70.1195 169.887 69.9872 170.013 69.8536Z" fill="white"/>
<path fill-rule="evenodd" clip-rule="evenodd" d="M49.7554 240.777L49.8437 240.804C62.6842 244.702 76.856 246.569 92.2434 246.569C93.413 246.569 94.5773 246.553 95.7364 246.52C95.1003 245.73 94.3937 244.868 93.6457 243.957L93.6407 243.951C93.3661 243.616 93.0859 243.275 92.8015 242.927C90.6921 240.351 88.3922 237.495 86.8204 235.068C82.5605 228.487 79.3223 222.775 77.1364 218.185C76.0439 215.891 75.1994 213.845 74.622 212.091C74.0574 210.376 73.6958 208.784 73.6884 207.45C73.6683 203.858 74.7381 200.327 77.1341 198.442C78.415 197.433 80.0272 196.957 81.7623 197.278C83.4241 197.584 84.9451 198.572 86.2885 199.98C87.9572 201.73 88.4757 203.854 87.9662 205.869C87.4905 207.751 86.1932 209.274 84.7294 210.278C83.3032 211.255 81.4963 211.897 79.6341 211.84C80.1018 213.083 80.7146 214.511 81.4792 216.117C83.5498 220.465 86.6739 225.99 90.8582 232.453C92.26 234.619 94.3861 237.27 96.5234 239.88C96.7999 240.218 97.0777 240.556 97.3542 240.893L97.355 240.894C98.4 242.167 99.4277 243.419 100.31 244.546L110.296 235.646C109.361 234.016 108.231 232.283 106.948 230.312L106.947 230.311C105.892 228.691 104.732 226.91 103.488 224.894C103.456 224.842 103.426 224.789 103.398 224.734C101.852 221.737 100.676 219.195 99.7361 217.138L99.4844 216.587L99.4833 216.585L99.4828 216.584C98.7008 214.871 98.1282 213.617 97.6303 212.706C97.5635 212.605 97.5035 212.497 97.4512 212.384C96.5452 210.721 96.1098 208.789 96.0016 206.978C95.8907 205.122 96.1124 203.208 96.6831 201.6C97.2081 200.121 98.2706 198.266 100.283 197.659C102.502 196.989 104.5 198.194 105.98 199.806C107.318 201.263 108.015 202.909 108.004 204.641C107.994 206.317 107.322 207.772 106.505 208.918C105.507 210.318 104.137 211.48 102.826 212.346C103.143 213.019 103.479 213.753 103.836 214.537C103.926 214.734 104.018 214.935 104.111 215.138C105.033 217.155 106.158 219.589 107.631 222.448C108.683 224.151 109.747 225.789 110.764 227.352C112.604 230.182 114.287 232.772 115.463 235.083C115.958 236.056 115.735 237.242 114.919 237.969L106.168 245.768C116.525 244.551 126.421 241.94 135.81 237.897C149.546 232.07 160.925 223.556 169.632 212.289C169.702 212.198 169.772 212.107 169.842 212.016C178.324 200.943 182.72 187.988 183.291 173.606C183.291 166.343 182.261 156.385 181.745 152.314C180.843 147.683 179.544 143.313 177.804 139.241C175.687 134.176 172.961 129.562 169.632 125.438C166.941 122.103 163.856 119.089 160.382 116.413C152.899 110.448 143.784 105.871 133.35 102.465C123.442 99.1652 112.079 96.3651 99.3248 94.0243C90.2361 92.244 82.6318 90.308 76.4355 88.252C70.9992 86.258 67.5088 83.9785 65.3383 81.778C63.9191 80.0103 62.9532 77.6077 62.9532 73.8448C62.9532 71.1379 63.6984 69.0871 65.164 67.2308C66.6748 65.3171 69.3006 63.2691 73.8705 61.5266C78.4676 59.8514 84.5944 58.8291 92.5537 58.8291C96.628 58.8291 101.311 59.5359 106.667 61.1428L106.835 61.1931L107.004 61.2383C112.546 62.7162 117.77 64.6447 122.691 67.0139L122.847 67.089L123.005 67.1593C127.923 69.3449 131.291 71.4794 133.482 73.3957L133.804 73.6776L134.146 73.9345C138.595 77.2713 143.78 78.9995 149.341 78.9995C157.297 78.9995 164.209 75.8068 169.632 70.2506V33.8142C169.632 32.1237 169.752 30.4634 169.995 28.8412C168.561 27.2729 166.976 25.8021 165.264 24.4309C156.713 17.1451 146.016 11.5085 133.558 7.269C120.838 2.66024 107.134 0.42099 92.5537 0.42099C76.9404 0.42099 62.3859 3.14179 49.0454 8.75883C35.5305 14.4493 24.4244 22.9082 16.0792 34.1988L16.0313 34.2636L15.9843 34.3291C7.57358 46.0531 3.61414 59.9392 3.61414 75.3964C3.61414 85.5357 5.26806 95.0627 8.77127 103.821L8.79243 103.874L8.81428 103.927C12.321 112.443 17.4665 119.956 24.162 126.403L24.3161 126.552L24.4758 126.694C31.3748 132.854 39.6528 137.829 49.1026 141.748L49.2127 141.793L49.3239 141.837C58.7633 145.52 69.4466 148.187 81.2691 149.939L81.2712 149.939L81.3128 149.945L81.3549 149.951C92.5924 151.528 101.332 153.73 107.835 156.366L107.959 156.416L108.083 156.464C114.675 158.958 118.48 161.683 120.545 164.092C122.35 166.199 123.396 168.785 123.396 172.525C123.396 174.449 122.789 176.346 120.721 178.561C118.17 181.078 114.522 183.452 109.395 185.455C104.381 187.213 98.6988 188.161 92.2434 188.161C81.929 188.161 73.9197 186.656 67.8417 184.107C61.3454 181.291 54.4911 177.042 47.2921 171.169L47.2506 171.135L47.2077 171.101C42.1144 167.026 36.1012 164.888 29.5599 164.888C21.2971 164.888 13.954 168.012 8.2671 174.034L8.25363 174.048C2.99346 179.637 0.200684 186.546 0.200684 194.247C0.200684 199.106 1.4297 203.731 3.57229 208.016C4.05158 208.975 4.57283 209.905 5.13402 210.805C5.4165 210.088 5.81508 209.44 6.3282 208.872C7.45126 207.627 8.92018 206.988 10.2928 206.676C11.9427 206.301 13.7087 206.338 15.2463 206.555C15.9981 203.43 17.2129 198.64 18.4773 193.725C19.9205 188.114 21.4408 182.293 22.442 178.487C22.6971 177.518 23.527 176.808 24.5246 176.706L42.093 174.92C42.8243 174.846 43.5495 175.11 44.0616 175.638C44.5738 176.165 44.8165 176.898 44.7207 177.626C44.1955 181.622 43.4754 186.72 42.6367 192.146C41.4468 199.842 40.0128 208.231 38.5516 215.075C37.822 218.492 37.0768 221.567 36.3414 223.993C35.9742 225.204 35.5978 226.293 35.2124 227.2C34.8483 228.057 34.3969 228.947 33.8155 229.606C32.891 230.656 31.8493 231.588 30.7422 232.324C36.845 235.836 43.1531 238.655 49.6672 240.749L49.7554 240.777ZM148.494 140.29C148.668 145.14 146.699 152.205 141.748 162.007C142.942 163.4 144.193 164.63 145.389 165.695C146.414 165.146 147.518 164.781 148.636 164.571C151.143 164.101 153.819 164.38 156.197 165.137C158.565 165.891 160.831 167.183 162.421 168.938C166.227 173.139 166.919 178.932 164.119 183.868C164.845 185.185 165.414 186.499 165.841 187.825C167.682 193.538 166.737 199.038 165.282 204.932C163.404 212.541 157.217 216.567 151.499 217.581C148.646 218.087 145.721 217.886 143.324 216.859C140.884 215.813 138.84 213.811 138.433 210.822C138.122 208.543 138.267 206.615 138.856 205.013C139.459 203.373 140.478 202.214 141.657 201.442C143.802 200.036 146.316 200.04 147.24 200.042L147.322 200.042C149.173 200.042 150.927 200.858 152.277 201.943C153.645 203.042 154.817 204.585 155.401 206.371C155.869 207.802 155.96 209.41 155.44 210.996C157.83 209.474 159.796 207.089 160.612 203.78C162.044 197.979 162.659 193.634 161.263 189.3C161.117 188.846 160.947 188.387 160.751 187.923C156.921 191.232 151.026 193.403 143.223 193.635C138.854 193.764 135.519 192.459 133.408 189.772C131.391 187.204 130.857 183.819 130.983 180.535C131.214 174.525 133.709 167.561 136.085 162.566C132.754 157.852 130.743 152.373 130.12 147.44C129.605 143.361 130.263 139.515 132.09 136.6C133.962 133.614 137.014 131.716 140.816 131.716C142.777 131.716 144.749 132.352 146.234 133.948C147.689 135.512 148.402 137.704 148.494 140.29Z" fill="white"/>
<path d="M214.341 150.648C214.929 152.538 217.229 156.261 221.731 156.035C226.233 155.81 229.455 156.482 230.504 156.846C230.414 155.165 228.901 151.792 223.574 151.746C218.246 151.7 215.199 150.995 214.341 150.648Z" fill="#FEAA00"/>
<path d="M191.696 168.392C191.903 166.944 193.203 163.776 196.742 162.681C201.164 161.313 202.197 157.183 202.208 153.624C201.669 154.896 199.552 157.644 195.397 158.457C191.242 159.271 191.198 165.419 191.696 168.392Z" fill="#FEAA00"/>
<path d="M209.185 173.701C208.648 172.938 208.045 171.604 209.929 172.368C211.812 173.132 214.378 172.053 215.426 171.418C215.984 170.842 217.102 170.105 217.106 171.759C217.109 173.827 212.304 176.091 209.185 173.701Z" fill="#FEAA00"/>
<path d="M227.987 184.198C226.636 181.804 222.346 177.583 215.991 179.853C209.638 182.123 208.996 187.486 208.712 189.865C208.651 190.375 208.606 190.747 208.525 190.923C211.296 186.428 212.118 185.935 215.99 183.611C216.157 183.51 216.331 183.406 216.51 183.298C219.988 181.206 225.611 183.027 227.987 184.198Z" fill="#FEAA00"/>
<path d="M136.166 139.155C135.064 140.913 134.48 143.575 134.892 146.837C135.324 150.259 136.566 154.056 138.58 157.548C142.534 149.258 143.806 143.784 143.687 140.462C143.621 138.614 143.135 137.679 142.712 137.224C142.319 136.801 141.732 136.526 140.816 136.526C138.79 136.527 137.224 137.467 136.166 139.155Z" fill="white"/>
<path d="M139.5 166.685C137.613 171.071 135.958 176.342 135.79 180.72C135.683 183.495 136.189 185.526 137.191 186.801C138.1 187.958 139.763 188.925 143.081 188.827C150.742 188.599 155.598 186.342 158.274 183.656C156.175 180.805 153.005 177.672 148.304 174.063C148.136 173.934 147.885 173.754 147.566 173.525L147.562 173.523C147.062 173.165 146.395 172.687 145.616 172.095C145.078 173.251 144.782 174.968 145.154 177.491C145.421 179.303 146.466 180.286 147.22 180.555C147.578 180.683 147.838 180.651 148.018 180.574C148.189 180.499 148.52 180.283 148.828 179.61C149.38 178.402 150.807 177.871 152.015 178.423C153.223 178.976 153.754 180.403 153.202 181.611C152.488 183.171 151.372 184.364 149.925 184.989C148.487 185.611 146.955 185.568 145.603 185.085C142.937 184.133 140.883 181.499 140.396 178.192C139.844 174.45 140.352 171.346 141.849 168.975C141.078 168.274 140.286 167.51 139.5 166.685Z" fill="white"/>
<path d="M154.737 169.72C153.103 169.199 151.375 169.024 149.857 169.243C149.964 169.321 150.067 169.395 150.167 169.467L150.284 169.552C150.67 169.83 150.991 170.062 151.233 170.248C155.317 173.383 158.472 176.306 160.843 179.145C161.376 176.692 160.682 174.183 158.856 172.168C157.967 171.186 156.505 170.283 154.737 169.72Z" fill="white"/>
<path fill-rule="evenodd" clip-rule="evenodd" d="M178.39 49.6403C178.39 57.4656 175.25 64.3088 170.013 69.8536C169.887 69.9872 169.76 70.1195 169.632 70.2506V125.438C172.961 129.562 175.687 134.176 177.804 139.241C179.544 143.313 180.843 147.683 181.745 152.314C182.261 156.385 183.291 166.343 183.291 173.606C182.72 187.988 178.324 200.943 169.842 212.016C169.772 212.107 169.702 212.198 169.632 212.289V213.176C169.632 221.294 172.392 228.683 178.009 234.63L178.232 234.866L178.468 235.089C184.415 240.706 191.804 243.466 199.923 243.466H240.301C237.268 237.499 234.535 227.271 238.002 215.025C240.112 209.289 245.763 196.573 253.566 185.058H239.352L237.551 185.064C234.857 191.27 229.797 200.083 224.833 202.192C218.841 204.739 211.225 199.221 207.74 196.697C207.024 196.179 206.482 195.786 206.165 195.616C204.305 194.62 202.012 192.71 197.665 188.734C194.186 185.553 188.279 173.01 185.76 167.137L181.924 151.51C182.054 151.88 182.289 151.336 182.177 146.199C182.066 141.063 187.859 141.579 190.769 142.48C194.313 143.763 201.984 141.313 207.456 139.565C209.993 138.754 212.057 138.095 213.017 138.029C214.759 137.909 218.564 136.168 221.999 134.596L222 134.596C224.546 133.431 226.889 132.359 228.037 132.109C230.194 131.64 232.308 135.28 233.095 137.158L236.47 150.372H289.914C297.625 150.372 304.877 148.078 310.774 142.875L310.78 142.869L310.805 142.847C313.287 140.642 315.279 138.149 316.779 135.427V107.577C315.339 104.933 313.436 102.498 311.055 100.333C305.255 94.6574 297.92 91.9637 289.914 91.9637H231.144V61.9321H303.878C308.389 61.9321 312.753 61.1377 316.779 59.4369V33.5037C316.779 25.3535 319.81 18.1084 325.49 12.331C325.335 12.184 325.178 12.038 325.019 11.8933C319.22 6.21773 311.885 3.52403 303.878 3.52403H199.923C191.603 3.52403 184.14 6.53202 178.235 12.4372C173.617 17.0557 170.919 22.6723 169.995 28.8412C175.189 34.5222 178.39 41.484 178.39 49.6403ZM208.481 190.995C208.497 190.976 208.511 190.953 208.525 190.923L208.481 190.995Z" fill="#FEAA00"/>
</svg>
