<svg width="600" height="219" viewBox="0 0 600 219" fill="none" xmlns="http://www.w3.org/2000/svg">
<path d="M169.183 141.322C169.451 142.318 170.584 144.213 172.976 143.82C171.444 145.278 168.541 146.819 169.183 141.322Z" fill="#FEAA00"/>
<path d="M172.976 132.943C171.21 128.404 167.275 127.361 165.529 127.407C166.747 126.492 169.761 125.101 172.072 126.858C174.382 128.615 173.637 131.647 172.976 132.943Z" fill="#FEAA00"/>
<path d="M187.949 136.878C185.386 135.414 182.428 136.848 181.268 137.747C186.979 137.747 189.138 141.347 189.504 143.146C190.053 141.667 190.511 138.342 187.949 136.878Z" fill="#FEAA00"/>
<path d="M162.052 140.63C162.662 140.172 164.046 139.587 164.705 140.904C164.766 139.135 164.321 136.604 162.052 140.63Z" fill="#FEAA00"/>
<path d="M178.203 148.728C178.767 148.789 179.768 149.277 179.255 150.742C180.353 149.704 181.68 147.85 178.203 148.728Z" fill="#FEAA00"/>
<path d="M177.288 149.918C165.941 152.297 163.531 145.48 163.744 141.774C159.938 147.74 162.433 151.55 164.156 152.709C169.976 156.662 175.336 152.496 177.288 149.918Z" fill="#FEAA00"/>
<path fill-rule="evenodd" clip-rule="evenodd" d="M384.289 152.481L384.266 152.467C383.46 152 382.669 151.517 381.892 151.018C381.953 150.848 382.007 150.668 382.054 150.478C382.197 149.908 381.17 148.903 380.616 148.708C380.199 148.56 379.838 148.339 379.72 148.063C371.859 129.716 379.79 121.725 385.991 115.477C387.559 113.897 389.016 112.429 390.08 110.933C393.073 106.722 387.675 100.294 381.209 100.382C380.899 100.386 380.649 100.636 380.622 100.946C379.866 109.485 379.184 112.959 377.503 115.842C377.387 116.04 377.17 116.157 376.941 116.133C373.909 115.816 367.634 113.316 363.118 105.48C362.825 104.971 362.1 105.076 362.049 105.661C361.893 107.462 361.984 109.925 362.919 111.438L362.937 111.468C364.248 113.591 365.773 116.062 373.575 119.636C373.961 119.813 374.072 120.31 373.795 120.63L373.737 120.696C373.385 121.103 373.012 121.533 372.617 121.994C367.805 127.608 366.235 136.001 368.264 139.048C365.758 136.063 363.514 132.809 361.536 129.292L361.514 129.253L361.493 129.215C356.058 119.277 353.444 108.028 353.444 95.6738V21.8952C353.444 16.4621 355.404 11.5678 359.374 7.77953C363.356 3.83849 368.421 2.0012 373.95 2.0012C379.204 2.0012 383.779 4.11741 387.436 7.71099C391.535 11.4527 393.64 16.36 393.64 21.8952V95.6738C393.64 101.351 394.813 105.916 396.889 109.619C399.235 113.422 402.176 116.273 405.737 118.317C409.542 120.423 413.45 121.433 417.565 121.433C422.197 121.433 426.409 120.369 430.321 118.254C434.202 116.157 437.334 113.249 439.784 109.428C442.056 105.757 443.324 101.266 443.324 95.6738V21.8952C443.324 16.8651 444.809 12.1325 448.179 8.27271C451.798 3.97951 456.764 2.0012 462.199 2.0012C467.634 2.0012 472.558 3.97052 476.264 8.09416C479.845 11.9388 481.481 16.7329 481.481 21.8952V95.6738C481.481 108.046 478.791 119.31 473.208 129.253C467.812 139.103 460.271 146.887 450.66 152.467C447.562 154.266 444.323 155.766 440.949 156.975C440.31 155.914 439.494 155.402 438.66 154.879C438.315 154.663 437.968 154.445 437.628 154.185C437.345 153.969 437.122 153.692 437.001 153.35C436.882 153.011 436.886 152.673 436.952 152.368C437.076 151.793 437.438 151.243 437.809 150.774C438.193 150.288 438.672 149.785 439.132 149.309L439.3 149.135C439.449 148.982 439.595 148.83 439.737 148.681C439.645 148.627 439.552 148.571 439.46 148.516C439.23 148.376 438.999 148.233 438.797 148.106C437.699 149.163 436.787 150.189 436.236 151.153C435.615 152.237 435.537 153.08 435.944 153.8C436.535 154.845 437.21 155.291 437.975 155.797L438.054 155.848C438.633 156.231 439.254 156.658 439.777 157.382C432.938 159.676 425.562 160.799 417.714 160.813C417.74 160.754 417.765 160.695 417.79 160.636C418.045 160.037 418.294 159.317 418.537 158.516C419.023 156.911 419.516 154.878 419.998 152.618C420.965 148.092 421.913 142.544 422.7 137.454C423.255 133.866 423.731 130.494 424.078 127.852C424.141 127.373 423.982 126.892 423.645 126.545C423.309 126.199 422.833 126.026 422.352 126.074L410.733 127.256C410.078 127.322 409.533 127.788 409.365 128.425C408.703 130.942 407.698 134.792 406.743 138.503C405.906 141.759 405.101 144.932 404.604 146.998C403.586 146.854 402.415 146.828 401.322 147.077C400.415 147.283 399.446 147.705 398.706 148.525C397.94 149.374 397.561 150.49 397.58 151.796C397.602 153.242 398.058 154.71 399.442 155.353C400.698 155.937 402.035 155.49 402.944 154.992C403.932 154.45 404.882 153.603 405.643 152.639C406.386 151.698 407.02 150.554 407.304 149.336C407.329 149.255 407.347 149.174 407.358 149.093C407.707 147.531 408.572 144.089 409.537 140.324L419.251 139.053C418.54 143.505 417.728 148.12 416.909 151.959C416.472 154.006 416.037 155.809 415.621 157.239C414.764 156.528 413.7 156.12 412.668 155.988C411.506 155.84 410.198 156.021 409.138 156.738C408.056 157.471 407.39 158.662 407.377 160.153C399.06 159.04 391.345 156.513 384.31 152.493L384.289 152.481ZM364.878 92.5262C365.241 91.2418 365.5 89.2566 365.64 87.7873C365.68 87.3673 366.109 87.0957 366.505 87.2402C371.754 89.1532 375.581 89.8561 377.928 90.2874C379.587 90.5922 380.508 90.7613 380.669 91.1261C380.962 91.7855 380.445 94.8536 380.072 96.7051C380.012 97.004 379.747 97.2131 379.443 97.2347C376.27 97.4607 367.888 100.014 363.185 101.562C362.761 101.701 362.334 101.371 362.396 100.93C362.657 99.0545 363.359 97.0623 363.828 95.9504C363.928 95.7117 364.17 95.567 364.428 95.5805L367.961 95.765C368.743 95.8058 368.886 94.6693 368.119 94.5146L365.64 94.0147C365.112 93.9083 364.732 93.0442 364.878 92.5262ZM385.922 116.64C382.229 120.796 377.984 127.057 377.984 131.621C377.984 138.444 378.882 147.995 381.758 147.483C381.808 147.475 381.858 147.456 381.902 147.431C382.644 147.005 382.609 146.186 382.275 144.078C381.835 141.291 379.91 129.055 384.747 120.86L386.742 117.255C387.088 116.629 386.397 116.106 385.922 116.64ZM467.785 113.54C461.703 110.491 456.062 106.298 453.478 104.202C455.617 102.117 459.415 101.685 462.653 103.182C464.384 103.982 465.902 105.32 466.85 107.194C467.684 108.843 468.098 110.948 467.785 113.54ZM467.785 115.372C460.78 111.986 454.251 107 451.866 105.004C450.904 104.628 450.117 104.994 449.614 105.588C449.346 105.904 449.194 106.252 449.153 106.523C449.132 106.656 449.142 106.747 449.156 106.8C449.169 106.846 449.182 106.857 449.186 106.86C450.925 108.341 453.938 110.69 457.296 112.9C460.562 115.049 464.096 117.025 467.08 117.972C467.557 117.719 467.808 117.358 467.918 116.955C468.036 116.52 468.003 115.97 467.785 115.372ZM456.393 114.273C459.456 116.289 462.855 118.226 465.896 119.307C464.928 120.639 462.86 122.496 459.218 122.942C458.088 122.633 456.274 121.846 454.513 120.753C452.662 119.605 451.011 118.205 450.24 116.804L450.22 116.766L450.195 116.731C449.367 115.537 448.897 113.933 448.779 112.279C448.694 111.082 448.797 109.903 449.052 108.888C450.878 110.38 453.51 112.376 456.393 114.273ZM457.939 124.259C456.695 123.815 455.136 123.075 453.646 122.15C452.142 121.217 450.621 120.043 449.562 118.723C449.235 119.298 448.883 119.948 448.517 120.635L448.181 121.266C447.77 122.039 447.348 122.833 446.934 123.576C449.137 125.778 451.431 127.299 455.255 128.555C455.679 127.862 456.104 127.194 456.513 126.552C457.023 125.749 457.509 124.986 457.939 124.259ZM446.095 125.056C448.318 127.205 450.707 128.745 454.397 130.001C453.257 131.987 452.201 134.084 451.192 136.106L450.96 136.572C449.88 138.739 448.854 140.797 447.818 142.565C446.701 144.47 445.618 145.956 444.514 146.858C443.444 147.731 442.423 148.009 441.31 147.663C441.303 147.66 441.273 147.649 441.216 147.621C441.151 147.59 441.069 147.548 440.973 147.495C440.78 147.389 440.55 147.254 440.312 147.11C439.921 146.873 439.53 146.625 439.279 146.465L439.135 146.374C438.586 146.028 438.237 145.224 438.349 143.659C438.458 142.139 438.99 140.179 439.817 137.967C441.345 133.876 443.806 129.114 446.095 125.056Z" fill="#EB2D34"/>
<path d="M368.802 139.68C368.979 139.885 369.157 140.088 369.337 140.291C369.167 140.083 368.988 139.879 368.802 139.68Z" fill="#FEAA00"/>
<path fill-rule="evenodd" clip-rule="evenodd" d="M561.158 41.6051L561.128 41.5982C558.191 40.9204 555.02 40.5664 551.596 40.5664C545.056 40.5664 539.428 41.5927 534.599 43.4972C529.873 45.4145 525.902 48.1335 522.596 51.6595L522.556 51.7027L522.515 51.7449C519.216 55.1536 516.634 59.2608 514.798 64.1679C513.088 69.0993 512.182 74.6852 512.182 80.9997C512.182 88.585 513.237 94.8324 515.14 99.9001C517.241 105.127 520.007 109.282 523.361 112.527C526.765 115.821 530.778 118.315 535.485 120.007C540.334 121.613 545.687 122.452 551.596 122.452C554.802 122.452 558.015 122.156 561.243 121.558C564.167 121.016 566.999 120.041 569.758 118.606L569.874 118.545L569.992 118.489C573.972 116.594 578.246 115.764 582.637 116.417C587.529 117.122 591.565 119.641 594.547 123.457C598.381 128.268 600.19 134.007 598.85 140.192C598.021 144.381 595.96 147.83 592.926 150.403C592.177 149.121 591.408 147.899 590.654 146.834C589.739 145.542 588.87 144.518 588.106 143.895C585.938 142.128 585.096 140.591 584.571 139.331C584.462 139.068 584.374 138.84 584.295 138.634L584.294 138.632C584.176 138.324 584.076 138.063 583.948 137.802C583.756 137.413 583.544 137.127 583.208 136.895C582.888 136.673 582.095 136.233 580.974 135.647C579.868 135.07 578.481 134.37 577.001 133.636C574.229 132.261 571.142 130.77 568.993 129.744L556.857 142.944C558.858 144.437 561.634 146.585 564.086 148.643C565.431 149.773 566.686 150.881 567.665 151.844C568.154 152.325 568.58 152.777 568.916 153.181C569.244 153.575 569.519 153.963 569.666 154.313C570.067 155.265 570.906 156.442 571.832 157.555C572.263 158.072 572.703 158.564 573.111 159C570.242 159.722 567.337 160.295 564.397 160.72C560.193 161.463 555.924 161.832 551.596 161.832C541.004 161.832 530.852 160.138 521.187 156.718L521.169 156.712L521.151 156.705L521.15 156.705C515.354 154.622 509.907 151.932 504.817 148.64C505.603 143.916 506.336 139.246 506.97 135.055C507.56 131.147 508.066 127.648 508.447 124.896C508.477 124.679 508.431 124.469 508.33 124.293C509.568 122.758 511.115 120.489 511.733 117.675C512.518 114.101 511.775 109.811 507.485 105.198C507.294 104.993 507.021 104.882 506.741 104.897C506.461 104.912 506.202 105.05 506.033 105.274C505.976 105.35 505.909 105.438 505.832 105.537C504.252 107.595 498.877 114.594 502.916 124.282C502.399 127.07 501.765 130.562 501.083 134.411C500.508 137.661 499.899 141.171 499.298 144.727C498.307 143.96 497.332 143.167 496.372 142.349C494.826 134.217 492.688 124.185 490.852 115.87C490.009 112.054 489.228 108.592 488.595 105.829C490.452 100.894 490.979 96.9369 490.85 93.9591C490.721 90.9582 489.921 88.8844 489.075 87.852C488.915 87.6565 488.683 87.5331 488.431 87.5091C488.18 87.4852 487.929 87.5628 487.735 87.7247C482.976 91.6927 481.25 95.7152 481.16 99.2128C481.089 102.015 482.072 104.382 483.224 106C483.102 106.193 483.05 106.431 483.094 106.673C483.591 109.407 484.243 112.882 484.998 116.761C486.018 122.005 487.229 128.001 488.5 133.905C481.938 125.876 478.372 118.932 477.269 115.917C472.865 105.586 470.764 93.8945 470.764 80.9997C470.764 69.6838 472.677 59.0859 476.596 49.2891L476.615 49.2413L476.635 49.1942C480.669 39.4819 486.317 31.0223 493.589 23.9014C500.973 16.6687 509.624 11.1106 519.468 7.2259C529.401 3.16992 540.138 1.18612 551.596 1.18612C558.146 1.18612 564.569 1.93101 570.852 3.42711C577.107 4.91639 583.029 7.08445 588.6 9.94157C594.188 12.7489 597.777 17.5356 598.707 23.7682C599.734 29.7209 598.152 35.2664 594.388 39.916C591.45 43.879 587.302 46.3666 582.279 46.8493C578.033 47.2701 573.912 46.3854 570.048 44.5558C567.299 43.2997 564.35 42.3145 561.187 41.6116L561.158 41.6051ZM556.225 141.764L554.686 136.135L560.395 130.771L567.191 129.838L556.225 141.764ZM559.201 130.159L558.098 129.06L557.46 131.794L559.201 130.159ZM556.954 128.399L555.799 133.355L554.024 135.023C553.838 134.81 553.63 134.578 553.416 134.347L554.73 130.791L556.954 128.399ZM552.436 133.354L552.495 133.193L552.387 133.31L552.418 133.338L552.436 133.354ZM513.35 143.591C512.34 149.75 516.308 149.628 518.419 148.798C519.538 148.131 520.411 146.902 521.358 145.568C522.731 143.635 524.259 141.483 526.917 140.505C528.511 140.221 531.362 140.495 530.019 143.865C528.676 147.234 530.224 149.073 531.166 149.571C537.297 151.033 537.413 144.411 536.704 140.918C536.375 139.264 536.445 135.971 539.353 136.033C541.804 136.086 542.306 134.666 542.862 133.098C543.13 132.34 543.411 131.548 543.929 130.87C544.901 129.601 546.387 129.847 547.817 130.083C548.732 130.234 549.623 130.381 550.343 130.128C552.191 129.476 551.695 126.933 548.274 126.093C544.853 125.253 541.931 127.02 539.083 130.348C536.236 133.677 533.763 134.357 530.449 134.452C527.798 134.528 524.36 135.889 522.973 136.56C515.797 139.455 513.568 142.453 513.35 143.591ZM535.43 125.138C535.146 125.933 534.228 127.709 532.819 128.45C532.151 128.801 531.608 129.247 531.123 129.646C530.585 130.088 530.117 130.472 529.625 130.609C528.117 131.027 526.243 130.61 526.32 127.916C526.422 124.35 530.315 124.679 532.249 125.289C532.885 125.599 534.412 126.004 535.43 125.138Z" fill="#76A485"/>
<path d="M577.093 157.884C576.998 157.915 576.902 157.946 576.807 157.977C576.59 157.993 576.371 157.896 576.239 157.704C576.042 157.416 576.116 157.022 576.404 156.826L585.051 150.914C585.339 150.717 585.732 150.791 585.929 151.079C586.126 151.367 586.052 151.76 585.764 151.957L577.117 157.869C577.109 157.874 577.101 157.879 577.093 157.884Z" fill="#76A485"/>
<path d="M485.125 107.244C485.556 109.596 486.087 112.419 486.689 115.528L488.777 115.264C488.082 112.132 487.437 109.269 486.89 106.878L485.125 107.244Z" fill="#76A485"/>
<path d="M505.228 133.895C505.698 130.762 506.11 127.92 506.442 125.551L504.662 125.26C504.217 127.672 503.693 130.56 503.131 133.719L505.228 133.895Z" fill="#76A485"/>
<path d="M577.754 147.781C578.089 147.686 578.284 147.337 578.189 147.001C578.094 146.665 577.744 146.471 577.409 146.566C576.815 146.734 576.214 147.212 575.669 147.753C575.104 148.314 574.518 149.026 573.958 149.777C572.838 151.281 571.782 152.999 571.149 154.124C570.978 154.428 571.086 154.813 571.39 154.984C571.695 155.155 572.08 155.047 572.251 154.743C572.864 153.651 573.892 151.982 574.972 150.532C575.512 149.806 576.056 149.149 576.559 148.65C577.083 148.13 577.49 147.856 577.754 147.781Z" fill="#76A485"/>
<path d="M578.166 151.863C578.442 151.649 578.493 151.252 578.28 150.976C578.066 150.7 577.669 150.65 577.393 150.863C576.209 151.778 574.706 153.553 574.112 154.308C573.896 154.582 573.943 154.979 574.217 155.195C574.492 155.411 574.889 155.363 575.105 155.089C575.694 154.34 577.116 152.675 578.166 151.863Z" fill="#76A485"/>
<path fill-rule="evenodd" clip-rule="evenodd" d="M273.801 119.476L273.697 119.416L273.593 119.352C271.171 117.862 269.032 116.034 267.245 113.85L266.957 113.498L246.853 81.7111V139.9C246.853 145.102 245.197 149.899 241.707 153.825L241.637 153.904L241.564 153.981C239.28 156.408 236.567 158.034 233.592 158.935C232.405 157.42 231.095 155.727 229.746 153.952C226.721 149.976 223.511 145.612 221.037 141.944C220.638 141.352 220.26 140.781 219.906 140.235C219.263 139.241 218.699 138.329 218.236 137.524C218.701 137.466 219.151 137.344 219.577 137.173C220.125 136.952 220.631 136.65 221.071 136.297C221.967 135.577 222.731 134.529 222.947 133.288C223.178 131.957 222.737 130.607 221.572 129.558C220.637 128.715 219.606 128.151 218.515 128.034C217.401 127.915 216.4 128.282 215.628 128.967C215.61 128.983 215.592 128.999 215.574 129.016C214.116 130.353 213.601 132.686 213.789 134.997C213.835 135.567 214.048 136.178 214.283 136.731C214.532 137.317 214.869 137.98 215.267 138.693C216.065 140.12 217.159 141.842 218.418 143.71C218.74 144.187 219.074 144.675 219.417 145.172C221.767 148.571 224.58 152.379 227.231 155.865C228.234 157.183 229.214 158.457 230.14 159.647C229.297 159.746 228.439 159.794 227.57 159.794C222.433 159.794 217.752 158.013 214.104 154.317C213.995 154.207 213.887 154.095 213.781 153.982L213.708 153.905L213.638 153.825C210.148 149.9 208.492 145.102 208.492 139.9V123.263V88.8363V70.5449V38.9275V21.8952C208.492 16.5423 210.482 11.7839 214.213 7.9894C214.257 7.94468 214.301 7.90009 214.345 7.85564L214.417 7.78405L214.49 7.7146C218.447 3.96575 223.337 2.0012 228.793 2.0012C232.058 2.0012 235.141 2.9131 237.961 4.37603C241.057 5.77747 243.828 7.86276 245.804 10.8267L245.828 10.8635L284.059 69.7051L323.526 10.7432L323.576 10.6724L323.576 10.6716C327.389 5.25262 332.886 2.0012 339.665 2.0012C344.884 2.0012 349.548 3.91657 353.404 7.36687C357.671 11.1847 359.763 16.2466 359.763 21.8952V139.9C359.763 145.232 357.95 150.085 354.261 153.991L354.188 154.068L354.113 154.144C352.581 155.676 350.877 156.871 349.048 157.759C349.982 156.175 350.504 154.049 350.3 151.246C349.543 140.826 350.616 130.881 351.248 127.21C354.487 121.426 353.55 116.348 352.196 113.511C351.936 112.968 351.248 113.176 351.248 113.778V118.848C351.248 119.397 350.595 119.685 350.19 119.314L345.323 114.869C344.982 114.558 345.076 113.993 345.486 113.781C347.305 112.842 350.049 110.973 351.192 108.548C351.229 108.468 351.248 108.38 351.248 108.291V106.506C351.248 105.999 350.678 105.696 350.253 105.972C347.744 107.599 343.723 109.951 341.725 110.211C341.537 110.236 341.358 110.152 341.237 110.005C339.841 108.323 337.548 105.187 336.744 102.842C336.562 102.308 335.819 102.078 335.551 102.574C334.694 104.152 334.185 106.721 335.805 109.799C336.048 110.26 335.704 110.923 335.223 111.122C333.837 111.697 332.183 113.427 331.735 117.503C331.675 118.048 332.318 118.382 332.773 118.077C334.509 116.915 337.223 115.584 339.581 115.929C339.705 115.947 339.819 116.008 339.908 116.095L351.248 127.21C350.309 132.133 347.17 142.888 342.122 146.525C338.305 149.275 334.89 146.212 332.785 142.946C332.405 142.357 331.316 142.647 331.372 143.347C332.073 152.141 334.353 157.118 336.368 159.574C332.197 159.004 328.357 157.306 325.167 154.293L325.011 154.146L324.865 153.991C321.176 150.085 319.363 145.232 319.363 139.9V82.8379L299.22 113.546L298.972 113.85C297.123 116.11 294.86 117.948 292.312 119.418C289.517 121.112 286.372 122.025 283.017 121.897C279.653 122.03 276.536 121.039 273.801 119.476ZM351.417 97.3939C348.766 97.6669 344.076 97.5275 340.705 95.4102C340.269 95.1363 339.633 95.4035 339.527 95.9076C339.29 97.0446 338.802 98.5062 337.926 99.6053C337.695 99.8948 337.7 100.323 337.993 100.549C340.35 102.361 345.513 104.928 351.259 103.586C351.519 103.525 351.706 103.301 351.729 103.035L352.149 98.0952C352.183 97.686 351.825 97.3518 351.417 97.3939ZM229.917 131.288C230.092 131.738 230.463 132.083 230.925 132.225C231.386 132.367 231.887 132.29 232.285 132.017L241.66 125.562C242.203 125.189 242.457 124.518 242.297 123.879C241.684 121.418 240.739 117.657 239.815 114.039C239.01 110.883 238.216 107.811 237.672 105.812C238.604 105.457 239.606 104.931 240.418 104.212C241.1 103.607 241.737 102.786 241.987 101.727C242.247 100.632 242.045 99.4898 241.412 98.3756C240.713 97.1456 239.624 96.0875 238.117 96.1882C236.751 96.2794 235.808 97.3011 235.263 98.1568C234.669 99.0881 234.252 100.262 234.053 101.447C233.858 102.603 233.852 103.884 234.182 105.064C234.199 105.146 234.222 105.225 234.25 105.301C234.683 106.794 235.554 110.127 236.49 113.785L228.851 119.376C227.378 115.253 225.917 110.951 224.823 107.303C224.245 105.376 223.777 103.654 223.464 102.249C224.518 102.44 225.603 102.288 226.535 101.921C227.604 101.501 228.646 100.728 229.221 99.6064C229.837 98.4048 229.818 96.9851 229.018 95.6365C228.376 94.5541 227.559 93.7086 226.552 93.2723C225.501 92.8166 224.41 92.883 223.453 93.3344C221.663 94.1779 220.477 96.2513 219.969 98.5144C219.844 99.0722 219.865 99.7185 219.925 100.316C219.989 100.95 220.113 101.683 220.282 102.482C220.618 104.082 221.15 106.052 221.797 108.21C223.093 112.531 224.882 117.717 226.595 122.436C227.803 125.762 228.976 128.867 229.917 131.288Z" fill="#FECD20"/>
<path d="M177.981 159.794H200.018C205.18 159.794 209.974 158.158 213.819 154.578C213.915 154.491 214.01 154.404 214.104 154.317C213.995 154.207 213.887 154.095 213.781 153.982L213.708 153.905L213.638 153.825C210.148 149.9 208.492 145.102 208.492 139.9V123.263C205.899 122.04 203.042 121.433 200.018 121.433H184.708C189.707 125.07 196.287 128.299 204.353 129.464C204.603 129.5 204.753 129.765 204.636 129.989C200.376 138.224 189.73 154.904 179.285 159.266C178.844 159.45 178.409 159.626 177.981 159.794Z" fill="#FEAA00"/>
<path fill-rule="evenodd" clip-rule="evenodd" d="M14.9554 145.228C14.1249 145.79 13.5408 146.624 13.3106 147.655C11.7466 146.49 10.2049 145.252 8.68536 143.942C8.59563 143.866 8.5065 143.789 8.41798 143.712C8.55793 143.648 8.69105 143.58 8.81599 143.512C9.79845 142.973 10.7436 142.131 11.5003 141.172C12.2384 140.237 12.8692 139.1 13.1514 137.889C13.1761 137.808 13.194 137.727 13.2055 137.646C13.5512 136.096 14.4091 132.682 15.367 128.946L24.9914 127.687C24.286 132.104 23.4808 136.681 22.668 140.488C22.2356 142.513 21.8059 144.298 21.3936 145.714C20.5438 145.013 19.4901 144.611 18.4689 144.48C17.3126 144.333 16.011 144.513 14.9554 145.228Z" fill="white"/>
<path d="M141.212 98.8332C141.598 100.074 143.109 102.519 146.066 102.371C149.023 102.223 151.139 102.665 151.828 102.904C151.769 101.8 150.775 99.5847 147.276 99.5546C143.777 99.5244 141.776 99.0611 141.212 98.8332Z" fill="#FEAA00"/>
<path d="M126.339 110.487C126.476 109.536 127.33 107.455 129.653 106.736C132.558 105.838 133.237 103.126 133.244 100.787C132.89 101.623 131.499 103.428 128.771 103.962C126.042 104.497 126.013 108.535 126.339 110.487Z" fill="#FEAA00"/>
<path d="M137.826 113.974C137.474 113.473 137.078 112.597 138.315 113.098C139.551 113.6 141.237 112.892 141.925 112.474C142.292 112.096 143.026 111.612 143.028 112.698C143.031 114.057 139.874 115.543 137.826 113.974Z" fill="#FEAA00"/>
<path d="M150.175 120.868C149.288 119.296 146.47 116.523 142.296 118.015C138.124 119.506 137.702 123.028 137.515 124.59C137.475 124.925 137.446 125.17 137.393 125.285C139.213 122.333 139.752 122.009 142.295 120.482C142.405 120.416 142.519 120.348 142.637 120.277C144.921 118.903 148.614 120.099 150.175 120.868Z" fill="#FEAA00"/>
<path d="M89.8686 91.2847C89.1449 92.4392 88.7616 94.1881 89.0321 96.3301C89.316 98.5774 90.1315 101.072 91.454 103.365C94.0512 97.92 94.8867 94.325 94.8086 92.1433C94.7651 90.9293 94.4459 90.3153 94.1681 90.0167C93.9096 89.7388 93.5246 89.5584 92.9224 89.5584C91.5921 89.5585 90.5634 90.1764 89.8686 91.2847Z" fill="white"/>
<path d="M92.0581 109.366C90.819 112.247 89.7322 115.708 89.6216 118.584C89.5515 120.407 89.8838 121.74 90.5417 122.578C91.1386 123.338 92.2313 123.973 94.4101 123.908C99.4419 123.759 102.631 122.276 104.389 120.512C103.01 118.64 100.928 116.582 97.8405 114.212C97.7304 114.127 97.5654 114.009 97.3559 113.859L97.3535 113.857C97.0252 113.622 96.5871 113.308 96.0756 112.919C95.7218 113.678 95.5277 114.806 95.7719 116.463C95.9474 117.653 96.6333 118.299 97.1289 118.476C97.3642 118.56 97.5345 118.539 97.6525 118.488C97.7655 118.439 97.9824 118.297 98.1845 117.855C98.5474 117.062 99.4847 116.713 100.278 117.075C101.071 117.438 101.42 118.376 101.057 119.169C100.589 120.193 99.8557 120.977 98.9056 121.388C97.9606 121.796 96.9548 121.768 96.0668 121.451C94.3158 120.826 92.9667 119.095 92.6465 116.923C92.2843 114.466 92.6182 112.427 93.6014 110.87C93.0948 110.41 92.5745 109.908 92.0581 109.366Z" fill="white"/>
<path d="M102.066 111.359C100.992 111.017 99.8576 110.902 98.8609 111.046C98.9311 111.097 98.9988 111.146 99.0641 111.193L99.1413 111.249L99.1422 111.25L99.1432 111.25C99.3954 111.432 99.6059 111.584 99.7644 111.706C102.447 113.765 104.519 115.685 106.076 117.549C106.426 115.938 105.97 114.29 104.771 112.967C104.187 112.322 103.227 111.729 102.066 111.359Z" fill="white"/>
<path fill-rule="evenodd" clip-rule="evenodd" d="M117.601 32.4934C117.601 37.6329 115.538 42.1274 112.099 45.769C112.016 45.8568 111.933 45.9437 111.849 46.0298V82.2756C114.035 84.9845 115.825 88.0145 117.215 91.3413C118.358 94.0157 119.212 96.8855 119.804 99.9273C120.143 102.601 120.82 109.141 120.82 113.912C120.444 123.357 117.557 131.866 111.986 139.139C111.941 139.198 111.895 139.258 111.849 139.318V139.9C111.849 145.232 113.661 150.085 117.35 153.991L117.497 154.146L117.652 154.293C121.558 157.982 126.411 159.794 131.743 159.794H158.262C156.27 155.875 154.475 149.157 156.752 141.115C158.138 137.347 161.85 128.996 166.975 121.433H157.639L156.456 121.437C154.687 125.513 151.364 131.301 148.103 132.687C144.168 134.359 139.166 130.735 136.877 129.077C136.407 128.737 136.051 128.479 135.843 128.367C134.621 127.713 133.115 126.459 130.26 123.847C127.975 121.758 124.096 113.52 122.441 109.663L119.921 99.3991C120.007 99.6423 120.161 99.2853 120.088 95.9115C120.015 92.5376 123.82 92.8771 125.731 93.4686C128.058 94.3115 133.097 92.702 136.69 91.554C138.357 91.0218 139.712 90.5887 140.343 90.5453C141.487 90.4665 143.987 89.3228 146.243 88.2906C147.915 87.5254 149.454 86.8214 150.208 86.6574C151.625 86.3494 153.013 88.7397 153.529 89.9734L155.746 98.6518H190.847C195.912 98.6518 200.674 97.1455 204.548 93.728L204.552 93.7243L204.568 93.7099C206.198 92.2611 207.506 90.6239 208.492 88.8363V70.5449C207.546 68.8085 206.296 67.2094 204.732 65.7874C200.923 62.0597 196.106 60.2905 190.847 60.2905H152.248V40.5664H200.018C202.981 40.5664 205.847 40.0446 208.492 38.9275V21.8952C208.492 16.5423 210.482 11.7839 214.213 7.9894C214.111 7.89279 214.008 7.79696 213.903 7.70193C210.095 3.97429 205.277 2.20513 200.018 2.20513H131.743C126.279 2.20513 121.377 4.18072 117.499 8.05915C114.466 11.0925 112.693 14.7813 112.087 18.8329C115.498 22.5641 117.601 27.1365 117.601 32.4934ZM137.364 125.332C137.374 125.32 137.384 125.304 137.393 125.285L137.364 125.332Z" fill="#FEAA00"/>
<path fill-rule="evenodd" clip-rule="evenodd" d="M33.1159 158.028L33.1739 158.046C41.6073 160.606 50.915 161.832 61.0212 161.832C61.7894 161.832 62.5541 161.822 63.3153 161.8C62.8976 161.281 62.4335 160.715 61.9422 160.117L61.9389 160.113C61.7586 159.893 61.5745 159.668 61.3877 159.44C60.0023 157.748 58.4918 155.873 57.4595 154.278C54.6616 149.957 52.5349 146.205 51.0992 143.19C50.3817 141.683 49.827 140.34 49.4478 139.188C49.077 138.061 48.8395 137.016 48.8346 136.14C48.8215 133.78 49.5241 131.462 51.0977 130.223C51.939 129.561 52.9978 129.248 54.1374 129.459C55.2288 129.66 56.2278 130.308 57.1101 131.234C58.2061 132.383 58.5467 133.777 58.212 135.101C57.8996 136.337 57.0476 137.338 56.0862 137.997C55.1494 138.639 53.9627 139.06 52.7397 139.023C53.0468 139.839 53.4493 140.777 53.9515 141.832C55.3114 144.688 57.3633 148.317 60.1114 152.561C61.0321 153.983 62.4285 155.724 63.8322 157.439C64.0138 157.661 64.1962 157.883 64.3779 158.104C65.0642 158.94 65.7397 159.763 66.3193 160.503L72.8781 154.658C72.2634 153.588 71.5214 152.449 70.6782 151.154C69.9852 150.09 69.2234 148.921 68.4066 147.597C68.3855 147.562 68.3656 147.527 68.3472 147.492C67.332 145.523 66.5596 143.853 65.9423 142.503L65.7769 142.141L65.7759 142.138L65.7755 142.137C65.2621 141.013 64.8861 140.19 64.5592 139.592C64.5153 139.525 64.4759 139.455 64.4416 139.38C63.8465 138.288 63.5606 137.019 63.4895 135.83C63.4167 134.611 63.5623 133.354 63.9371 132.298C64.2819 131.326 64.9798 130.108 66.3013 129.709C67.7586 129.269 69.0708 130.061 70.043 131.119C70.922 132.076 71.3798 133.157 71.3727 134.295C71.3657 135.396 70.9248 136.351 70.3882 137.104C69.7327 138.023 68.8324 138.786 67.9714 139.355C68.1801 139.797 68.4003 140.28 68.6351 140.794L68.8155 141.189C69.421 142.514 70.1603 144.112 71.1272 145.99C71.8185 147.109 72.5174 148.184 73.185 149.211C74.3934 151.07 75.499 152.771 76.2712 154.288C76.5967 154.928 76.4501 155.706 75.9144 156.184L70.1666 161.306C76.9689 160.507 83.4682 158.792 89.6346 156.136C98.6565 152.31 106.13 146.718 111.849 139.318C111.895 139.258 111.941 139.198 111.986 139.139C117.557 131.866 120.444 123.357 120.82 113.912C120.82 109.141 120.143 102.601 119.804 99.9273C119.212 96.8855 118.358 94.0157 117.215 91.3413C115.825 88.0145 114.035 84.9845 111.849 82.2756C110.081 80.0856 108.055 78.1056 105.773 76.3484C100.858 72.4309 94.8719 69.4249 88.019 67.1878C81.512 65.0203 74.0487 63.1813 65.6721 61.6439C59.7028 60.4746 54.7085 59.2031 50.6389 57.8528C47.0684 56.5432 44.776 55.046 43.3505 53.6008C42.4183 52.4398 41.784 50.8618 41.784 48.3904C41.784 46.6126 42.2734 45.2656 43.236 44.0464C44.2282 42.7896 45.9529 41.4445 48.9543 40.3001C51.9736 39.1998 55.9975 38.5284 61.225 38.5284C63.9009 38.5284 66.9763 38.9926 70.4942 40.048L70.6044 40.081L70.7157 40.1107C74.3557 41.0814 77.7867 42.3479 81.0185 43.904L81.1209 43.9533L81.2249 43.9995C84.4546 45.4349 86.6672 46.8368 88.1056 48.0954L88.3172 48.2806L88.5421 48.4493C91.4642 50.6408 94.8694 51.7759 98.5219 51.7759C103.747 51.7759 108.287 49.679 111.849 46.0298C111.933 45.9437 112.016 45.8568 112.099 45.769C115.538 42.1274 117.601 37.6329 117.601 32.4934C117.601 27.1365 115.498 22.5641 112.087 18.8329C111.145 17.8029 110.104 16.8369 108.979 15.9363C103.363 11.1512 96.3382 7.44914 88.1555 4.66475C79.8013 1.63781 70.8013 0.167114 61.225 0.167114C50.9705 0.167114 41.4114 1.95408 32.6496 5.64324C23.7733 9.38064 16.479 14.9363 10.9981 22.3517L10.9666 22.3942L10.9357 22.4373C5.41177 30.1374 2.81129 39.2575 2.81129 49.4095C2.81129 56.0687 3.89754 62.3259 6.19838 68.078L6.21228 68.1127L6.22663 68.1475C8.52975 73.7408 11.9093 78.6752 16.3067 82.9098L16.4079 83.0073L16.5128 83.1009C21.0439 87.1466 26.4808 90.4142 32.6872 92.9876L32.7595 93.0176L32.8325 93.0461C39.0321 95.4654 46.0487 97.2171 53.8135 98.3674L53.8149 98.3677L53.8422 98.3717L53.8699 98.3756C61.2504 99.4114 66.9901 100.857 71.2616 102.589L71.3426 102.622L71.4243 102.653C75.7536 104.291 78.2529 106.081 79.6091 107.663C80.7948 109.047 81.4813 110.745 81.4813 113.201C81.4813 114.465 81.0829 115.711 79.7247 117.166C78.0491 118.819 75.6531 120.378 72.286 121.694C68.9928 122.849 65.261 123.471 61.0212 123.471C54.2469 123.471 48.9866 122.483 44.9946 120.808C40.728 118.959 36.2263 116.168 31.4981 112.311L31.4708 112.289L31.4427 112.266C28.0975 109.59 24.1481 108.186 19.8519 108.186C14.4251 108.186 9.60229 110.238 5.86725 114.192L5.85841 114.202C2.40364 117.872 0.569397 122.411 0.569397 127.468C0.569397 130.66 1.37659 133.697 2.7838 136.512C3.09859 137.141 3.44093 137.752 3.80951 138.343C3.99504 137.872 4.25682 137.447 4.59382 137.073C5.33143 136.256 6.29618 135.836 7.19767 135.631C8.28129 135.385 9.44121 135.409 10.451 135.552C10.9448 133.5 11.7427 130.353 12.5731 127.125C13.521 123.44 14.5195 119.617 15.177 117.117C15.3446 116.481 15.8897 116.014 16.5448 115.948L28.0834 114.775C28.5637 114.726 29.04 114.899 29.3764 115.246C29.7127 115.592 29.8722 116.073 29.8093 116.552C29.4643 119.176 28.9914 122.525 28.4405 126.088C27.659 131.143 26.7172 136.652 25.7575 141.147C25.2783 143.392 24.7889 145.411 24.3059 147.005C24.0647 147.8 23.8175 148.516 23.5644 149.111C23.3253 149.674 23.0288 150.258 22.647 150.691C22.0397 151.381 21.3555 151.993 20.6284 152.477C24.6367 154.783 28.7797 156.635 33.058 158.01L33.1159 158.028ZM97.9657 92.0302C98.0798 95.216 96.7867 99.856 93.5348 106.294C94.319 107.208 95.1404 108.016 95.9263 108.716C96.5995 108.355 97.3246 108.116 98.0584 107.978C99.7051 107.669 101.463 107.852 103.025 108.349C104.58 108.845 106.068 109.693 107.113 110.846C109.612 113.605 110.067 117.41 108.228 120.651C108.705 121.516 109.078 122.38 109.359 123.25C110.567 127.003 109.947 130.614 108.992 134.486C107.758 139.483 103.695 142.128 99.9388 142.794C98.0655 143.126 96.144 142.994 94.57 142.319C92.9675 141.632 91.6251 140.317 91.3575 138.354C91.1534 136.857 91.2486 135.591 91.6355 134.539C92.0315 133.462 92.7007 132.7 93.4748 132.193C94.8838 131.27 96.5353 131.273 97.1421 131.274L97.1956 131.274C98.4117 131.274 99.5631 131.81 100.45 132.523C101.349 133.245 102.118 134.258 102.502 135.431C102.809 136.371 102.869 137.427 102.527 138.468C104.097 137.469 105.388 135.902 105.925 133.729C106.865 129.919 107.269 127.066 106.352 124.219C106.256 123.921 106.144 123.62 106.015 123.315C103.5 125.488 99.6287 126.914 94.5038 127.066C91.6342 127.151 89.4435 126.294 88.0573 124.529C86.7322 122.842 86.3819 120.619 86.4648 118.463C86.6166 114.515 88.2547 109.941 89.8154 106.661C87.6275 103.565 86.3071 99.9659 85.8979 96.7259C85.5596 94.0472 85.9916 91.5216 87.1919 89.6067C88.4214 87.6456 90.4257 86.3993 92.9224 86.3993C94.2106 86.3993 95.5059 86.8167 96.481 87.8648C97.4369 88.8921 97.9049 90.332 97.9657 92.0302Z" fill="white"/>
<path fill-rule="evenodd" clip-rule="evenodd" d="M89.8686 91.2847C89.1449 92.4392 88.7616 94.1881 89.0321 96.3301C89.316 98.5774 90.1315 101.072 91.454 103.365C94.0512 97.92 94.8867 94.325 94.8086 92.1433C94.7651 90.9293 94.4459 90.3153 94.1681 90.0167C93.9096 89.7388 93.5246 89.5584 92.9224 89.5584C91.5921 89.5585 90.5634 90.1764 89.8686 91.2847ZM92.0581 109.366C90.819 112.247 89.7322 115.708 89.6216 118.584C89.5515 120.407 89.8838 121.74 90.5417 122.578C91.1386 123.338 92.2313 123.973 94.4101 123.908C99.4419 123.759 102.631 122.276 104.389 120.512C103.01 118.64 100.928 116.582 97.8405 114.212C97.7304 114.127 97.5654 114.009 97.3559 113.859L97.3535 113.857C97.0252 113.622 96.5871 113.308 96.0756 112.919C95.7218 113.678 95.5277 114.806 95.7719 116.463C95.9474 117.653 96.6333 118.299 97.1289 118.476C97.3642 118.56 97.5345 118.539 97.6525 118.488C97.7655 118.439 97.9824 118.297 98.1845 117.855C98.5474 117.062 99.4847 116.713 100.278 117.075C101.071 117.438 101.42 118.376 101.057 119.169C100.589 120.193 99.8557 120.977 98.9056 121.388C97.9606 121.796 96.9548 121.768 96.0668 121.451C94.3158 120.826 92.9667 119.095 92.6465 116.923C92.2843 114.466 92.6182 112.427 93.6014 110.87C93.0948 110.41 92.5745 109.908 92.0581 109.366ZM102.066 111.359C100.992 111.017 99.8576 110.902 98.8609 111.046L99.0641 111.193L99.1413 111.249L99.1422 111.25L99.1432 111.25C99.3954 111.432 99.6059 111.584 99.7644 111.706C102.447 113.765 104.519 115.685 106.076 117.549C106.426 115.938 105.97 114.29 104.771 112.967C104.187 112.322 103.227 111.729 102.066 111.359Z" fill="white"/>
<path d="M13.3755 211.273C12.2532 211.273 11.1042 211.18 9.92849 210.993C8.77948 210.832 7.67056 210.592 6.60171 210.271C5.55959 209.951 4.62435 209.55 3.796 209.069C3.20813 208.748 2.79396 208.334 2.55347 207.826C2.31298 207.292 2.21945 206.757 2.27289 206.223C2.35306 205.689 2.55347 205.221 2.87412 204.82C3.22149 204.393 3.64903 204.125 4.15673 204.019C4.69115 203.885 5.27902 203.978 5.92032 204.299C7.01589 204.914 8.20498 205.368 9.48759 205.662C10.7969 205.956 12.0929 206.103 13.3755 206.103C15.3261 206.103 16.7156 205.809 17.544 205.221C18.3724 204.606 18.7865 203.845 18.7865 202.936C18.7865 202.161 18.4926 201.547 17.9047 201.093C17.3169 200.638 16.2881 200.251 14.8184 199.93L10.2892 198.968C7.724 198.434 5.81344 197.525 4.55755 196.243C3.32838 194.933 2.71379 193.223 2.71379 191.112C2.71379 189.776 2.99436 188.56 3.55551 187.465C4.11665 186.369 4.90492 185.421 5.92032 184.619C6.93573 183.817 8.13817 183.203 9.52767 182.775C10.9439 182.348 12.4937 182.134 14.1771 182.134C15.6735 182.134 17.1432 182.321 18.5861 182.695C20.0291 183.042 21.2983 183.564 22.3939 184.258C22.9283 184.579 23.289 184.993 23.4761 185.501C23.6899 185.982 23.7567 186.476 23.6765 186.984C23.623 187.465 23.4226 187.892 23.0753 188.266C22.7546 188.641 22.3404 188.881 21.8327 188.988C21.325 189.095 20.7105 188.975 19.989 188.627C19.1072 188.173 18.1719 187.839 17.1833 187.625C16.1946 187.411 15.1792 187.304 14.1371 187.304C13.0148 187.304 12.0528 187.451 11.2512 187.745C10.4763 188.039 9.87505 188.453 9.44751 188.988C9.04669 189.522 8.84628 190.137 8.84628 190.832C8.84628 191.607 9.12685 192.235 9.688 192.715C10.2491 193.196 11.2245 193.584 12.614 193.878L17.1432 194.84C19.7619 195.401 21.7125 196.309 22.9951 197.565C24.2777 198.795 24.919 200.425 24.919 202.455C24.919 203.791 24.6518 205.007 24.1174 206.103C23.583 207.172 22.8081 208.093 21.7927 208.868C20.7773 209.643 19.5614 210.245 18.1452 210.672C16.729 211.073 15.1391 211.273 13.3755 211.273ZM38.652 211.273C36.3273 211.273 34.3232 210.859 32.6397 210.031C30.983 209.176 29.7004 207.987 28.7919 206.463C27.9101 204.914 27.4692 203.097 27.4692 201.012C27.4692 198.982 27.8968 197.205 28.7518 195.682C29.6069 194.132 30.796 192.929 32.3191 192.074C33.8689 191.192 35.6191 190.751 37.5698 190.751C38.986 190.751 40.2686 190.992 41.4176 191.473C42.5666 191.927 43.5553 192.595 44.3837 193.477C45.212 194.332 45.84 195.388 46.2675 196.643C46.695 197.873 46.9088 199.249 46.9088 200.772C46.9088 201.28 46.7485 201.667 46.4278 201.934C46.1072 202.175 45.6396 202.295 45.025 202.295H32.4393V199.169H42.5399L41.8986 199.73C41.8986 198.634 41.7383 197.726 41.4176 197.004C41.097 196.256 40.6294 195.695 40.0148 195.321C39.4269 194.947 38.6921 194.76 37.8103 194.76C36.8216 194.76 35.9799 194.987 35.2851 195.441C34.5904 195.895 34.056 196.55 33.6819 197.405C33.3078 198.26 33.1207 199.289 33.1207 200.491V200.812C33.1207 202.843 33.5883 204.339 34.5236 205.301C35.4855 206.263 36.9018 206.744 38.7722 206.744C39.4135 206.744 40.1484 206.664 40.9767 206.504C41.8051 206.343 42.58 206.089 43.3015 205.742C43.9161 205.448 44.4638 205.355 44.9448 205.461C45.4258 205.542 45.7999 205.755 46.0671 206.103C46.3343 206.45 46.4813 206.851 46.508 207.305C46.5614 207.759 46.4679 208.214 46.2274 208.668C45.9869 209.096 45.5861 209.456 45.025 209.75C44.1165 210.258 43.0877 210.632 41.9387 210.872C40.8164 211.14 39.7208 211.273 38.652 211.273ZM60.0086 211.273C57.8709 211.273 56.0005 210.859 54.3972 210.031C52.8206 209.176 51.6048 207.973 50.7498 206.423C49.8947 204.874 49.4671 203.043 49.4671 200.932C49.4671 199.356 49.7076 197.939 50.1886 196.684C50.6696 195.428 51.3643 194.359 52.2729 193.477C53.2081 192.595 54.3304 191.927 55.6397 191.473C56.9491 190.992 58.4054 190.751 60.0086 190.751C60.837 190.751 61.7188 190.858 62.654 191.072C63.5892 191.259 64.5111 191.593 65.4196 192.074C65.9541 192.315 66.3148 192.662 66.5018 193.116C66.7156 193.544 66.7958 193.998 66.7423 194.479C66.6889 194.933 66.5152 195.348 66.2213 195.722C65.9541 196.069 65.6067 196.309 65.1792 196.443C64.7516 196.55 64.2706 196.47 63.7362 196.203C63.2285 195.909 62.6941 195.695 62.1329 195.561C61.5985 195.428 61.0908 195.361 60.6098 195.361C59.8082 195.361 59.1001 195.494 58.4855 195.762C57.8709 196.002 57.3499 196.363 56.9223 196.844C56.5215 197.298 56.2009 197.873 55.9604 198.567C55.7466 199.262 55.6397 200.064 55.6397 200.972C55.6397 202.736 56.0673 204.125 56.9223 205.141C57.8041 206.129 59.0333 206.624 60.6098 206.624C61.0908 206.624 61.5985 206.57 62.1329 206.463C62.6674 206.33 63.2018 206.116 63.7362 205.822C64.2706 205.555 64.7516 205.488 65.1792 205.622C65.6067 205.755 65.9407 206.009 66.1812 206.383C66.4484 206.731 66.5954 207.145 66.6221 207.626C66.6755 208.08 66.5954 208.534 66.3816 208.989C66.1946 209.416 65.8472 209.75 65.3395 209.991C64.431 210.445 63.5224 210.766 62.6139 210.953C61.7054 211.166 60.837 211.273 60.0086 211.273ZM72.696 211.193C71.6806 211.193 70.9057 210.926 70.3713 210.391C69.8369 209.857 69.5697 209.096 69.5697 208.107V193.878C69.5697 192.889 69.8235 192.141 70.3312 191.633C70.8656 191.099 71.6005 190.832 72.5357 190.832C73.4977 190.832 74.2325 191.099 74.7402 191.633C75.2479 192.141 75.5017 192.889 75.5017 193.878V195.962H75.1009C75.4216 194.359 76.1297 193.116 77.2252 192.235C78.3208 191.353 79.737 190.858 81.4739 190.751C82.1419 190.698 82.6496 190.872 82.997 191.273C83.3711 191.647 83.5715 192.275 83.5982 193.156C83.6517 193.985 83.478 194.639 83.0772 195.12C82.7031 195.601 82.0618 195.895 81.1532 196.002L80.2314 196.082C78.7083 196.216 77.5726 196.657 76.8244 197.405C76.103 198.153 75.7422 199.235 75.7422 200.652V208.107C75.7422 209.096 75.475 209.857 74.9406 210.391C74.4329 210.926 73.6847 211.193 72.696 211.193ZM95.9562 211.273C93.6315 211.273 91.6274 210.859 89.944 210.031C88.2873 209.176 87.0046 207.987 86.0961 206.463C85.2143 204.914 84.7734 203.097 84.7734 201.012C84.7734 198.982 85.201 197.205 86.056 195.682C86.9111 194.132 88.1002 192.929 89.6233 192.074C91.1731 191.192 92.9234 190.751 94.874 190.751C96.2902 190.751 97.5728 190.992 98.7218 191.473C99.8709 191.927 100.86 192.595 101.688 193.477C102.516 194.332 103.144 195.388 103.572 196.643C103.999 197.873 104.213 199.249 104.213 200.772C104.213 201.28 104.053 201.667 103.732 201.934C103.411 202.175 102.944 202.295 102.329 202.295H89.7436V199.169H99.8441L99.2028 199.73C99.2028 198.634 99.0425 197.726 98.7218 197.004C98.4012 196.256 97.9336 195.695 97.319 195.321C96.7311 194.947 95.9963 194.76 95.1145 194.76C94.1258 194.76 93.2841 194.987 92.5894 195.441C91.8946 195.895 91.3602 196.55 90.9861 197.405C90.612 198.26 90.4249 199.289 90.4249 200.491V200.812C90.4249 202.843 90.8926 204.339 91.8278 205.301C92.7898 206.263 94.206 206.744 96.0765 206.744C96.7178 206.744 97.4526 206.664 98.2809 206.504C99.1093 206.343 99.8842 206.089 100.606 205.742C101.22 205.448 101.768 205.355 102.249 205.461C102.73 205.542 103.104 205.755 103.371 206.103C103.639 206.45 103.785 206.851 103.812 207.305C103.866 207.759 103.772 208.214 103.532 208.668C103.291 209.096 102.89 209.456 102.329 209.75C101.421 210.258 100.392 210.632 99.2429 210.872C98.1206 211.14 97.0251 211.273 95.9562 211.273ZM117.276 211.273C115.432 211.273 113.882 210.966 112.626 210.351C111.397 209.737 110.475 208.842 109.86 207.666C109.273 206.49 108.979 205.007 108.979 203.217V195.682H107.295C106.547 195.682 105.959 195.481 105.532 195.08C105.131 194.679 104.93 194.132 104.93 193.437C104.93 192.689 105.131 192.128 105.532 191.754C105.959 191.353 106.547 191.152 107.295 191.152H108.979V188.106C108.979 187.091 109.246 186.329 109.78 185.821C110.315 185.287 111.063 185.02 112.025 185.02C113.014 185.02 113.762 185.287 114.269 185.821C114.777 186.329 115.031 187.091 115.031 188.106V191.152H118.839C119.587 191.152 120.161 191.353 120.562 191.754C120.963 192.128 121.163 192.689 121.163 193.437C121.163 194.132 120.963 194.679 120.562 195.08C120.161 195.481 119.587 195.682 118.839 195.682H115.031V202.976C115.031 204.099 115.285 204.94 115.793 205.502C116.327 206.063 117.169 206.343 118.318 206.343C118.719 206.343 119.093 206.303 119.44 206.223C119.787 206.143 120.108 206.089 120.402 206.063C120.776 206.036 121.083 206.156 121.324 206.423C121.564 206.664 121.685 207.212 121.685 208.067C121.685 208.708 121.578 209.269 121.364 209.75C121.15 210.231 120.776 210.579 120.242 210.792C119.894 210.926 119.413 211.033 118.799 211.113C118.211 211.22 117.703 211.273 117.276 211.273ZM130.474 211.273C129.031 211.273 127.735 210.993 126.586 210.432C125.437 209.87 124.542 209.109 123.901 208.147C123.26 207.185 122.939 206.103 122.939 204.9C122.939 203.457 123.313 202.322 124.061 201.493C124.809 200.638 126.025 200.037 127.709 199.69C129.392 199.316 131.623 199.129 134.402 199.129H136.527V202.255H134.442C133.08 202.255 131.971 202.335 131.116 202.495C130.287 202.629 129.686 202.87 129.312 203.217C128.965 203.564 128.791 204.045 128.791 204.66C128.791 205.408 129.045 206.023 129.552 206.504C130.087 206.985 130.848 207.225 131.837 207.225C132.612 207.225 133.293 207.051 133.881 206.704C134.496 206.33 134.977 205.836 135.324 205.221C135.672 204.58 135.845 203.858 135.845 203.057V198.447C135.845 197.271 135.578 196.443 135.044 195.962C134.509 195.454 133.601 195.201 132.318 195.201C131.597 195.201 130.808 195.294 129.953 195.481C129.125 195.641 128.203 195.922 127.188 196.323C126.6 196.59 126.079 196.657 125.624 196.523C125.17 196.363 124.823 196.096 124.582 195.722C124.342 195.321 124.222 194.893 124.222 194.439C124.222 193.958 124.355 193.504 124.622 193.076C124.89 192.622 125.331 192.288 125.945 192.074C127.201 191.566 128.377 191.219 129.472 191.032C130.595 190.845 131.623 190.751 132.559 190.751C134.616 190.751 136.3 191.059 137.609 191.673C138.945 192.261 139.947 193.183 140.615 194.439C141.283 195.668 141.617 197.258 141.617 199.209V208.107C141.617 209.096 141.377 209.857 140.896 210.391C140.415 210.926 139.72 211.193 138.811 211.193C137.903 211.193 137.195 210.926 136.687 210.391C136.206 209.857 135.966 209.096 135.966 208.107V206.624L136.246 206.864C136.086 207.773 135.738 208.561 135.204 209.229C134.696 209.87 134.042 210.378 133.24 210.752C132.438 211.1 131.516 211.273 130.474 211.273ZM149.258 211.193C148.243 211.193 147.468 210.926 146.933 210.391C146.399 209.857 146.132 209.096 146.132 208.107V193.878C146.132 192.889 146.386 192.141 146.893 191.633C147.428 191.099 148.163 190.832 149.098 190.832C150.06 190.832 150.795 191.099 151.302 191.633C151.81 192.141 152.064 192.889 152.064 193.878V195.962H151.663C151.984 194.359 152.692 193.116 153.787 192.235C154.883 191.353 156.299 190.858 158.036 190.751C158.704 190.698 159.212 190.872 159.559 191.273C159.933 191.647 160.134 192.275 160.16 193.156C160.214 193.985 160.04 194.639 159.639 195.12C159.265 195.601 158.624 195.895 157.715 196.002L156.794 196.082C155.27 196.216 154.135 196.657 153.387 197.405C152.665 198.153 152.304 199.235 152.304 200.652V208.107C152.304 209.096 152.037 209.857 151.503 210.391C150.995 210.926 150.247 211.193 149.258 211.193ZM165.696 211.153C164.707 211.153 163.946 210.872 163.411 210.311C162.904 209.723 162.65 208.908 162.65 207.866V194.158C162.65 193.09 162.904 192.275 163.411 191.713C163.946 191.126 164.707 190.832 165.696 190.832C166.658 190.832 167.393 191.126 167.901 191.713C168.435 192.275 168.702 193.09 168.702 194.158V207.866C168.702 208.908 168.448 209.723 167.941 210.311C167.433 210.872 166.685 211.153 165.696 211.153ZM165.696 187.545C164.574 187.545 163.705 187.291 163.091 186.783C162.503 186.249 162.209 185.501 162.209 184.539C162.209 183.55 162.503 182.802 163.091 182.294C163.705 181.76 164.574 181.493 165.696 181.493C166.818 181.493 167.673 181.76 168.261 182.294C168.849 182.802 169.143 183.55 169.143 184.539C169.143 185.501 168.849 186.249 168.261 186.783C167.673 187.291 166.818 187.545 165.696 187.545ZM180.028 211.273C178.585 211.273 177.289 210.993 176.14 210.432C174.991 209.87 174.096 209.109 173.455 208.147C172.814 207.185 172.493 206.103 172.493 204.9C172.493 203.457 172.867 202.322 173.615 201.493C174.364 200.638 175.579 200.037 177.263 199.69C178.946 199.316 181.177 199.129 183.956 199.129H186.081V202.255H183.996C182.634 202.255 181.525 202.335 180.67 202.495C179.841 202.629 179.24 202.87 178.866 203.217C178.519 203.564 178.345 204.045 178.345 204.66C178.345 205.408 178.599 206.023 179.107 206.504C179.641 206.985 180.402 207.225 181.391 207.225C182.166 207.225 182.847 207.051 183.435 206.704C184.05 206.33 184.531 205.836 184.878 205.221C185.226 204.58 185.399 203.858 185.399 203.057V198.447C185.399 197.271 185.132 196.443 184.598 195.962C184.063 195.454 183.155 195.201 181.872 195.201C181.151 195.201 180.362 195.294 179.507 195.481C178.679 195.641 177.757 195.922 176.742 196.323C176.154 196.59 175.633 196.657 175.179 196.523C174.724 196.363 174.377 196.096 174.136 195.722C173.896 195.321 173.776 194.893 173.776 194.439C173.776 193.958 173.909 193.504 174.176 193.076C174.444 192.622 174.885 192.288 175.499 192.074C176.755 191.566 177.931 191.219 179.026 191.032C180.149 190.845 181.177 190.751 182.113 190.751C184.17 190.751 185.854 191.059 187.163 191.673C188.499 192.261 189.501 193.183 190.169 194.439C190.837 195.668 191.171 197.258 191.171 199.209V208.107C191.171 209.096 190.931 209.857 190.45 210.391C189.969 210.926 189.274 211.193 188.365 211.193C187.457 211.193 186.749 210.926 186.241 210.391C185.76 209.857 185.52 209.096 185.52 208.107V206.624L185.8 206.864C185.64 207.773 185.292 208.561 184.758 209.229C184.25 209.87 183.596 210.378 182.794 210.752C181.992 211.1 181.071 211.273 180.028 211.273ZM210.288 211.193C209.379 211.193 208.684 210.939 208.203 210.432C207.722 209.924 207.482 209.216 207.482 208.307V185.1C207.482 184.191 207.736 183.483 208.243 182.976C208.778 182.468 209.499 182.214 210.408 182.214C211.209 182.214 211.837 182.374 212.292 182.695C212.773 182.989 213.213 183.51 213.614 184.258L222.873 201.173H221.51L230.769 184.258C231.17 183.51 231.598 182.989 232.052 182.695C232.533 182.374 233.161 182.214 233.936 182.214C234.844 182.214 235.539 182.468 236.02 182.976C236.528 183.483 236.782 184.191 236.782 185.1V208.307C236.782 209.216 236.541 209.924 236.06 210.432C235.579 210.939 234.884 211.193 233.976 211.193C233.067 211.193 232.359 210.939 231.851 210.432C231.37 209.924 231.13 209.216 231.13 208.307V192.074H232.012L224.557 205.421C224.236 205.929 223.889 206.317 223.514 206.584C223.167 206.824 222.699 206.944 222.112 206.944C221.524 206.944 221.043 206.811 220.669 206.544C220.295 206.276 219.961 205.902 219.667 205.421L212.131 192.034H213.093V208.307C213.093 209.216 212.853 209.924 212.372 210.432C211.918 210.939 211.223 211.193 210.288 211.193ZM249.246 211.273C247.589 211.273 246.213 210.966 245.118 210.351C244.022 209.737 243.207 208.815 242.673 207.586C242.165 206.33 241.911 204.78 241.911 202.936V193.878C241.911 192.862 242.165 192.101 242.673 191.593C243.207 191.086 243.955 190.832 244.917 190.832C245.879 190.832 246.627 191.086 247.162 191.593C247.696 192.101 247.963 192.862 247.963 193.878V203.097C247.963 204.272 248.204 205.154 248.685 205.742C249.166 206.303 249.927 206.584 250.969 206.584C252.118 206.584 253.054 206.183 253.775 205.381C254.523 204.553 254.897 203.471 254.897 202.135V193.878C254.897 192.862 255.151 192.101 255.659 191.593C256.193 191.086 256.942 190.832 257.904 190.832C258.892 190.832 259.64 191.086 260.148 191.593C260.683 192.101 260.95 192.862 260.95 193.878V208.107C260.95 210.164 259.974 211.193 258.024 211.193C257.062 211.193 256.327 210.926 255.819 210.391C255.312 209.857 255.058 209.096 255.058 208.107V205.421L255.659 206.985C255.071 208.347 254.229 209.403 253.134 210.151C252.038 210.899 250.742 211.273 249.246 211.273ZM268.679 211.193C267.691 211.193 266.929 210.926 266.395 210.391C265.887 209.857 265.633 209.096 265.633 208.107V193.878C265.633 192.889 265.887 192.141 266.395 191.633C266.929 191.099 267.664 190.832 268.599 190.832C269.561 190.832 270.296 191.099 270.804 191.633C271.311 192.141 271.565 192.889 271.565 193.878V196.163L271.124 194.84C271.739 193.53 272.647 192.528 273.85 191.834C275.079 191.112 276.468 190.751 278.018 190.751C279.595 190.751 280.891 191.059 281.906 191.673C282.922 192.261 283.683 193.17 284.191 194.399C284.699 195.601 284.952 197.138 284.952 199.008V208.107C284.952 209.096 284.685 209.857 284.151 210.391C283.643 210.926 282.895 211.193 281.906 211.193C280.944 211.193 280.196 210.926 279.662 210.391C279.154 209.857 278.9 209.096 278.9 208.107V199.289C278.9 197.926 278.646 196.951 278.139 196.363C277.658 195.748 276.909 195.441 275.894 195.441C274.611 195.441 273.583 195.842 272.808 196.643C272.06 197.445 271.685 198.514 271.685 199.85V208.107C271.685 210.164 270.683 211.193 268.679 211.193ZM292.517 211.153C291.528 211.153 290.767 210.872 290.232 210.311C289.725 209.723 289.471 208.908 289.471 207.866V194.158C289.471 193.09 289.725 192.275 290.232 191.713C290.767 191.126 291.528 190.832 292.517 190.832C293.479 190.832 294.214 191.126 294.721 191.713C295.256 192.275 295.523 193.09 295.523 194.158V207.866C295.523 208.908 295.269 209.723 294.761 210.311C294.254 210.872 293.506 211.153 292.517 211.153ZM292.517 187.545C291.395 187.545 290.526 187.291 289.912 186.783C289.324 186.249 289.03 185.501 289.03 184.539C289.03 183.55 289.324 182.802 289.912 182.294C290.526 181.76 291.395 181.493 292.517 181.493C293.639 181.493 294.494 181.76 295.082 182.294C295.67 182.802 295.964 183.55 295.964 184.539C295.964 185.501 295.67 186.249 295.082 186.783C294.494 187.291 293.639 187.545 292.517 187.545ZM309.775 211.273C307.638 211.273 305.767 210.859 304.164 210.031C302.587 209.176 301.371 207.973 300.516 206.423C299.661 204.874 299.234 203.043 299.234 200.932C299.234 199.356 299.474 197.939 299.955 196.684C300.436 195.428 301.131 194.359 302.039 193.477C302.975 192.595 304.097 191.927 305.406 191.473C306.716 190.992 308.172 190.751 309.775 190.751C310.604 190.751 311.485 190.858 312.421 191.072C313.356 191.259 314.278 191.593 315.186 192.074C315.721 192.315 316.081 192.662 316.268 193.116C316.482 193.544 316.562 193.998 316.509 194.479C316.455 194.933 316.282 195.348 315.988 195.722C315.721 196.069 315.373 196.309 314.946 196.443C314.518 196.55 314.037 196.47 313.503 196.203C312.995 195.909 312.461 195.695 311.9 195.561C311.365 195.428 310.857 195.361 310.376 195.361C309.575 195.361 308.867 195.494 308.252 195.762C307.638 196.002 307.116 196.363 306.689 196.844C306.288 197.298 305.967 197.873 305.727 198.567C305.513 199.262 305.406 200.064 305.406 200.972C305.406 202.736 305.834 204.125 306.689 205.141C307.571 206.129 308.8 206.624 310.376 206.624C310.857 206.624 311.365 206.57 311.9 206.463C312.434 206.33 312.968 206.116 313.503 205.822C314.037 205.555 314.518 205.488 314.946 205.622C315.373 205.755 315.707 206.009 315.948 206.383C316.215 206.731 316.362 207.145 316.389 207.626C316.442 208.08 316.362 208.534 316.148 208.989C315.961 209.416 315.614 209.75 315.106 209.991C314.198 210.445 313.289 210.766 312.38 210.953C311.472 211.166 310.604 211.273 309.775 211.273ZM322.382 211.153C321.394 211.153 320.632 210.872 320.098 210.311C319.59 209.723 319.336 208.908 319.336 207.866V194.158C319.336 193.09 319.59 192.275 320.098 191.713C320.632 191.126 321.394 190.832 322.382 190.832C323.344 190.832 324.079 191.126 324.587 191.713C325.121 192.275 325.389 193.09 325.389 194.158V207.866C325.389 208.908 325.135 209.723 324.627 210.311C324.119 210.872 323.371 211.153 322.382 211.153ZM322.382 187.545C321.26 187.545 320.392 187.291 319.777 186.783C319.189 186.249 318.895 185.501 318.895 184.539C318.895 183.55 319.189 182.802 319.777 182.294C320.392 181.76 321.26 181.493 322.382 181.493C323.505 181.493 324.36 181.76 324.948 182.294C325.536 182.802 325.829 183.55 325.829 184.539C325.829 185.501 325.536 186.249 324.948 186.783C324.36 187.291 323.505 187.545 322.382 187.545ZM333.107 218.408C332.119 218.408 331.357 218.141 330.823 217.606C330.315 217.098 330.061 216.337 330.061 215.322V193.878C330.061 192.889 330.315 192.141 330.823 191.633C331.357 191.099 332.092 190.832 333.027 190.832C334.016 190.832 334.764 191.099 335.272 191.633C335.78 192.141 336.033 192.889 336.033 193.878V196.603L335.592 195.04C335.993 193.758 336.795 192.729 337.997 191.954C339.227 191.152 340.629 190.751 342.206 190.751C343.916 190.751 345.412 191.166 346.695 191.994C348.004 192.822 349.02 193.998 349.741 195.521C350.463 197.044 350.823 198.861 350.823 200.972C350.823 203.083 350.463 204.914 349.741 206.463C349.02 208.013 348.018 209.202 346.735 210.031C345.453 210.859 343.943 211.273 342.206 211.273C340.656 211.273 339.28 210.899 338.078 210.151C336.875 209.376 336.06 208.374 335.633 207.145H336.114V215.322C336.114 216.337 335.846 217.098 335.312 217.606C334.804 218.141 334.069 218.408 333.107 218.408ZM340.402 206.744C341.257 206.744 342.006 206.53 342.647 206.103C343.315 205.675 343.823 205.047 344.17 204.219C344.544 203.364 344.731 202.282 344.731 200.972C344.731 199.022 344.33 197.592 343.529 196.684C342.727 195.748 341.685 195.281 340.402 195.281C339.547 195.281 338.786 195.481 338.118 195.882C337.476 196.283 336.969 196.911 336.594 197.766C336.22 198.594 336.033 199.663 336.033 200.972C336.033 202.923 336.434 204.379 337.236 205.341C338.037 206.276 339.093 206.744 340.402 206.744ZM361.179 211.273C359.736 211.273 358.44 210.993 357.291 210.432C356.142 209.87 355.247 209.109 354.605 208.147C353.964 207.185 353.643 206.103 353.643 204.9C353.643 203.457 354.017 202.322 354.766 201.493C355.514 200.638 356.73 200.037 358.413 199.69C360.096 199.316 362.328 199.129 365.107 199.129H367.231V202.255H365.147C363.784 202.255 362.675 202.335 361.82 202.495C360.992 202.629 360.39 202.87 360.016 203.217C359.669 203.564 359.495 204.045 359.495 204.66C359.495 205.408 359.749 206.023 360.257 206.504C360.791 206.985 361.553 207.225 362.541 207.225C363.316 207.225 363.998 207.051 364.586 206.704C365.2 206.33 365.681 205.836 366.029 205.221C366.376 204.58 366.55 203.858 366.55 203.057V198.447C366.55 197.271 366.282 196.443 365.748 195.962C365.214 195.454 364.305 195.201 363.022 195.201C362.301 195.201 361.513 195.294 360.658 195.481C359.829 195.641 358.907 195.922 357.892 196.323C357.304 196.59 356.783 196.657 356.329 196.523C355.874 196.363 355.527 196.096 355.287 195.722C355.046 195.321 354.926 194.893 354.926 194.439C354.926 193.958 355.06 193.504 355.327 193.076C355.594 192.622 356.035 192.288 356.649 192.074C357.905 191.566 359.081 191.219 360.177 191.032C361.299 190.845 362.328 190.751 363.263 190.751C365.32 190.751 367.004 191.059 368.313 191.673C369.649 192.261 370.651 193.183 371.319 194.439C371.987 195.668 372.321 197.258 372.321 199.209V208.107C372.321 209.096 372.081 209.857 371.6 210.391C371.119 210.926 370.424 211.193 369.516 211.193C368.607 211.193 367.899 210.926 367.391 210.391C366.91 209.857 366.67 209.096 366.67 208.107V206.624L366.95 206.864C366.79 207.773 366.443 208.561 365.908 209.229C365.401 209.87 364.746 210.378 363.944 210.752C363.143 211.1 362.221 211.273 361.179 211.273ZM383.931 211.273C381.552 211.273 379.775 210.619 378.6 209.309C377.424 207.973 376.836 205.996 376.836 203.377V185.3C376.836 184.285 377.09 183.523 377.598 183.016C378.132 182.481 378.894 182.214 379.882 182.214C380.844 182.214 381.579 182.481 382.087 183.016C382.621 183.523 382.888 184.285 382.888 185.3V203.137C382.888 204.232 383.116 205.047 383.57 205.582C384.051 206.089 384.679 206.343 385.454 206.343C385.667 206.343 385.868 206.33 386.055 206.303C386.242 206.276 386.442 206.263 386.656 206.263C387.084 206.21 387.378 206.343 387.538 206.664C387.725 206.958 387.819 207.559 387.819 208.468C387.819 209.269 387.658 209.884 387.338 210.311C387.017 210.712 386.523 210.979 385.855 211.113C385.587 211.14 385.28 211.166 384.933 211.193C384.585 211.247 384.251 211.273 383.931 211.273ZM409.034 211.273C407.324 211.273 405.814 210.859 404.505 210.031C403.222 209.202 402.22 208.013 401.499 206.463C400.777 204.914 400.416 203.083 400.416 200.972C400.416 198.861 400.777 197.044 401.499 195.521C402.22 193.998 403.222 192.822 404.505 191.994C405.814 191.166 407.324 190.751 409.034 190.751C410.584 190.751 411.947 191.126 413.122 191.874C414.325 192.622 415.14 193.597 415.567 194.8H415.126V185.3C415.126 184.285 415.38 183.523 415.888 183.016C416.396 182.481 417.144 182.214 418.132 182.214C419.094 182.214 419.843 182.481 420.377 183.016C420.911 183.523 421.179 184.285 421.179 185.3V208.107C421.179 209.096 420.911 209.857 420.377 210.391C419.869 210.926 419.134 211.193 418.173 211.193C417.211 211.193 416.462 210.926 415.928 210.391C415.42 209.857 415.166 209.096 415.166 208.107V205.381L415.607 206.944C415.233 208.254 414.432 209.309 413.202 210.111C412 210.886 410.61 211.273 409.034 211.273ZM410.838 206.744C411.719 206.744 412.481 206.53 413.122 206.103C413.764 205.675 414.271 205.047 414.645 204.219C415.019 203.364 415.206 202.282 415.206 200.972C415.206 199.022 414.806 197.592 414.004 196.684C413.202 195.748 412.147 195.281 410.838 195.281C409.983 195.281 409.221 195.481 408.553 195.882C407.912 196.283 407.404 196.911 407.03 197.766C406.682 198.594 406.509 199.663 406.509 200.972C406.509 202.923 406.91 204.379 407.711 205.341C408.513 206.276 409.555 206.744 410.838 206.744ZM436.063 211.273C433.738 211.273 431.734 210.859 430.051 210.031C428.394 209.176 427.111 207.987 426.203 206.463C425.321 204.914 424.88 203.097 424.88 201.012C424.88 198.982 425.308 197.205 426.163 195.682C427.018 194.132 428.207 192.929 429.73 192.074C431.28 191.192 433.03 190.751 434.981 190.751C436.397 190.751 437.68 190.992 438.829 191.473C439.978 191.927 440.966 192.595 441.795 193.477C442.623 194.332 443.251 195.388 443.679 196.643C444.106 197.873 444.32 199.249 444.32 200.772C444.32 201.28 444.16 201.667 443.839 201.934C443.518 202.175 443.051 202.295 442.436 202.295H429.85V199.169H439.951L439.31 199.73C439.31 198.634 439.149 197.726 438.829 197.004C438.508 196.256 438.04 195.695 437.426 195.321C436.838 194.947 436.103 194.76 435.221 194.76C434.233 194.76 433.391 194.987 432.696 195.441C432.001 195.895 431.467 196.55 431.093 197.405C430.719 198.26 430.532 199.289 430.532 200.491V200.812C430.532 202.843 430.999 204.339 431.935 205.301C432.897 206.263 434.313 206.744 436.183 206.744C436.825 206.744 437.559 206.664 438.388 206.504C439.216 206.343 439.991 206.089 440.713 205.742C441.327 205.448 441.875 205.355 442.356 205.461C442.837 205.542 443.211 205.755 443.478 206.103C443.745 206.45 443.892 206.851 443.919 207.305C443.972 207.759 443.879 208.214 443.638 208.668C443.398 209.096 442.997 209.456 442.436 209.75C441.528 210.258 440.499 210.632 439.35 210.872C438.227 211.14 437.132 211.273 436.063 211.273ZM473.264 211.273C470.218 211.273 467.612 210.672 465.448 209.47C463.284 208.267 461.613 206.584 460.438 204.419C459.289 202.228 458.714 199.65 458.714 196.684C458.714 194.466 459.035 192.475 459.676 190.711C460.344 188.921 461.306 187.398 462.562 186.142C463.818 184.859 465.341 183.871 467.131 183.176C468.948 182.481 470.993 182.134 473.264 182.134C474.6 182.134 475.949 182.308 477.312 182.655C478.702 182.976 479.904 183.443 480.919 184.058C481.587 184.432 482.042 184.9 482.282 185.461C482.523 186.022 482.589 186.583 482.483 187.144C482.402 187.705 482.175 188.186 481.801 188.587C481.454 188.988 481.013 189.242 480.479 189.349C479.944 189.456 479.343 189.335 478.675 188.988C477.873 188.507 477.032 188.16 476.15 187.946C475.268 187.732 474.373 187.625 473.464 187.625C471.674 187.625 470.164 187.986 468.935 188.707C467.733 189.402 466.824 190.417 466.209 191.754C465.595 193.09 465.288 194.733 465.288 196.684C465.288 198.607 465.595 200.251 466.209 201.614C466.824 202.976 467.733 204.019 468.935 204.74C470.164 205.435 471.674 205.782 473.464 205.782C474.319 205.782 475.188 205.675 476.07 205.461C476.978 205.248 477.847 204.914 478.675 204.459C479.37 204.112 479.984 203.992 480.519 204.099C481.08 204.179 481.534 204.419 481.881 204.82C482.255 205.194 482.483 205.649 482.563 206.183C482.67 206.717 482.616 207.252 482.402 207.786C482.189 208.321 481.788 208.775 481.2 209.149C480.211 209.817 478.996 210.338 477.553 210.712C476.11 211.086 474.68 211.273 473.264 211.273ZM493.141 211.273C491.484 211.273 490.108 210.966 489.013 210.351C487.917 209.737 487.102 208.815 486.568 207.586C486.06 206.33 485.806 204.78 485.806 202.936V193.878C485.806 192.862 486.06 192.101 486.568 191.593C487.102 191.086 487.85 190.832 488.812 190.832C489.774 190.832 490.523 191.086 491.057 191.593C491.591 192.101 491.859 192.862 491.859 193.878V203.097C491.859 204.272 492.099 205.154 492.58 205.742C493.061 206.303 493.823 206.584 494.865 206.584C496.014 206.584 496.949 206.183 497.67 205.381C498.419 204.553 498.793 203.471 498.793 202.135V193.878C498.793 192.862 499.047 192.101 499.554 191.593C500.089 191.086 500.837 190.832 501.799 190.832C502.788 190.832 503.536 191.086 504.043 191.593C504.578 192.101 504.845 192.862 504.845 193.878V208.107C504.845 210.164 503.87 211.193 501.919 211.193C500.957 211.193 500.222 210.926 499.715 210.391C499.207 209.857 498.953 209.096 498.953 208.107V205.421L499.554 206.985C498.966 208.347 498.125 209.403 497.029 210.151C495.934 210.899 494.638 211.273 493.141 211.273ZM516.623 211.273C514.245 211.273 512.468 210.619 511.292 209.309C510.116 207.973 509.528 205.996 509.528 203.377V185.3C509.528 184.285 509.782 183.523 510.29 183.016C510.824 182.481 511.586 182.214 512.575 182.214C513.536 182.214 514.271 182.481 514.779 183.016C515.313 183.523 515.581 184.285 515.581 185.3V203.137C515.581 204.232 515.808 205.047 516.262 205.582C516.743 206.089 517.371 206.343 518.146 206.343C518.36 206.343 518.56 206.33 518.747 206.303C518.934 206.276 519.135 206.263 519.348 206.263C519.776 206.21 520.07 206.343 520.23 206.664C520.417 206.958 520.511 207.559 520.511 208.468C520.511 209.269 520.35 209.884 520.03 210.311C519.709 210.712 519.215 210.979 518.547 211.113C518.279 211.14 517.972 211.166 517.625 211.193C517.277 211.247 516.943 211.273 516.623 211.273ZM531.948 211.273C530.105 211.273 528.555 210.966 527.299 210.351C526.07 209.737 525.148 208.842 524.533 207.666C523.945 206.49 523.651 205.007 523.651 203.217V195.682H521.968C521.22 195.682 520.632 195.481 520.204 195.08C519.804 194.679 519.603 194.132 519.603 193.437C519.603 192.689 519.804 192.128 520.204 191.754C520.632 191.353 521.22 191.152 521.968 191.152H523.651V188.106C523.651 187.091 523.919 186.329 524.453 185.821C524.987 185.287 525.736 185.02 526.698 185.02C527.686 185.02 528.435 185.287 528.942 185.821C529.45 186.329 529.704 187.091 529.704 188.106V191.152H533.512C534.26 191.152 534.834 191.353 535.235 191.754C535.636 192.128 535.836 192.689 535.836 193.437C535.836 194.132 535.636 194.679 535.235 195.08C534.834 195.481 534.26 195.682 533.512 195.682H529.704V202.976C529.704 204.099 529.958 204.94 530.465 205.502C531 206.063 531.841 206.343 532.99 206.343C533.391 206.343 533.765 206.303 534.113 206.223C534.46 206.143 534.781 206.089 535.075 206.063C535.449 206.036 535.756 206.156 535.997 206.423C536.237 206.664 536.357 207.212 536.357 208.067C536.357 208.708 536.25 209.269 536.037 209.75C535.823 210.231 535.449 210.579 534.914 210.792C534.567 210.926 534.086 211.033 533.471 211.113C532.884 211.22 532.376 211.273 531.948 211.273ZM545.748 211.273C544.092 211.273 542.715 210.966 541.62 210.351C540.524 209.737 539.709 208.815 539.175 207.586C538.667 206.33 538.413 204.78 538.413 202.936V193.878C538.413 192.862 538.667 192.101 539.175 191.593C539.709 191.086 540.458 190.832 541.42 190.832C542.381 190.832 543.13 191.086 543.664 191.593C544.199 192.101 544.466 192.862 544.466 193.878V203.097C544.466 204.272 544.706 205.154 545.187 205.742C545.668 206.303 546.43 206.584 547.472 206.584C548.621 206.584 549.556 206.183 550.278 205.381C551.026 204.553 551.4 203.471 551.4 202.135V193.878C551.4 192.862 551.654 192.101 552.161 191.593C552.696 191.086 553.444 190.832 554.406 190.832C555.395 190.832 556.143 191.086 556.651 191.593C557.185 192.101 557.452 192.862 557.452 193.878V208.107C557.452 210.164 556.477 211.193 554.526 211.193C553.564 211.193 552.829 210.926 552.322 210.391C551.814 209.857 551.56 209.096 551.56 208.107V205.421L552.161 206.985C551.574 208.347 550.732 209.403 549.636 210.151C548.541 210.899 547.245 211.273 545.748 211.273ZM565.262 211.193C564.246 211.193 563.472 210.926 562.937 210.391C562.403 209.857 562.135 209.096 562.135 208.107V193.878C562.135 192.889 562.389 192.141 562.897 191.633C563.431 191.099 564.166 190.832 565.102 190.832C566.063 190.832 566.798 191.099 567.306 191.633C567.814 192.141 568.068 192.889 568.068 193.878V195.962H567.667C567.987 194.359 568.695 193.116 569.791 192.235C570.887 191.353 572.303 190.858 574.04 190.751C574.708 190.698 575.215 190.872 575.563 191.273C575.937 191.647 576.137 192.275 576.164 193.156C576.217 193.985 576.044 194.639 575.643 195.12C575.269 195.601 574.628 195.895 573.719 196.002L572.797 196.082C571.274 196.216 570.138 196.657 569.39 197.405C568.669 198.153 568.308 199.235 568.308 200.652V208.107C568.308 209.096 568.041 209.857 567.506 210.391C566.999 210.926 566.251 211.193 565.262 211.193ZM585.111 211.273C583.668 211.273 582.372 210.993 581.223 210.432C580.074 209.87 579.179 209.109 578.538 208.147C577.897 207.185 577.576 206.103 577.576 204.9C577.576 203.457 577.95 202.322 578.698 201.493C579.446 200.638 580.662 200.037 582.346 199.69C584.029 199.316 586.26 199.129 589.039 199.129H591.164V202.255H589.079C587.717 202.255 586.608 202.335 585.753 202.495C584.924 202.629 584.323 202.87 583.949 203.217C583.602 203.564 583.428 204.045 583.428 204.66C583.428 205.408 583.682 206.023 584.189 206.504C584.724 206.985 585.485 207.225 586.474 207.225C587.249 207.225 587.93 207.051 588.518 206.704C589.133 206.33 589.614 205.836 589.961 205.221C590.309 204.58 590.482 203.858 590.482 203.057V198.447C590.482 197.271 590.215 196.443 589.681 195.962C589.146 195.454 588.238 195.201 586.955 195.201C586.234 195.201 585.445 195.294 584.59 195.481C583.762 195.641 582.84 195.922 581.825 196.323C581.237 196.59 580.716 196.657 580.261 196.523C579.807 196.363 579.46 196.096 579.219 195.722C578.979 195.321 578.859 194.893 578.859 194.439C578.859 193.958 578.992 193.504 579.259 193.076C579.527 192.622 579.968 192.288 580.582 192.074C581.838 191.566 583.014 191.219 584.109 191.032C585.232 190.845 586.26 190.751 587.196 190.751C589.253 190.751 590.937 191.059 592.246 191.673C593.582 192.261 594.584 193.183 595.252 194.439C595.92 195.668 596.254 197.258 596.254 199.209V208.107C596.254 209.096 596.014 209.857 595.533 210.391C595.052 210.926 594.357 211.193 593.448 211.193C592.54 211.193 591.832 210.926 591.324 210.391C590.843 209.857 590.603 209.096 590.603 208.107V206.624L590.883 206.864C590.723 207.773 590.375 208.561 589.841 209.229C589.333 209.87 588.679 210.378 587.877 210.752C587.075 211.1 586.153 211.273 585.111 211.273Z" fill="white"/>
</svg>
