<svg width="145" height="122" viewBox="0 0 145 122" fill="none" xmlns="http://www.w3.org/2000/svg">
<path d="M65.6879 94.0114C64.9169 93.8582 64.12 93.7779 63.3045 93.7779C57.2508 93.7779 52.2211 98.2016 51.2173 104.02M65.6879 94.0114C70.7419 95.0153 74.6821 99.1505 75.4413 104.331M65.6879 94.0114L75.9797 78.6552M75.4413 104.331C75.5287 104.927 75.5739 105.537 75.5739 106.158C75.5739 112.995 70.0807 118.537 63.3045 118.537C56.5283 118.537 52.6635 119.013 51.0351 118.537C50.3531 115.503 51.0351 106.158 51.0351 106.158C51.0351 105.429 51.0975 104.714 51.2173 104.02M75.4413 104.331L90.6693 93.4769M96.5968 87.0187L97.2744 87.7024C98.9765 89.4199 98.9765 92.2044 97.2744 93.9219C95.5722 95.6393 92.8125 95.6394 91.1103 93.9219L90.6693 93.4769M96.5968 87.0187L108.521 73.111L139.776 38.335C142.013 35.8459 141.921 32.0234 139.566 29.6473C137.227 27.2877 133.471 27.1771 131 29.3953L106.018 51.8216M96.5968 87.0187L82.334 72.6277M90.6693 93.4769L75.9797 78.6552M82.334 72.6277L81.5295 71.8159C79.8273 70.0984 77.0675 70.0984 75.3654 71.8159C73.6632 73.5333 73.6632 76.3179 75.3654 78.0354L75.9797 78.6552M82.334 72.6277L96.5672 60.3052L106.018 51.8216M106.018 51.8216V51.8216C105.645 43.0421 95.6126 39.7716 88.2216 44.5245L77.2695 51.5672C71.4593 55.3036 63.7473 53.58 60.0442 47.7175C56.3412 41.855 58.0495 34.0736 63.8597 30.3372V30.3372C75.4538 22.8816 75.6761 6.11342 62.0205 4.23301C59.6693 3.90924 57.2668 3.74182 54.8245 3.74182C26.5265 3.74182 3.58643 26.2173 3.58643 53.9422C3.58643 80.4789 24.6025 102.207 51.2173 104.02M51.4353 22.6187C51.4353 26.6641 48.1851 29.9435 44.1758 29.9435C40.1665 29.9435 36.9163 26.6641 36.9163 22.6187C36.9163 18.5733 40.1665 15.2939 44.1758 15.2939C48.1851 15.2939 51.4353 18.5733 51.4353 22.6187ZM35.1595 40.6009C35.1595 45.1768 31.483 48.8863 26.9479 48.8863C22.4128 48.8863 18.7364 45.1768 18.7364 40.6009C18.7364 36.025 22.4128 32.3155 26.9479 32.3155C31.483 32.3155 35.1595 36.025 35.1595 40.6009ZM33.2287 65.776C33.2287 70.3519 29.5523 74.0614 25.0172 74.0614C20.4821 74.0614 16.8057 70.3519 16.8057 65.776C16.8057 61.2001 20.4821 57.4906 25.0172 57.4906C29.5523 57.4906 33.2287 61.2001 33.2287 65.776ZM53.3393 83.1588C53.3393 87.7347 49.6629 91.4442 45.1278 91.4442C40.5927 91.4442 36.9163 87.7347 36.9163 83.1588C36.9163 78.5829 40.5927 74.8734 45.1278 74.8734C49.6629 74.8734 53.3393 78.5829 53.3393 83.1588Z" stroke="#07619D" stroke-width="6"/>
</svg>
