<svg width="102" height="133" viewBox="0 0 102 133" fill="none" xmlns="http://www.w3.org/2000/svg">
<path d="M4.07731 90.3928L6.42933 90.2958L6.42915 90.2916L4.07731 90.3928ZM21.8613 67.5942L19.9167 68.9208C19.9301 68.9405 19.9438 68.9599 19.9577 68.9791L21.8613 67.5942ZM9.19422 65.5305L6.94469 64.837L9.19422 65.5305ZM4.51625 84.8863L2.18843 84.5361L4.51625 84.8863ZM36.6561 36.3648L38.694 37.543L36.6561 36.3648ZM16.6587 30.1222L19.007 29.9585L16.6587 30.1222ZM15.6033 45.2074L13.2981 44.7304L15.6033 45.2074ZM39.6112 40.1819L37.5165 41.2561V41.2561L39.6112 40.1819ZM82.958 95.7183L81.3645 97.451V97.451L82.958 95.7183ZM95.2847 99.9114L96.3241 102.024H96.3241L95.2847 99.9114ZM98.7631 90.1618L101 89.4274L98.7631 90.1618ZM80.2886 66.4586L81.7828 64.6396C81.7175 64.586 81.6494 64.5359 81.5787 64.4896L80.2886 66.4586ZM77.8256 41.8596L79.6379 40.3573V40.3573L77.8256 41.8596ZM41.0968 44.3453L43.3816 43.7786L41.0968 44.3453ZM44.01 52.9193L41.8403 53.8324L44.01 52.9193ZM52.3971 44.6209L54.4429 45.7854L52.3971 44.6209ZM61.8702 57.5597L64.1612 57.0188C64.1571 57.0016 64.1529 56.9845 64.1484 56.9674L61.8702 57.5597ZM63.2084 66.4586L65.5624 66.472V66.4586H63.2084ZM49.6902 63.8438L47.6935 65.0906H47.6935L49.6902 63.8438ZM63.2602 67.7256L65.6068 67.5397V67.5396L63.2602 67.7256ZM60.8257 50.1662L58.4718 50.191V50.191L60.8257 50.1662ZM78.0092 45.8565L80.1349 46.868V46.868L78.0092 45.8565ZM82.7802 79.5095L80.8897 80.9121L82.7802 79.5095ZM37.1703 35.4724L35.1288 34.3004L37.1703 35.4724ZM50.2561 2.64441L52.538 2.06602C52.2619 0.976835 51.2545 0.234615 50.1325 0.293651C49.0104 0.352687 48.0865 1.19652 47.9262 2.30866L50.2561 2.64441ZM20.9078 3.26148C21.1337 1.98117 20.2789 0.760163 18.9986 0.534278C17.7183 0.308394 16.4973 1.16317 16.2714 2.44348L20.9078 3.26148ZM78.0177 29.9034C78.0177 31.2035 79.0717 32.2574 80.3717 32.2574C81.6718 32.2574 82.7258 31.2035 82.7258 29.9034H78.0177ZM82.7258 23.518C82.7258 22.2179 81.6718 21.164 80.3717 21.164C79.0717 21.164 78.0177 22.2179 78.0177 23.518H82.7258ZM83.0904 31.2626C82.1711 32.1819 82.1711 33.6724 83.0904 34.5917C84.0097 35.511 85.5001 35.511 86.4194 34.5917L83.0904 31.2626ZM90.9346 30.0765C91.8539 29.1572 91.8539 27.6668 90.9346 26.7475C90.0153 25.8282 88.5248 25.8282 87.6055 26.7475L90.9346 30.0765ZM89.0259 36.1942C87.7328 36.329 86.7939 37.4866 86.9288 38.7797C87.0637 40.0727 88.2212 41.0116 89.5143 40.8768L89.0259 36.1942ZM95.8652 40.2144C97.1583 40.0795 98.0972 38.922 97.9623 37.6289C97.8275 36.3358 96.6699 35.3969 95.3768 35.5318L95.8652 40.2144ZM7.86501 128.326L5.86085 129.561L7.86501 128.326ZM26.1557 127.62L28.2264 128.739L26.1557 127.62ZM1.7253 90.4898C1.87418 94.0997 2.63816 99.5508 4.51411 104.183C6.32387 108.652 9.63631 113.398 15.361 113.398V108.69C12.7401 108.69 10.5526 106.552 8.87791 102.416C7.26938 98.4441 6.56433 93.5695 6.42932 90.2958L1.7253 90.4898ZM15.361 113.398C20.9955 113.398 24.6172 108.77 26.7808 104.331C29.0256 99.7257 30.2376 94.2915 30.6841 90.6818L26.0117 90.1037C25.6067 93.3778 24.498 98.2693 22.5487 102.268C20.5183 106.434 18.0722 108.69 15.361 108.69V113.398ZM26.2331 91.4267C28.9168 96.9159 32.1728 111.543 24.085 126.5L28.2264 128.739C37.1756 112.189 33.6752 95.9298 30.4627 89.3589L26.2331 91.4267ZM21.275 128.064H12.0032V132.772H21.275V128.064ZM9.86917 127.091C6.77812 122.074 2.79396 109.963 6.39081 90.8276L1.76382 89.9579C-2.01042 110.037 2.05286 123.38 5.86085 129.561L9.86917 127.091ZM25.9939 76.5103V90.3928H30.7019V76.5103H25.9939ZM30.7019 76.5103V61.6755H25.9939V76.5103H30.7019ZM19.9577 68.9791L26.4444 77.8951L30.2515 75.1254L23.7648 66.2094L19.9577 68.9791ZM26.5524 60.1532C25.5837 61.2958 24.2448 62.9475 23.0187 64.2239C22.3908 64.8776 21.9238 65.2913 21.6472 65.4757C21.484 65.5845 21.5888 65.4757 21.8894 65.4233C22.0683 65.3921 22.3954 65.3679 22.7855 65.4971C23.2062 65.6365 23.5418 65.9028 23.7648 66.2094L19.9577 68.9791C20.2802 69.4224 20.7392 69.7788 21.3048 69.9662C21.8397 70.1435 22.333 70.1249 22.6972 70.0615C23.3684 69.9446 23.9196 69.6192 24.2588 69.393C24.9869 68.9076 25.7486 68.1781 26.4141 67.4854C27.7747 66.0689 29.2814 64.2145 30.1435 63.1978L26.5524 60.1532ZM11.4438 66.224C12.6449 62.3277 13.9417 58.6077 15.1992 55.521L10.8391 53.7447C9.51628 56.9917 8.17456 60.8477 6.94469 64.837L11.4438 66.224ZM16.6123 77.4172C18.2295 78.9385 20.668 81.4829 22.6817 84.1174C23.6892 85.4354 24.5508 86.725 25.1506 87.8827C25.777 89.0917 25.9939 89.9241 25.9939 90.3928H30.7019C30.7019 88.7945 30.0754 87.1539 29.3309 85.717C28.5599 84.2287 27.5236 82.6993 26.4222 81.2583C24.2181 78.3747 21.5953 75.641 19.8383 73.9881L16.6123 77.4172ZM6.42915 90.2916C6.37943 89.1356 6.516 87.4175 6.84408 85.2364L2.18843 84.5361C1.8455 86.816 1.6563 88.8854 1.72548 90.4939L6.42915 90.2916ZM6.84408 85.2364C7.62159 80.0674 9.37194 72.9444 11.4438 66.224L6.94469 64.837C4.83237 71.6887 3.01293 79.0548 2.18843 84.5361L6.84408 85.2364ZM5.9552 86.7493C7.60947 85.4716 10.2761 83.4814 12.8795 81.6781C15.5772 79.8094 17.9293 78.3402 19.073 77.8987L17.3776 73.5065C15.6125 74.1878 12.7889 76.0137 10.1987 77.8078C7.51419 79.6673 4.78072 81.7076 3.07731 83.0233L5.9552 86.7493ZM23.8059 66.2676L14.9638 53.3063L11.0746 55.9594L19.9167 68.9208L23.8059 66.2676ZM19.9856 74.1397L10.9546 63.9677L7.43389 67.0934L16.465 77.2655L19.9856 74.1397ZM15.2346 55.4284C16.021 53.2388 17.0776 49.6999 17.9085 45.6843L13.2981 44.7304C12.5112 48.5333 11.514 51.8592 10.8037 53.8372L15.2346 55.4284ZM17.9085 45.6843C18.954 40.6311 19.3489 34.8617 19.007 29.9585L14.3104 30.286C14.6214 34.7466 14.2593 40.0849 13.2981 44.7304L17.9085 45.6843ZM30.6617 62.1091C31.2 59.2364 32.3517 54.2073 33.9623 49.0785L29.4706 47.668C27.7984 52.9928 26.6033 58.2049 26.0342 61.2419L30.6617 62.1091ZM33.9623 49.0785C35.2995 44.8205 36.9135 40.6228 38.694 37.543L34.6181 35.1866C32.5809 38.7104 30.8449 43.2919 29.4706 47.668L33.9623 49.0785ZM16.3291 47.4467C17.631 47.0247 20.0198 46.6078 22.6505 46.8683C25.2585 47.1265 27.945 48.0308 30.0925 50.0774L33.3405 46.6691C30.2332 43.708 26.4538 42.5138 23.1143 42.1832C19.7975 41.8548 16.7571 42.3588 14.8775 42.968L16.3291 47.4467ZM69.7574 88.2177C72.6237 90.2294 77.5576 93.95 81.3645 97.451L84.5514 93.9855C80.5368 90.2935 75.4215 86.4412 72.462 84.3641L69.7574 88.2177ZM96.3241 102.024C98.1952 101.103 99.9915 99.645 100.982 97.4126C101.98 95.1615 102.001 92.4778 101 89.4274L96.5266 90.8962C97.2665 93.1496 97.0856 94.5844 96.6778 95.504C96.2617 96.4422 95.4481 97.2074 94.2453 97.7993L96.3241 102.024ZM101 89.4274C99.3229 84.321 95.6893 79.1188 91.9978 74.784C88.2759 70.4134 84.3229 66.7261 81.7828 64.6396L78.7944 68.2776C81.1344 70.1998 84.885 73.6931 88.4134 77.8365C91.9723 82.0157 95.1359 86.6607 96.5266 90.8962L101 89.4274ZM79.6379 40.3573C78.1766 38.5945 75.9056 36.8714 72.8165 36.3012C69.7007 35.7261 66.0623 36.3808 61.9973 38.8198L64.4196 42.8569C67.7233 40.8746 70.2054 40.6068 71.962 40.931C73.7453 41.2602 75.0985 42.2584 76.0133 43.3619L79.6379 40.3573ZM65.257 39.6787C64.7854 38.8457 63.9304 37.6666 62.7975 36.7276C61.7042 35.8214 59.9235 34.8007 57.7946 35.2635L58.7947 39.8641C58.8456 39.853 59.157 39.8251 59.7932 40.3524C60.3898 40.847 60.9017 41.542 61.1599 41.998L65.257 39.6787ZM38.812 44.9121C39.4347 47.4225 40.4254 50.4703 41.8403 53.8324L46.1797 52.0062C44.8513 48.8496 43.9408 46.0332 43.3816 43.7786L38.812 44.9121ZM45.4759 54.7612C47.7277 52.9691 52.1196 49.8671 54.4429 45.7854L50.3513 43.4565C48.596 46.5402 45.1906 48.9712 42.5441 51.0774L45.4759 54.7612ZM54.4429 45.7854C54.8507 45.069 55.7917 43.8341 56.9271 42.499C58.0359 41.195 59.1871 39.9616 59.9144 39.272L56.6749 35.8557C55.7829 36.7015 54.5122 38.0711 53.3404 39.4491C52.1952 40.7959 50.9971 42.3219 50.3513 43.4565L54.4429 45.7854ZM59.5792 58.1007C60.0274 59.9991 60.8544 64.1797 60.8544 66.4586H65.5624C65.5624 63.5676 64.6051 58.8989 64.1612 57.0188L59.5792 58.1007ZM47.6935 65.0906C52.6645 73.0518 59.8316 81.4716 69.7864 88.2378L72.4329 84.344C63.1135 78.0097 56.3768 70.108 51.6869 62.5971L47.6935 65.0906ZM60.8545 66.4453C60.852 66.8857 60.8712 67.3779 60.9135 67.9116L65.6068 67.5396C65.5734 67.1172 65.5608 66.7596 65.5624 66.472L60.8545 66.4453ZM60.9135 67.9116C61.2595 72.2778 63.2385 80.4675 69.2957 87.7912L72.9236 84.7906C67.6085 78.3641 65.8935 71.1571 65.6068 67.5397L60.9135 67.9116ZM49.0428 66.1071L62.6128 69.9889L63.9076 65.4624L50.3376 61.5806L49.0428 66.1071ZM41.8403 53.8324C42.6889 55.8488 43.6921 57.9832 44.8636 60.1871L49.0208 57.9774C47.9174 55.9016 46.9747 53.8954 46.1797 52.0062L41.8403 53.8324ZM44.8636 60.1871C45.7157 61.7903 46.6572 63.4311 47.6935 65.0906L51.6869 62.5971C50.7104 61.0331 49.8233 59.4872 49.0208 57.9774L44.8636 60.1871ZM58.4718 50.191C58.4964 52.5289 58.8215 55.189 59.5919 58.1521L64.1484 56.9674C63.4699 54.3578 63.2 52.0788 63.1795 50.1414L58.4718 50.191ZM81.5787 64.4896C80.6726 63.8959 79.3963 62.5727 78.5814 60.4542L74.1873 62.1444C75.3424 65.1474 77.2352 67.2724 78.9986 68.4277L81.5787 64.4896ZM78.5814 60.4542C77.4828 57.5982 77.1629 53.1137 80.1349 46.868L75.8836 44.8451C72.448 52.0653 72.5543 57.8991 74.1873 62.1444L78.5814 60.4542ZM74.7925 59.5651C73.1126 61.1071 72.804 63.9379 73.5761 67.1437C74.3898 70.5217 76.5335 75.0407 80.8897 80.9121L84.6707 78.1068C80.5242 72.5182 78.7646 68.5796 78.1533 66.0413C77.5005 63.3308 78.2452 62.7865 77.9762 63.0335L74.7925 59.5651ZM80.8897 80.9121C85.224 86.754 88.9567 89.5687 92.1971 90.1835C95.8073 90.8684 98.2074 88.7539 99.0349 86.5927L94.6381 84.9093C94.5028 85.2626 94.1261 85.7574 93.0746 85.558C91.6531 85.2883 88.839 83.725 84.6707 78.1068L80.8897 80.9121ZM81.3645 97.451C83.1686 99.1101 85.4286 100.881 87.911 101.944C90.4256 103.022 93.4027 103.461 96.3241 102.024L94.2453 97.7993C92.9616 98.4311 91.5002 98.3602 89.7652 97.6168C87.9979 96.8596 86.1971 95.499 84.5514 93.9855L81.3645 97.451ZM76.0133 43.3619C76.078 43.4399 76.1424 43.5641 76.1452 43.8128C76.1484 44.0838 76.0722 44.4488 75.8836 44.8451L80.1349 46.868C80.9574 45.1393 81.3928 42.4744 79.6379 40.3573L76.0133 43.3619ZM37.5165 41.2561C38.0769 42.3488 38.4805 43.5756 38.812 44.9121L43.3816 43.7786C43.0023 42.2496 42.4926 40.6421 41.7058 39.1078L37.5165 41.2561ZM35.0851 36.5647C35.8862 38.094 36.697 39.6579 37.5165 41.2561L41.7058 39.1078C40.88 37.4974 40.063 35.9214 39.2555 34.3801L35.0851 36.5647ZM38.694 37.543C38.8601 37.2557 39.033 36.9559 39.2118 36.6444L35.1288 34.3004C34.9529 34.6069 34.7824 34.9024 34.6181 35.1866L38.694 37.543ZM39.2118 36.6444C43.3062 29.5127 50.7197 15.9323 52.5861 2.98016L47.9262 2.30866C46.2036 14.2629 39.2458 27.1292 35.1288 34.3004L39.2118 36.6444ZM60.5967 37.0721C58.7258 28.3124 55.3764 13.2641 52.538 2.06602L47.9743 3.2228C50.7912 14.3358 54.1262 29.3171 55.9926 38.0555L60.5967 37.0721ZM19.007 29.9585C18.3527 20.5731 19.4895 11.3 20.9078 3.26148L16.2714 2.44348C14.8258 10.637 13.6172 20.3435 14.3104 30.286L19.007 29.9585ZM61.406 39.3243C60.4809 40.4255 59.5803 42.2726 59.0287 44.6821L63.618 45.7327C64.0567 43.8162 64.7003 42.7222 65.0109 42.3524L61.406 39.3243ZM59.0287 44.6821C58.6711 46.2441 58.4496 48.0855 58.4718 50.191L63.1795 50.1414C63.1611 48.3949 63.3454 46.9232 63.618 45.7327L59.0287 44.6821ZM48.5766 60.7764L62.9578 46.9014L59.6889 43.5133L45.3077 57.3882L48.5766 60.7764ZM82.7258 29.9034V23.518H78.0177V29.9034H82.7258ZM86.4194 34.5917L90.9346 30.0765L87.6055 26.7475L83.0904 31.2626L86.4194 34.5917ZM89.5143 40.8768L95.8652 40.2144L95.3768 35.5318L89.0259 36.1942L89.5143 40.8768ZM12.0032 128.064C10.9353 128.064 10.2035 127.634 9.86917 127.091L5.86085 129.561C7.26601 131.841 9.75492 132.772 12.0032 132.772V128.064ZM24.085 126.5C23.5783 127.437 22.5195 128.064 21.275 128.064V132.772C24.0659 132.772 26.8138 131.352 28.2264 128.739L24.085 126.5Z" fill="#07619D"/>
</svg>
