<svg width="110" height="122" viewBox="0 0 110 122" fill="none" xmlns="http://www.w3.org/2000/svg">
<path d="M6.03731 41.5403L3.86167 31.0426M6.03731 41.5403L17.5309 39.1582M6.03731 41.5403V46.2295M6.03731 41.5403H22.8917M106.837 41.5403V111.774C106.837 115.606 103.731 118.712 99.8998 118.712H12.975C9.1434 118.712 6.03731 115.606 6.03731 111.774V46.2295M106.837 41.5403V61.9276H63.523M106.837 41.5403H86.857M94.9378 2.38294L70.472 28.186M3.86167 31.0426L3.30786 28.3705C2.53029 24.6186 4.94139 20.9468 8.6932 20.1693L15.5114 18.7562M3.86167 31.0426L15.5114 18.7562M17.5309 39.1582L42.1008 13.2454M17.5309 39.1582L43.9618 33.6803M15.5114 18.7562L42.1008 13.2454M42.1008 13.2454L68.5317 7.76754M43.9618 33.6803L68.5317 7.76754M43.9618 33.6803L70.472 28.186M68.5317 7.76754L93.8093 2.52869C97.5611 1.75111 101.233 4.16221 102.01 7.91403L103.633 15.7441M70.472 28.186L97.0613 22.6753M103.633 15.7441L104.74 21.0839L97.0613 22.6753M103.633 15.7441L97.0613 22.6753M63.5867 61.9276L63.523 61.9276M42.2861 61.9276L63.523 61.9276M20.9219 61.9276H6.03731V46.2295M20.9219 61.9276L6.03731 46.2295M20.9219 61.9276H42.2225M22.8917 41.5403H44.1922M22.8917 41.5403L42.2225 61.9276M44.1922 41.5403H65.5565M44.1922 41.5403L63.523 61.9276M65.5565 41.5403L84.8873 61.9276H106.188L86.857 41.5403M65.5565 41.5403H86.857M63.523 61.9276H42.2225M47.5849 78.2773V101.15C47.5849 102.03 48.5597 102.56 49.2983 102.081L66.959 90.6452C67.6345 90.2077 67.6345 89.2192 66.959 88.7817L49.2983 77.3456C48.5597 76.8673 47.5849 77.3975 47.5849 78.2773Z" stroke="#07619D" stroke-width="4.70802" stroke-linejoin="round"/>
</svg>
