<svg width="149" height="119" viewBox="0 0 149 119" fill="none" xmlns="http://www.w3.org/2000/svg">
<path d="M127.508 31.9388L129.781 31.3261C129.474 30.1861 128.37 29.4502 127.199 29.6051C126.029 29.7601 125.154 30.7581 125.154 31.9388H127.508ZM137.319 51.4185L135.683 53.1106L137.319 51.4185ZM143.646 71.9903C143.543 73.2862 144.509 74.4209 145.805 74.5245C147.101 74.6282 148.236 73.6617 148.339 72.3657L143.646 71.9903ZM84.3466 52.7048C84.3466 51.4047 83.2927 50.3507 81.9926 50.3507C80.6925 50.3507 79.6386 51.4047 79.6386 52.7048H84.3466ZM25.4107 24.213L24.2674 22.1553C23.5201 22.5705 23.0566 23.3582 23.0566 24.213H25.4107ZM64.5168 2.48608H66.8708C66.8708 1.652 66.4295 0.880194 65.7106 0.457217C64.9917 0.0342391 64.1027 0.0232534 63.3736 0.428338L64.5168 2.48608ZM129.862 83.3324V31.9388H125.154V83.3324H129.862ZM125.236 32.5515C126.667 37.8603 127.978 45.6584 135.683 53.1106L138.956 49.7265C132.351 43.3381 131.289 36.9184 129.781 31.3261L125.236 32.5515ZM135.683 53.1106C143.696 60.8605 143.895 68.8886 143.646 71.9903L148.339 72.3657C148.66 68.358 148.29 58.7547 138.956 49.7265L135.683 53.1106ZM125.154 83.3324C125.154 88.9242 120.622 93.4568 115.031 93.4568V98.1648C123.223 98.1648 129.862 91.5239 129.862 83.3324H125.154ZM115.031 93.4568C109.439 93.4568 104.907 88.924 104.907 83.3324H100.199C100.199 91.5241 106.839 98.1648 115.031 98.1648V93.4568ZM104.907 83.3324C104.907 77.7409 109.439 73.2081 115.031 73.2081V68.5001C106.839 68.5001 100.199 75.1408 100.199 83.3324H104.907ZM115.031 73.2081C120.622 73.2081 125.154 77.7407 125.154 83.3324H129.862C129.862 75.141 123.223 68.5001 115.031 68.5001V73.2081ZM84.3466 104.098V52.7048H79.6386V104.098H84.3466ZM79.6386 104.098C79.6386 109.69 75.1064 114.223 69.5152 114.223V118.931C77.7071 118.931 84.3466 112.29 84.3466 104.098H79.6386ZM69.5152 114.223C63.9236 114.223 59.3908 109.69 59.3908 104.098H54.6828C54.6828 112.29 61.3235 118.931 69.5152 118.931V114.223ZM59.3908 104.098C59.3908 98.5069 63.9236 93.9741 69.5152 93.9741V89.2661C61.3235 89.2661 54.6828 95.9067 54.6828 104.098H59.3908ZM69.5152 93.9741C75.1064 93.9741 79.6386 98.5067 79.6386 104.098H84.3466C84.3466 95.907 77.7071 89.2661 69.5152 89.2661V93.9741ZM26.5539 26.2708L65.6601 4.54383L63.3736 0.428338L24.2674 22.1553L26.5539 26.2708ZM27.7647 66.7974V37.2901H23.0566V66.7974H27.7647ZM27.7647 37.2901V24.213H23.0566V37.2901H27.7647ZM62.1628 2.48608V15.9452H66.8708V2.48608H62.1628ZM62.1628 15.9452V56.3833H66.8708V15.9452H62.1628ZM26.5385 39.3563L65.6446 18.0115L63.389 13.8789L24.2829 35.2238L26.5385 39.3563ZM62.1628 56.3833C62.1628 61.2383 58.2271 65.174 53.3722 65.174V69.882C60.8273 69.882 66.8708 63.8384 66.8708 56.3833H62.1628ZM53.3722 65.174C48.5172 65.174 44.5815 61.2383 44.5815 56.3833H39.8735C39.8735 63.8384 45.917 69.882 53.3722 69.882V65.174ZM44.5815 56.3833C44.5815 51.5284 48.5172 47.5927 53.3722 47.5927V42.8847C45.917 42.8847 39.8735 48.9282 39.8735 56.3833H44.5815ZM53.3722 47.5927C58.2271 47.5927 62.1628 51.5284 62.1628 56.3833H66.8708C66.8708 48.9282 60.8273 42.8847 53.3722 42.8847V47.5927ZM23.0566 66.7974C23.0566 71.6524 19.1211 75.588 14.2663 75.588V80.2961C21.7214 80.2961 27.7647 74.2524 27.7647 66.7974H23.0566ZM14.2663 75.588C9.4113 75.588 5.47559 71.6523 5.47559 66.7974H0.767572C0.767572 74.2525 6.81114 80.2961 14.2663 80.2961V75.588ZM5.47559 66.7974C5.47559 61.9424 9.4113 58.0067 14.2663 58.0067V53.2987C6.81114 53.2987 0.767572 59.3423 0.767572 66.7974H5.47559ZM14.2663 58.0067C19.1211 58.0067 23.0566 61.9423 23.0566 66.7974H27.7647C27.7647 59.3423 21.7214 53.2987 14.2663 53.2987V58.0067Z" fill="#07619D"/>
</svg>
