<svg width="116" height="109" viewBox="0 0 116 109" fill="none" xmlns="http://www.w3.org/2000/svg">
<path d="M39.2621 34.735V29.5811C39.2621 28.1829 38.1286 27.0494 36.7304 27.0494H25.5432C24.1449 27.0494 23.0114 28.1829 23.0114 29.5811V34.735M39.2621 34.735H23.0114M39.2621 34.735H44.5918C45.0861 34.735 45.5352 34.4473 45.7418 33.9982L50.084 24.5613C50.2906 24.1123 50.7397 23.8246 51.234 23.8246L75.6178 23.8246C76.1103 23.8246 76.5581 24.1102 76.7657 24.5568L81.1574 34.0028C81.365 34.4493 81.8128 34.735 82.3052 34.735H107.195C110.69 34.735 113.524 37.5688 113.524 41.0644V58.8368M23.0114 34.735H19.7058C16.2101 34.735 13.3763 37.5688 13.3763 41.0644V58.8368M90.1462 58.8368C86.1136 48.3707 75.9606 40.9447 64.0732 40.9447C52.1858 40.9447 42.0329 48.3707 38.0002 58.8368M90.1462 58.8368C91.3467 61.9524 92.0048 65.3375 92.0048 68.8763C92.0048 72.3316 91.3773 75.6404 90.2302 78.695M90.1462 58.8368H113.524M113.524 58.8368V78.695M38.0002 58.8368C36.7998 61.9524 36.1417 65.3375 36.1417 68.8763C36.1417 72.3316 36.7691 75.6404 37.9162 78.695M38.0002 58.8368H13.3763M13.3763 58.8368V78.695M13.3763 78.695V99.585C13.3763 103.081 16.2101 105.914 19.7058 105.914H107.195C110.69 105.914 113.524 103.081 113.524 99.585V78.695M13.3763 78.695H37.9162M37.9162 78.695C41.8904 89.2773 52.1024 96.8078 64.0732 96.8078C76.0441 96.8078 86.256 89.2773 90.2302 78.695M90.2302 78.695H113.524M26.353 3.18042V12.5805M10.684 11.24L17.3309 17.8869M2.6875 26.8465H12.0876M83.5234 68.8763C83.5234 79.6183 74.8153 88.3265 64.0732 88.3265C53.3311 88.3265 44.623 79.6183 44.623 68.8763C44.623 58.1342 53.3311 49.4261 64.0732 49.4261C74.8153 49.4261 83.5234 58.1342 83.5234 68.8763ZM102.836 46.8278C102.836 48.9395 101.124 50.6515 99.0127 50.6515C96.9009 50.6515 95.189 48.9395 95.189 46.8278C95.189 44.716 96.9009 43.0041 99.0127 43.0041C101.124 43.0041 102.836 44.716 102.836 46.8278Z" stroke="#07619D" stroke-width="4.70802" stroke-linecap="round" stroke-linejoin="round"/>
</svg>
