<svg width="122" height="122" viewBox="0 0 122 122" fill="none" xmlns="http://www.w3.org/2000/svg">
<path d="M63.1825 3.76622C62.6206 3.74999 62.0568 3.74182 61.491 3.74182C32.6521 3.74182 8.77155 24.9713 4.62477 52.6549M63.1825 3.76622C65.2354 7.4955 67.5202 14.9242 60.5149 15.218C60.3178 15.2262 60.1147 15.2109 59.9183 15.1927C58.1816 15.0317 55.2057 15.3783 55.2057 17.9568C55.2057 20.6875 58.5433 20.8392 60.212 20.5737C61.9946 20.4979 65.5597 21.3702 65.5597 25.4662C65.5597 29.5623 58.657 28.9934 55.2057 28.197C54.2735 27.97 51.9092 28.2402 49.9099 31.1371C49.1419 32.0528 48.0959 32.2397 47.3253 32.1892C46.834 32.157 46.3369 32.0481 45.8649 32.188C44.2051 32.6802 41.5044 34.6278 39.9644 39.8075C39.3524 41.6436 37.1253 42.6806 36.0883 42.9696C35.5443 43.0886 34.2624 43.8469 33.4872 45.9278C32.7119 48.0086 26.3639 47.5428 23.2867 47.0498C22.0287 46.9308 19.4004 47.3558 18.9516 50.0079C18.3905 53.3231 20.9916 55.5162 26.6019 55.5672C30.6152 55.6036 31.937 57.8178 32.1718 59.2705C32.2228 59.5864 32.2384 59.9119 32.3683 60.2044C33.0143 61.6596 35.1696 63.2101 39.9644 60.2594C41.7721 59.1961 43.2882 59.2296 44.3181 59.5702C45.1787 59.8548 45.5216 60.7873 45.9587 61.5813C46.6562 62.8483 48.2446 63.9717 51.3379 62.8605C54.1941 61.8404 56.0641 65.0196 56.6422 66.7366C56.8972 67.8247 57.9478 70.0926 60.1103 70.4598C62.8134 70.9188 62.6604 74.642 67.6586 73.3159C72.6568 71.9899 77.706 69.2357 78.7771 80.3032C79.4488 87.2443 75.1283 90.3759 71.4281 91.5116C69.7949 92.0129 68.3493 93.1649 67.5178 94.6573C66.9584 95.6613 66.2091 96.7103 65.2597 97.583C63.6682 99.0459 62.3033 101.148 62.012 103.29C61.5525 106.668 59.4692 110.279 53.5645 110.487C53.2074 110.5 52.8436 110.536 52.5133 110.673C51.3926 111.135 49.7789 112.26 49.6039 114.22C49.3488 117.076 42.2085 117.229 43.7896 108.507C45.3707 99.786 48.0228 94.4818 38.6894 89.4836C29.356 84.4854 31.8551 79.0282 33.9972 77.7531C36.1393 76.4781 32.9262 65.1046 27.5199 66.7366C24.5618 67.5527 22.097 63.8634 21.8883 61.2453C21.6796 58.6273 16.6309 58.8162 14.2813 59.0088C12.4015 59.1629 8.58036 57.6606 4.62477 52.6549M63.1825 3.76622C78.9831 4.22268 93.1861 11.0531 103.31 21.7761M4.62477 52.6549C4.20498 55.4573 3.98743 58.3259 3.98743 61.2453C3.98743 93.0037 29.7326 118.749 61.491 118.749C81.4588 118.749 99.0496 108.571 109.359 93.1206M103.31 21.7761C113.034 32.0747 118.994 45.9639 118.994 61.2453C118.994 73.0358 115.446 83.9974 109.359 93.1206M103.31 21.7761C101.913 21.9565 98.9763 23.0477 98.4015 25.9697C97.683 29.6221 95.9466 30.2208 92.5337 30.3406C89.1208 30.4603 88.5819 35.7294 90.5578 38.8429C92.5337 41.9565 88.1029 45.1897 84.7499 46.2076C81.3968 47.2255 79.8999 59.1917 81.0975 60.2185C82.295 61.2453 84.7499 60.8771 84.7499 66.0863C84.7499 71.2955 94.7491 69.4394 98.4015 67.7628C102.054 66.0863 106.964 65.5474 106.904 72.1338C106.824 73.0119 107.203 75.0677 109.359 76.2652C112.053 77.7621 111.814 80.8756 109.359 85.6058C107.395 89.3899 108.54 92.1924 109.359 93.1206" stroke="#07619D" stroke-width="6"/>
</svg>
