<svg width="143" height="127" viewBox="0 0 143 127" fill="none" xmlns="http://www.w3.org/2000/svg">
<path d="M31.7077 54.32L32.6926 52.1819L31.7077 54.32ZM29.0869 47.2231L26.9489 46.2383L26.9488 46.2383L29.0869 47.2231ZM38.8046 51.6992L40.9427 52.6841V52.6841L38.8046 51.6992ZM50.4264 13.6816L49.4416 15.8197L50.4264 13.6816ZM53.0472 20.7785L55.1853 21.7633L53.0472 20.7785ZM43.3295 16.3024L41.1914 15.3175L43.3295 16.3024ZM49.1405 29.2598L51.2786 30.2446V30.2446L49.1405 29.2598ZM43.1668 42.2288L45.3049 43.2136L43.1668 42.2288ZM51.4992 24.1392L49.3611 23.1543V23.1543L51.4992 24.1392ZM39.1687 50.9088L37.0306 49.924H37.0306L39.1687 50.9088ZM45.5652 13.8778L46.7177 15.9303L45.5652 13.8778ZM41.8177 19.5844L43.9558 20.5693L41.8177 19.5844ZM29.19 46.9994L31.3281 47.9843L31.3281 47.9843L29.19 46.9994ZM35.6166 5.34199L36.5833 3.19562V3.19562L35.6166 5.34199ZM70.5679 123.757H68.2139C68.2139 125.057 69.2678 126.111 70.5679 126.111V123.757ZM112.771 123.757V126.111C114.071 126.111 115.125 125.057 115.125 123.757H112.771ZM112.771 97.9907L112.932 95.6422C112.282 95.5975 111.641 95.8248 111.165 96.27C110.688 96.7152 110.417 97.3383 110.417 97.9907H112.771ZM77.7317 103.113C78.9962 103.416 80.2662 102.635 80.5684 101.371C80.8706 100.107 80.0905 98.8365 78.826 98.5343L77.7317 103.113ZM46.2751 65.4238L48.4835 64.6087C48.458 64.5395 48.4292 64.4716 48.3973 64.4051L46.2751 65.4238ZM53.329 51.316L55.1715 52.7811C55.1905 52.7572 55.2091 52.7328 55.2273 52.7081L53.329 51.316ZM63.3873 37.6001L62.523 35.4105C62.1101 35.5735 61.7516 35.85 61.4891 36.208L63.3873 37.6001ZM70.5679 46.8746L68.2285 46.6123L70.5679 46.8746ZM65.4774 59.9374L64.1716 57.9787C63.4034 58.4909 63.0055 59.4049 63.154 60.3161C63.3026 61.2274 63.9701 61.9677 64.8613 62.2093L65.4774 59.9374ZM88.3372 70.3876L89.8535 68.587L88.3372 70.3876ZM93.5598 85.4449C93.5792 86.7448 94.6488 87.7829 95.9487 87.7635C97.2486 87.7441 98.2867 86.6745 98.2673 85.3746L93.5598 85.4449ZM50.3742 55.2988L52.3176 56.6272L50.3742 55.2988ZM85.6625 68.4295L84.3821 70.4048L85.6625 68.4295ZM124.538 84.354L123.68 86.5458L124.538 84.354ZM133.794 62.8558L132.792 64.9859L133.794 62.8558ZM5.24756 26.51C5.24756 14.9948 14.5825 5.65992 26.0977 5.65992V0.951899C11.9823 0.951899 0.539545 12.3947 0.539545 26.51H5.24756ZM36.6665 50.7144C35.9744 52.217 34.1952 52.8741 32.6926 52.1819L30.7229 56.4581C34.5872 58.2381 39.1628 56.5484 40.9427 52.6841L36.6665 50.7144ZM49.4416 15.8197C50.9442 16.5118 51.6012 18.291 50.9091 19.7936L55.1853 21.7633C56.9652 17.899 55.2755 13.3234 51.4112 11.5435L49.4416 15.8197ZM47.0025 28.275L41.0287 41.2439L45.3049 43.2136L51.2786 30.2446L47.0025 28.275ZM50.9091 19.7936L49.3611 23.1543L53.6373 25.124L55.1853 21.7633L50.9091 19.7936ZM41.0287 41.2439L37.0306 49.924L41.3068 51.8936L45.3049 43.2136L41.0287 41.2439ZM37.0306 49.924L36.6665 50.7144L40.9427 52.6841L41.3068 51.8936L37.0306 49.924ZM28.3458 47.2405C27.608 47.3195 26.858 47.3601 26.0977 47.3601V52.0681C27.0257 52.0681 27.9431 52.0186 28.847 51.9218L28.3458 47.2405ZM32.6926 52.1819C31.6213 51.6885 30.9756 50.6409 30.9498 49.5266L26.243 49.6357C26.3089 52.4788 27.9566 55.1839 30.7229 56.4581L32.6926 52.1819ZM30.9498 49.5266C30.9396 49.0886 31.026 48.64 31.225 48.208L26.9488 46.2383C26.4434 47.3356 26.2167 48.4967 26.243 49.6357L30.9498 49.5266ZM51.4112 11.5435C49.0784 10.4689 46.4857 10.6612 44.4126 11.8252L46.7177 15.9303C47.5321 15.473 48.5366 15.4029 49.4416 15.8197L51.4112 11.5435ZM44.4126 11.8252C43.0449 12.5932 41.8963 13.7871 41.1914 15.3175L45.4676 17.2872C45.7434 16.6884 46.1867 16.2285 46.7177 15.9303L44.4126 11.8252ZM51.2786 30.2446L53.6373 25.124L49.3611 23.1543L47.0025 28.275L51.2786 30.2446ZM43.9558 20.5693L45.4676 17.2872L41.1914 15.3175L39.6796 18.5996L43.9558 20.5693ZM31.225 48.208L31.3281 47.9843L27.0519 46.0146L26.9489 46.2383L31.225 48.208ZM31.3281 47.9843L43.9558 20.5693L39.6796 18.5996L27.0519 46.0146L31.3281 47.9843ZM26.0977 47.3601C22.907 47.3601 19.89 46.6451 17.1923 45.3687L15.1787 49.6244C18.4927 51.1923 22.1962 52.0681 26.0977 52.0681V47.3601ZM17.1923 45.3687C10.1269 42.0257 5.24756 34.8353 5.24756 26.51H0.539545C0.539545 36.7231 6.53011 45.5323 15.1787 49.6244L17.1923 45.3687ZM26.0977 5.65992C29.1501 5.65992 32.0433 6.31436 34.65 7.48835L36.5833 3.19562C33.3809 1.75329 29.8297 0.951899 26.0977 0.951899V5.65992ZM34.65 7.48835C38.314 9.1386 41.4185 11.8189 43.5917 15.161L47.5387 12.5946C44.8781 8.50269 41.0775 5.21974 36.5833 3.19562L34.65 7.48835ZM18.3233 48.482L37.7545 6.32741L33.4788 4.35656L14.0477 46.5111L18.3233 48.482ZM68.2139 97.3963V123.757H72.9219V97.3963H68.2139ZM70.5679 126.111H112.771V121.403H70.5679V126.111ZM115.125 123.757V97.9907H110.417V123.757H115.125ZM112.61 100.339C114.924 100.498 118.065 99.6229 120.604 96.9629C123.173 94.2716 124.934 89.9691 124.934 83.5867H120.226C120.226 89.1099 118.717 92.1217 117.199 93.7122C115.651 95.334 113.887 95.7079 112.932 95.6422L112.61 100.339ZM78.826 98.5343C72.7493 97.082 57.2284 88.3013 48.4835 64.6087L44.0668 66.2389C53.2962 91.2442 69.9619 101.256 77.7317 103.113L78.826 98.5343ZM64.2517 39.7897C65.8749 39.1489 66.7504 39.4962 67.2438 40.0368C67.9182 40.7756 68.6703 42.672 68.2285 46.6123L72.9072 47.1369C73.4028 42.7171 72.769 39.1061 70.7209 36.8626C68.4919 34.4209 65.3084 34.311 62.523 35.4105L64.2517 39.7897ZM68.2285 46.6123C67.7845 50.5727 66.8985 53.3657 66.0304 55.2135C65.5957 56.1386 65.171 56.8154 64.8177 57.2805C64.6412 57.5127 64.4888 57.684 64.3692 57.8034C64.3098 57.8628 64.2616 57.9062 64.2259 57.9362C64.1895 57.9667 64.1712 57.979 64.1716 57.9787L66.7832 61.896C67.9411 61.1241 69.211 59.5153 70.2916 57.2155C71.4078 54.8396 72.4139 51.5367 72.9072 47.1369L68.2285 46.6123ZM86.8209 72.1882C92.13 76.6591 93.5237 83.026 93.5598 85.4449L98.2673 85.3746C98.2163 81.9588 96.4576 74.1483 89.8535 68.587L86.8209 72.1882ZM48.3973 64.4051C48.546 64.7148 48.4711 64.8263 48.4972 64.4942C48.5189 64.218 48.6038 63.7435 48.8404 63.0442C49.3133 61.6466 50.3287 59.5366 52.3176 56.6272L48.4309 53.9703C46.2843 57.1105 45.0324 59.6094 44.3808 61.5352C44.0551 62.4976 43.8635 63.3634 43.8036 64.1254C43.7481 64.8315 43.7866 65.6792 44.153 66.4425L48.3973 64.4051ZM52.3176 56.6272C53.1101 55.4679 54.0531 54.1876 55.1715 52.7811L51.4865 49.8509C50.3048 51.337 49.2935 52.7085 48.4309 53.9703L52.3176 56.6272ZM51.2329 53.107L40.0274 48.717L38.31 53.1006L49.5155 57.4906L51.2329 53.107ZM125.397 82.1622L123.438 81.3949L121.721 85.7785L123.68 86.5458L125.397 82.1622ZM114.94 73.7155C112.02 73.7155 109.654 71.3489 109.654 68.4295H104.946C104.946 73.9491 109.42 78.4236 114.94 78.4236V73.7155ZM120.226 68.4295C120.226 71.3489 117.859 73.7155 114.94 73.7155V78.4236C120.459 78.4236 124.934 73.9491 124.934 68.4295H120.226ZM114.94 37.7757C117.859 37.7757 120.226 40.1423 120.226 43.0617H124.934C124.934 37.5422 120.459 33.0677 114.94 33.0677V37.7757ZM114.94 33.0677C109.42 33.0677 104.946 37.5422 104.946 43.0617H109.654C109.654 40.1423 112.02 37.7757 114.94 37.7757V33.0677ZM99.6597 69.2589C96.7404 69.2589 94.3737 66.8923 94.3737 63.9729H89.6657C89.6657 69.4925 94.1402 73.9669 99.6597 73.9669V69.2589ZM104.946 63.9729C104.946 66.8923 102.579 69.2589 99.6597 69.2589V73.9669C105.179 73.9669 109.654 69.4925 109.654 63.9729H104.946ZM99.6597 33.3191C102.579 33.3191 104.946 35.6857 104.946 38.6051H109.654C109.654 33.0855 105.179 28.6111 99.6597 28.6111V33.3191ZM99.6597 28.6111C94.1402 28.6111 89.6657 33.0855 89.6657 38.6051H94.3737C94.3737 35.6857 96.7404 33.3191 99.6597 33.3191V28.6111ZM84.3797 64.5476C81.4604 64.5476 79.0938 62.181 79.0938 59.2616H74.3857C74.3857 64.7811 78.8602 69.2556 84.3797 69.2556V64.5476ZM89.6657 59.2616C89.6657 62.181 87.2991 64.5476 84.3797 64.5476V69.2556C89.8993 69.2556 94.3737 64.7811 94.3737 59.2616H89.6657ZM84.3797 28.6078C87.2991 28.6078 89.6657 30.9744 89.6657 33.8938H94.3737C94.3737 28.3742 89.8993 23.8998 84.3797 23.8998V28.6078ZM84.3797 23.8998C78.8602 23.8998 74.3857 28.3742 74.3857 33.8938H79.0938C79.0938 30.9744 81.4604 28.6078 84.3797 28.6078V23.8998ZM69.0997 23.1325C72.0191 23.1325 74.3857 25.4991 74.3857 28.4185H79.0938C79.0938 22.8989 74.6193 18.4244 69.0997 18.4244V23.1325ZM69.0997 18.4244C63.5802 18.4244 59.1057 22.8989 59.1057 28.4185H63.8137C63.8137 25.4991 66.1804 23.1325 69.0997 23.1325V18.4244ZM55.2273 52.7081L63.358 41.6207L59.5615 38.8366L51.4307 49.9239L55.2273 52.7081ZM63.358 41.6207L65.2856 38.9922L61.4891 36.208L59.5615 38.8366L63.358 41.6207ZM63.8137 40.2286V28.8252H59.1057V40.2286H63.8137ZM63.8137 28.8252V28.4185H59.1057V28.8252H63.8137ZM50.4971 26.2692L60.4576 30.9553L62.4618 26.6952L52.5013 22.0091L50.4971 26.2692ZM79.0938 59.2616V36.0139H74.3857V59.2616H79.0938ZM79.0938 36.0139V33.8938H74.3857V36.0139H79.0938ZM74.3857 28.4185V36.0139H79.0938V28.4185H74.3857ZM74.3857 36.0139V53.7863H79.0938V36.0139H74.3857ZM94.3737 63.9729V43.2025H89.6657V63.9729H94.3737ZM94.3737 43.2025V38.6051H89.6657V43.2025H94.3737ZM89.6657 33.8938V43.2025H94.3737V33.8938H89.6657ZM89.6657 43.2025V59.2616H94.3737V43.2025H89.6657ZM109.654 68.4295V50.3911H104.946V68.4295H109.654ZM109.654 50.3911V43.0617H104.946V50.3911H109.654ZM104.946 38.6051V50.3911H109.654V38.6051H104.946ZM104.946 50.3911V63.9729H109.654V50.3911H104.946ZM121.578 59.7098L132.792 64.9859L134.796 60.7258L123.582 55.4497L121.578 59.7098ZM120.226 43.0617V57.5798H124.934V43.0617H120.226ZM120.226 57.5798V68.4295H124.934V57.5798H120.226ZM74.3857 53.7863C74.3857 56.4675 72.3873 58.6858 69.7997 59.0266L70.4145 63.6943C75.3136 63.049 79.0938 58.861 79.0938 53.7863H74.3857ZM64.8613 62.2093C66.0338 62.5273 67.5874 62.995 69.3548 63.5911L70.8593 59.1299C69.0127 58.5071 67.3679 58.011 66.0935 57.6654L64.8613 62.2093ZM69.3548 63.5911C74.0591 65.1775 80.0515 67.5976 84.3821 70.4048L86.943 66.4543C82.1184 63.3267 75.6871 60.758 70.8593 59.1299L69.3548 63.5911ZM84.3821 70.4048C85.2942 70.9961 86.1136 71.5926 86.8209 72.1882L89.8535 68.587C88.966 67.8396 87.9824 67.128 86.943 66.4543L84.3821 70.4048ZM123.474 81.4091L86.5566 66.2519L84.7685 70.6072L121.686 85.7643L123.474 81.4091ZM137.313 77.3515C135.245 81.861 130.016 83.9719 125.397 82.1622L123.68 86.5458C130.624 89.2662 138.484 86.0931 141.593 79.3143L137.313 77.3515ZM141.593 79.3143C144.809 72.3028 141.776 64.0095 134.796 60.7258L132.792 64.9859C137.436 67.1704 139.453 72.6873 137.313 77.3515L141.593 79.3143Z" fill="#07619D"/>
</svg>
