<svg width="135" height="120" viewBox="0 0 135 120" fill="none" xmlns="http://www.w3.org/2000/svg">
<path d="M3.20923 94.1694V7.69421C3.20923 5.48507 5.00009 3.69421 7.20923 3.69421H90.6967C92.9059 3.69421 94.6967 5.48508 94.6967 7.69421V36.2514M3.20923 94.1694L18.3296 109.672M3.20923 94.1694H20.9901C23.1992 94.1694 24.9901 95.9602 24.9901 98.1694V112.125C24.9901 114.334 26.7809 116.125 28.9901 116.125H90.6967C92.9059 116.125 94.6967 114.334 94.6967 112.125V75.3494M22.5815 14.1488H74.8626M11.8135 25.0584H27.3987M36.3248 25.0584H86.0556M86.0556 36.2514H11.8135M11.8135 47.0193H38.3083M46.6676 47.0193H64.8031M76.5628 57.7873H11.8135M11.8135 68.4135H64.8031M11.8135 79.3231H59.8442M55.3103 99.0171H86.0556M73.2629 72.4059L61.2845 89.2371L79.6514 79.3231M73.2629 72.4059L79.6514 79.3231M73.2629 72.4059L83.1906 62.5619M79.6514 79.3231L89.6642 69.2731M89.6642 69.2731L83.1906 62.5619M89.6642 69.2731L125.478 33.269M83.1906 62.5619L118.809 26.3166M118.809 26.3166L123.012 22.0462C124.911 20.1169 128.024 20.1206 129.919 22.0546V22.0546C131.775 23.9501 131.76 26.9872 129.883 28.8635L125.478 33.269M118.809 26.3166L125.478 33.269" stroke="#07619D" stroke-width="6" stroke-linecap="round" stroke-linejoin="round"/>
</svg>
