<svg width="96" height="97" viewBox="0 0 96 97" fill="none" xmlns="http://www.w3.org/2000/svg">
<path fill-rule="evenodd" clip-rule="evenodd" d="M76.9616 28.2545C76.9616 34.1523 72.2707 38.9334 66.4842 38.9334C60.6977 38.9334 56.0069 34.1523 56.0069 28.2545C56.0069 22.3567 60.6977 17.5755 66.4842 17.5755C72.2708 17.5755 76.9616 22.3567 76.9616 28.2545ZM70.4205 28.2545C70.4205 30.5702 68.596 32.3334 66.4842 32.3334C64.3725 32.3334 62.548 30.5702 62.548 28.2545C62.548 25.9387 64.3725 24.1755 66.4842 24.1755C68.596 24.1755 70.4205 25.9387 70.4205 28.2545Z" fill="#07619D"/>
<path fill-rule="evenodd" clip-rule="evenodd" d="M11.617 0.394653L84.3834 0.394653C90.2538 0.394653 95.0128 5.1964 95.0128 11.1196L95.0128 85.3696C95.0128 91.2929 90.2538 96.0946 84.3834 96.0946L11.617 96.0946C5.7465 96.0946 0.98755 91.2929 0.987549 85.3696L0.987549 11.1197C0.987548 5.1964 5.7465 0.394654 11.617 0.394653ZM11.617 6.99465C9.35909 6.99465 7.52873 8.84148 7.52873 11.1197L7.52872 54.5839L33.9102 34.5121C35.2322 33.5063 37.0905 33.6559 38.2377 34.8605L49.9112 47.1193L57.089 42.348C58.3761 41.4925 60.0804 41.6597 61.18 42.7493L88.4716 69.7933L88.4716 11.1197C88.4716 8.84148 86.6412 6.99465 84.3834 6.99465L11.617 6.99465ZM8.67591 61.9772C8.32237 62.2462 7.93225 62.4318 7.52872 62.5373L7.52873 85.3696C7.52873 87.6478 9.35909 89.4946 11.617 89.4946L84.3834 89.4946C86.6412 89.4946 88.4716 87.6478 88.4716 85.3696L88.4716 77.7185C87.6444 77.7186 86.8166 77.404 86.1798 76.7729L58.4815 49.3259L51.2374 54.1412C49.9206 55.0165 48.1723 54.8192 47.0797 53.6719L35.5314 41.5446L8.67591 61.9772Z" fill="#07619D"/>
</svg>
