<svg width="94" height="120" viewBox="0 0 94 120" fill="none" xmlns="http://www.w3.org/2000/svg">
<path d="M28.4291 16.1862L16.0482 16.1862C9.21036 16.1862 3.66724 21.7792 3.66724 28.6785L3.66724 103.632C3.66724 110.531 9.21036 116.124 16.0482 116.124L77.9527 116.124C84.7905 116.124 90.3336 110.531 90.3336 103.632L90.3336 28.6785C90.3336 21.7792 84.7905 16.1862 77.9527 16.1862L65.5718 16.1862M28.4291 16.1862C28.4291 23.0855 33.9722 28.6785 40.81 28.6785L53.1909 28.6785C60.0287 28.6785 65.5718 23.0855 65.5718 16.1862M28.4291 16.1862C28.4291 9.28694 33.9722 3.69397 40.81 3.69397L53.1909 3.69397C60.0287 3.69397 65.5718 9.28694 65.5718 16.1862M47.0004 59.9091L65.5718 59.9091M47.0004 84.8936L65.5718 84.8936M28.4291 59.9091L28.491 59.9091M28.4291 84.8936L28.491 84.8936" stroke="#07619D" stroke-width="6" stroke-linecap="round"/>
</svg>
