<svg width="120" height="103" viewBox="0 0 120 103" fill="none" xmlns="http://www.w3.org/2000/svg">
<path d="M29.3924 28.2123L63.7172 3.73246C67.6128 0.954242 73.0194 3.73907 73.0194 8.52381V94.5715C73.0194 99.3562 67.6128 102.141 63.7172 99.3628L29.3924 74.883M29.3924 28.2123V74.883M29.3924 28.2123H11.8231C6.77199 28.2123 2.67725 32.307 2.67725 37.3581V65.7372C2.67725 70.7883 6.77199 74.883 11.8231 74.883H29.3924M89.9292 26.5213C93.3675 30.7487 100.244 42.1458 100.244 53.915C100.244 65.6842 93.3675 74.6012 89.9292 77.5886M100.244 12.9935C105.937 19.4606 117.323 36.896 117.323 54.9005C117.323 72.9049 105.937 86.5463 100.244 91.1164" stroke="#07619D" stroke-width="4.70802" stroke-linecap="round" stroke-linejoin="round"/>
</svg>
