<svg width="152" height="119" viewBox="0 0 152 119" fill="none" xmlns="http://www.w3.org/2000/svg">
<path d="M73.0507 14.742C74.175 11.3599 75.2784 8.31748 76.2709 5.7687C76.6677 4.74957 77.5686 4.02062 78.6483 3.84683C92.863 1.55902 105.593 3.06231 116.36 6.36572C127.07 9.85083 138.352 15.9367 148.669 25.9785C149.453 26.7413 149.771 27.8556 149.51 28.9177C145.8 44.0177 135.855 74.2335 122.376 86.9029C109.345 99.1515 93.7793 104.65 86.2661 106.191C85.2923 106.391 84.2969 106.077 83.6149 105.354C81.4305 103.037 78.5023 99.3656 75.565 94.6102M73.0507 14.742C60.2601 11.5036 48.3981 11.5917 38.0457 13.4437C26.9939 15.6145 15.0622 20.2984 3.61101 29.0255C2.74116 29.6884 2.29112 30.7563 2.42236 31.842C4.28831 47.2788 10.5242 78.4719 22.3802 92.6714C33.8424 106.399 48.6336 113.731 55.9066 116.166C56.8493 116.481 57.8791 116.286 58.6431 115.65C62.8961 112.11 69.8682 104.78 75.565 94.6102M73.0507 14.742C73.9585 14.9718 74.8709 15.2184 75.7878 15.4823C76.8388 15.7848 77.6462 16.6241 77.9174 17.6836C78.6065 20.375 79.3478 23.5854 80.067 27.1432M83.4039 49.8472C88.3593 47.2627 94.7877 46.3216 102.868 48.8757C121.45 54.7488 122.32 70.7434 120.119 79.6613C119.944 80.3723 118.985 80.4264 118.656 79.7718C115.627 73.7318 108.689 63.7586 99.1203 60.7343C94.2095 59.1822 88.8284 59.5307 83.9538 60.6722M83.4039 49.8472C83.7201 53.4733 83.9186 57.1169 83.9538 60.6722M83.4039 49.8472C82.7325 42.1468 81.5307 34.5255 80.2376 27.9956M83.9538 60.6722C84.0304 68.4368 83.3276 75.7807 81.3677 81.6026C79.7776 86.326 77.7666 90.6801 75.565 94.6102M80.2376 27.9956C80.4173 28.1446 80.6757 28.2096 80.9515 28.1228C86.0505 26.5182 94.8516 24.0786 102.869 31.811C103.309 32.2352 104.045 32.0646 104.154 31.4634C104.876 27.5 104.04 20.9216 96.0541 18.3974C88.1864 15.9107 82.3972 22.9721 80.086 27.1072C80.0793 27.1192 80.073 27.1312 80.067 27.1432M80.2376 27.9956C80.1809 27.7093 80.124 27.4252 80.067 27.1432M15.1043 45.6707C14.9201 41.6406 16.6087 35.3655 24.7271 33.8421C32.7463 32.3373 37.1493 37.3246 38.8688 41.0614C39.1516 41.676 38.5211 42.2626 37.8776 42.0539C32.8596 40.4267 23.672 39.633 16.3873 46.1303C15.9054 46.5601 15.1337 46.3158 15.1043 45.6707ZM47.1334 39.6605C46.9492 35.6304 48.6378 29.3553 56.7562 27.8319C64.7754 26.3271 69.1784 31.3144 70.898 35.0513C71.1808 35.6659 70.5503 36.2524 69.9067 36.0437C64.8888 34.4165 55.7011 33.6228 48.4165 40.1201C47.9345 40.55 47.1629 40.3056 47.1334 39.6605ZM22.8906 71.9123C25.4856 82.69 34.376 99.559 53.5826 95.9549C72.787 92.3513 74.8972 73.4225 73.3721 62.4437C73.266 61.6803 72.2408 61.5466 71.8781 62.2266C68.3449 68.8509 60.6265 79.3376 50.8101 81.1796C40.9887 83.0225 29.9302 76.0501 24.2006 71.164C23.6145 70.6642 22.7102 71.1634 22.8906 71.9123ZM111.926 33.9198C113.614 30.2619 118.078 25.3587 126.064 27.8828C133.932 30.3696 134.611 39.4755 134.126 44.1878C134.057 44.8607 133.245 45.0585 132.834 44.5214C129.583 40.2777 123.783 33.2231 112.778 34.9429C112.174 35.0372 111.67 34.4747 111.926 33.9198Z" stroke="#07619D" stroke-width="4.70802"/>
</svg>
