<svg width="108" height="135" viewBox="0 0 108 135" fill="none" xmlns="http://www.w3.org/2000/svg">
<path d="M91.4874 9.71426C90.6241 8.74214 89.1363 8.65388 88.1641 9.51712C87.192 10.3804 87.1038 11.8682 87.967 12.8404L91.4874 9.71426ZM88.0627 32.9497C87.1434 33.869 87.1434 35.3595 88.0627 36.2788C88.982 37.1981 90.4724 37.1981 91.3917 36.2788L88.0627 32.9497ZM98.0138 1.14716C97.1505 0.175036 95.6627 0.0867741 94.6905 0.95002C93.7184 1.81327 93.6302 3.30113 94.4934 4.27325L98.0138 1.14716ZM94.5891 41.5168C93.6698 42.4361 93.6698 43.9266 94.5891 44.8459C95.5083 45.7652 96.9988 45.7652 97.9181 44.8459L94.5891 41.5168ZM20.0337 12.8404C20.8969 11.8682 20.8087 10.3804 19.8365 9.51712C18.8644 8.65388 17.3766 8.74214 16.5133 9.71426L20.0337 12.8404ZM16.609 36.2788C17.5283 37.1981 19.0187 37.1981 19.938 36.2788C20.8573 35.3595 20.8573 33.869 19.938 32.9497L16.609 36.2788ZM13.5073 4.27325C14.3705 3.30113 14.2823 1.81327 13.3101 0.95002C12.338 0.0867741 10.8502 0.175036 9.98691 1.14716L13.5073 4.27325ZM10.0826 44.8459C11.0019 45.7652 12.4923 45.7652 13.4116 44.8459C14.3309 43.9266 14.3309 42.4361 13.4116 41.5168L10.0826 44.8459ZM71.4224 132.385V134.739H73.7764V132.385H71.4224ZM36.5781 132.385H34.2241V134.739H36.5781V132.385ZM42.8219 109.915H40.4679V112.269H42.8219V109.915ZM65.1786 109.915V112.269H67.5326V109.915H65.1786ZM49.2362 109.915V107.561H46.8822V109.915H49.2362ZM49.2362 120.098H46.8822V122.452H49.2362V120.098ZM58.7643 120.098V122.452H61.1183V120.098H58.7643ZM58.7643 109.915H61.1183V107.561H58.7643V109.915ZM89.3661 63.1138L87.0329 63.4261L89.3661 63.1138ZM83.1984 60.0744L82.2062 57.9397L83.1984 60.0744ZM80.2279 65.6465L77.8803 65.8201L80.2279 65.6465ZM27.7725 65.6466L30.1201 65.8201L27.7725 65.6466ZM24.802 60.0744L25.7941 57.9397L24.802 60.0744ZM18.6342 63.1138L20.9674 63.4261L18.6342 63.1138ZM60.5294 25.0273C59.2293 25.0273 58.1754 26.0812 58.1754 27.3813C58.1754 28.6814 59.2293 29.7353 60.5294 29.7353V25.0273ZM60.5294 41.6549C59.2293 41.6549 58.1754 42.7089 58.1754 44.0089C58.1754 45.309 59.2293 46.363 60.5294 46.363V41.6549ZM60.5294 33.3411C59.2293 33.3411 58.1754 34.395 58.1754 35.6951C58.1754 36.9952 59.2293 38.0491 60.5294 38.0491V33.3411ZM60.5294 49.9687C59.2293 49.9687 58.1754 51.0227 58.1754 52.3228C58.1754 53.6228 59.2293 54.6768 60.5294 54.6768V49.9687ZM47.4716 29.7353C48.7717 29.7353 49.8256 28.6814 49.8256 27.3813C49.8256 26.0812 48.7717 25.0273 47.4716 25.0273V29.7353ZM47.4716 46.363C48.7717 46.363 49.8256 45.309 49.8256 44.0089C49.8256 42.7089 48.7717 41.6549 47.4716 41.6549V46.363ZM47.4716 38.0491C48.7717 38.0491 49.8256 36.9952 49.8256 35.6951C49.8256 34.395 48.7717 33.3411 47.4716 33.3411V38.0491ZM47.4716 54.6768C48.7717 54.6768 49.8256 53.6228 49.8256 52.3228C49.8256 51.0227 48.7717 49.9687 47.4716 49.9687V54.6768ZM87.967 12.8404C89.563 14.6376 91.5066 17.8713 92.0647 21.551C92.6037 25.1048 91.8748 29.1376 88.0627 32.9497L91.3917 36.2788C96.3606 31.3099 97.4611 25.7343 96.7195 20.845C95.997 16.0814 93.5502 12.0372 91.4874 9.71426L87.967 12.8404ZM94.4934 4.27325C97.4325 7.58308 100.988 13.4886 102.016 20.2677C103.025 26.9211 101.625 34.4811 94.5891 41.5168L97.9181 44.8459C106.111 36.6534 107.883 27.5505 106.671 19.5617C105.478 11.6987 101.42 4.98265 98.0138 1.14716L94.4934 4.27325ZM16.5133 9.71426C14.4505 12.0372 12.0037 16.0814 11.2812 20.845C10.5396 25.7343 11.6401 31.3099 16.609 36.2788L19.938 32.9497C16.1259 29.1376 15.397 25.1048 15.936 21.551C16.4941 17.8713 18.4377 14.6376 20.0337 12.8404L16.5133 9.71426ZM9.98691 1.14716C6.58099 4.98265 2.52235 11.6987 1.32977 19.5617C0.118113 27.5505 1.89011 36.6534 10.0826 44.8459L13.4116 41.5168C6.37597 34.4811 4.97544 26.9211 5.98455 20.2677C7.01274 13.4886 10.5682 7.58308 13.5073 4.27325L9.98691 1.14716ZM77.9391 67.4165C77.9391 79.7758 67.3399 90.004 54.0002 90.004V94.7121C69.7029 94.7121 82.6471 82.6069 82.6471 67.4165H77.9391ZM54.0002 90.004C40.6606 90.004 30.0614 79.7758 30.0614 67.4165H25.3533C25.3533 82.6069 38.2976 94.7121 54.0002 94.7121V90.004ZM20.7024 67.4165C20.7024 66.0637 20.7926 64.732 20.9674 63.4261L16.301 62.8015C16.0986 64.3137 15.9944 65.8541 15.9944 67.4165H20.7024ZM30.0614 67.4165C30.0614 66.8794 30.0812 66.3471 30.1201 65.8201L25.4249 65.4731C25.3775 66.1154 25.3533 66.7635 25.3533 67.4165H30.0614ZM77.8803 65.8201C77.9192 66.3471 77.9391 66.8794 77.9391 67.4165H82.6471C82.6471 66.7635 82.623 66.1154 82.5755 65.473L77.8803 65.8201ZM87.0329 63.4261C87.2077 64.732 87.2979 66.0637 87.2979 67.4165H92.0059C92.0059 65.8541 91.9017 64.3137 91.6993 62.8015L87.0329 63.4261ZM43.1589 122.452H64.8417V117.744H43.1589V122.452ZM69.0684 126.679V132.385H73.7764V126.679H69.0684ZM71.4224 130.031H36.5781V134.739H71.4224V130.031ZM38.9321 132.385V126.679H34.2241V132.385H38.9321ZM64.8417 122.452C67.176 122.452 69.0684 124.345 69.0684 126.679H73.7764C73.7764 121.744 69.7762 117.744 64.8417 117.744V122.452ZM43.1589 117.744C38.2244 117.744 34.2241 121.744 34.2241 126.679H38.9321C38.9321 124.345 40.8245 122.452 43.1589 122.452V117.744ZM42.8219 112.269H65.1786V107.561H42.8219V112.269ZM46.8822 109.915V120.098H51.5902V109.915H46.8822ZM49.2362 122.452H58.7643V117.744H49.2362V122.452ZM61.1183 120.098V109.915H56.4103V120.098H61.1183ZM58.7643 107.561H49.2362V112.269H58.7643V107.561ZM67.5326 109.915V99.5402H62.8246V109.915H67.5326ZM87.2979 67.4165C87.2979 81.2639 77.8039 93.1224 64.4755 97.2936L65.8816 101.787C80.982 97.061 92.0059 83.5173 92.0059 67.4165H87.2979ZM64.4755 97.2936C61.1854 98.3233 57.6645 98.8819 54.0002 98.8819V103.59C58.1449 103.59 62.1398 102.958 65.8816 101.787L64.4755 97.2936ZM40.4679 99.5402V109.915H45.1759V99.5402H40.4679ZM54.0002 98.8819C50.3359 98.8819 46.815 98.3233 43.525 97.2937L42.1188 101.787C45.8606 102.958 49.8555 103.59 54.0002 103.59V98.8819ZM43.525 97.2937C30.1965 93.1225 20.7024 81.264 20.7024 67.4165H15.9944C15.9944 83.5174 27.0184 97.0611 42.1188 101.787L43.525 97.2937ZM91.6993 62.8015C91.063 58.0477 85.999 56.1769 82.2062 57.9397L84.1906 62.2091C84.8765 61.8903 85.5882 61.9287 86.1169 62.1797C86.6181 62.4178 86.9538 62.8349 87.0329 63.4261L91.6993 62.8015ZM82.5755 65.473C82.4609 63.923 83.1878 62.6752 84.1906 62.2091L82.2062 57.9397C79.0384 59.412 77.6558 62.7834 77.8803 65.8201L82.5755 65.473ZM30.1201 65.8201C30.3446 62.7835 28.962 59.412 25.7941 57.9397L23.8098 62.2091C24.8126 62.6752 25.5395 63.923 25.4249 65.4731L30.1201 65.8201ZM20.9674 63.4261C21.0466 62.835 21.3822 62.4178 21.8835 62.1797C22.4122 61.9286 23.1238 61.8903 23.8098 62.2091L25.7941 57.9397C22.0014 56.1769 16.9373 58.0477 16.301 62.8015L20.9674 63.4261ZM46.3912 5.06421H61.6098V0.356195H46.3912V5.06421ZM61.6098 74.0126H46.3912V78.7207H61.6098V74.0126ZM60.5294 29.7353H73.4552V25.0273H60.5294V29.7353ZM60.5294 46.363H73.4552V41.6549H60.5294V46.363ZM60.5294 38.0491H73.4552V33.3411H60.5294V38.0491ZM60.5294 54.6768H73.4552V49.9687H60.5294V54.6768ZM34.5458 29.7353H47.4716V25.0273H34.5458V29.7353ZM34.5458 46.363H47.4716V41.6549H34.5458V46.363ZM34.5458 38.0491H47.4716V33.3411H34.5458V38.0491ZM34.5458 54.6768H47.4716V49.9687H34.5458V54.6768ZM71.1012 14.5556V27.3813H75.8092V14.5556H71.1012ZM71.1012 27.3813V35.6951H75.8092V27.3813H71.1012ZM71.1012 35.6951V44.0089H75.8092V35.6951H71.1012ZM71.1012 44.0089V52.3228H75.8092V44.0089H71.1012ZM71.1012 52.3228V63.3682H75.8092V52.3228H71.1012ZM71.1012 63.3682V64.5213H75.8092V63.3682H71.1012ZM73.4552 65.7222H80.1943V61.0141H73.4552V65.7222ZM36.8998 64.5213V63.3682H32.1918V64.5213H36.8998ZM36.8998 63.3682V52.3228H32.1918V63.3682H36.8998ZM36.8998 52.3228V44.0089H32.1918V52.3228H36.8998ZM36.8998 44.0089V35.6951H32.1918V44.0089H36.8998ZM36.8998 35.6951V27.3813H32.1918V35.6951H36.8998ZM36.8998 27.3813V14.5556H32.1918V27.3813H36.8998ZM34.5458 61.0141H27.4952V65.7222H34.5458V61.0141ZM46.3912 74.0126C41.1492 74.0126 36.8998 69.7632 36.8998 64.5213H32.1918C32.1918 72.3634 38.5491 78.7207 46.3912 78.7207V74.0126ZM61.6098 78.7207C69.4519 78.7207 75.8092 72.3634 75.8092 64.5213H71.1012C71.1012 69.7632 66.8518 74.0126 61.6098 74.0126V78.7207ZM61.6098 5.06421C66.8518 5.06421 71.1012 9.31364 71.1012 14.5556H75.8092C75.8092 6.71347 69.4519 0.356195 61.6098 0.356195V5.06421ZM46.3912 0.356195C38.5491 0.356195 32.1918 6.71346 32.1918 14.5556H36.8998C36.8998 9.31364 41.1492 5.06421 46.3912 5.06421V0.356195Z" fill="#07619D"/>
</svg>
