<svg width="82" height="50" viewBox="0 0 82 50" fill="none" xmlns="http://www.w3.org/2000/svg">
<path d="M5.10309 13.5379C4.54907 13.5379 4.01273 13.4908 3.49408 13.3965C2.97542 13.314 2.48623 13.1843 2.02651 13.0075C1.5668 12.8307 1.15423 12.6126 0.788812 12.3533C0.635573 12.2472 0.52359 12.1175 0.452864 11.9643C0.393926 11.811 0.376245 11.6637 0.39982 11.5222C0.435183 11.369 0.500015 11.2393 0.594316 11.1332C0.700405 11.0271 0.824175 10.9623 0.965627 10.9387C1.10708 10.9152 1.26032 10.9623 1.42534 11.0802C1.96758 11.4456 2.53338 11.7108 3.12276 11.8759C3.72393 12.0409 4.38404 12.1234 5.10309 12.1234C6.1404 12.1234 6.9007 11.9348 7.384 11.5576C7.87908 11.1804 8.12662 10.6853 8.12662 10.0724C8.12662 9.56548 7.9498 9.1706 7.59617 8.88769C7.24255 8.593 6.64727 8.36314 5.81035 8.19812L3.93611 7.80912C2.82807 7.57337 1.99705 7.18438 1.44303 6.64215C0.900795 6.09992 0.629679 5.37498 0.629679 4.46733C0.629679 3.91331 0.741662 3.41233 0.965627 2.9644C1.18959 2.50469 1.50786 2.1098 1.92043 1.77975C2.33299 1.44969 2.81629 1.19626 3.37031 1.01944C3.93611 0.842629 4.56086 0.754221 5.24454 0.754221C5.97537 0.754221 6.65906 0.854416 7.29559 1.05481C7.94391 1.2552 8.5274 1.54989 9.04605 1.93888C9.18751 2.04497 9.28181 2.17463 9.32896 2.32787C9.37611 2.46932 9.382 2.61077 9.34664 2.75223C9.32306 2.89368 9.25823 3.01155 9.15214 3.10586C9.05784 3.20016 8.93407 3.2532 8.78083 3.26499C8.63938 3.27678 8.48025 3.22373 8.30343 3.10586C7.83193 2.7758 7.34863 2.54005 6.85355 2.3986C6.35847 2.24536 5.81624 2.16874 5.22686 2.16874C4.62569 2.16874 4.10114 2.26304 3.65321 2.45164C3.21707 2.64024 2.87522 2.90547 2.62768 3.24731C2.39193 3.57736 2.27405 3.96635 2.27405 4.41428C2.27405 4.95652 2.43908 5.38087 2.76914 5.68735C3.09919 5.99383 3.65321 6.22958 4.43119 6.39461L6.28775 6.76592C7.46651 7.01346 8.3388 7.39656 8.9046 7.91521C9.4822 8.42208 9.77099 9.10576 9.77099 9.96626C9.77099 10.5085 9.65901 10.9977 9.43505 11.4338C9.22287 11.87 8.91639 12.2472 8.51561 12.5654C8.11483 12.8719 7.62564 13.1136 7.04805 13.2904C6.47045 13.4554 5.82213 13.5379 5.10309 13.5379ZM15.7149 13.5379C14.7836 13.5379 13.9821 13.3611 13.3102 13.0075C12.6501 12.6421 12.1373 12.1293 11.7719 11.4692C11.4065 10.7973 11.2238 10.0075 11.2238 9.09987C11.2238 8.20401 11.4006 7.42013 11.7542 6.74824C12.1196 6.07634 12.6147 5.55179 13.2395 5.17459C13.876 4.79738 14.6009 4.60878 15.4143 4.60878C15.9919 4.60878 16.5105 4.70897 16.9702 4.90936C17.4418 5.09797 17.8425 5.37498 18.1726 5.74039C18.5026 6.10581 18.7502 6.55374 18.9152 7.08418C19.092 7.60284 19.1804 8.19222 19.1804 8.85233C19.1804 9.04093 19.1215 9.18828 19.0036 9.29437C18.8975 9.38867 18.7384 9.43582 18.5262 9.43582H12.4792V8.41029H18.1195L17.819 8.65783C17.819 8.04488 17.7247 7.52622 17.5361 7.10187C17.3592 6.66572 17.094 6.33567 16.7404 6.1117C16.3985 5.88774 15.9683 5.77576 15.4496 5.77576C14.8838 5.77576 14.4005 5.91131 13.9998 6.18243C13.599 6.44176 13.2925 6.81307 13.0803 7.29636C12.8682 7.76787 12.7621 8.31599 12.7621 8.94074V9.04683C12.7621 10.1077 13.0155 10.9093 13.5224 11.4515C14.0292 11.9937 14.7601 12.2649 15.7149 12.2649C16.0921 12.2649 16.4752 12.2177 16.8642 12.1234C17.2649 12.0291 17.648 11.8582 18.0135 11.6106C18.1903 11.5045 18.3494 11.4574 18.4909 11.4692C18.6441 11.4692 18.7679 11.5163 18.8622 11.6106C18.9565 11.6932 19.0154 11.7992 19.039 11.9289C19.0626 12.0468 19.0449 12.1764 18.9859 12.3179C18.927 12.4593 18.815 12.5831 18.65 12.6892C18.261 12.9603 17.7954 13.1725 17.2532 13.3257C16.7227 13.4672 16.2099 13.5379 15.7149 13.5379ZM24.9124 13.5379C24.0401 13.5379 23.2857 13.3552 22.6492 12.9898C22.0126 12.6126 21.5235 12.088 21.1816 11.4161C20.8398 10.7325 20.6689 9.9309 20.6689 9.01146C20.6689 8.32778 20.7632 7.71482 20.9518 7.17259C21.1521 6.63036 21.435 6.17064 21.8005 5.79344C22.1659 5.40445 22.6079 5.10975 23.1266 4.90936C23.657 4.70897 24.2523 4.60878 24.9124 4.60878C25.325 4.60878 25.7611 4.67361 26.2208 4.80328C26.6805 4.93294 27.1049 5.14512 27.4939 5.43981C27.6236 5.53411 27.7061 5.64609 27.7414 5.77576C27.7768 5.89363 27.7768 6.0174 27.7414 6.14707C27.7179 6.27673 27.6589 6.38871 27.5646 6.48301C27.4821 6.56553 27.3701 6.61268 27.2287 6.62447C27.099 6.63625 26.9576 6.595 26.8043 6.5007C26.5214 6.28852 26.2208 6.13528 25.9026 6.04098C25.5961 5.94668 25.3014 5.89953 25.0185 5.89953C24.5823 5.89953 24.1934 5.97025 23.8515 6.1117C23.5215 6.25316 23.2386 6.45944 23.0028 6.73056C22.7788 6.98988 22.6079 7.31404 22.49 7.70304C22.3722 8.08024 22.3132 8.52228 22.3132 9.02915C22.3132 10.0311 22.549 10.8209 23.0205 11.3985C23.492 11.9643 24.158 12.2472 25.0185 12.2472C25.3014 12.2472 25.5961 12.2059 25.9026 12.1234C26.209 12.0291 26.5096 11.8759 26.8043 11.6637C26.9576 11.5694 27.099 11.534 27.2287 11.5576C27.3583 11.5694 27.4644 11.6224 27.5469 11.7167C27.6412 11.7992 27.7002 11.9053 27.7238 12.035C27.7473 12.1529 27.7355 12.2766 27.6884 12.4063C27.653 12.536 27.5705 12.6421 27.4409 12.7246C27.0636 13.0075 26.6511 13.2138 26.2031 13.3434C25.7552 13.4731 25.325 13.5379 24.9124 13.5379ZM30.2318 13.5026C29.9606 13.5026 29.7544 13.4318 29.6129 13.2904C29.4715 13.1489 29.4007 12.9426 29.4007 12.6715V5.45749C29.4007 5.18637 29.4715 4.98598 29.6129 4.85632C29.7544 4.71487 29.9489 4.64414 30.1964 4.64414C30.4439 4.64414 30.6325 4.71487 30.7622 4.85632C30.9037 4.98598 30.9744 5.18637 30.9744 5.45749V6.81896H30.7976C30.9862 6.1117 31.3398 5.57537 31.8585 5.20995C32.3771 4.84453 33.0313 4.63825 33.8211 4.5911C34.0097 4.57931 34.1629 4.62646 34.2808 4.73255C34.3987 4.82685 34.4635 4.99188 34.4753 5.22763C34.4871 5.4516 34.4341 5.6343 34.3162 5.77576C34.1983 5.90542 34.0156 5.98204 33.7681 6.00562L33.4498 6.0233C32.6718 6.10581 32.0706 6.35924 31.6463 6.7836C31.2337 7.20795 31.0274 7.79144 31.0274 8.53406V12.6715C31.0274 12.9426 30.9567 13.1489 30.8152 13.2904C30.6856 13.4318 30.4911 13.5026 30.2318 13.5026ZM39.7161 13.5379C38.7848 13.5379 37.9833 13.3611 37.3114 13.0075C36.6513 12.6421 36.1385 12.1293 35.7731 11.4692C35.4077 10.7973 35.225 10.0075 35.225 9.09987C35.225 8.20401 35.4018 7.42013 35.7554 6.74824C36.1208 6.07634 36.6159 5.55179 37.2407 5.17459C37.8772 4.79738 38.6021 4.60878 39.4155 4.60878C39.9931 4.60878 40.5117 4.70897 40.9714 4.90936C41.443 5.09797 41.8437 5.37498 42.1738 5.74039C42.5038 6.10581 42.7514 6.55374 42.9164 7.08418C43.0932 7.60284 43.1816 8.19222 43.1816 8.85233C43.1816 9.04093 43.1227 9.18828 43.0048 9.29437C42.8987 9.38867 42.7396 9.43582 42.5274 9.43582H36.4804V8.41029H42.1207L41.8202 8.65783C41.8202 8.04488 41.7259 7.52622 41.5373 7.10187C41.3604 6.66572 41.0952 6.33567 40.7416 6.1117C40.3997 5.88774 39.9695 5.77576 39.4508 5.77576C38.885 5.77576 38.4017 5.91131 38.001 6.18243C37.6002 6.44176 37.2937 6.81307 37.0815 7.29636C36.8694 7.76787 36.7633 8.31599 36.7633 8.94074V9.04683C36.7633 10.1077 37.0167 10.9093 37.5236 11.4515C38.0304 11.9937 38.7613 12.2649 39.7161 12.2649C40.0933 12.2649 40.4764 12.2177 40.8654 12.1234C41.2661 12.0291 41.6492 11.8582 42.0147 11.6106C42.1915 11.5045 42.3506 11.4574 42.4921 11.4692C42.6453 11.4692 42.7691 11.5163 42.8634 11.6106C42.9577 11.6932 43.0166 11.7992 43.0402 11.9289C43.0638 12.0468 43.0461 12.1764 42.9871 12.3179C42.9282 12.4593 42.8162 12.5831 42.6512 12.6892C42.2622 12.9603 41.7966 13.1725 41.2544 13.3257C40.7239 13.4672 40.2111 13.5379 39.7161 13.5379ZM48.7372 13.5379C48.0417 13.5379 47.4582 13.4141 46.9867 13.1666C46.527 12.9191 46.1793 12.5595 45.9435 12.088C45.7196 11.6165 45.6076 11.0389 45.6076 10.3553V6.00562H44.476C44.2638 6.00562 44.0988 5.95257 43.9809 5.84648C43.863 5.72861 43.8041 5.57537 43.8041 5.38676C43.8041 5.18637 43.863 5.03314 43.9809 4.92705C44.0988 4.82096 44.2638 4.76791 44.476 4.76791H45.6076V2.84063C45.6076 2.56952 45.6783 2.36913 45.8198 2.23946C45.9612 2.09801 46.1616 2.02729 46.4209 2.02729C46.6803 2.02729 46.8748 2.09801 47.0044 2.23946C47.1459 2.36913 47.2166 2.56952 47.2166 2.84063V4.76791H49.3561C49.58 4.76791 49.7509 4.82096 49.8688 4.92705C49.9867 5.03314 50.0456 5.18637 50.0456 5.38676C50.0456 5.57537 49.9867 5.72861 49.8688 5.84648C49.7509 5.95257 49.58 6.00562 49.3561 6.00562H47.2166V10.2138C47.2166 10.8621 47.3522 11.3513 47.6233 11.6814C47.8944 12.0114 48.3423 12.1764 48.9671 12.1764C49.191 12.1764 49.3796 12.1588 49.5329 12.1234C49.6861 12.0762 49.8217 12.0527 49.9395 12.0527C50.0456 12.0409 50.134 12.0762 50.2048 12.1588C50.2873 12.2413 50.3285 12.3945 50.3285 12.6185C50.3285 12.7835 50.2991 12.9367 50.2401 13.0782C50.193 13.2079 50.0928 13.2963 49.9395 13.3434C49.7981 13.3906 49.6095 13.4318 49.3737 13.4672C49.138 13.5143 48.9258 13.5379 48.7372 13.5379ZM54.2432 13.5379C53.6538 13.5379 53.1175 13.42 52.6342 13.1843C52.1627 12.9485 51.7914 12.6303 51.5202 12.2295C51.2609 11.8287 51.1312 11.3808 51.1312 10.8857C51.1312 10.2492 51.2904 9.74819 51.6086 9.38277C51.9269 9.01736 52.4632 8.75803 53.2177 8.60479C53.9721 8.43976 54.9858 8.35725 56.2589 8.35725H57.0899V9.38277H56.2942C55.3866 9.38277 54.6675 9.42403 54.1371 9.50654C53.6184 9.58906 53.253 9.7364 53.0408 9.94858C52.8287 10.149 52.7226 10.4319 52.7226 10.7973C52.7226 11.257 52.8817 11.6342 53.2 11.9289C53.53 12.2236 53.978 12.3709 54.5438 12.3709C54.9917 12.3709 55.3866 12.2649 55.7284 12.0527C56.0703 11.8287 56.3414 11.534 56.5418 11.1686C56.7422 10.7914 56.8424 10.3611 56.8424 9.87785V7.84449C56.8424 7.14902 56.7009 6.64804 56.418 6.34156C56.1351 6.0233 55.6577 5.86416 54.9858 5.86416C54.5968 5.86416 54.196 5.91721 53.7835 6.0233C53.3709 6.12939 52.9406 6.29441 52.4927 6.51838C52.3159 6.60089 52.1627 6.63036 52.033 6.60678C51.9033 6.57142 51.7972 6.5007 51.7147 6.39461C51.644 6.27673 51.6027 6.15296 51.591 6.0233C51.591 5.88184 51.6204 5.74629 51.6794 5.61662C51.7501 5.48696 51.868 5.39266 52.033 5.33372C52.5517 5.07439 53.0644 4.89168 53.5713 4.78559C54.0899 4.66772 54.5732 4.60878 55.0212 4.60878C55.7874 4.60878 56.418 4.73255 56.9131 4.98009C57.4082 5.21584 57.7795 5.58715 58.027 6.09402C58.2746 6.5891 58.3983 7.22564 58.3983 8.00362V12.6715C58.3983 12.9426 58.3335 13.1489 58.2038 13.2904C58.0742 13.4318 57.8856 13.5026 57.638 13.5026C57.4023 13.5026 57.2137 13.4318 57.0722 13.2904C56.9425 13.1489 56.8777 12.9426 56.8777 12.6715V11.4161H57.0369C56.9425 11.8523 56.7657 12.2295 56.5064 12.5478C56.2471 12.866 55.9229 13.1136 55.5339 13.2904C55.1567 13.4554 54.7265 13.5379 54.2432 13.5379ZM61.7614 13.5026C61.4903 13.5026 61.284 13.4318 61.1425 13.2904C61.0011 13.1489 60.9304 12.9426 60.9304 12.6715V5.45749C60.9304 5.18637 61.0011 4.98598 61.1425 4.85632C61.284 4.71487 61.4785 4.64414 61.726 4.64414C61.9736 4.64414 62.1622 4.71487 62.2918 4.85632C62.4333 4.98598 62.504 5.18637 62.504 5.45749V6.81896H62.3272C62.5158 6.1117 62.8694 5.57537 63.3881 5.20995C63.9067 4.84453 64.561 4.63825 65.3507 4.5911C65.5393 4.57931 65.6926 4.62646 65.8104 4.73255C65.9283 4.82685 65.9932 4.99188 66.0049 5.22763C66.0167 5.4516 65.9637 5.6343 65.8458 5.77576C65.7279 5.90542 65.5452 5.98204 65.2977 6.00562L64.9794 6.0233C64.2014 6.10581 63.6003 6.35924 63.1759 6.7836C62.7633 7.20795 62.5571 7.79144 62.5571 8.53406V12.6715C62.5571 12.9426 62.4863 13.1489 62.3449 13.2904C62.2152 13.4318 62.0207 13.5026 61.7614 13.5026ZM68.1839 13.4672C67.9364 13.4672 67.7419 13.3906 67.6004 13.2373C67.459 13.0841 67.3882 12.8719 67.3882 12.6008V5.5459C67.3882 5.26299 67.459 5.05082 67.6004 4.90936C67.7419 4.75613 67.9364 4.67951 68.1839 4.67951C68.4432 4.67951 68.6436 4.75613 68.7851 4.90936C68.9265 5.05082 68.9973 5.26299 68.9973 5.5459V12.6008C68.9973 12.8719 68.9265 13.0841 68.7851 13.2373C68.6554 13.3906 68.455 13.4672 68.1839 13.4672ZM68.1839 2.76991C67.8656 2.76991 67.6122 2.68739 67.4236 2.52237C67.2468 2.34555 67.1584 2.11569 67.1584 1.83279C67.1584 1.52631 67.2468 1.29645 67.4236 1.14321C67.6122 0.978187 67.8656 0.895673 68.1839 0.895673C68.5257 0.895673 68.7792 0.978187 68.9442 1.14321C69.121 1.29645 69.2094 1.52631 69.2094 1.83279C69.2094 2.11569 69.121 2.34555 68.9442 2.52237C68.7792 2.68739 68.5257 2.76991 68.1839 2.76991ZM74.3248 13.5379C73.7354 13.5379 73.199 13.42 72.7157 13.1843C72.2442 12.9485 71.8729 12.6303 71.6018 12.2295C71.3425 11.8287 71.2128 11.3808 71.2128 10.8857C71.2128 10.2492 71.372 9.74819 71.6902 9.38277C72.0085 9.01736 72.5448 8.75803 73.2992 8.60479C74.0536 8.43976 75.0674 8.35725 76.3404 8.35725H77.1715V9.38277H76.3758C75.4682 9.38277 74.7491 9.42403 74.2187 9.50654C73.7 9.58906 73.3346 9.7364 73.1224 9.94858C72.9102 10.149 72.8042 10.4319 72.8042 10.7973C72.8042 11.257 72.9633 11.6342 73.2816 11.9289C73.6116 12.2236 74.0595 12.3709 74.6253 12.3709C75.0733 12.3709 75.4682 12.2649 75.81 12.0527C76.1518 11.8287 76.423 11.534 76.6234 11.1686C76.8237 10.7914 76.9239 10.3611 76.9239 9.87785V7.84449C76.9239 7.14902 76.7825 6.64804 76.4996 6.34156C76.2167 6.0233 75.7393 5.86416 75.0674 5.86416C74.6784 5.86416 74.2776 5.91721 73.865 6.0233C73.4525 6.12939 73.0222 6.29441 72.5743 6.51838C72.3975 6.60089 72.2442 6.63036 72.1146 6.60678C71.9849 6.57142 71.8788 6.5007 71.7963 6.39461C71.7256 6.27673 71.6843 6.15296 71.6725 6.0233C71.6725 5.88184 71.702 5.74629 71.7609 5.61662C71.8317 5.48696 71.9496 5.39266 72.1146 5.33372C72.6332 5.07439 73.146 4.89168 73.6529 4.78559C74.1715 4.66772 74.6548 4.60878 75.1027 4.60878C75.8689 4.60878 76.4996 4.73255 76.9947 4.98009C77.4897 5.21584 77.8611 5.58715 78.1086 6.09402C78.3561 6.5891 78.4799 7.22564 78.4799 8.00362V12.6715C78.4799 12.9426 78.4151 13.1489 78.2854 13.2904C78.1557 13.4318 77.9671 13.5026 77.7196 13.5026C77.4838 13.5026 77.2952 13.4318 77.1538 13.2904C77.0241 13.1489 76.9593 12.9426 76.9593 12.6715V11.4161H77.1184C77.0241 11.8523 76.8473 12.2295 76.588 12.5478C76.3287 12.866 76.0045 13.1136 75.6155 13.2904C75.2383 13.4554 74.8081 13.5379 74.3248 13.5379ZM1.79666 31.5026C1.5609 31.5026 1.37819 31.4318 1.24853 31.2904C1.11887 31.1489 1.05403 30.9603 1.05403 30.7246V19.5676C1.05403 19.32 1.11887 19.1314 1.24853 19.0018C1.38998 18.8603 1.57858 18.7896 1.81434 18.7896C2.02651 18.7896 2.19154 18.8308 2.30942 18.9134C2.43908 18.9959 2.55696 19.1373 2.66305 19.3377L7.40168 28.2315H6.85355L11.5922 19.3377C11.6983 19.1373 11.8103 18.9959 11.9281 18.9134C12.046 18.8308 12.211 18.7896 12.4232 18.7896C12.659 18.7896 12.8417 18.8603 12.9713 19.0018C13.101 19.1314 13.1658 19.32 13.1658 19.5676V30.7246C13.1658 30.9603 13.101 31.1489 12.9713 31.2904C12.8535 31.4318 12.6708 31.5026 12.4232 31.5026C12.1757 31.5026 11.9871 31.4318 11.8574 31.2904C11.7395 31.1489 11.6806 30.9603 11.6806 30.7246V21.1943H12.0696L7.82603 29.1332C7.73173 29.2865 7.63154 29.4044 7.52545 29.4869C7.43115 29.5576 7.29559 29.593 7.11877 29.593C6.95375 29.593 6.8123 29.5517 6.69442 29.4692C6.58833 29.3867 6.49403 29.2747 6.41152 29.1332L2.11492 21.1766H2.53928V30.7246C2.53928 30.9603 2.47444 31.1489 2.34478 31.2904C2.2269 31.4318 2.0442 31.5026 1.79666 31.5026ZM19.0608 31.5379C18.3653 31.5379 17.7818 31.4083 17.3103 31.1489C16.8506 30.8896 16.5088 30.5065 16.2848 29.9996C16.0609 29.4928 15.9489 28.8562 15.9489 28.09V23.4575C15.9489 23.1864 16.0137 22.986 16.1434 22.8563C16.2848 22.7149 16.4852 22.6441 16.7445 22.6441C17.0039 22.6441 17.2043 22.7149 17.3457 22.8563C17.4872 22.986 17.5579 23.1864 17.5579 23.4575V28.09C17.5579 28.8209 17.7052 29.3631 17.9999 29.7167C18.2946 30.0586 18.7602 30.2295 19.3968 30.2295C20.104 30.2295 20.6757 29.9937 21.1119 29.5222C21.5598 29.0507 21.7837 28.426 21.7837 27.648V23.4575C21.7837 23.1864 21.8486 22.986 21.9782 22.8563C22.1197 22.7149 22.3201 22.6441 22.5794 22.6441C22.8387 22.6441 23.0391 22.7149 23.1806 22.8563C23.322 22.986 23.3928 23.1864 23.3928 23.4575V30.6715C23.3928 31.2255 23.1334 31.5026 22.6148 31.5026C22.3555 31.5026 22.1551 31.4318 22.0136 31.2904C21.8839 31.1489 21.8191 30.9426 21.8191 30.6715V29.1332L22.049 29.4338C21.8132 30.1175 21.4301 30.6421 20.8997 31.0075C20.381 31.3611 19.7681 31.5379 19.0608 31.5379ZM26.7775 31.5026C26.53 31.5026 26.3355 31.4318 26.194 31.2904C26.0526 31.1489 25.9819 30.9426 25.9819 30.6715V23.4575C25.9819 23.1864 26.0526 22.986 26.194 22.8563C26.3355 22.7149 26.53 22.6441 26.7775 22.6441C27.0251 22.6441 27.2137 22.7149 27.3433 22.8563C27.4848 22.986 27.5555 23.1864 27.5555 23.4575V24.9074L27.361 24.6421C27.6085 23.9703 28.0093 23.4634 28.5633 23.1215C29.1292 22.7797 29.7716 22.6088 30.4906 22.6088C31.1861 22.6088 31.7578 22.7326 32.2057 22.9801C32.6537 23.2276 32.9896 23.6048 33.2136 24.1117C33.4375 24.6186 33.5495 25.261 33.5495 26.039V30.6715C33.5495 30.9426 33.4788 31.1489 33.3373 31.2904C33.2077 31.4318 33.0132 31.5026 32.7539 31.5026C32.4945 31.5026 32.2941 31.4318 32.1527 31.2904C32.0112 31.1489 31.9405 30.9426 31.9405 30.6715V26.1274C31.9405 25.3612 31.7932 24.8013 31.4985 24.4477C31.2038 24.094 30.7323 23.9172 30.084 23.9172C29.3295 23.9172 28.7225 24.153 28.2628 24.6245C27.8148 25.0842 27.5909 25.7089 27.5909 26.4987V30.6715C27.5909 31.2255 27.3198 31.5026 26.7775 31.5026ZM36.896 31.4672C36.6485 31.4672 36.454 31.3906 36.3125 31.2373C36.1711 31.0841 36.1003 30.8719 36.1003 30.6008V23.5459C36.1003 23.263 36.1711 23.0508 36.3125 22.9094C36.454 22.7561 36.6485 22.6795 36.896 22.6795C37.1553 22.6795 37.3557 22.7561 37.4972 22.9094C37.6386 23.0508 37.7094 23.263 37.7094 23.5459V30.6008C37.7094 30.8719 37.6386 31.0841 37.4972 31.2373C37.3675 31.3906 37.1671 31.4672 36.896 31.4672ZM36.896 20.7699C36.5777 20.7699 36.3243 20.6874 36.1357 20.5224C35.9589 20.3456 35.8705 20.1157 35.8705 19.8328C35.8705 19.5263 35.9589 19.2965 36.1357 19.1432C36.3243 18.9782 36.5777 18.8957 36.896 18.8957C37.2379 18.8957 37.4913 18.9782 37.6563 19.1432C37.8331 19.2965 37.9215 19.5263 37.9215 19.8328C37.9215 20.1157 37.8331 20.3456 37.6563 20.5224C37.4913 20.6874 37.2379 20.7699 36.896 20.7699ZM44.027 31.5379C43.1547 31.5379 42.4003 31.3552 41.7638 30.9898C41.1273 30.6126 40.6381 30.088 40.2962 29.4161C39.9544 28.7325 39.7835 27.9309 39.7835 27.0115C39.7835 26.3278 39.8778 25.7148 40.0664 25.1726C40.2668 24.6304 40.5497 24.1706 40.9151 23.7934C41.2805 23.4044 41.7225 23.1098 42.2412 22.9094C42.7716 22.709 43.3669 22.6088 44.027 22.6088C44.4396 22.6088 44.8757 22.6736 45.3355 22.8033C45.7952 22.9329 46.2195 23.1451 46.6085 23.4398C46.7382 23.5341 46.8207 23.6461 46.8561 23.7758C46.8914 23.8936 46.8914 24.0174 46.8561 24.1471C46.8325 24.2767 46.7735 24.3887 46.6792 24.483C46.5967 24.5655 46.4848 24.6127 46.3433 24.6245C46.2136 24.6363 46.0722 24.595 45.9189 24.5007C45.636 24.2885 45.3355 24.1353 45.0172 24.041C44.7107 23.9467 44.416 23.8995 44.1331 23.8995C43.697 23.8995 43.308 23.9703 42.9661 24.1117C42.6361 24.2532 42.3532 24.4594 42.1174 24.7306C41.8935 24.9899 41.7225 25.314 41.6047 25.703C41.4868 26.0802 41.4279 26.5223 41.4279 27.0291C41.4279 28.0311 41.6636 28.8209 42.1351 29.3985C42.6066 29.9643 43.2726 30.2472 44.1331 30.2472C44.416 30.2472 44.7107 30.2059 45.0172 30.1234C45.3237 30.0291 45.6243 29.8759 45.9189 29.6637C46.0722 29.5694 46.2136 29.534 46.3433 29.5576C46.473 29.5694 46.5791 29.6224 46.6616 29.7167C46.7559 29.7992 46.8148 29.9053 46.8384 30.035C46.862 30.1529 46.8502 30.2766 46.803 30.4063C46.7677 30.536 46.6851 30.6421 46.5555 30.7246C46.1783 31.0075 45.7657 31.2138 45.3178 31.3434C44.8698 31.4731 44.4396 31.5379 44.027 31.5379ZM49.311 31.4672C49.0635 31.4672 48.869 31.3906 48.7275 31.2373C48.5861 31.0841 48.5154 30.8719 48.5154 30.6008V23.5459C48.5154 23.263 48.5861 23.0508 48.7275 22.9094C48.869 22.7561 49.0635 22.6795 49.311 22.6795C49.5703 22.6795 49.7707 22.7561 49.9122 22.9094C50.0536 23.0508 50.1244 23.263 50.1244 23.5459V30.6008C50.1244 30.8719 50.0536 31.0841 49.9122 31.2373C49.7825 31.3906 49.5821 31.4672 49.311 31.4672ZM49.311 20.7699C48.9928 20.7699 48.7393 20.6874 48.5507 20.5224C48.3739 20.3456 48.2855 20.1157 48.2855 19.8328C48.2855 19.5263 48.3739 19.2965 48.5507 19.1432C48.7393 18.9782 48.9928 18.8957 49.311 18.8957C49.6529 18.8957 49.9063 18.9782 50.0713 19.1432C50.2481 19.2965 50.3365 19.5263 50.3365 19.8328C50.3365 20.1157 50.2481 20.3456 50.0713 20.5224C49.9063 20.6874 49.6529 20.7699 49.311 20.7699ZM53.5069 34.6852C53.2594 34.6852 53.0649 34.6145 52.9234 34.473C52.782 34.3316 52.7112 34.1312 52.7112 33.8719V23.4575C52.7112 23.1864 52.782 22.986 52.9234 22.8563C53.0649 22.7149 53.2594 22.6441 53.5069 22.6441C53.7662 22.6441 53.9607 22.7149 54.0904 22.8563C54.2319 22.986 54.3026 23.1864 54.3026 23.4575V25.0665L54.1081 24.7482C54.2967 24.0999 54.668 23.5813 55.222 23.1923C55.776 22.8033 56.442 22.6088 57.22 22.6088C57.9862 22.6088 58.6522 22.7915 59.218 23.1569C59.7838 23.5105 60.2259 24.0233 60.5441 24.6952C60.8624 25.3553 61.0215 26.1451 61.0215 27.0645C61.0215 27.9722 60.8624 28.7678 60.5441 29.4515C60.2377 30.1234 59.7956 30.6421 59.218 31.0075C58.6522 31.3611 57.9862 31.5379 57.22 31.5379C56.4538 31.5379 55.7937 31.3434 55.2397 30.9544C54.6857 30.5654 54.3144 30.0527 54.1258 29.4161H54.3203V33.8719C54.3203 34.1312 54.2495 34.3316 54.1081 34.473C53.9666 34.6145 53.7662 34.6852 53.5069 34.6852ZM56.8487 30.2649C57.3556 30.2649 57.7976 30.1411 58.1748 29.8935C58.5638 29.646 58.8644 29.2865 59.0766 28.815C59.2888 28.3435 59.3948 27.76 59.3948 27.0645C59.3948 26.0272 59.165 25.2374 58.7053 24.6952C58.2455 24.153 57.6267 23.8818 56.8487 23.8818C56.3301 23.8818 55.8762 24.0056 55.4872 24.2532C55.11 24.4889 54.8153 24.8425 54.6032 25.314C54.4028 25.7855 54.3026 26.369 54.3026 27.0645C54.3026 28.1018 54.5324 28.8975 54.9922 29.4515C55.4519 29.9937 56.0707 30.2649 56.8487 30.2649ZM65.8294 31.5379C65.24 31.5379 64.7036 31.42 64.2204 31.1843C63.7489 30.9485 63.3775 30.6303 63.1064 30.2295C62.8471 29.8287 62.7174 29.3808 62.7174 28.8857C62.7174 28.2492 62.8766 27.7482 63.1948 27.3828C63.5131 27.0174 64.0494 26.758 64.8038 26.6048C65.5583 26.4398 66.572 26.3572 67.8451 26.3572H68.6761V27.3828H67.8804C66.9728 27.3828 66.2537 27.424 65.7233 27.5065C65.2046 27.5891 64.8392 27.7364 64.627 27.9486C64.4149 28.149 64.3088 28.4319 64.3088 28.7973C64.3088 29.257 64.4679 29.6342 64.7862 29.9289C65.1162 30.2236 65.5641 30.3709 66.13 30.3709C66.5779 30.3709 66.9728 30.2649 67.3146 30.0527C67.6565 29.8287 67.9276 29.534 68.128 29.1686C68.3283 28.7914 68.4285 28.3611 68.4285 27.8779V25.8445C68.4285 25.149 68.2871 24.648 68.0042 24.3416C67.7213 24.0233 67.2439 23.8642 66.572 23.8642C66.183 23.8642 65.7822 23.9172 65.3697 24.0233C64.9571 24.1294 64.5268 24.2944 64.0789 24.5184C63.9021 24.6009 63.7489 24.6304 63.6192 24.6068C63.4895 24.5714 63.3834 24.5007 63.3009 24.3946C63.2302 24.2767 63.1889 24.153 63.1772 24.0233C63.1772 23.8818 63.2066 23.7463 63.2656 23.6166C63.3363 23.487 63.4542 23.3927 63.6192 23.3337C64.1378 23.0744 64.6506 22.8917 65.1575 22.7856C65.6761 22.6677 66.1594 22.6088 66.6074 22.6088C67.3736 22.6088 68.0042 22.7326 68.4993 22.9801C68.9944 23.2158 69.3657 23.5872 69.6132 24.094C69.8607 24.5891 69.9845 25.2256 69.9845 26.0036V30.6715C69.9845 30.9426 69.9197 31.1489 69.79 31.2904C69.6604 31.4318 69.4718 31.5026 69.2242 31.5026C68.9885 31.5026 68.7999 31.4318 68.6584 31.2904C68.5287 31.1489 68.4639 30.9426 68.4639 30.6715V29.4161H68.623C68.5287 29.8523 68.3519 30.2295 68.0926 30.5478C67.8333 30.866 67.5091 31.1136 67.1201 31.2904C66.7429 31.4554 66.3127 31.5379 65.8294 31.5379ZM75.2218 31.5379C74.3377 31.5379 73.6658 31.2786 73.2061 30.7599C72.7464 30.2295 72.5166 29.4692 72.5166 28.479V19.6029C72.5166 19.3318 72.5873 19.1314 72.7287 19.0018C72.8702 18.8603 73.0647 18.7896 73.3122 18.7896C73.5715 18.7896 73.7719 18.8603 73.9134 19.0018C74.0548 19.1314 74.1256 19.3318 74.1256 19.6029V28.3553C74.1256 28.9682 74.2493 29.4279 74.4969 29.7344C74.7562 30.0291 75.1216 30.1764 75.5931 30.1764C75.6992 30.1764 75.7935 30.1764 75.876 30.1764C75.9585 30.1647 76.0411 30.1529 76.1236 30.1411C76.2532 30.1293 76.3475 30.1647 76.4065 30.2472C76.4654 30.3297 76.4949 30.4947 76.4949 30.7423C76.4949 30.9662 76.4418 31.143 76.3357 31.2727C76.2414 31.3906 76.0823 31.4672 75.8583 31.5026C75.7523 31.5143 75.6462 31.5202 75.5401 31.5202C75.434 31.532 75.3279 31.5379 75.2218 31.5379ZM4.09525 49.5379C3.34084 49.5379 2.67483 49.3611 2.09724 49.0075C1.53143 48.6421 1.0894 48.1234 0.771131 47.4515C0.452864 46.7678 0.293731 45.9722 0.293731 45.0645C0.293731 44.1451 0.446971 43.3553 0.753449 42.6952C1.07172 42.0233 1.51375 41.5105 2.07956 41.1569C2.65715 40.7915 3.32905 40.6088 4.09525 40.6088C4.86144 40.6088 5.52155 40.8033 6.07557 41.1923C6.62959 41.5695 7.0009 42.0763 7.1895 42.7129H6.995V37.6029C6.995 37.3318 7.05984 37.1314 7.1895 37.0018C7.33095 36.8603 7.53134 36.7896 7.79067 36.7896C8.05 36.7896 8.25039 36.8603 8.39184 37.0018C8.53329 37.1314 8.60402 37.3318 8.60402 37.6029V48.6715C8.60402 48.9426 8.53329 49.1489 8.39184 49.2904C8.25039 49.4318 8.05 49.5026 7.79067 49.5026C7.54313 49.5026 7.34863 49.4318 7.20718 49.2904C7.06573 49.1489 6.995 48.9426 6.995 48.6715V47.0625L7.1895 47.3808C7.01269 48.0409 6.64138 48.5654 6.07557 48.9544C5.52155 49.3434 4.86144 49.5379 4.09525 49.5379ZM4.46656 48.2649C4.98521 48.2649 5.43314 48.1411 5.81035 47.8935C6.19934 47.646 6.49403 47.2865 6.69442 46.815C6.9066 46.3435 7.01269 45.76 7.01269 45.0645C7.01269 44.0272 6.78283 43.2374 6.32311 42.6952C5.86339 42.153 5.24454 41.8818 4.46656 41.8818C3.95969 41.8818 3.51176 42.0056 3.12276 42.2532C2.74556 42.4889 2.45087 42.8425 2.23869 43.314C2.02651 43.7855 1.92043 44.369 1.92043 45.0645C1.92043 46.1018 2.15028 46.8975 2.61 47.4515C3.08151 47.9937 3.70036 48.2649 4.46656 48.2649ZM15.1623 49.5379C14.2311 49.5379 13.4295 49.3611 12.7576 49.0075C12.0975 48.6421 11.5848 48.1293 11.2194 47.4692C10.8539 46.7973 10.6712 46.0075 10.6712 45.0999C10.6712 44.204 10.848 43.4201 11.2017 42.7482C11.5671 42.0763 12.0622 41.5518 12.6869 41.1746C13.3234 40.7974 14.0484 40.6088 14.8617 40.6088C15.4393 40.6088 15.958 40.709 16.4177 40.9094C16.8892 41.098 17.29 41.375 17.62 41.7404C17.9501 42.1058 18.1976 42.5537 18.3627 43.0842C18.5395 43.6028 18.6279 44.1922 18.6279 44.8523C18.6279 45.0409 18.5689 45.1883 18.4511 45.2944C18.345 45.3887 18.1858 45.4358 17.9737 45.4358H11.9266V44.4103H17.567L17.2664 44.6578C17.2664 44.0449 17.1721 43.5262 16.9835 43.1019C16.8067 42.6657 16.5415 42.3357 16.1878 42.1117C15.846 41.8877 15.4158 41.7758 14.8971 41.7758C14.3313 41.7758 13.848 41.9113 13.4472 42.1824C13.0464 42.4418 12.74 42.8131 12.5278 43.2964C12.3156 43.7679 12.2095 44.316 12.2095 44.9407V45.0468C12.2095 46.1077 12.4629 46.9093 12.9698 47.4515C13.4767 47.9937 14.2075 48.2649 15.1623 48.2649C15.5395 48.2649 15.9226 48.2177 16.3116 48.1234C16.7124 48.0291 17.0955 47.8582 17.4609 47.6106C17.6377 47.5045 17.7969 47.4574 17.9383 47.4692C18.0915 47.4692 18.2153 47.5163 18.3096 47.6106C18.4039 47.6932 18.4629 47.7992 18.4864 47.9289C18.51 48.0468 18.4923 48.1764 18.4334 48.3179C18.3745 48.4593 18.2625 48.5831 18.0974 48.6892C17.7084 48.9603 17.2428 49.1725 16.7006 49.3257C16.1702 49.4672 15.6574 49.5379 15.1623 49.5379ZM30.9328 49.5379C29.6951 49.5379 28.6342 49.2786 27.7501 48.7599C26.8661 48.2413 26.1824 47.5045 25.6991 46.5498C25.2276 45.5832 24.9918 44.4457 24.9918 43.1372C24.9918 42.1589 25.1274 41.2807 25.3985 40.5027C25.6696 39.7129 26.0586 39.041 26.5655 38.487C27.0723 37.9212 27.6912 37.4909 28.422 37.1963C29.1647 36.9016 30.0016 36.7542 30.9328 36.7542C31.6401 36.7542 32.3178 36.8544 32.9662 37.0548C33.6263 37.2552 34.1921 37.5381 34.6636 37.9035C34.8522 38.0332 34.976 38.1805 35.0349 38.3456C35.0938 38.5106 35.0997 38.6697 35.0526 38.823C35.0172 38.9644 34.9406 39.0882 34.8227 39.1943C34.7166 39.2886 34.5811 39.3416 34.416 39.3534C34.251 39.3534 34.0742 39.2886 33.8856 39.1589C33.473 38.8406 33.0192 38.6108 32.5241 38.4693C32.0408 38.3161 31.5222 38.2395 30.9682 38.2395C30.0605 38.2395 29.2884 38.434 28.6519 38.823C28.0271 39.2002 27.5497 39.7542 27.2197 40.485C26.9014 41.2041 26.7423 42.0881 26.7423 43.1372C26.7423 44.1745 26.9014 45.0645 27.2197 45.8071C27.5497 46.538 28.0271 47.0979 28.6519 47.4869C29.2884 47.8641 30.0605 48.0527 30.9682 48.0527C31.5222 48.0527 32.0467 47.9761 32.5418 47.8228C33.0487 47.6696 33.5143 47.4338 33.9386 47.1156C34.1273 46.9859 34.2982 46.927 34.4514 46.9387C34.6164 46.9505 34.752 47.0036 34.8581 47.0979C34.9642 47.1804 35.0349 47.2983 35.0703 47.4515C35.1174 47.593 35.1174 47.7403 35.0703 47.8935C35.0231 48.0468 34.917 48.1823 34.752 48.3002C34.2687 48.7128 33.6911 49.0252 33.0192 49.2373C32.3591 49.4377 31.6636 49.5379 30.9328 49.5379ZM40.0403 49.5379C39.3448 49.5379 38.7613 49.4083 38.2898 49.1489C37.8301 48.8896 37.4882 48.5065 37.2643 47.9996C37.0403 47.4928 36.9283 46.8562 36.9283 46.09V41.4575C36.9283 41.1864 36.9932 40.986 37.1228 40.8563C37.2643 40.7149 37.4647 40.6441 37.724 40.6441C37.9833 40.6441 38.1837 40.7149 38.3252 40.8563C38.4666 40.986 38.5373 41.1864 38.5373 41.4575V46.09C38.5373 46.8209 38.6847 47.3631 38.9794 47.7167C39.2741 48.0586 39.7397 48.2295 40.3762 48.2295C41.0835 48.2295 41.6552 47.9937 42.0913 47.5222C42.5393 47.0507 42.7632 46.426 42.7632 45.648V41.4575C42.7632 41.1864 42.828 40.986 42.9577 40.8563C43.0992 40.7149 43.2996 40.6441 43.5589 40.6441C43.8182 40.6441 44.0186 40.7149 44.1601 40.8563C44.3015 40.986 44.3722 41.1864 44.3722 41.4575V48.6715C44.3722 49.2255 44.1129 49.5026 43.5942 49.5026C43.3349 49.5026 43.1345 49.4318 42.9931 49.2904C42.8634 49.1489 42.7986 48.9426 42.7986 48.6715V47.1332L43.0284 47.4338C42.7927 48.1175 42.4096 48.6421 41.8791 49.0075C41.3605 49.3611 40.7475 49.5379 40.0403 49.5379ZM49.6666 49.5379C48.7825 49.5379 48.1106 49.2786 47.6509 48.7599C47.1912 48.2295 46.9613 47.4692 46.9613 46.479V37.6029C46.9613 37.3318 47.032 37.1314 47.1735 37.0018C47.3149 36.8603 47.5094 36.7896 47.757 36.7896C48.0163 36.7896 48.2167 36.8603 48.3582 37.0018C48.4996 37.1314 48.5703 37.3318 48.5703 37.6029V46.3553C48.5703 46.9682 48.6941 47.4279 48.9416 47.7344C49.201 48.0291 49.5664 48.1764 50.0379 48.1764C50.144 48.1764 50.2383 48.1764 50.3208 48.1764C50.4033 48.1647 50.4858 48.1529 50.5683 48.1411C50.698 48.1293 50.7923 48.1647 50.8512 48.2472C50.9102 48.3297 50.9396 48.4947 50.9396 48.7423C50.9396 48.9662 50.8866 49.143 50.7805 49.2727C50.6862 49.3906 50.5271 49.4672 50.3031 49.5026C50.197 49.5143 50.0909 49.5202 49.9849 49.5202C49.8788 49.532 49.7727 49.5379 49.6666 49.5379ZM55.6786 49.5379C54.9831 49.5379 54.3996 49.4141 53.9281 49.1666C53.4684 48.9191 53.1206 48.5595 52.8849 48.088C52.6609 47.6165 52.5489 47.0389 52.5489 46.3553V42.0056H51.4173C51.2051 42.0056 51.0401 41.9526 50.9222 41.8465C50.8044 41.7286 50.7454 41.5754 50.7454 41.3868C50.7454 41.1864 50.8044 41.0331 50.9222 40.927C51.0401 40.821 51.2051 40.7679 51.4173 40.7679H52.5489V38.8406C52.5489 38.5695 52.6197 38.3691 52.7611 38.2395C52.9026 38.098 53.103 38.0273 53.3623 38.0273C53.6216 38.0273 53.8161 38.098 53.9458 38.2395C54.0872 38.3691 54.158 38.5695 54.158 38.8406V40.7679H56.2974C56.5214 40.7679 56.6923 40.821 56.8102 40.927C56.928 41.0331 56.987 41.1864 56.987 41.3868C56.987 41.5754 56.928 41.7286 56.8102 41.8465C56.6923 41.9526 56.5214 42.0056 56.2974 42.0056H54.158V46.2138C54.158 46.8621 54.2935 47.3513 54.5646 47.6814C54.8357 48.0114 55.2837 48.1764 55.9084 48.1764C56.1324 48.1764 56.321 48.1588 56.4742 48.1234C56.6275 48.0762 56.763 48.0527 56.8809 48.0527C56.987 48.0409 57.0754 48.0762 57.1461 48.1588C57.2286 48.2413 57.2699 48.3945 57.2699 48.6185C57.2699 48.7835 57.2404 48.9367 57.1815 49.0782C57.1343 49.2079 57.0341 49.2963 56.8809 49.3434C56.7394 49.3906 56.5508 49.4318 56.3151 49.4672C56.0793 49.5143 55.8672 49.5379 55.6786 49.5379ZM61.5205 49.5379C60.825 49.5379 60.2415 49.4083 59.77 49.1489C59.3103 48.8896 58.9685 48.5065 58.7445 47.9996C58.5205 47.4928 58.4085 46.8562 58.4085 46.09V41.4575C58.4085 41.1864 58.4734 40.986 58.603 40.8563C58.7445 40.7149 58.9449 40.6441 59.2042 40.6441C59.4635 40.6441 59.6639 40.7149 59.8054 40.8563C59.9468 40.986 60.0176 41.1864 60.0176 41.4575V46.09C60.0176 46.8209 60.1649 47.3631 60.4596 47.7167C60.7543 48.0586 61.2199 48.2295 61.8564 48.2295C62.5637 48.2295 63.1354 47.9937 63.5715 47.5222C64.0195 47.0507 64.2434 46.426 64.2434 45.648V41.4575C64.2434 41.1864 64.3083 40.986 64.4379 40.8563C64.5794 40.7149 64.7798 40.6441 65.0391 40.6441C65.2984 40.6441 65.4988 40.7149 65.6403 40.8563C65.7817 40.986 65.8524 41.1864 65.8524 41.4575V48.6715C65.8524 49.2255 65.5931 49.5026 65.0745 49.5026C64.8151 49.5026 64.6147 49.4318 64.4733 49.2904C64.3436 49.1489 64.2788 48.9426 64.2788 48.6715V47.1332L64.5086 47.4338C64.2729 48.1175 63.8898 48.6421 63.3594 49.0075C62.8407 49.3611 62.2277 49.5379 61.5205 49.5379ZM69.2726 49.5026C69.0014 49.5026 68.7952 49.4318 68.6537 49.2904C68.5123 49.1489 68.4415 48.9426 68.4415 48.6715V41.4575C68.4415 41.1864 68.5123 40.986 68.6537 40.8563C68.7952 40.7149 68.9897 40.6441 69.2372 40.6441C69.4847 40.6441 69.6733 40.7149 69.803 40.8563C69.9445 40.986 70.0152 41.1864 70.0152 41.4575V42.819H69.8384C70.027 42.1117 70.3806 41.5754 70.8993 41.2099C71.4179 40.8445 72.0721 40.6382 72.8619 40.5911C73.0505 40.5793 73.2037 40.6265 73.3216 40.7326C73.4395 40.8269 73.5043 40.9919 73.5161 41.2276C73.5279 41.4516 73.4749 41.6343 73.357 41.7758C73.2391 41.9054 73.0564 41.982 72.8089 42.0056L72.4906 42.0233C71.7126 42.1058 71.1114 42.3592 70.6871 42.7836C70.2745 43.208 70.0682 43.7914 70.0682 44.5341V48.6715C70.0682 48.9426 69.9975 49.1489 69.8561 49.2904C69.7264 49.4318 69.5319 49.5026 69.2726 49.5026ZM77.5537 49.5379C76.9643 49.5379 76.428 49.42 75.9447 49.1843C75.4732 48.9485 75.1019 48.6303 74.8308 48.2295C74.5714 47.8287 74.4418 47.3808 74.4418 46.8857C74.4418 46.2492 74.6009 45.7482 74.9192 45.3828C75.2374 45.0174 75.7738 44.758 76.5282 44.6048C77.2826 44.4398 78.2963 44.3572 79.5694 44.3572H80.4004V45.3828H79.6047C78.6971 45.3828 77.9781 45.424 77.4476 45.5065C76.929 45.5891 76.5635 45.7364 76.3514 45.9486C76.1392 46.149 76.0331 46.4319 76.0331 46.7973C76.0331 47.257 76.1922 47.6342 76.5105 47.9289C76.8405 48.2236 77.2885 48.3709 77.8543 48.3709C78.3022 48.3709 78.6971 48.2649 79.0389 48.0527C79.3808 47.8287 79.6519 47.534 79.8523 47.1686C80.0527 46.7914 80.1529 46.3611 80.1529 45.8779V43.8445C80.1529 43.149 80.0114 42.648 79.7285 42.3416C79.4456 42.0233 78.9682 41.8642 78.2963 41.8642C77.9073 41.8642 77.5065 41.9172 77.094 42.0233C76.6814 42.1294 76.2512 42.2944 75.8032 42.5184C75.6264 42.6009 75.4732 42.6304 75.3435 42.6068C75.2139 42.5714 75.1078 42.5007 75.0252 42.3946C74.9545 42.2767 74.9133 42.153 74.9015 42.0233C74.9015 41.8818 74.9309 41.7463 74.9899 41.6166C75.0606 41.487 75.1785 41.3927 75.3435 41.3337C75.8622 41.0744 76.3749 40.8917 76.8818 40.7856C77.4005 40.6677 77.8838 40.6088 78.3317 40.6088C79.0979 40.6088 79.7285 40.7326 80.2236 40.9801C80.7187 41.2158 81.09 41.5872 81.3375 42.094C81.5851 42.5891 81.7088 43.2256 81.7088 44.0036V48.6715C81.7088 48.9426 81.644 49.1489 81.5143 49.2904C81.3847 49.4318 81.1961 49.5026 80.9485 49.5026C80.7128 49.5026 80.5242 49.4318 80.3827 49.2904C80.2531 49.1489 80.1882 48.9426 80.1882 48.6715V47.4161H80.3474C80.2531 47.8523 80.0763 48.2295 79.8169 48.5478C79.5576 48.866 79.2334 49.1136 78.8444 49.2904C78.4672 49.4554 78.037 49.5379 77.5537 49.5379Z" fill="white"/>
</svg>
