<svg width="197" height="54" viewBox="0 0 197 54" fill="none" xmlns="http://www.w3.org/2000/svg">
<path d="M55.519 46.6761C55.6068 47.0031 55.9787 47.6248 56.7634 47.496C56.2607 47.9742 55.3082 48.4797 55.519 46.6761Z" fill="white"/>
<path d="M56.7634 43.927C56.184 42.4378 54.893 42.0955 54.3199 42.1105C54.7196 41.8102 55.7085 41.3539 56.4667 41.9303C57.2249 42.5068 56.9804 43.5017 56.7634 43.927Z" fill="white"/>
<path d="M61.6761 45.2181C60.8354 44.7377 59.8646 45.2081 59.4842 45.5033C61.3578 45.5033 62.0664 46.6843 62.1865 47.2748C62.3667 46.7894 62.5168 45.6985 61.6761 45.2181Z" fill="white"/>
<path d="M53.179 46.4491C53.3791 46.299 53.8335 46.1068 54.0497 46.5392C54.0697 45.9587 53.9236 45.128 53.179 46.4491Z" fill="white"/>
<path d="M58.4784 49.1063C58.6636 49.1264 58.9918 49.2865 58.8237 49.7669C59.184 49.4266 59.6194 48.8181 58.4784 49.1063Z" fill="white"/>
<path d="M58.1782 49.4967C54.455 50.2773 53.6644 48.0404 53.7344 46.8244C52.4854 48.7821 53.3041 50.0321 53.8696 50.4124C55.7792 51.7095 57.5376 50.3424 58.1782 49.4967Z" fill="white"/>
<path fill-rule="evenodd" clip-rule="evenodd" d="M126.098 50.3376L126.09 50.3331C125.826 50.1797 125.566 50.0212 125.311 49.8577C125.331 49.8017 125.349 49.7426 125.365 49.6803C125.411 49.4935 125.074 49.1637 124.893 49.0995C124.756 49.0511 124.637 48.9787 124.599 48.8882C122.019 42.868 124.622 40.2461 126.656 38.1961C127.171 37.6778 127.649 37.1961 127.998 36.7052C128.98 35.3237 127.209 33.2146 125.087 33.2433C124.985 33.2446 124.904 33.3268 124.895 33.4284C124.646 36.2302 124.423 37.37 123.871 38.3158C123.833 38.381 123.762 38.4191 123.687 38.4113C122.692 38.3074 120.633 37.4871 119.151 34.9159C119.055 34.749 118.817 34.7836 118.8 34.9755C118.749 35.5663 118.779 36.3745 119.086 36.8711L119.092 36.8806C119.522 37.5774 120.022 38.388 122.583 39.5609C122.709 39.6188 122.746 39.7818 122.654 39.8869L122.636 39.9086C122.52 40.042 122.398 40.1833 122.268 40.3346C120.689 42.1766 120.174 44.9302 120.84 45.9299C120.018 44.9507 119.281 43.883 118.632 42.7289L118.625 42.7163L118.618 42.7036L118.618 42.7034C116.835 39.4428 115.977 35.7519 115.977 31.6985V7.49081C115.977 5.70814 116.62 4.10227 117.923 2.8593C119.229 1.5662 120.891 0.963359 122.705 0.963359C124.429 0.963359 125.931 1.65771 127.13 2.83681C128.475 4.0645 129.166 5.67465 129.166 7.49081V31.6985C129.166 33.5613 129.551 35.0589 130.232 36.2741C131.002 37.5218 131.967 38.4574 133.135 39.128C134.384 39.819 135.666 40.1503 137.016 40.1503C138.536 40.1503 139.918 39.8013 141.201 39.1074C142.475 38.4191 143.502 37.4652 144.306 36.2115C145.052 35.0068 145.468 33.5333 145.468 31.6985V7.49081C145.468 5.84038 145.955 4.28754 147.061 3.02112C148.248 1.61246 149.878 0.963359 151.661 0.963359C153.444 0.963359 155.06 1.60951 156.276 2.96253C157.451 4.22399 157.988 5.79702 157.988 7.49081V31.6985C157.988 35.7581 157.105 39.4538 155.273 42.7161C153.503 45.9482 151.028 48.502 147.875 50.3331C146.858 50.9232 145.796 51.4154 144.689 51.8121C144.479 51.464 144.211 51.2961 143.938 51.1244C143.824 51.0535 143.71 50.982 143.599 50.8969C143.506 50.8258 143.433 50.7348 143.393 50.6228C143.354 50.5116 143.356 50.4006 143.377 50.3005C143.418 50.1118 143.537 49.9315 143.658 49.7776C143.784 49.6179 143.941 49.4531 144.092 49.2968L144.148 49.2398C144.196 49.1894 144.244 49.1398 144.291 49.0909C144.261 49.0731 144.23 49.0549 144.2 49.0366C144.125 48.9908 144.049 48.9437 143.982 48.902C143.622 49.249 143.323 49.5855 143.142 49.9017C142.939 50.2577 142.913 50.5343 143.046 50.7702C143.24 51.1132 143.462 51.2596 143.713 51.4255L143.739 51.4425C143.929 51.5681 144.132 51.708 144.304 51.9456C142.06 52.6983 139.64 53.0669 137.065 53.0715C137.073 53.0521 137.082 53.0327 137.09 53.0133C137.174 52.8167 137.255 52.5805 137.335 52.3176C137.494 51.7913 137.656 51.1242 137.814 50.3827C138.132 48.8976 138.443 47.0772 138.701 45.4071C138.883 44.2298 139.039 43.1235 139.153 42.2564C139.174 42.0994 139.121 41.9415 139.011 41.8278C138.901 41.7142 138.744 41.6573 138.587 41.6733L134.774 42.0609C134.559 42.0827 134.381 42.2357 134.326 42.4446C134.108 43.2705 133.778 44.5337 133.465 45.7513C133.19 46.8196 132.926 47.8607 132.763 48.5386C132.429 48.4913 132.045 48.4829 131.686 48.5644C131.389 48.632 131.071 48.7705 130.828 49.0398C130.577 49.3181 130.452 49.6844 130.459 50.1129C130.466 50.5872 130.615 51.0691 131.07 51.2801C131.482 51.4715 131.92 51.3251 132.219 51.1614C132.543 50.9836 132.855 50.7058 133.104 50.3894C133.348 50.0807 133.556 49.7053 133.649 49.3057C133.657 49.2792 133.663 49.2525 133.667 49.2259C133.781 48.7136 134.065 47.5842 134.382 46.3488L137.569 45.9317C137.336 47.3926 137.07 48.9068 136.801 50.1662C136.657 50.838 136.515 51.4296 136.378 51.8987C136.097 51.6654 135.748 51.5315 135.409 51.4883C135.028 51.4396 134.599 51.499 134.251 51.7346C133.896 51.975 133.678 52.3657 133.673 52.8548C130.944 52.4899 128.413 51.6604 126.105 50.3415L126.098 50.3376ZM119.729 30.6657C119.848 30.2443 119.933 29.5929 119.979 29.1108C119.992 28.973 120.133 28.8839 120.263 28.9313C121.985 29.559 123.24 29.7896 124.011 29.9311C124.555 30.0311 124.857 30.0866 124.91 30.2063C125.006 30.4227 124.837 31.4294 124.714 32.0369C124.694 32.1349 124.608 32.2035 124.508 32.2106C123.467 32.2848 120.717 33.1227 119.173 33.6304C119.034 33.6761 118.894 33.5679 118.914 33.423C119 32.8077 119.23 32.1541 119.384 31.7892C119.417 31.7109 119.496 31.6634 119.581 31.6679L120.74 31.7284C120.997 31.7418 121.044 31.3689 120.792 31.3181L119.979 31.1541C119.806 31.1192 119.681 30.8357 119.729 30.6657ZM126.634 38.5779C125.422 39.9415 124.029 41.9958 124.029 43.4934C124.029 45.7318 124.324 48.8657 125.267 48.6978C125.284 48.6949 125.3 48.6889 125.315 48.6806C125.558 48.5408 125.546 48.2723 125.437 47.5805C125.293 46.6661 124.661 42.6511 126.248 39.9624L126.903 38.7795C127.016 38.5742 126.789 38.4025 126.634 38.5779ZM153.494 37.5606C151.498 36.5601 149.647 35.1844 148.799 34.4967C149.501 33.8126 150.748 33.6707 151.81 34.162C152.378 34.4246 152.876 34.8636 153.187 35.4785C153.461 36.0193 153.597 36.7102 153.494 37.5606ZM153.494 38.1618C151.195 37.0507 149.053 35.4149 148.27 34.7599C147.955 34.6364 147.697 34.7566 147.532 34.9513C147.444 35.0552 147.394 35.1692 147.38 35.2582C147.374 35.3018 147.377 35.3319 147.381 35.3491C147.386 35.3641 147.39 35.3679 147.391 35.3688C147.962 35.8548 148.95 36.6256 150.052 37.3506C151.124 38.0556 152.283 38.7042 153.263 39.0147C153.419 38.9317 153.501 38.8134 153.537 38.681C153.576 38.5383 153.565 38.3578 153.494 38.1618ZM149.756 37.8012C150.761 38.4624 151.876 39.0982 152.874 39.4528C152.556 39.8898 151.878 40.4991 150.683 40.6456C150.312 40.5441 149.717 40.2859 149.139 39.9274C148.532 39.5505 147.99 39.0913 147.737 38.6314L147.73 38.6191L147.722 38.6076C147.451 38.2159 147.296 37.6896 147.258 37.1469C147.23 36.7542 147.263 36.3672 147.347 36.0343C147.946 36.5237 148.81 37.1788 149.756 37.8012ZM150.263 41.0776C149.855 40.9321 149.344 40.689 148.855 40.3857C148.361 40.0794 147.862 39.6944 147.515 39.2613C147.407 39.4498 147.292 39.6632 147.172 39.8885L147.061 40.0956C146.927 40.3492 146.788 40.6097 146.652 40.8534C147.375 41.5762 148.128 42.0752 149.383 42.487C149.522 42.2598 149.661 42.0407 149.795 41.83C149.963 41.5667 150.122 41.316 150.263 41.0776ZM146.377 41.339C147.107 42.0443 147.89 42.5496 149.101 42.9616C148.727 43.6132 148.38 44.3014 148.05 44.9647L147.973 45.1176C147.619 45.8288 147.282 46.5041 146.942 47.0842C146.576 47.7092 146.221 48.1967 145.858 48.4925C145.507 48.7792 145.172 48.8703 144.807 48.7567L144.807 48.7566C144.805 48.7558 144.795 48.752 144.776 48.743C144.755 48.7328 144.728 48.7189 144.696 48.7015C144.633 48.6669 144.558 48.6225 144.48 48.5753C144.351 48.4976 144.223 48.4163 144.141 48.3638L144.093 48.334C143.913 48.2202 143.799 47.9565 143.836 47.443C143.871 46.9442 144.046 46.3012 144.317 45.5753C144.819 44.2332 145.626 42.6706 146.377 41.339Z" fill="white"/>
<path d="M121.016 46.1373C121.074 46.2046 121.133 46.2714 121.192 46.3379C121.136 46.2697 121.077 46.2027 121.016 46.1373Z" fill="white"/>
<path fill-rule="evenodd" clip-rule="evenodd" d="M184.131 13.9579L184.121 13.9556C183.157 13.7332 182.117 13.6171 180.993 13.6171C178.848 13.6171 177.001 13.9538 175.416 14.5787C173.866 15.2078 172.563 16.0999 171.478 17.2568L171.465 17.271L171.451 17.2849C170.369 18.4033 169.522 19.7509 168.919 21.361C168.358 22.9791 168.061 24.8119 168.061 26.8837C168.061 29.3725 168.407 31.4224 169.032 33.0852C169.721 34.8 170.629 36.1634 171.729 37.2282C172.846 38.3091 174.163 39.1272 175.707 39.6825C177.298 40.2096 179.054 40.4848 180.993 40.4848C182.045 40.4848 183.1 40.3875 184.159 40.1913C185.118 40.0137 186.047 39.6935 186.952 39.2228L186.991 39.203L187.029 39.1845C188.335 38.5627 189.737 38.2902 191.178 38.5044C192.783 38.7359 194.107 39.5626 195.086 40.8145C196.344 42.393 196.937 44.276 196.498 46.3053C196.226 47.6798 195.55 48.8115 194.554 49.6559C194.308 49.2353 194.056 48.834 193.808 48.4846C193.508 48.061 193.223 47.7247 192.973 47.5205C192.261 46.9405 191.985 46.4363 191.813 46.0229C191.777 45.9366 191.748 45.8618 191.722 45.7941L191.722 45.7936C191.683 45.6925 191.65 45.6068 191.608 45.5213C191.545 45.3937 191.476 45.2999 191.366 45.2236C191.26 45.1508 191 45.0064 190.632 44.8143C190.27 44.6248 189.815 44.3953 189.329 44.1545C188.42 43.7033 187.406 43.214 186.701 42.8774L182.719 47.2083C183.376 47.6984 184.287 48.4032 185.091 49.0784C185.533 49.4489 185.945 49.8128 186.266 50.1287C186.426 50.2866 186.566 50.4347 186.676 50.5674C186.784 50.6967 186.874 50.8239 186.922 50.9386C187.054 51.2511 187.329 51.6374 187.633 52.0025C187.774 52.1721 187.919 52.3336 188.052 52.4766C187.111 52.7135 186.158 52.9016 185.193 53.0409C183.814 53.2847 182.413 53.4059 180.993 53.4059C177.518 53.4059 174.187 52.8499 171.016 51.7278L171.01 51.7257L171.004 51.7236L171.003 51.7234C169.102 51.04 167.314 50.1574 165.644 49.0774C165.902 47.5273 166.143 45.9951 166.351 44.6198C166.545 43.3378 166.71 42.1895 166.836 41.2865C166.845 41.2154 166.83 41.1465 166.797 41.0887C167.203 40.5851 167.711 39.8405 167.914 38.9172C168.171 37.7448 167.928 36.337 166.52 34.8235C166.457 34.7561 166.368 34.7199 166.276 34.7248C166.184 34.7296 166.099 34.7749 166.043 34.8485C166.025 34.8735 166.003 34.9023 165.978 34.9349C165.459 35.6101 163.695 37.9064 165.021 41.0852C164.851 41.9998 164.643 43.1458 164.419 44.4087C164.231 45.475 164.031 46.6265 163.834 47.7935C163.509 47.5417 163.189 47.2816 162.874 47.0133C162.366 44.345 161.665 41.0533 161.062 38.3251C160.786 37.073 160.53 35.937 160.322 35.0305C160.931 33.4113 161.104 32.1129 161.062 31.1359C161.019 30.1512 160.757 29.4708 160.479 29.1321C160.427 29.0679 160.351 29.0274 160.268 29.0196C160.186 29.0117 160.103 29.0372 160.04 29.0903C158.478 30.3923 157.912 31.7121 157.882 32.8597C157.859 33.7792 158.182 34.5559 158.559 35.0865C158.519 35.15 158.502 35.2281 158.517 35.3076C158.68 36.2044 158.894 37.3447 159.142 38.6175C159.476 40.3379 159.874 42.3053 160.291 44.2427C158.138 41.6083 156.968 39.3297 156.606 38.3407C155.161 34.9508 154.471 31.1147 154.471 26.8837C154.471 23.1709 155.099 19.6935 156.385 16.4791L156.391 16.4634L156.398 16.448C157.721 13.2612 159.574 10.4855 161.961 8.14909C164.383 5.77595 167.222 3.95226 170.452 2.67764C173.711 1.34683 177.234 0.695921 180.993 0.695921C183.142 0.695921 185.25 0.940328 187.311 1.43122C189.364 1.91987 191.307 2.63123 193.135 3.56869C194.968 4.48981 196.146 6.06039 196.451 8.10536C196.788 10.0585 196.269 11.8781 195.034 13.4037C194.07 14.704 192.709 15.5202 191.061 15.6786C189.667 15.8166 188.315 15.5264 187.048 14.926C186.146 14.5139 185.178 14.1907 184.14 13.96L184.131 13.9579ZM182.512 46.8212L182.007 44.9742L183.88 43.2142L186.11 42.9081L182.512 46.8212ZM183.488 43.0135L183.127 42.653L182.917 43.55L183.488 43.0135ZM182.751 42.4361L182.372 44.0622L181.79 44.6093C181.729 44.5396 181.661 44.4635 181.59 44.3877L182.021 43.2208L182.751 42.4361ZM181.269 44.062L181.288 44.009L181.253 44.0473L181.263 44.0566L181.269 44.062ZM168.444 47.4206C168.113 49.4414 169.415 49.4016 170.107 49.1291C170.475 48.9103 170.761 48.5069 171.072 48.0693C171.522 47.4352 172.024 46.7291 172.896 46.4082C173.419 46.315 174.354 46.4048 173.914 47.5105C173.473 48.6161 173.981 49.2193 174.29 49.3827C176.301 49.8626 176.34 47.6899 176.107 46.5436C175.999 46.0008 176.022 44.9205 176.976 44.941C177.78 44.9583 177.945 44.4923 178.127 43.9778C178.215 43.7291 178.308 43.4691 178.478 43.2468C178.796 42.8305 179.284 42.9111 179.753 42.9886C180.053 43.0381 180.346 43.0865 180.582 43.0032C181.188 42.7895 181.026 41.9549 179.903 41.6794C178.781 41.4039 177.822 41.9835 176.888 43.0756C175.953 44.1677 175.142 44.3911 174.055 44.4221C173.185 44.4469 172.057 44.8935 171.602 45.1137C169.247 46.0635 168.516 47.0474 168.444 47.4206ZM175.689 41.366C175.596 41.627 175.295 42.2097 174.832 42.4527C174.613 42.568 174.435 42.7143 174.276 42.8452C174.099 42.9901 173.946 43.1163 173.784 43.1612C173.29 43.2984 172.675 43.1616 172.7 42.2775C172.733 41.1075 174.011 41.2153 174.645 41.4155C174.854 41.5174 175.355 41.6503 175.689 41.366Z" fill="white"/>
<path d="M189.359 52.1105C189.328 52.1207 189.297 52.1309 189.265 52.141C189.194 52.1462 189.122 52.1144 189.079 52.0512C189.014 51.9567 189.039 51.8277 189.133 51.7631L191.97 49.8234C192.065 49.7588 192.194 49.783 192.258 49.8776C192.323 49.9721 192.299 50.1011 192.204 50.1657L189.367 52.1054C189.364 52.1072 189.362 52.1089 189.359 52.1105Z" fill="white"/>
<path d="M159.183 35.4947C159.325 36.2666 159.499 37.1928 159.697 38.213L160.381 38.1264C160.154 37.0987 159.942 36.1593 159.762 35.3746L159.183 35.4947Z" fill="white"/>
<path d="M165.779 44.2392C165.934 43.2115 166.069 42.2788 166.178 41.5016L165.594 41.406C165.448 42.1976 165.276 43.1451 165.091 44.1815L165.779 44.2392Z" fill="white"/>
<path d="M189.576 48.7956C189.686 48.7644 189.75 48.6497 189.719 48.5396C189.687 48.4294 189.573 48.3655 189.463 48.3968C189.268 48.452 189.071 48.6088 188.892 48.7863C188.706 48.9704 188.514 49.2039 188.331 49.4505C187.963 49.944 187.616 50.5075 187.409 50.8767C187.353 50.9765 187.388 51.1029 187.488 51.159C187.588 51.2151 187.714 51.1796 187.77 51.0798C187.972 50.7216 188.309 50.1739 188.663 49.6981C188.84 49.46 189.019 49.2445 189.184 49.0806C189.356 48.9102 189.489 48.8202 189.576 48.7956Z" fill="white"/>
<path d="M189.711 50.1347C189.802 50.0647 189.819 49.9345 189.748 49.8439C189.678 49.7533 189.548 49.7367 189.458 49.8067C189.069 50.1071 188.576 50.6893 188.381 50.937C188.31 51.0269 188.326 51.1573 188.416 51.2281C188.506 51.2989 188.636 51.2833 188.707 51.1934C188.9 50.9476 189.367 50.4012 189.711 50.1347Z" fill="white"/>
<path fill-rule="evenodd" clip-rule="evenodd" d="M89.8455 39.5083L89.811 39.4886L89.7771 39.4677C88.9825 38.9788 88.2804 38.3789 87.6941 37.6623L87.5996 37.5468L81.0033 27.1171V46.2097C81.0033 47.9164 80.4599 49.4905 79.315 50.7786L79.2918 50.8047L79.268 50.8299C78.5186 51.6262 77.6284 52.1597 76.6523 52.4553C76.2628 51.9582 75.833 51.4025 75.3902 50.8203C74.3979 49.5158 73.3446 48.0838 72.5329 46.8802C72.402 46.6861 72.278 46.4988 72.1619 46.3195C71.9506 45.9934 71.7657 45.6941 71.6138 45.4299C71.7662 45.4111 71.9141 45.3711 72.0537 45.3149C72.2336 45.2425 72.3997 45.1432 72.5439 45.0274C72.8379 44.7912 73.0887 44.4473 73.1594 44.04C73.2352 43.6034 73.0906 43.1606 72.7083 42.8162C72.4016 42.5398 72.0632 42.3547 71.7052 42.3163C71.3398 42.2771 71.0115 42.3977 70.7579 42.6224C70.752 42.6276 70.7461 42.6329 70.7403 42.6383C70.262 43.0772 70.0929 43.8425 70.1547 44.601C70.1699 44.7879 70.2395 44.9884 70.3167 45.1698C70.3984 45.3621 70.5091 45.5796 70.6398 45.8135C70.9014 46.2819 71.2602 46.8469 71.6735 47.4597C71.7791 47.6163 71.8886 47.7765 72.0013 47.9396C72.7723 49.0547 73.6952 50.3042 74.5652 51.4479C74.8941 51.8803 75.2159 52.2983 75.5197 52.6889C75.243 52.7212 74.9616 52.7371 74.6765 52.7371C72.991 52.7371 71.4549 52.1527 70.2579 50.9399C70.2223 50.9039 70.1869 50.8672 70.1519 50.83L70.1282 50.8047L70.105 50.7787C68.9601 49.4906 68.4165 47.9164 68.4165 46.2097V40.7509V29.455V23.4534V13.0793V7.49081C68.4165 5.73447 69.0696 4.17317 70.2937 2.92816C70.3081 2.91349 70.3226 2.89886 70.3372 2.88427L70.3607 2.86078L70.3847 2.83799C71.6831 1.60795 73.2876 0.963359 75.0777 0.963359C76.149 0.963359 77.1605 1.26256 78.0859 1.74257C79.1018 2.2024 80.0107 2.88661 80.659 3.85911L80.6671 3.8712L93.2112 23.1778L106.161 3.83172L106.177 3.80848L106.177 3.80821C107.428 2.03019 109.232 0.963359 111.456 0.963359C113.168 0.963359 114.699 1.59182 115.964 2.7239C117.364 3.97658 118.05 5.63744 118.05 7.49081V46.2097C118.05 47.9591 117.456 49.5514 116.245 50.833L116.221 50.8585L116.197 50.8832C115.694 51.3859 115.135 51.7779 114.535 52.0693C114.841 51.5495 115.013 50.8521 114.946 49.9323C114.697 46.5136 115.049 43.2503 115.256 42.046C116.319 40.1481 116.012 38.482 115.568 37.551C115.482 37.3728 115.256 37.4412 115.256 37.6386V39.3022C115.256 39.4824 115.042 39.5768 114.909 39.4552L113.312 37.9966C113.201 37.8945 113.232 37.7092 113.366 37.6398C113.963 37.3315 114.863 36.7184 115.238 35.9226C115.251 35.8963 115.256 35.8676 115.256 35.8385V35.2527C115.256 35.0862 115.07 34.9868 114.93 35.0774C114.107 35.6114 112.788 36.383 112.132 36.4684C112.07 36.4764 112.011 36.4488 111.972 36.4009C111.514 35.8488 110.762 34.8199 110.498 34.0503C110.438 33.8752 110.194 33.7997 110.106 33.9624C109.825 34.4804 109.658 35.3231 110.19 36.3332C110.269 36.4845 110.156 36.7018 109.999 36.7674C109.544 36.956 109.001 37.5234 108.854 38.861C108.835 39.0396 109.045 39.1493 109.195 39.0493C109.764 38.6678 110.655 38.2314 111.429 38.3446C111.469 38.3505 111.506 38.3703 111.536 38.3991L115.256 42.046C114.949 43.6612 113.919 47.1901 112.262 48.3835C111.01 49.2858 109.889 48.2808 109.199 47.2092C109.074 47.0156 108.717 47.1111 108.735 47.3406C108.965 50.2262 109.713 51.8591 110.374 52.6651C109.006 52.4779 107.746 51.9208 106.699 50.932L106.648 50.8839L106.6 50.8331C105.39 49.5515 104.795 47.9592 104.795 46.2097V27.4869L98.1857 37.5626L98.1041 37.6623C97.4975 38.4038 96.7549 39.0071 95.9189 39.4893C95.002 40.0451 93.97 40.3446 92.8691 40.3025C91.7655 40.3464 90.7429 40.0211 89.8455 39.5083ZM115.312 32.2629C114.442 32.3525 112.903 32.3067 111.797 31.612C111.654 31.5221 111.445 31.6098 111.411 31.7752C111.333 32.1482 111.173 32.6278 110.886 32.9885C110.81 33.0834 110.811 33.224 110.908 33.298C111.681 33.8926 113.375 34.7348 115.26 34.2945C115.346 34.2746 115.407 34.2009 115.414 34.1138L115.552 32.493C115.564 32.3587 115.446 32.2491 115.312 32.2629ZM75.4465 43.3839C75.5039 43.5316 75.6257 43.6449 75.7771 43.6914C75.9286 43.738 76.093 43.7128 76.2234 43.623L79.2996 41.5053C79.4776 41.3827 79.5609 41.1626 79.5086 40.953C79.3073 40.1455 78.9972 38.9114 78.6943 37.7242C78.43 36.6887 78.1693 35.681 77.991 35.0248C78.2967 34.9083 78.6255 34.736 78.892 34.4999C79.1158 34.3016 79.3246 34.0321 79.4069 33.6846C79.492 33.3253 79.4258 32.9506 79.2182 32.585C78.9889 32.1814 78.6315 31.8342 78.1369 31.8673C77.6887 31.8972 77.3794 32.2324 77.2005 32.5132C77.0057 32.8188 76.8688 33.204 76.8034 33.5928C76.7396 33.972 76.7375 34.3922 76.8458 34.7795C76.8513 34.8063 76.8589 34.8322 76.8683 34.8571C77.0103 35.3473 77.2959 36.4407 77.6031 37.641L75.0965 39.4753C74.6133 38.1228 74.1339 36.711 73.7751 35.514C73.5855 34.8818 73.4319 34.3169 73.329 33.856C73.675 33.9186 74.031 33.8686 74.3367 33.7483C74.6877 33.6104 75.0294 33.3567 75.2181 32.9888C75.4204 32.5945 75.414 32.1287 75.1515 31.6862C74.9409 31.3311 74.6729 31.0537 74.3425 30.9105C73.9974 30.761 73.6396 30.7828 73.3255 30.9309C72.7383 31.2077 72.3492 31.888 72.1825 32.6305C72.1414 32.8135 72.1483 33.0256 72.168 33.2218C72.1888 33.4296 72.2298 33.6702 72.2849 33.9324C72.3954 34.4575 72.5699 35.1036 72.7822 35.8117C73.2073 37.2296 73.7945 38.9312 74.3565 40.4795C74.7527 41.5709 75.1376 42.5895 75.4465 43.3839Z" fill="white"/>
<path d="M58.4057 52.7372H65.6364C67.3301 52.7372 68.903 52.2002 70.1644 51.0255C70.196 50.9972 70.2271 50.9687 70.2579 50.9399C70.2223 50.9039 70.1869 50.8672 70.1519 50.83L70.1282 50.8047L70.105 50.7787C68.9601 49.4906 68.4165 47.9164 68.4165 46.2097V40.7509C67.5659 40.3496 66.6284 40.1504 65.6364 40.1504H60.6129C62.2529 41.3437 64.4119 42.4033 67.0585 42.7854C67.1407 42.7972 67.1897 42.8841 67.1516 42.9578C65.7535 45.6596 62.2605 51.1326 58.8335 52.5639C58.6887 52.6244 58.546 52.6821 58.4057 52.7372Z" fill="white"/>
<path fill-rule="evenodd" clip-rule="evenodd" d="M4.91493 47.9577C4.64242 48.1422 4.45079 48.4157 4.37526 48.7543C3.86208 48.3719 3.35621 47.9656 2.85765 47.5358C2.82821 47.5108 2.79896 47.4856 2.76992 47.4603C2.81584 47.4393 2.85951 47.4171 2.90051 47.3946C3.22287 47.2178 3.53298 46.9416 3.78126 46.6271C4.02346 46.3203 4.23043 45.947 4.32303 45.5497C4.33112 45.5232 4.33699 45.4966 4.34075 45.4701C4.45419 44.9616 4.73568 43.8414 5.04999 42.6156L8.20786 42.2023C7.97642 43.6516 7.71222 45.1533 7.44553 46.4025C7.30365 47.067 7.16266 47.6525 7.02738 48.1174C6.74855 47.8874 6.40282 47.7553 6.06774 47.7125C5.68836 47.6641 5.26127 47.7231 4.91493 47.9577Z" fill="white"/>
<path d="M36.7889 15.3241C37.9174 14.1292 38.5941 12.6546 38.5941 10.9682C38.5941 9.21056 37.9042 7.71029 36.785 6.48606C36.7327 6.83563 36.7068 7.19343 36.7068 7.55772V15.4097C36.7344 15.3814 36.7617 15.3529 36.7889 15.3241Z" fill="white"/>
<path fill-rule="evenodd" clip-rule="evenodd" d="M10.8736 52.1578L10.8926 52.1635C13.6597 53.0035 16.7137 53.4059 20.0297 53.4059C20.2817 53.4059 20.5326 53.4024 20.7824 53.3954C20.6453 53.2249 20.4931 53.0394 20.3319 52.8429L20.3308 52.8416C20.2716 52.7695 20.2112 52.6959 20.1499 52.621C19.6954 52.0658 19.1997 51.4505 18.861 50.9273C17.943 49.5093 17.2452 48.2783 16.7742 47.2891C16.5387 46.7947 16.3567 46.354 16.2323 45.976C16.1106 45.6062 16.0327 45.2634 16.0311 44.9758C16.0268 44.2017 16.2573 43.4409 16.7736 43.0345C17.0497 42.8173 17.3971 42.7147 17.771 42.7837C18.1291 42.8498 18.4569 43.0625 18.7464 43.3661C19.106 43.7431 19.2178 44.2008 19.1079 44.6351C19.0054 45.0406 18.7259 45.3689 18.4104 45.5851C18.1031 45.7958 17.7137 45.934 17.3124 45.9218C17.4132 46.1896 17.5452 46.4974 17.71 46.8435C18.1562 47.7805 18.8295 48.9712 19.7312 50.364C20.0332 50.8306 20.4914 51.4018 20.952 51.9644C21.0116 52.0372 21.0714 52.1101 21.131 52.1827L21.1312 52.1829C21.3564 52.4572 21.5779 52.7269 21.768 52.9698L23.9201 51.0519C23.7184 50.7007 23.475 50.3272 23.1984 49.9025L23.1983 49.9023C22.9709 49.5532 22.7209 49.1695 22.4529 48.735C22.446 48.7238 22.4395 48.7123 22.4334 48.7005C22.1003 48.0546 21.8469 47.5067 21.6443 47.0636L21.5901 46.9448L21.5899 46.9443L21.5898 46.944C21.4212 46.575 21.2978 46.3048 21.1905 46.1085C21.1761 46.0867 21.1632 46.0635 21.1519 46.039C20.9567 45.6807 20.8629 45.2644 20.8396 44.8742C20.8157 44.4742 20.8634 44.0617 20.9864 43.7152C21.0996 43.3964 21.3285 42.9967 21.7622 42.8658C22.2403 42.7215 22.6709 42.9812 22.9898 43.3285C23.2782 43.6425 23.4285 43.9972 23.4261 44.3705C23.4238 44.7317 23.2792 45.0452 23.1031 45.2922C22.888 45.5939 22.5926 45.8443 22.3101 46.0308C22.3786 46.1758 22.4509 46.3342 22.5279 46.503C22.5473 46.5456 22.567 46.5888 22.5871 46.6326C22.7857 47.0673 23.0283 47.5916 23.3456 48.2077C23.5724 48.5749 23.8017 48.9277 24.0208 49.2646C24.4172 49.8745 24.78 50.4326 25.0334 50.9306C25.1402 51.1404 25.0921 51.3959 24.9163 51.5525L23.0304 53.2333C25.2623 52.9709 27.3948 52.4083 29.4181 51.537C32.3783 50.2814 34.8305 48.4466 36.7068 46.0186C36.7219 45.999 36.737 45.9794 36.752 45.9598C38.5798 43.5735 39.5272 40.7817 39.6502 37.6825C39.6502 36.1173 39.4282 33.9714 39.3171 33.0941C39.1227 32.0961 38.8427 31.1544 38.4677 30.2769C38.0116 29.1854 37.4241 28.1912 36.7068 27.3024C36.1269 26.5838 35.4621 25.9341 34.7133 25.3576C33.1007 24.0722 31.1365 23.0859 28.888 22.3519C26.753 21.6407 24.3042 21.0373 21.5557 20.5329C19.5971 20.1492 17.9584 19.732 16.6231 19.2889C15.4516 18.8592 14.6994 18.368 14.2317 17.8938C13.9259 17.5129 13.7177 16.9951 13.7177 16.1842C13.7177 15.6009 13.8783 15.1589 14.1941 14.7589C14.5197 14.3465 15.0856 13.9052 16.0704 13.5297C17.061 13.1687 18.3813 12.9484 20.0966 12.9484C20.9745 12.9484 21.9836 13.1007 23.1379 13.447L23.174 13.4578L23.2106 13.4675C24.4049 13.786 25.5306 14.2016 26.591 14.7122L26.6246 14.7283L26.6588 14.7435C27.7185 15.2145 28.4444 15.6745 28.9164 16.0874L28.9858 16.1482L29.0596 16.2035C30.0184 16.9226 31.1357 17.295 32.3341 17.295C34.0485 17.295 35.5382 16.607 36.7068 15.4097V7.55772C36.7068 7.19343 36.7327 6.83563 36.785 6.48606C36.476 6.14808 36.1343 5.83115 35.7653 5.53564C33.9226 3.96557 31.6176 2.75089 28.9328 1.8373C26.1917 0.844124 23.2387 0.361572 20.0966 0.361572C16.7319 0.361572 13.5955 0.947897 10.7206 2.15836C7.80818 3.38464 5.41485 5.20751 3.61648 7.64059L3.60616 7.65456L3.59602 7.66869C1.78354 10.1952 0.930294 13.1876 0.930294 16.5186C0.930294 18.7036 1.28671 20.7566 2.04164 22.6439L2.0462 22.6553L2.05091 22.6668C2.80659 24.502 3.91545 26.121 5.3583 27.5105L5.39151 27.5424L5.42593 27.5732C6.91264 28.9006 8.69654 29.9727 10.7329 30.8171L10.7567 30.8269L10.7806 30.8363C12.8148 31.6301 15.117 32.2049 17.6647 32.5823L17.6652 32.5824L17.6742 32.5837L17.6832 32.585C20.1049 32.9248 21.9882 33.3992 23.3897 33.9674L23.4162 33.9782L23.4431 33.9883C24.8636 34.5258 25.6836 35.1132 26.1286 35.6324C26.5176 36.0862 26.7429 36.6436 26.7429 37.4495C26.7429 37.8641 26.6122 38.273 26.1665 38.7503C25.6167 39.2927 24.8306 39.8043 23.7258 40.2359C22.6453 40.6148 21.4208 40.8191 20.0297 40.8191C17.8069 40.8191 16.081 40.4948 14.7712 39.9455C13.3712 39.3386 11.8942 38.4229 10.3428 37.1574L10.3338 37.1501L10.3246 37.1427C9.227 36.2646 7.93117 35.8037 6.52153 35.8037C4.74092 35.8037 3.1585 36.4771 1.93299 37.7747L1.93009 37.7777C0.796539 38.9821 0.194702 40.4711 0.194702 42.1306C0.194702 43.1778 0.459552 44.1744 0.921275 45.0979C1.02456 45.3044 1.13689 45.5047 1.25782 45.6988C1.3187 45.5443 1.40459 45.4047 1.51517 45.2822C1.75718 45.014 2.07373 44.8763 2.36952 44.809C2.72507 44.7282 3.10565 44.7362 3.43698 44.7829C3.599 44.1096 3.8608 43.0773 4.13326 42.0181C4.44428 40.809 4.7719 39.5545 4.98764 38.7344C5.04261 38.5254 5.22147 38.3725 5.43644 38.3506L9.22238 37.9657C9.37999 37.9497 9.53627 38.0066 9.64663 38.1203C9.75699 38.2339 9.80931 38.3918 9.78866 38.5489C9.67546 39.4099 9.5203 40.5086 9.33955 41.6777C9.08313 43.3363 8.77411 45.144 8.45923 46.6189C8.302 47.3554 8.14141 48.0179 7.98294 48.5407C7.90381 48.8018 7.82269 49.0365 7.73964 49.232C7.66118 49.4166 7.5639 49.6083 7.43862 49.7504C7.23938 49.9765 7.01489 50.1775 6.77632 50.3362C8.09146 51.0928 9.45083 51.7004 10.8546 52.1517L10.8736 52.1578ZM32.1516 30.503C32.189 31.5483 31.7648 33.0707 30.6978 35.183C30.9551 35.4831 31.2246 35.7481 31.4825 35.9777C31.7033 35.8594 31.9413 35.7808 32.182 35.7356C32.7223 35.6342 33.2991 35.6942 33.8116 35.8575C34.3217 36.02 34.8101 36.2983 35.1528 36.6767C35.9729 37.5819 36.1221 38.8303 35.5187 39.894C35.6752 40.1777 35.7978 40.461 35.8898 40.7466C36.2864 41.9778 36.0829 43.1629 35.7694 44.4332C35.3647 46.0729 34.0314 46.9405 32.799 47.1591C32.1844 47.2681 31.5539 47.2247 31.0375 47.0034C30.5116 46.7781 30.0712 46.3466 29.9834 45.7025C29.9164 45.2113 29.9477 44.7959 30.0746 44.4507C30.2045 44.0973 30.4241 43.8474 30.6781 43.681C31.1404 43.3782 31.6823 43.379 31.8814 43.3794L31.8989 43.3794C32.298 43.3794 32.6757 43.5553 32.9668 43.7891C33.2616 44.0259 33.5141 44.3583 33.64 44.7432C33.7409 45.0517 33.7604 45.3982 33.6484 45.7399C34.1635 45.4121 34.587 44.8979 34.763 44.1849C35.0716 42.9347 35.2041 41.9986 34.9032 41.0644C34.8717 40.9666 34.8351 40.8678 34.7928 40.7678C33.9676 41.4809 32.6973 41.9487 31.0157 41.9986C30.0742 42.0265 29.3554 41.7453 28.9006 41.1663C28.4658 40.6127 28.3508 39.8833 28.378 39.1758C28.4278 37.8806 28.9653 36.3798 29.4774 35.3035C28.7595 34.2876 28.3263 33.1068 28.192 32.0437C28.081 31.1648 28.2228 30.3361 28.6166 29.7078C29.02 29.0643 29.6777 28.6554 30.4968 28.6554C30.9195 28.6554 31.3445 28.7924 31.6645 29.1362C31.9781 29.4733 32.1317 29.9458 32.1516 30.503Z" fill="white"/>
<path d="M46.3414 32.7351C46.468 33.1423 46.9638 33.9446 47.9339 33.896C48.904 33.8475 49.5985 33.9923 49.8245 34.0707C49.805 33.7085 49.4791 32.9817 48.331 32.9718C47.183 32.9619 46.5263 32.8099 46.3414 32.7351Z" fill="white"/>
<path d="M41.4614 36.5589C41.5061 36.2469 41.7863 35.5642 42.5488 35.3282C43.5019 35.0334 43.7245 34.1435 43.7268 33.3763C43.6106 33.6505 43.1544 34.2426 42.259 34.418C41.3637 34.5934 41.3542 35.9183 41.4614 36.5589Z" fill="white"/>
<path d="M45.2303 37.703C45.1146 37.5386 44.9847 37.251 45.3906 37.4157C45.7964 37.5804 46.3494 37.3478 46.5752 37.2109C46.6955 37.0869 46.9365 36.928 46.9371 37.2845C46.938 37.7301 45.9023 38.2179 45.2303 37.703Z" fill="white"/>
<path d="M49.2821 39.9651C48.991 39.4491 48.0664 38.5395 46.697 39.0288C45.3279 39.518 45.1896 40.6736 45.1283 41.1862C45.1151 41.2961 45.1055 41.3764 45.0881 41.4143C45.6852 40.4456 45.8623 40.3393 46.6967 39.8385C46.7328 39.8168 46.7702 39.7944 46.8089 39.7711C47.5583 39.3203 48.77 39.7126 49.2821 39.9651Z" fill="white"/>
<path d="M29.4949 30.2584C29.2574 30.6372 29.1316 31.211 29.2204 31.9138C29.3135 32.6512 29.5811 33.4696 30.0151 34.2221C30.8672 32.4355 31.1414 31.2559 31.1157 30.5401C31.1015 30.1418 30.9967 29.9403 30.9056 29.8423C30.8208 29.7512 30.6944 29.692 30.4969 29.692C30.0604 29.692 29.7228 29.8947 29.4949 30.2584Z" fill="white"/>
<path d="M30.2133 36.1911C29.8067 37.1363 29.4501 38.272 29.4138 39.2156C29.3908 39.8136 29.4998 40.2511 29.7157 40.526C29.9116 40.7753 30.2701 40.9837 30.985 40.9625C32.636 40.9136 33.6825 40.427 34.2591 39.8484C33.8069 39.2338 33.1236 38.5588 32.1105 37.7809C32.0744 37.7532 32.0203 37.7144 31.9515 37.6651L31.9508 37.6646C31.843 37.5874 31.6993 37.4844 31.5314 37.357C31.4153 37.606 31.3517 37.976 31.4318 38.5196C31.4894 38.9102 31.7144 39.122 31.877 39.18C31.9542 39.2076 32.0101 39.2008 32.0489 39.184C32.0859 39.168 32.1571 39.1213 32.2234 38.9763C32.3425 38.716 32.65 38.6016 32.9103 38.7206C33.1706 38.8397 33.2851 39.1472 33.166 39.4075C33.0123 39.7437 32.7717 40.0009 32.46 40.1356C32.1499 40.2695 31.8199 40.2603 31.5286 40.1562C30.954 39.9512 30.5114 39.3834 30.4063 38.6708C30.2875 37.8644 30.397 37.1954 30.7196 36.6846C30.5534 36.5336 30.3827 36.3688 30.2133 36.1911Z" fill="white"/>
<path d="M33.497 36.8451C33.1447 36.7329 32.7724 36.695 32.4453 36.7424C32.4684 36.7591 32.4906 36.7751 32.512 36.7906L32.5373 36.8089C32.6204 36.8688 32.6897 36.9188 32.7418 36.9588C33.6219 37.6345 34.3019 38.2643 34.8128 38.8761C34.9276 38.3474 34.778 37.8068 34.3846 37.3725C34.1929 37.161 33.8778 36.9665 33.497 36.8451Z" fill="white"/>
<path fill-rule="evenodd" clip-rule="evenodd" d="M38.5941 10.9682C38.5941 12.6546 37.9174 14.1292 36.7889 15.3241C36.7617 15.3529 36.7344 15.3814 36.7068 15.4097V27.3024C37.4241 28.1912 38.0116 29.1854 38.4677 30.2769C38.8427 31.1544 39.1227 32.0961 39.3171 33.0941C39.4282 33.9714 39.6502 36.1173 39.6502 37.6825C39.5272 40.7817 38.5798 43.5735 36.752 45.9598C36.737 45.9794 36.7219 45.999 36.7068 46.0186V46.2097C36.7068 47.9592 37.3016 49.5515 38.512 50.8331L38.56 50.884L38.6108 50.932C39.8924 52.1424 41.4848 52.7372 43.2342 52.7372H51.9356C51.2821 51.4513 50.6931 49.2471 51.4402 46.6082C51.8949 45.372 53.1128 42.6318 54.7943 40.1504H51.7312L51.3431 40.1517C50.7625 41.489 49.6722 43.3881 48.6023 43.8428C47.3112 44.3915 45.6698 43.2026 44.9189 42.6586C44.7646 42.5468 44.6479 42.4623 44.5795 42.4257C44.1787 42.2109 43.6846 41.7995 42.7477 40.9425C41.9981 40.257 40.7251 37.5542 40.1823 36.2885L39.3555 32.9208C39.3837 33.0006 39.4342 32.8834 39.4102 31.7765C39.3863 30.6695 40.6346 30.7809 41.2617 30.9749C42.0253 31.2515 43.6785 30.7234 44.8577 30.3467C45.4044 30.1721 45.8492 30.03 46.0562 30.0157C46.4315 29.9899 47.2514 29.6147 47.9916 29.2761L47.9919 29.276C48.5406 29.0249 49.0454 28.7939 49.2928 28.7401C49.7577 28.639 50.2132 29.4233 50.3828 29.8281L51.1101 32.6756H62.6271C64.289 32.6756 65.8516 32.1814 67.1224 31.0601L67.1238 31.0588L67.1292 31.0541C67.6639 30.5787 68.0932 30.0416 68.4165 29.455V23.4534C68.1062 22.8836 67.6961 22.359 67.1829 21.8924C65.9332 20.6693 64.3525 20.0888 62.6271 20.0888H49.9623V13.6171H65.6364C66.6085 13.6171 67.5489 13.4459 68.4165 13.0793V7.49081C68.4165 5.73447 69.0696 4.17317 70.2937 2.92816C70.2603 2.89646 70.2264 2.86502 70.1922 2.83384C68.9425 1.61075 67.3618 1.03027 65.6364 1.03027H43.2342C41.4415 1.03027 39.8333 1.67848 38.5607 2.95104C37.5654 3.94632 36.984 5.15667 36.785 6.48606C37.9042 7.71029 38.5941 9.21056 38.5941 10.9682ZM45.0786 41.4297C45.082 41.4258 45.0851 41.4206 45.0881 41.4143L45.0786 41.4297Z" fill="white"/>
</svg>
