<svg width="105" height="105" viewBox="0 0 105 105" fill="none" xmlns="http://www.w3.org/2000/svg">
<path fill-rule="evenodd" clip-rule="evenodd" d="M71.4959 10.4823C62.4351 6.44508 52.312 5.44492 42.6364 7.631C32.9607 9.81709 24.2509 15.0723 17.806 22.6129C11.3611 30.1534 7.52632 39.5753 6.87364 49.4734C6.22097 59.3714 8.78535 69.2153 14.1843 77.5368C19.5833 85.8584 27.5277 92.2117 36.8325 95.6494C46.1373 99.087 56.3041 99.4248 65.8166 96.6122C75.329 93.7997 83.6775 87.9876 89.6168 80.0427C95.5562 72.0978 98.7683 62.4459 98.7739 52.5263V48.1115C98.7739 47.0069 99.6694 46.1115 100.774 46.1115C101.878 46.1115 102.774 47.0069 102.774 48.1115V52.5286C102.768 63.3107 99.2764 73.802 92.8206 82.4377C86.3647 91.0735 77.2903 97.391 66.9507 100.448C56.6111 103.505 45.5602 103.138 35.4463 99.4015C25.3323 95.6649 16.6972 88.7591 10.8287 79.7139C4.96026 70.6688 2.17288 59.9689 2.88231 49.2102C3.59174 38.4514 7.75996 28.2102 14.7653 20.014C21.7707 11.8177 31.2378 6.10553 41.7549 3.72935C52.2719 1.35317 63.2752 2.44031 73.1239 6.82862C74.1329 7.27818 74.5863 8.46053 74.1368 9.46948C73.6872 10.4784 72.5049 10.9319 71.4959 10.4823Z" fill="white"/>
<path fill-rule="evenodd" clip-rule="evenodd" d="M102.195 12.0926C102.972 12.8773 102.966 14.1437 102.181 14.921L53.7198 62.921C52.9406 63.6927 51.6852 63.6931 50.9057 62.9217L36.3672 48.5361C35.582 47.7591 35.5754 46.4928 36.3523 45.7077C37.1292 44.9225 38.3955 44.9158 39.1806 45.6927L52.3117 58.6857L99.3665 12.079C100.151 11.3017 101.418 11.3078 102.195 12.0926Z" fill="white"/>
<path fill-rule="evenodd" clip-rule="evenodd" d="M104.774 52.5297C104.768 63.7431 101.137 74.6541 94.4224 83.6352C87.7084 92.6164 78.271 99.1866 67.5178 102.366C56.7646 105.545 45.2717 105.164 34.7532 101.278C24.2347 97.3915 15.2541 90.2094 9.15092 80.8025C3.04771 71.3955 0.14884 60.2677 0.886645 49.0786C1.62445 37.8895 5.9594 27.2387 13.245 18.7145C20.5306 10.1904 30.3764 4.24975 41.3141 1.77852C52.2518 -0.692706 63.6953 0.437916 73.9379 5.00176C75.9558 5.90088 76.8628 8.26559 75.9636 10.2835C75.0645 12.3014 72.6998 13.2083 70.6819 12.3092L71.4959 10.4823C72.5049 10.9319 73.6872 10.4784 74.1368 9.46948C74.5863 8.46053 74.1329 7.27818 73.1239 6.82862C63.2752 2.44031 52.2719 1.35317 41.7549 3.72935C31.2378 6.10553 21.7707 11.8177 14.7653 20.014C7.75996 28.2102 3.59174 38.4514 2.88231 49.2102C2.17288 59.9689 4.96026 70.6688 10.8287 79.7139C16.6972 88.7591 25.3323 95.6649 35.4463 99.4015C45.5602 103.138 56.6111 103.505 66.9507 100.448C77.2903 97.391 86.3647 91.0735 92.8206 82.4377C99.2764 73.802 102.768 63.3107 102.774 52.5286V48.1115C102.774 47.0069 101.878 46.1115 100.774 46.1115C99.6694 46.1115 98.7739 47.0069 98.7739 48.1115V52.5263C98.7683 62.4459 95.5562 72.0978 89.6168 80.0427C83.6775 87.9876 75.329 93.7997 65.8166 96.6122C56.3041 99.4248 46.1373 99.087 36.8325 95.6494C27.5277 92.2117 19.5833 85.8584 14.1843 77.5368C8.78535 69.2153 6.22097 59.3714 6.87364 49.4734C7.52632 39.5753 11.3611 30.1534 17.806 22.6129C24.2509 15.0723 32.9607 9.81709 42.6364 7.631C52.312 5.44492 62.4351 6.44508 71.4959 10.4823L70.6819 12.3092C62.0151 8.44747 52.3321 7.49079 43.0772 9.58183C33.8222 11.6729 25.4911 16.6996 19.3264 23.9123C13.1616 31.125 9.49361 40.1373 8.86931 49.605C8.24501 59.0727 10.6979 68.4885 15.8622 76.4483C21.0264 84.408 28.6253 90.4851 37.5256 93.7733C46.4259 97.0615 56.1506 97.3846 65.2495 94.6943C74.3484 92.0041 82.3338 86.4446 88.015 78.8452C93.6961 71.2457 96.7685 62.0134 96.7739 52.5252V48.1115C96.7739 45.9023 98.5648 44.1115 100.774 44.1115C102.983 44.1115 104.774 45.9023 104.774 48.1115V52.5297ZM103.616 10.6851C105.17 12.2547 105.158 14.7873 103.589 16.3419L55.1273 64.3419C53.5689 65.8855 51.0581 65.8861 49.4989 64.3433L34.9605 49.9577C33.3902 48.4039 33.3768 45.8713 34.9306 44.3009C36.4844 42.7306 39.017 42.7172 40.5874 44.271L52.311 55.8714L97.9591 10.6581C99.5286 9.10347 102.061 9.11559 103.616 10.6851ZM52.3117 58.6857L99.3665 12.079C100.151 11.3017 101.418 11.3078 102.195 12.0926C102.972 12.8773 102.966 14.1437 102.181 14.921L53.7198 62.921C52.9406 63.6927 51.6852 63.6931 50.9057 62.9217L36.3672 48.5361C35.582 47.7591 35.5754 46.4928 36.3523 45.7077C37.1292 44.9225 38.3955 44.9158 39.1806 45.6927L52.3117 58.6857Z" fill="white"/>
</svg>
